<svg width="82" height="82" viewBox="0 0 82 82" fill="none" xmlns="http://www.w3.org/2000/svg">
<path d="M40 40H0V0H32.5581L36.2791 4L40 8V40Z" fill="#8A35F2"/>
<path d="M23.7512 39.3191C23.7514 39.3191 23.7513 39.3175 23.7502 39.3146C23.7505 39.3177 23.751 39.3191 23.7512 39.3191ZM23.7001 39.3655C23.7304 39.3395 23.7432 39.3206 23.7483 39.3103C23.7432 39.3 23.7304 39.281 23.7001 39.2551C23.6336 39.1983 23.5077 39.1375 23.3333 39.1375C23.1589 39.1375 23.033 39.1983 22.9665 39.2551C22.9362 39.281 22.9234 39.3 22.9183 39.3103C22.9234 39.3206 22.9362 39.3395 22.9665 39.3655C23.033 39.4222 23.1589 39.483 23.3333 39.483C23.5077 39.483 23.6336 39.4222 23.7001 39.3655ZM22.9154 39.3191C22.9156 39.3191 22.9161 39.3177 22.9164 39.3146C22.9153 39.3175 22.9152 39.3191 22.9154 39.3191ZM22.9154 39.3014C22.9152 39.3015 22.9153 39.303 22.9164 39.3059C22.9161 39.3028 22.9156 39.3014 22.9154 39.3014ZM23.7502 39.3059C23.7513 39.303 23.7514 39.3015 23.7512 39.3014C23.751 39.3014 23.7505 39.3028 23.7502 39.3059Z" fill="white" stroke="white" stroke-width="2.5"/>
<path d="M23.7512 48.2826C23.7514 48.2826 23.7513 48.281 23.7502 48.2781C23.7505 48.2812 23.751 48.2826 23.7512 48.2826ZM23.7001 48.329C23.7304 48.303 23.7432 48.2841 23.7483 48.2738C23.7432 48.2635 23.7304 48.2445 23.7001 48.2186C23.6336 48.1618 23.5077 48.101 23.3333 48.101C23.1589 48.101 23.033 48.1618 22.9665 48.2186C22.9362 48.2445 22.9234 48.2635 22.9183 48.2738C22.9234 48.2841 22.9362 48.303 22.9665 48.329C23.033 48.3857 23.1589 48.4465 23.3333 48.4465C23.5077 48.4465 23.6336 48.3857 23.7001 48.329ZM22.9154 48.2826C22.9156 48.2826 22.9161 48.2812 22.9164 48.2781C22.9153 48.281 22.9152 48.2826 22.9154 48.2826ZM22.9154 48.2649C22.9152 48.265 22.9153 48.2665 22.9164 48.2694C22.9161 48.2663 22.9156 48.2649 22.9154 48.2649ZM23.7502 48.2694C23.7513 48.2665 23.7514 48.265 23.7512 48.2649C23.751 48.2649 23.7505 48.2663 23.7502 48.2694Z" fill="white" stroke="white" stroke-width="2.5"/>
<path d="M23.7511 39.3192C23.7513 39.3192 23.7512 39.3177 23.7501 39.3148C23.7504 39.3178 23.7509 39.3193 23.7511 39.3192ZM23.7 39.3656C23.7304 39.3397 23.7431 39.3207 23.7482 39.3104C23.7431 39.3001 23.7304 39.2811 23.7 39.2552C23.6335 39.1984 23.5076 39.1376 23.3332 39.1376C23.1589 39.1376 23.033 39.1984 22.9665 39.2552C22.9361 39.2811 22.9233 39.3001 22.9183 39.3104C22.9233 39.3207 22.9361 39.3397 22.9665 39.3656C23.033 39.4223 23.1589 39.4832 23.3332 39.4832C23.5076 39.4832 23.6335 39.4223 23.7 39.3656ZM22.9153 39.3192C22.9155 39.3193 22.9161 39.3178 22.9164 39.3148C22.9153 39.3177 22.9151 39.3192 22.9153 39.3192ZM22.9153 39.3015C22.9151 39.3016 22.9153 39.3031 22.9164 39.306C22.9161 39.303 22.9155 39.3015 22.9153 39.3015ZM23.7501 39.306C23.7512 39.3031 23.7513 39.3016 23.7511 39.3015C23.7509 39.3015 23.7504 39.303 23.7501 39.306Z" fill="white" stroke="white" stroke-width="2.5"/>
<path d="M23.7511 48.2826C23.7513 48.2826 23.7512 48.281 23.7501 48.2781C23.7504 48.2812 23.7509 48.2826 23.7511 48.2826ZM23.7 48.329C23.7304 48.303 23.7431 48.2841 23.7482 48.2738C23.7431 48.2635 23.7304 48.2445 23.7 48.2186C23.6335 48.1618 23.5076 48.101 23.3332 48.101C23.1589 48.101 23.033 48.1618 22.9665 48.2186C22.9361 48.2445 22.9233 48.2635 22.9183 48.2738C22.9233 48.2841 22.9361 48.303 22.9665 48.329C23.033 48.3857 23.1589 48.4465 23.3332 48.4465C23.5076 48.4465 23.6335 48.3857 23.7 48.329ZM22.9153 48.2826C22.9155 48.2826 22.9161 48.2812 22.9164 48.2781C22.9153 48.281 22.9151 48.2826 22.9153 48.2826ZM22.9153 48.2649C22.9151 48.265 22.9153 48.2665 22.9164 48.2694C22.9161 48.2663 22.9155 48.2649 22.9153 48.2649ZM23.7501 48.2694C23.7512 48.2665 23.7513 48.265 23.7511 48.2649C23.7509 48.2649 23.7504 48.2663 23.7501 48.2694Z" fill="white" stroke="white" stroke-width="2.5"/>
<path d="M66.6667 15.6926V62.9283" stroke="white" stroke-width="2.5" stroke-miterlimit="10" stroke-linecap="round" stroke-linejoin="round"/>
<path d="M60 10.0014H16.6666C12.9849 10.0014 9.99988 12.5496 9.99988 15.6925C9.99988 18.8354 12.9849 21.3835 16.6666 21.3835H60C56.3183 21.3835 53.3333 18.8354 53.3333 15.6925C53.3333 12.5496 56.3183 10.0014 60 10.0014ZM60 10.0014C61.84 10.0014 63.5067 10.6388 64.7134 11.6689C65.92 12.699 66.6667 14.1218 66.6667 15.6925" stroke="white" stroke-width="2.5" stroke-miterlimit="10" stroke-linecap="round" stroke-linejoin="round"/>
<path d="M73.3334 74.3104C69.6517 74.3104 66.6667 71.7623 66.6667 68.6194V62.9283H73.3334C77.0151 62.9283 80.0001 65.4765 80.0001 68.6194C80.0001 70.1901 79.2534 71.6129 78.0467 72.6429C76.8401 73.673 75.1734 74.3104 73.3334 74.3104Z" stroke="white" stroke-width="2.5" stroke-miterlimit="10" stroke-linecap="round" stroke-linejoin="round"/>
<path d="M16.6666 21.3836V68.6194C16.6666 71.7623 19.6516 74.3104 23.3332 74.3104H36.6666" stroke="white" stroke-width="2.5" stroke-miterlimit="10" stroke-linecap="round" stroke-linejoin="round"/>
<path d="M46.6667 74.3104H73.3334" stroke="white" stroke-width="2.5" stroke-miterlimit="10" stroke-linecap="round" stroke-linejoin="round"/>
<path d="M36.6666 67.1966V80.0015L41.6666 77.1559L46.6667 80.0015V67.1966" stroke="white" stroke-width="2.5" stroke-miterlimit="10" stroke-linecap="round" stroke-linejoin="round"/>
<path d="M36.6666 67.1952C34.6416 65.8976 33.3333 63.8316 33.3333 61.5056C33.3333 57.5772 37.065 54.3917 41.6667 54.3917C46.2683 54.3917 50 57.5772 50 61.5056C50 63.8316 48.6917 65.8976 46.6667 67.1952C45.226 68.1218 43.4705 68.6218 41.6667 68.6194C39.7916 68.6194 38.06 68.0901 36.6666 67.1952Z" stroke="white" stroke-width="2.5" stroke-miterlimit="10" stroke-linecap="round" stroke-linejoin="round"/>
<path d="M29.9999 30.3469H53.3333" stroke="white" stroke-width="2.5" stroke-miterlimit="10" stroke-linecap="round" stroke-linejoin="round"/>
<path d="M29.9999 39.3104H60" stroke="white" stroke-width="2.5" stroke-miterlimit="10" stroke-linecap="round" stroke-linejoin="round"/>
<path d="M29.9999 48.2738H60" stroke="white" stroke-width="2.5" stroke-miterlimit="10" stroke-linecap="round" stroke-linejoin="round"/>
<path d="M23.3332 60.0828H26.6665" stroke="white" stroke-width="2.5" stroke-miterlimit="10" stroke-linecap="round" stroke-linejoin="round"/>
<path d="M56.6667 60.0828H60" stroke="white" stroke-width="2.5" stroke-miterlimit="10" stroke-linecap="round" stroke-linejoin="round"/>
</svg>
