<svg width="92" height="92" viewBox="0 0 92 92" fill="none" xmlns="http://www.w3.org/2000/svg">
<path d="M50 50H0V0H40.6977L45.3488 5L50 10V50Z" fill="#8A35F2"/>
<path d="M72.439 54.7169V86.099C72.439 88.2543 70.6919 90.0015 68.5366 90.0015H13.9024C11.7472 90.0015 10 88.2543 10 86.099V13.9039C10 11.7486 11.7472 10.0015 13.9024 10.0015H68.5366C70.6919 10.0015 72.439 11.7486 72.439 13.9039V41.9107" stroke="white" stroke-width="2.5" stroke-miterlimit="10" stroke-linecap="round" stroke-linejoin="round"/>
<path d="M32.4526 21.7087H49.9864C51.8947 21.7087 53.4417 20.1617 53.4417 18.2535V10.0014H28.9973V18.2535C28.9973 20.1617 30.5443 21.7087 32.4526 21.7087Z" stroke="white" stroke-width="2.5" stroke-miterlimit="10" stroke-linecap="round" stroke-linejoin="round"/>
<path d="M34.7154 83.4973H16.504V16.5054H28.4824" stroke="white" stroke-width="2.5" stroke-miterlimit="10" stroke-linecap="round" stroke-linejoin="round"/>
<path d="M65.9349 58.9445V83.4973H47.7235" stroke="white" stroke-width="2.5" stroke-miterlimit="10" stroke-linecap="round" stroke-linejoin="round"/>
<path d="M53.9565 16.5055H65.9349V48.177" stroke="white" stroke-width="2.5" stroke-miterlimit="10" stroke-linecap="round" stroke-linejoin="round"/>
<path d="M82.6803 43.833L69.6888 56.8245L58.7263 61.7053L63.607 50.7429L82.6587 31.691C84.3382 30.0117 87.0611 30.0117 88.7405 31.691C90.4198 33.3704 90.4198 36.0935 88.7405 37.7728L82.6803 43.833Z" stroke="white" stroke-width="2.5" stroke-miterlimit="10" stroke-linecap="round" stroke-linejoin="round"/>
<path d="M69.3323 56.468L63.7518 50.8875" stroke="white" stroke-width="2.5" stroke-miterlimit="10" stroke-linecap="round" stroke-linejoin="round"/>
<path d="M86.6499 39.8633L80.5681 33.7815" stroke="white" stroke-width="2.5" stroke-miterlimit="10" stroke-linecap="round" stroke-linejoin="round"/>
<path d="M34.7155 39.9203H24.309V29.5138H34.7155V39.9203ZM34.7155 57.8065H24.309V47.3999H34.7155V57.8065ZM34.7155 75.6926H24.309V65.2861H34.7155V75.6926Z" stroke="white" stroke-width="2.5" stroke-miterlimit="10" stroke-linecap="round" stroke-linejoin="round"/>
<path d="M43.8867 34.7698L47.5041 38.3872L54.8448 31.0464" stroke="white" stroke-width="2.5" stroke-miterlimit="10" stroke-linecap="round" stroke-linejoin="round"/>
<path d="M43.8867 52.656L47.5041 56.2734L54.8448 48.9326" stroke="white" stroke-width="2.5" stroke-miterlimit="10" stroke-linecap="round" stroke-linejoin="round"/>
<path d="M45.6953 74.1597L53.0361 66.8189" stroke="white" stroke-width="2.5" stroke-miterlimit="10" stroke-linecap="round" stroke-linejoin="round"/>
<path d="M45.6953 66.8189L53.0361 74.1597" stroke="white" stroke-width="2.5" stroke-miterlimit="10" stroke-linecap="round" stroke-linejoin="round"/>
</svg>
