<svg width="73" height="60" viewBox="0 0 73 60" fill="none" xmlns="http://www.w3.org/2000/svg">
<path d="M33.5263 52.0612C33.5263 52.0612 41.1201 55.3641 42.5171 54.0358C44.0215 52.5997 38.9351 45.886 37.2874 45.886C34.8516 45.886 33.2755 51.0918 33.5263 52.0612Z" fill="url(#paint0_linear_59_2589)"/>
<path opacity="0.3" d="M38.5411 46.7117C38.5411 46.7117 36.2128 48.5786 36.4993 50.266C36.7859 51.9175 40.7261 54.323 40.7261 54.323C40.7261 54.323 37.2874 53.6408 34.2068 52.4202L38.1471 46.5681L38.5411 46.7117Z" fill="url(#paint1_linear_59_2589)"/>
<path d="M35.6396 24.0214C35.6396 24.0214 41.6216 21.3647 46.4931 16.3025C46.4931 16.3025 48.0692 17.9899 46.8155 21.7955C46.8155 21.7955 37.5739 31.7045 32.3442 32.3507C27.1145 32.997 29.0846 25.7447 29.0846 25.7447C29.0846 25.7447 33.4546 25.5293 35.6396 24.0214Z" fill="url(#paint2_linear_59_2589)"/>
<path d="M25.2518 0.900635C25.2518 0.900635 28.7621 1.79819 31.5561 5.78332C34.3501 9.76846 25.8965 6.78858 25.8965 6.78858L25.2518 0.900635Z" fill="url(#paint3_linear_59_2589)"/>
<path d="M29.407 4.56264C29.407 4.56264 25.2877 0.0748717 23.031 0.00306746C20.7744 -0.104639 18.5535 2.65982 18.5535 2.65982L29.407 4.56264Z" fill="url(#paint4_linear_59_2589)"/>
<path d="M12.5715 31.6687C19.6639 35.0435 37.8963 24.8473 39.1858 20.1442C39.6873 18.2772 39.544 16.3026 38.8993 14.3998C36.0695 6.25003 23.9623 -0.858588 14.1476 3.84459C7.48507 7.03988 5.47914 15.441 6.76867 22.2983C7.52089 26.5706 9.59845 30.2326 12.5715 31.6687Z" fill="url(#paint5_linear_59_2589)"/>
<path d="M17.7296 32.2072C20.5236 31.8123 24.3563 30.6634 26.7563 29.5504C31.198 27.5399 34.1711 25.5653 35.6397 24.0215C36.6068 23.0163 36.9292 22.1905 36.571 21.652C36.3561 21.3289 35.3531 21.4007 33.8487 21.7956C29.4786 22.9086 21.0251 26.4629 16.8341 29.2273C16.4759 29.4786 16.1536 29.6941 15.867 29.9095C15.7954 29.9454 15.7595 30.0172 15.6879 30.0531C15.6879 30.0531 15.6521 30.0531 15.6521 30.089C14.9715 30.6275 14.5058 31.1301 14.3984 31.5251C14.3625 31.6328 14.3625 31.7046 14.3625 31.8123C14.4342 32.4226 15.8312 32.4944 17.7296 32.2072Z" fill="url(#paint6_linear_59_2589)"/>
<path opacity="0.3" d="M12.5715 31.6688C19.6639 35.0436 37.8963 24.8474 39.1858 20.1442C39.6873 18.2773 39.544 16.3027 38.8993 14.3999C38.8993 14.3999 38.756 17.4516 35.1382 19.6775C31.5203 21.9034 20.0221 26.4271 16.9774 25.7809C13.8969 25.1346 11.282 17.0208 11.282 17.0208L6.76868 22.2984C7.5209 26.5707 9.59846 30.2327 12.5715 31.6688Z" fill="url(#paint7_linear_59_2589)"/>
<path opacity="0.5" d="M17.7296 32.2072C19.2699 30.4839 23.8907 25.7807 28.8339 24.7396C34.8875 23.483 35.6397 24.0215 35.6397 24.0215C36.6068 23.0163 36.9292 22.1905 36.571 21.652C36.3561 21.3289 35.3531 21.4007 33.8487 21.7956C29.4786 22.9086 21.0251 26.4629 16.8341 29.2273C16.4043 29.5145 16.0103 29.8018 15.6879 30.0531C15.6879 30.0531 15.6521 30.0531 15.6521 30.089C14.9715 30.6275 14.5058 31.1301 14.3984 31.5251C14.3625 31.6328 14.3625 31.7046 14.3625 31.8123C14.4342 32.4226 15.8312 32.4944 17.7296 32.2072Z" fill="url(#paint8_linear_59_2589)"/>
<path d="M15.8312 29.8736C17.3356 30.4122 22.7803 28.9761 25.6459 27.6836C30.804 25.35 33.5621 23.0881 33.8487 21.7957C29.1204 22.9804 19.5206 27.1092 15.8312 29.8736Z" fill="url(#paint9_linear_59_2589)"/>
<path d="M39.0784 14.7589C39.3291 17.4874 23.3892 25.7808 17.3356 23.5549C11.282 21.329 9.02535 5.81924 18.2311 3.16249C27.007 0.577535 38.6127 9.80438 39.0784 14.7589Z" fill="#DFE3FB"/>
<path d="M38.8634 14.3997C39.1142 17.1283 23.1742 25.4217 17.1207 23.1957C11.1029 21.0057 8.8104 5.496 18.0162 2.80335C26.7921 0.254295 38.3978 9.48114 38.8634 14.3997Z" fill="url(#paint10_linear_59_2589)"/>
<path d="M9.99243 8.72716C9.99243 8.72716 14.0401 16.6615 10.0641 21.5083C10.0641 21.5083 7.66413 22.729 5.62238 21.7596C5.62238 21.7596 8.70291 23.0162 10.2432 19.8927C11.7834 16.7692 8.88201 10.8813 6.33879 9.55291C3.79556 8.22453 1.32397 9.80422 1.32397 9.80422L2.00456 8.47584C2.04038 8.43994 5.58656 6.21401 9.99243 8.72716Z" fill="url(#paint11_linear_59_2589)"/>
<path d="M2.04041 8.44016C2.04041 8.44016 4.76273 7.11178 7.98654 9.62493C11.4253 12.3176 12.1775 18.9595 9.99246 20.8264C7.77162 22.7651 1.46729 13.9691 1.46729 13.9691V9.51722C1.50311 9.51722 1.57475 8.83508 2.04041 8.44016Z" fill="url(#paint12_linear_59_2589)"/>
<path d="M1.53894 18.1695C2.61354 19.9287 3.9747 21.1853 5.37169 21.7597L5.76571 21.9033C6.84031 22.2623 7.95073 22.1905 8.9537 21.652C12.2491 19.8928 10.7805 14.7229 9.3119 12.0302C7.59253 8.94264 4.04634 8.04508 1.93296 9.15805C-0.574445 10.5582 -0.574445 14.7588 1.53894 18.1695Z" fill="url(#paint13_linear_59_2589)"/>
<path opacity="0.5" d="M30.2666 5.96271C30.1233 6.68076 26.3264 6.24993 22.9951 7.97323C19.6639 9.66063 17.1565 14.5433 14.1476 15.2255C11.7476 15.764 11.6043 6.46534 17.0848 3.52137C22.5653 0.541493 30.4457 5.24467 30.2666 5.96271Z" fill="url(#paint14_linear_59_2589)"/>
<path opacity="0.5" d="M35.5322 16.554C35.5322 16.554 31.5562 16.9848 27.2578 19.2107C22.9952 21.4366 22.4579 22.1906 22.7086 22.5855C22.9594 22.9804 26.5414 22.5855 30.4458 20.575C34.386 18.5286 35.5322 16.554 35.5322 16.554Z" fill="url(#paint15_linear_59_2589)"/>
<path opacity="0.5" d="M38.4694 13.7894C38.4694 13.7894 37.7172 10.4505 33.1681 7.11161C33.1681 7.11161 32.2726 6.64488 32.0935 7.00391C31.9144 7.36293 35.9979 9.51705 38.4694 13.7894Z" fill="url(#paint16_linear_59_2589)"/>
<path opacity="0.72" d="M10.279 16.2668C10.279 16.2668 11.0671 19.4621 9.09696 21.0059C7.09103 22.5138 4.65527 21.5804 3.18665 19.498C3.18665 19.498 4.65527 21.2213 7.37759 19.6057C10.0999 17.9901 10.279 16.2668 10.279 16.2668Z" fill="url(#paint17_linear_59_2589)"/>
<path opacity="0.72" d="M7.66414 10.6302C7.84324 11.2046 3.25827 11.5995 2.04039 12.2816C0.786686 12.9638 0.858326 14.7948 0.607586 14.8307C0.392665 14.8666 -0.502837 10.8815 1.86129 9.66079C4.18959 8.44012 7.52086 10.2352 7.66414 10.6302Z" fill="url(#paint18_linear_59_2589)"/>
<path d="M30.9114 12.4253C30.9114 12.4253 26.7562 14.723 24.213 15.0102C24.213 15.0102 26.7921 18.4928 29.4427 17.4516C32.1292 16.4463 30.9114 12.4253 30.9114 12.4253Z" fill="#2F95CD"/>
<path d="M20.4161 44.2346C21.1684 50.0866 24.2131 52.8511 30.0876 53.2819C35.8546 53.7127 39.9381 47.7889 38.7202 40.2854C37.968 35.5104 36.9292 31.2021 34.7083 28.4018C33.4546 26.8221 31.8069 25.7091 29.5861 25.2424C27.8309 24.8833 26.2906 25.7091 25.0011 27.217C21.5982 31.1303 19.843 39.7109 20.4161 44.2346Z" fill="url(#paint19_linear_59_2589)"/>
<path opacity="0.3" d="M29.1205 31.5611C29.1205 31.5611 25.5743 37.5208 25.5385 40.5366C25.4668 50.7328 30.0876 53.2818 30.0876 53.2818C30.0876 53.2818 25.9683 52.9587 24.2489 51.4508C22.3863 49.7993 19.9505 46.7836 20.3804 40.5007C20.7027 35.5462 23.1385 30.1968 23.1385 30.1968L29.1205 31.5611Z" fill="url(#paint20_linear_59_2589)"/>
<path d="M38.8993 40.3571C38.8993 40.3571 38.2903 35.9411 35.174 35.6539C31.4487 35.3308 28.4398 40.5725 28.3323 44.3422C28.2249 48.1119 28.7622 51.6662 32.2725 52.0971C32.3084 52.0971 38.8993 52.492 38.8993 40.3571Z" fill="url(#paint21_linear_59_2589)"/>
<path d="M38.8277 40.8956C38.8277 40.8956 38.2187 36.4797 35.1024 36.1925C31.3771 35.8694 28.3682 41.1111 28.2607 44.8808C28.1533 48.6146 28.6906 52.2048 32.2009 52.6356C32.2009 52.6356 38.8277 53.0306 38.8277 40.8956Z" fill="url(#paint22_radial_59_2589)"/>
<path opacity="0.5" d="M25.0727 27.1452C25.0727 27.1452 30.9114 29.9815 33.2755 29.9097C35.568 29.8738 34.8158 28.4377 34.7799 28.33C33.5262 26.7503 31.8785 25.6373 29.6577 25.1706C27.9383 24.8116 26.3622 25.6373 25.0727 27.1452Z" fill="url(#paint23_linear_59_2589)"/>
<path opacity="0.72" d="M38.4695 40.4647C37.8963 41.6136 36.2844 39.9262 34.0636 40.0698C31.8427 40.2134 30.5532 41.6495 29.9443 41.1828C29.3712 40.7161 31.6995 36.5155 35.0665 36.6591C37.7889 36.7309 38.6486 40.0698 38.4695 40.4647Z" fill="url(#paint24_linear_59_2589)"/>
<path opacity="0.72" d="M35.0665 51.0559C35.0665 51.0559 34.0277 52.2048 32.5233 52.133C31.0188 52.0612 30.589 51.0559 30.589 51.0559C30.589 51.0559 31.3054 50.7328 32.3442 51.0918C33.383 51.4508 34.3501 51.379 35.0665 51.0559Z" fill="url(#paint25_linear_59_2589)"/>
<path d="M28.6547 31.0585C29.0129 31.0944 29.2995 34.5769 29.0129 34.6846C28.7264 34.7564 28.404 34.0025 28.2249 32.8536C28.0458 31.7047 28.2965 31.0226 28.6547 31.0585Z" fill="white"/>
<path d="M26.2548 32.7818C25.8608 34.6846 24.822 36.8028 23.9265 37.7003C23.6041 38.0235 23.3176 38.1671 23.0668 38.1312C22.0997 37.9876 21.5266 35.2949 22.8161 31.9919C23.8907 29.2633 25.3593 28.2222 25.8966 28.4017C26.1474 28.4735 26.3981 28.8684 26.5056 29.6942C26.5772 30.3763 26.5414 31.3816 26.2548 32.7818Z" fill="url(#paint26_linear_59_2589)"/>
<path d="M26.2549 32.7817C25.8608 34.6845 24.8221 36.8027 23.9266 37.7003C23.9266 37.7003 22.6729 31.3815 26.5056 29.6941C26.5772 30.3762 26.5414 31.3815 26.2549 32.7817Z" fill="#6340A2"/>
<path opacity="0.5" d="M24.6429 37.0182C24.6429 37.0182 29.407 39.0646 33.5263 38.1312C37.6456 37.1977 37.5381 34.3974 37.5381 34.3974L37.2515 33.3921L24.6429 37.0182Z" fill="url(#paint27_linear_59_2589)"/>
<path d="M27.2219 48.794C27.2219 48.794 25.9682 59.1697 23.3175 59.9596C23.2459 59.9955 23.1743 59.9955 23.1026 59.9955C20.9892 60.2468 18.5893 49.8711 18.9117 46.2449C19.0191 45.3115 19.3773 44.7012 19.9146 44.3421C21.8131 43.0497 25.7891 44.9525 27.2219 48.794Z" fill="url(#paint28_linear_59_2589)"/>
<path d="M45.7409 27.7555C34.9591 36.8387 24.6429 37.0182 24.6429 37.0182C23.4608 34.7564 23.9981 29.4429 25.1802 28.6889C25.2518 28.653 25.2876 28.6171 25.3593 28.6171C32.0576 27.0733 38.6843 25.0269 42.2305 23.8421H42.2664C43.5559 23.4113 44.4156 23.1241 44.7021 23.0164L44.7738 22.9805C44.7738 22.9805 44.7738 22.9805 44.8096 23.0164C44.9887 23.0882 45.132 23.16 45.2394 23.3036C46.2782 24.3807 45.7767 27.54 45.7409 27.7555Z" fill="url(#paint29_linear_59_2589)"/>
<path d="M44.7738 22.9805C44.7738 22.9805 42.553 24.7397 42.4097 26.8938C42.2664 29.0479 44.8096 28.6171 45.7051 27.7555C45.741 27.7555 47.1021 23.6985 44.7738 22.9805Z" fill="url(#paint30_linear_59_2589)"/>
<path d="M73 18.1694C73 18.1694 72.8567 18.4566 72.6418 18.8875C71.209 21.5083 68.415 24.2369 68.3075 24.3446C59.4242 28.0784 49.6453 29.9094 49.6453 29.9094C45.0603 21.5801 42.9111 11.3121 42.8036 10.7736V10.7377C55.2332 3.70087 66.7673 1.33133 67.1255 1.25952C67.1255 1.25952 67.1255 1.25952 67.1613 1.29542C67.6628 2.08527 68.1284 3.05463 68.5941 4.09579V4.13169C69.8836 7.11157 71.0299 10.7736 71.8537 13.6099C72.4985 16.0512 72.9283 17.8463 73 18.1694Z" fill="url(#paint31_linear_59_2589)"/>
<path d="M73 18.1697C73 18.1697 72.8567 18.4569 72.6418 18.8877C71.9612 20.2161 70.3493 23.0523 68.3076 24.3448C68.3076 24.3448 65.5852 12.6766 62.6122 4.99357L67.1255 1.29565C67.1255 1.29565 67.1255 1.29565 67.1613 1.33156C67.3046 1.54697 67.8419 2.55223 68.5941 4.13192V4.16782C69.5971 6.25015 70.8866 9.37363 71.8896 12.9279C72.3194 14.5794 72.7134 16.3386 73 18.1697Z" fill="url(#paint32_linear_59_2589)"/>
<path d="M42.8036 10.7738C42.8036 10.7738 54.5526 6.21424 62.6122 4.99357L67.1255 1.29565C67.1255 1.29565 50.3975 4.49094 42.8036 10.7738Z" fill="url(#paint33_linear_59_2589)"/>
<path d="M29.9801 9.91206C29.3712 9.87615 29.1204 6.96808 30.195 6.42955C31.2696 5.89102 33.5263 7.3271 33.5979 8.36826C33.6338 8.83499 32.4159 8.72729 31.8786 9.0145C31.2338 9.33762 30.5532 9.91206 29.9801 9.91206Z" fill="url(#paint34_linear_59_2589)"/>
<path opacity="0.5" d="M63.6151 22.9805L64.4032 23.3754L67.3046 20.3956L69.9553 19.0313L68.6299 18.2414L59.7107 12.4253L57.0242 14.6153L63.6151 22.9805Z" fill="url(#paint35_linear_59_2589)"/>
<path d="M22.2071 12.6764C22.7444 11.743 17.4431 9.76835 15.5088 11.4557C13.5745 13.1431 14.5416 15.5127 15.4013 16.0512C15.9028 16.3743 17.1565 14.8665 18.9117 14.1484C20.5236 13.4663 21.9206 13.215 22.2071 12.6764Z" fill="url(#paint36_linear_59_2589)"/>
<path d="M59.3168 27.5042C59.3168 27.5042 52.6184 18.4568 51.1498 7.86572C51.1498 7.86572 53.7646 6.07062 58.2422 3.55747L59.066 3.30615L53.0124 7.29129C53.0124 7.29129 54.2661 16.554 60.1048 27.3965L59.3168 27.5042Z" fill="url(#paint37_radial_59_2589)"/>
<path opacity="0.3" d="M27.2219 48.794C27.2219 48.794 25.9682 59.1697 23.3175 59.9596C25.5742 57.949 26.9712 49.907 23.3175 45.3115C22.2787 44.019 20.5952 44.2344 19.9504 44.3421C21.8131 43.0497 25.7891 44.9525 27.2219 48.794Z" fill="url(#paint38_linear_59_2589)"/>
<path opacity="0.5" d="M68.3075 24.3447C59.4242 28.0785 49.6453 29.9095 49.6453 29.9095C45.0603 21.5802 42.9111 11.3122 42.8036 10.7737C42.9469 11.2404 45.0245 18.5285 47.2095 19.4979C49.4662 20.5032 53.8362 19.9646 53.8362 19.9646C53.8362 19.9646 57.275 22.5496 61.7883 23.5907C66.3016 24.596 68.3075 24.3447 68.3075 24.3447Z" fill="url(#paint39_linear_59_2589)"/>
<path opacity="0.3" d="M45.7409 27.7555C34.9591 36.8387 24.6429 37.0182 24.6429 37.0182C23.4608 34.7564 23.9981 29.4429 25.1802 28.6889L25.3593 28.6171C25.2518 28.7607 22.9951 32.315 25.1444 34.4691C27.3294 36.6951 38.756 31.6688 40.7261 28.1504C42.6962 24.632 42.0514 23.9139 42.0514 23.9139L42.2305 23.8421H42.2664L44.7021 23.0164L44.7738 22.9805C44.7738 22.9805 44.7738 22.9805 44.8096 23.0164C44.8812 23.0523 45.0603 23.16 45.2394 23.3036C45.9558 23.8421 46.9588 25.1705 45.7409 27.7555Z" fill="url(#paint40_linear_59_2589)"/>
<path d="M43.4484 25.8885C43.1619 28.1144 46.8155 28.9401 49.3946 27.4682C51.9736 25.9962 53.0482 24.0934 53.6572 22.6932C54.2303 21.293 53.4422 19.1389 52.9049 18.8157C52.3676 18.4926 47.1379 20.5031 46.2424 20.934C43.4484 22.3342 43.6275 24.5601 43.4484 25.8885Z" fill="url(#paint41_linear_59_2589)"/>
<path d="M43.6992 23.9499C43.6992 23.9499 50.3617 22.3702 53.0124 18.9236C53.0124 18.9236 52.9049 18.4568 51.7587 18.78L45.9558 20.8982C45.9558 20.9341 43.8066 22.5138 43.6992 23.9499Z" fill="url(#paint42_linear_59_2589)"/>
<path d="M43.95 23.5549C43.95 23.5549 44.0216 21.9034 44.5589 20.7904C45.8842 18.0977 48.0334 17.2002 48.0334 17.2002C48.0334 17.2002 48.6782 17.8105 48.8215 18.6004C48.9648 19.3902 47.2096 22.3701 47.2096 22.3701C47.2096 22.3701 45.5619 23.5908 43.95 23.5549Z" fill="url(#paint43_linear_59_2589)"/>
<path opacity="0.5" d="M48.3558 20.1443L50.8274 20.9341C50.8274 20.9341 49.0364 22.0471 47.2095 22.3702L48.3558 20.1443Z" fill="url(#paint44_linear_59_2589)"/>
<path d="M61.7167 10.9531L59.1376 11.5635L56.8451 13.8971L56.1646 16.6257L63.1136 23.4471L69.024 17.8822L61.7167 10.9531ZM59.9257 14.9383C59.5316 15.3691 58.8511 15.3691 58.457 14.9742C58.0272 14.5792 58.0272 13.8971 58.457 13.5022C58.8511 13.1073 59.5316 13.0713 59.9257 13.5022C60.3197 13.8612 60.3555 14.5074 59.9257 14.9383Z" fill="url(#paint45_linear_59_2589)"/>
<path d="M53.0124 7.29124C53.0124 7.29124 56.272 12.0662 58.2063 13.8972L58.7794 13.251C58.7794 13.251 55.9138 11.6354 53.2989 7.21944L54.9467 6.03467C54.9467 6.03467 52.9766 7.11173 53.0124 7.29124Z" fill="url(#paint46_radial_59_2589)"/>
<path d="M23.1026 49.8351C22.7086 49.7633 22.6012 53.2458 23.1026 53.5689C23.6041 53.8561 23.7116 49.9428 23.1026 49.8351Z" fill="white"/>
<path d="M27.007 30.0173C27.0787 30.4481 29.8726 29.9455 29.8726 29.3711C29.8726 28.7607 26.9354 29.5506 27.007 30.0173Z" fill="white"/>
<path d="M30.3741 29.1556C30.3025 28.976 31.4129 28.6529 31.592 28.7965C31.7711 28.9401 31.3412 29.1915 31.0547 29.2992C30.7681 29.4069 30.4457 29.2992 30.3741 29.1556Z" fill="white"/>
<path d="M45.3469 20.575C44.8096 20.6468 45.8126 19.0312 46.0991 19.0312C46.4573 19.0312 45.7409 20.5391 45.3469 20.575Z" fill="white"/>
<path d="M39.4008 48.6145C39.15 48.7222 39.8306 49.9429 40.2246 49.6915C40.5828 49.4043 40.0455 48.3632 39.4008 48.6145Z" fill="white"/>
<path d="M4.08215 18.2773C4.08215 18.2773 5.80152 18.0619 6.44628 20.3597C6.44628 20.3597 6.23136 25.386 9.38353 27.8991C12.07 30.0532 18.6609 23.9499 18.6609 23.9499L18.9475 25.1346C18.9475 25.1346 13.8252 30.2686 10.5298 30.5918C10.5298 30.5918 8.2731 30.6277 6.41046 26.3553C4.51199 22.0471 4.08215 18.2773 4.08215 18.2773Z" fill="url(#paint47_linear_59_2589)"/>
<path d="M18.5535 24.4525C18.5177 25.745 20.5594 25.4219 21.8131 24.5961C23.2101 23.6627 25.0728 21.2931 23.8907 20.0725C22.7086 18.8877 18.661 21.4367 18.5535 24.4525Z" fill="url(#paint48_linear_59_2589)"/>
<path d="M18.7684 24.5242C18.9116 24.7755 23.5324 21.0417 22.9951 20.1082C22.4578 19.1747 17.7296 22.6214 18.7684 24.5242Z" fill="url(#paint49_linear_59_2589)"/>
<path d="M4.90601 21.4009C4.90601 21.4009 6.23135 26.2118 6.55373 26.1759C6.87611 26.14 5.33585 21.4368 4.90601 21.4009Z" fill="url(#paint50_linear_59_2589)"/>
<path opacity="0.3" d="M73 18.1697C73 18.1697 72.8567 18.4569 72.6418 18.8877C71.9612 20.2161 70.3493 23.0524 68.3076 24.3448C68.415 24.1653 71.4955 18.5646 71.8179 13.6819C71.8537 13.4306 71.8537 13.1793 71.8537 12.9639C72.3194 14.5795 72.7134 16.3387 73 18.1697Z" fill="url(#paint51_linear_59_2589)"/>
<path opacity="0.72" d="M42.8036 10.7736C42.8036 10.7736 56.3078 5.53187 60.7137 4.16759C65.1196 2.80331 67.1255 1.25952 67.1255 1.25952L62.6122 4.95744C62.6122 4.99334 50.2542 7.36288 42.8036 10.7736Z" fill="url(#paint52_linear_59_2589)"/>
<defs>
<linearGradient id="paint0_linear_59_2589" x1="37.8113" y1="53.6682" x2="39.7347" y2="46.5264" gradientUnits="userSpaceOnUse">
<stop stop-color="#CBC1F7"/>
<stop offset="1" stop-color="#E8DCF7"/>
</linearGradient>
<linearGradient id="paint1_linear_59_2589" x1="37.4449" y1="54.3144" x2="37.4449" y2="46.5431" gradientUnits="userSpaceOnUse">
<stop stop-color="#9D68C2"/>
<stop offset="1" stop-color="#CCEDFF"/>
</linearGradient>
<linearGradient id="paint2_linear_59_2589" x1="37.6965" y1="32.6087" x2="38.3054" y2="16.0079" gradientUnits="userSpaceOnUse">
<stop stop-color="#BE9DEA"/>
<stop offset="1" stop-color="#9E8CEF"/>
</linearGradient>
<linearGradient id="paint3_linear_59_2589" x1="30.1907" y1="8.66404" x2="25.3045" y2="0.870227" gradientUnits="userSpaceOnUse">
<stop stop-color="#45FFCD"/>
<stop offset="1" stop-color="#22E0FF"/>
</linearGradient>
<linearGradient id="paint4_linear_59_2589" x1="25.9561" y1="6.74867" x2="21.7849" y2="0.0953273" gradientUnits="userSpaceOnUse">
<stop stop-color="#B9ACF4"/>
<stop offset="1" stop-color="#E1D1F5"/>
</linearGradient>
<linearGradient id="paint5_linear_59_2589" x1="30.3267" y1="28.6156" x2="11.4884" y2="5.55774" gradientUnits="userSpaceOnUse">
<stop stop-color="#CBC1F7"/>
<stop offset="1" stop-color="#E8DCF7"/>
</linearGradient>
<linearGradient id="paint6_linear_59_2589" x1="35.9917" y1="20.7354" x2="15.4336" y2="33.5652" gradientUnits="userSpaceOnUse">
<stop stop-color="#8879EA"/>
<stop offset="1" stop-color="#9E8CEF"/>
</linearGradient>
<linearGradient id="paint7_linear_59_2589" x1="28.6372" y1="28.9009" x2="18.3884" y2="12.5535" gradientUnits="userSpaceOnUse">
<stop stop-color="#9D68C2"/>
<stop offset="1" stop-color="#CCEDFF"/>
</linearGradient>
<linearGradient id="paint8_linear_59_2589" x1="27.1016" y1="29.3759" x2="24.1214" y2="24.6222" gradientUnits="userSpaceOnUse">
<stop stop-color="#8DA4E5"/>
<stop offset="1" stop-color="#755CBB"/>
</linearGradient>
<linearGradient id="paint9_linear_59_2589" x1="26.0685" y1="27.8268" x2="24.1375" y2="24.69" gradientUnits="userSpaceOnUse">
<stop stop-color="#5E36CC"/>
<stop offset="1" stop-color="#6C4A96"/>
</linearGradient>
<linearGradient id="paint10_linear_59_2589" x1="29.4031" y1="21.7039" x2="17.5199" y2="2.74943" gradientUnits="userSpaceOnUse">
<stop stop-color="#0665BD"/>
<stop offset="1" stop-color="#1A1F77"/>
</linearGradient>
<linearGradient id="paint11_linear_59_2589" x1="10.2082" y1="21.4687" x2="4.80977" y2="7.31278" gradientUnits="userSpaceOnUse">
<stop stop-color="#B9ACF4"/>
<stop offset="1" stop-color="#E1D1F5"/>
</linearGradient>
<linearGradient id="paint12_linear_59_2589" x1="8.9216" y1="21.3439" x2="3.75324" y2="7.79125" gradientUnits="userSpaceOnUse">
<stop stop-color="#BE9DEA"/>
<stop offset="1" stop-color="#9E8CEF"/>
</linearGradient>
<linearGradient id="paint13_linear_59_2589" x1="8.02832" y1="22.0699" x2="2.96233" y2="8.7857" gradientUnits="userSpaceOnUse">
<stop stop-color="#45FFCD"/>
<stop offset="1" stop-color="#22E0FF"/>
</linearGradient>
<linearGradient id="paint14_linear_59_2589" x1="27.9243" y1="2.09538" x2="11.6296" y2="12.2645" gradientUnits="userSpaceOnUse">
<stop/>
<stop offset="1" stop-color="#6A9BFF"/>
</linearGradient>
<linearGradient id="paint15_linear_59_2589" x1="35.141" y1="15.8993" x2="23.2001" y2="23.3512" gradientUnits="userSpaceOnUse">
<stop/>
<stop offset="1" stop-color="#6A9BFF"/>
</linearGradient>
<linearGradient id="paint16_linear_59_2589" x1="37.8315" y1="14.2118" x2="32.9547" y2="6.43301" gradientUnits="userSpaceOnUse">
<stop/>
<stop offset="1" stop-color="#6A9BFF"/>
</linearGradient>
<linearGradient id="paint17_linear_59_2589" x1="8.11712" y1="21.539" x2="6.63763" y2="17.6594" gradientUnits="userSpaceOnUse">
<stop stop-color="#D4E2FF"/>
<stop offset="1"/>
</linearGradient>
<linearGradient id="paint18_linear_59_2589" x1="7.37908" y1="9.88465" x2="-0.214001" y2="12.7671" gradientUnits="userSpaceOnUse">
<stop/>
<stop offset="1" stop-color="#D4E2FF"/>
</linearGradient>
<linearGradient id="paint19_linear_59_2589" x1="30.005" y1="53.3279" x2="28.9809" y2="25.134" gradientUnits="userSpaceOnUse">
<stop stop-color="#CBC1F7"/>
<stop offset="1" stop-color="#E8DCF7"/>
</linearGradient>
<linearGradient id="paint20_linear_59_2589" x1="24.6943" y1="52.7958" x2="26.682" y2="30.5002" gradientUnits="userSpaceOnUse">
<stop stop-color="#9D68C2"/>
<stop offset="1" stop-color="#CCEDFF"/>
</linearGradient>
<linearGradient id="paint21_linear_59_2589" x1="38.673" y1="44.3222" x2="28.418" y2="43.4122" gradientUnits="userSpaceOnUse">
<stop stop-color="#BE9DEA"/>
<stop offset="1" stop-color="#9E8CEF"/>
</linearGradient>
<radialGradient id="paint22_radial_59_2589" cx="0" cy="0" r="1" gradientUnits="userSpaceOnUse" gradientTransform="translate(32.785 50.0914) rotate(-174.905) scale(7.78045 10.3748)">
<stop stop-color="#45FFCD"/>
<stop offset="1" stop-color="#22E0FF"/>
</radialGradient>
<linearGradient id="paint23_linear_59_2589" x1="29.8595" y1="29.6369" x2="30.2541" y2="25.2098" gradientUnits="userSpaceOnUse">
<stop stop-color="#8DA4E5"/>
<stop offset="1" stop-color="#755CBB"/>
</linearGradient>
<linearGradient id="paint24_linear_59_2589" x1="38.5659" y1="39.4699" x2="30.0569" y2="38.7148" gradientUnits="userSpaceOnUse">
<stop/>
<stop offset="1" stop-color="#D4E2FF"/>
</linearGradient>
<linearGradient id="paint25_linear_59_2589" x1="32.7259" y1="52.1668" x2="32.8427" y2="50.8566" gradientUnits="userSpaceOnUse">
<stop stop-color="#D4E2FF"/>
<stop offset="1"/>
</linearGradient>
<linearGradient id="paint26_linear_59_2589" x1="26.2923" y1="33.4184" x2="22.2552" y2="33.0603" gradientUnits="userSpaceOnUse">
<stop stop-color="#8879EA"/>
<stop offset="1" stop-color="#9E8CEF"/>
</linearGradient>
<linearGradient id="paint27_linear_59_2589" x1="31.0717" y1="38.3781" x2="31.0717" y2="33.3871" gradientUnits="userSpaceOnUse">
<stop stop-color="#8DA4E5"/>
<stop offset="1" stop-color="#755CBB"/>
</linearGradient>
<linearGradient id="paint28_linear_59_2589" x1="20.1356" y1="59.2484" x2="24.0959" y2="44.5436" gradientUnits="userSpaceOnUse">
<stop stop-color="#CBC1F7"/>
<stop offset="1" stop-color="#E8DCF7"/>
</linearGradient>
<linearGradient id="paint29_linear_59_2589" x1="32.3314" y1="39.084" x2="37.2143" y2="20.9538" gradientUnits="userSpaceOnUse">
<stop stop-color="#CBC1F7"/>
<stop offset="1" stop-color="#E8DCF7"/>
</linearGradient>
<linearGradient id="paint30_linear_59_2589" x1="46.1001" y1="25.892" x2="42.5321" y2="25.5755" gradientUnits="userSpaceOnUse">
<stop stop-color="#8879EA"/>
<stop offset="1" stop-color="#9E8CEF"/>
</linearGradient>
<linearGradient id="paint31_linear_59_2589" x1="54.6266" y1="30.9172" x2="60.7853" y2="0.0380114" gradientUnits="userSpaceOnUse">
<stop stop-color="#D93DE3"/>
<stop offset="1" stop-color="#DB63C3"/>
</linearGradient>
<linearGradient id="paint32_linear_59_2589" x1="70.2768" y1="23.9522" x2="65.8113" y2="1.56223" gradientUnits="userSpaceOnUse">
<stop stop-color="#A242EA"/>
<stop offset="1" stop-color="#FE117E"/>
</linearGradient>
<linearGradient id="paint33_linear_59_2589" x1="55.3936" y1="8.25345" x2="54.5089" y2="3.81762" gradientUnits="userSpaceOnUse">
<stop stop-color="#E88AEE"/>
<stop offset="1" stop-color="#FF6DBA"/>
</linearGradient>
<linearGradient id="paint34_linear_59_2589" x1="31.7491" y1="9.56729" x2="31.0702" y2="6.21783" gradientUnits="userSpaceOnUse">
<stop stop-color="#45FFCD"/>
<stop offset="1" stop-color="#22E0FF"/>
</linearGradient>
<linearGradient id="paint35_linear_59_2589" x1="63.5001" y1="23.3758" x2="63.5001" y2="12.4249" gradientUnits="userSpaceOnUse">
<stop stop-color="#9D68C2"/>
<stop offset="1" stop-color="#CCEDFF"/>
</linearGradient>
<linearGradient id="paint36_linear_59_2589" x1="18.7179" y1="15.4538" x2="17.7509" y2="10.6838" gradientUnits="userSpaceOnUse">
<stop stop-color="#45FFCD"/>
<stop offset="1" stop-color="#22E0FF"/>
</linearGradient>
<radialGradient id="paint37_radial_59_2589" cx="0" cy="0" r="1" gradientUnits="userSpaceOnUse" gradientTransform="translate(55.6377 15.4067) scale(9.11055 9.13142)">
<stop stop-color="#45FFCD"/>
<stop offset="1" stop-color="#22E0FF"/>
</radialGradient>
<linearGradient id="paint38_linear_59_2589" x1="23.5688" y1="59.9582" x2="23.5688" y2="43.9386" gradientUnits="userSpaceOnUse">
<stop stop-color="#9D68C2"/>
<stop offset="1" stop-color="#CCEDFF"/>
</linearGradient>
<linearGradient id="paint39_linear_59_2589" x1="52.9611" y1="30.5851" x2="56.3691" y2="13.4978" gradientUnits="userSpaceOnUse">
<stop stop-color="#9D68C2"/>
<stop offset="1" stop-color="#CCEDFF"/>
</linearGradient>
<linearGradient id="paint40_linear_59_2589" x1="35.1395" y1="37.0096" x2="35.1395" y2="22.9898" gradientUnits="userSpaceOnUse">
<stop stop-color="#9D68C2"/>
<stop offset="1" stop-color="#CCEDFF"/>
</linearGradient>
<linearGradient id="paint41_linear_59_2589" x1="47.2685" y1="28.5896" x2="50.1018" y2="18.0691" gradientUnits="userSpaceOnUse">
<stop stop-color="#CBC1F7"/>
<stop offset="1" stop-color="#E8DCF7"/>
</linearGradient>
<linearGradient id="paint42_linear_59_2589" x1="52.3459" y1="18.0201" x2="43.8888" y2="24.2186" gradientUnits="userSpaceOnUse">
<stop stop-color="#BE9DEA"/>
<stop offset="1" stop-color="#9E8CEF"/>
</linearGradient>
<linearGradient id="paint43_linear_59_2589" x1="45.5306" y1="23.976" x2="47.3996" y2="17.0361" gradientUnits="userSpaceOnUse">
<stop stop-color="#CBC1F7"/>
<stop offset="1" stop-color="#E8DCF7"/>
</linearGradient>
<linearGradient id="paint44_linear_59_2589" x1="50.2168" y1="20.0709" x2="47.1762" y2="22.2995" gradientUnits="userSpaceOnUse">
<stop stop-color="#8DA4E5"/>
<stop offset="1" stop-color="#755CBB"/>
</linearGradient>
<linearGradient id="paint45_linear_59_2589" x1="66.1795" y1="20.7889" x2="57.968" y2="12.7852" gradientUnits="userSpaceOnUse">
<stop stop-color="#CBC1F7"/>
<stop offset="1" stop-color="#E8DCF7"/>
</linearGradient>
<radialGradient id="paint46_radial_59_2589" cx="0" cy="0" r="1" gradientUnits="userSpaceOnUse" gradientTransform="translate(55.8979 9.97177) scale(3.44278 3.45066)">
<stop stop-color="#45FFCD"/>
<stop offset="1" stop-color="#22E0FF"/>
</radialGradient>
<linearGradient id="paint47_linear_59_2589" x1="14.6495" y1="28.6753" x2="6.91262" y2="16.4602" gradientUnits="userSpaceOnUse">
<stop stop-color="#BE9DEA"/>
<stop offset="1" stop-color="#9E8CEF"/>
</linearGradient>
<linearGradient id="paint48_linear_59_2589" x1="22.2695" y1="24.402" x2="20.4694" y2="20.752" gradientUnits="userSpaceOnUse">
<stop stop-color="#DD1A8F"/>
<stop offset="1" stop-color="#FE117E"/>
</linearGradient>
<linearGradient id="paint49_linear_59_2589" x1="21.2132" y1="22.7195" x2="20.1143" y2="21.3872" gradientUnits="userSpaceOnUse">
<stop stop-color="#D93DE3"/>
<stop offset="1" stop-color="#FF6DBA"/>
</linearGradient>
<linearGradient id="paint50_linear_59_2589" x1="7.39319" y1="24.9265" x2="4.04307" y2="22.676" gradientUnits="userSpaceOnUse">
<stop stop-color="#CBC1F7"/>
<stop offset="1" stop-color="#E8DCF7"/>
</linearGradient>
<linearGradient id="paint51_linear_59_2589" x1="69.9706" y1="24.6764" x2="72.2946" y2="13.0237" gradientUnits="userSpaceOnUse">
<stop stop-color="#9D68C2"/>
<stop offset="1" stop-color="#CCEDFF"/>
</linearGradient>
<linearGradient id="paint52_linear_59_2589" x1="42.7934" y1="6.04639" x2="67.1198" y2="6.04639" gradientUnits="userSpaceOnUse">
<stop/>
<stop offset="1" stop-color="#9295BB"/>
</linearGradient>
</defs>
</svg>
