<svg width="50" height="60" viewBox="0 0 50 60" fill="none" xmlns="http://www.w3.org/2000/svg">
<path d="M36.5581 46.3897C36.627 46.5963 36.6614 46.8374 36.7302 47.0785C37.6593 50.6258 38.726 55.9294 38.4507 58.1335C38.3819 58.6501 38.2443 58.9945 38.0034 59.1323C37.9346 59.1667 37.8657 59.1667 37.7969 59.1667C37.556 59.2012 37.2463 59.0978 36.8678 58.9256C34.6655 57.8236 30.8116 53.3465 30.1233 51.8311C30.0201 51.6589 29.9857 51.4867 30.0201 51.4179C30.3986 49.9025 35.0441 43.2902 35.5946 43.6346C35.7667 43.7034 36.1108 44.8055 36.5581 46.3897Z" fill="url(#paint0_linear_61_3651)"/>
<path d="M30.1579 51.8313C30.1579 52.3824 36.3518 48.594 35.6292 43.6348C35.6292 43.6348 30.1235 46.631 30.1579 51.8313Z" fill="url(#paint1_linear_61_3651)"/>
<path opacity="0.3" d="M36.5582 46.3897C36.5582 46.3897 33.358 48.9382 33.2204 51.039C33.0827 53.1054 35.0785 57.0659 36.9023 58.9256C34.7 57.8236 30.846 53.3465 30.1578 51.8311C30.0546 51.6589 30.0202 51.4867 30.0546 51.4179C30.4331 49.9025 35.0785 43.2902 35.6291 43.6346C35.7668 43.7034 36.1109 44.8055 36.5582 46.3897Z" fill="url(#paint2_linear_61_3651)"/>
<path d="M14.8106 47.2164C14.7418 47.423 14.7074 47.6641 14.6385 47.9052C13.7094 51.4524 12.6427 56.7561 12.918 58.9602C12.9868 59.4768 13.1245 59.8212 13.3653 59.9589C13.4342 59.9934 13.503 59.9934 13.5718 59.9934C13.8127 60.0278 14.1224 59.9245 14.5009 59.7523C16.7032 58.6502 20.5572 54.1731 21.2454 52.6578C21.3486 52.4856 21.383 52.3134 21.3486 52.2445C20.9701 50.7292 16.3247 44.1168 15.7741 44.4612C15.602 44.5645 15.2235 45.6666 14.8106 47.2164Z" fill="url(#paint3_linear_61_3651)"/>
<path d="M21.211 52.6577C21.211 53.2088 15.0171 49.4205 15.7397 44.4612C15.7397 44.4612 21.211 47.4918 21.211 52.6577Z" fill="url(#paint4_linear_61_3651)"/>
<path d="M16.944 52.7267C17.1849 52.9334 16.359 55.1031 15.8429 55.0342C15.3267 54.9997 16.3934 52.279 16.944 52.7267Z" fill="white"/>
<path d="M35.5605 55.9296C35.8704 55.8952 36.5592 57.1695 36.146 57.4794C35.7327 57.7894 34.8717 55.9985 35.5605 55.9296Z" fill="white"/>
<path opacity="0.3" d="M14.8107 47.2164C14.8107 47.2164 18.0109 49.7649 18.1485 51.8657C18.2861 53.932 16.2903 57.8926 14.4666 59.7523C16.6688 58.6502 20.5228 54.1731 21.211 52.6578C21.3143 52.4856 21.3487 52.3134 21.3143 52.2445C20.9358 50.7292 16.2903 44.1168 15.7397 44.4612C15.6021 44.5645 15.2236 45.6666 14.8107 47.2164Z" fill="url(#paint5_linear_61_3651)"/>
<path d="M16.3247 3.78833C16.3247 3.78833 14.1568 1.92861 11.5416 1.61865C11.5416 1.61865 10.7501 1.99749 9.78664 4.92483C8.85755 7.81774 10.5781 13.5691 10.5781 13.5691L16.3247 3.78833Z" fill="url(#paint6_linear_61_3651)"/>
<path d="M10.5093 3.06511C10.5093 3.06511 10.9222 2.06636 11.5416 1.61865C11.5416 1.61865 13.7095 3.61614 13.6062 8.40321L12.9868 9.05756L10.5093 3.06511Z" fill="url(#paint7_linear_61_3651)"/>
<path d="M34.1495 3.78833C34.1495 3.78833 36.3173 1.92861 38.9326 1.61865C38.9326 1.61865 39.724 1.99749 40.6875 4.92483C41.6166 7.81774 39.8961 13.5691 39.8961 13.5691L34.1495 3.78833Z" fill="url(#paint8_linear_61_3651)"/>
<path d="M38.9325 1.61873C38.9325 1.61873 36.799 3.89173 36.799 7.57674L37.6249 8.09333L40.0336 3.13406C39.9992 3.13406 39.2078 1.58429 38.9325 1.61873Z" fill="url(#paint9_linear_61_3651)"/>
<path d="M37.5217 7.85208C37.5217 7.85208 36.9711 4.7181 39.0358 2.37622C39.0358 2.37622 41.3757 3.47828 42.3392 7.57657C43.3027 11.6749 40.7907 14.12 40.7907 14.12L37.5217 7.85208Z" fill="url(#paint10_linear_61_3651)"/>
<path d="M12.9181 7.85208C12.9181 7.85208 13.4686 4.7181 11.404 2.37622C11.404 2.37622 9.06409 3.47828 8.10059 7.57657C7.13709 11.6749 9.64907 14.12 9.64907 14.12L12.9181 7.85208Z" fill="url(#paint11_linear_61_3651)"/>
<path d="M40.4121 25.2441C35.5946 31.9942 13.0212 31.4776 10.0963 26.0362C8.16935 22.4889 8.37581 17.1164 10.234 12.1915C12.6427 5.75138 17.9076 0 24.8585 0C33.0483 0 39.3454 8.16213 41.238 15.601C42.2015 19.3894 42.0294 22.9711 40.4121 25.2441Z" fill="url(#paint12_linear_61_3651)"/>
<path d="M11.7826 19.0106C12.8493 23.591 32.7042 24.1076 37.5561 19.9405C42.408 15.7733 35.4227 0.998801 24.6521 1.65315C14.8451 2.23862 10.0276 11.4684 11.7826 19.0106Z" fill="#DFE3FB"/>
<path d="M11.6792 18.4251C12.746 23.0056 32.6009 23.5222 37.4528 19.355C42.3391 15.1878 35.3193 0.413351 24.5488 1.0677C14.7418 1.65317 9.92428 10.9174 11.6792 18.4251Z" fill="url(#paint13_linear_61_3651)"/>
<path opacity="0.3" d="M40.4121 25.2439C35.5946 31.994 13.0212 31.4775 10.0963 26.036C8.16935 22.4888 8.37581 17.1162 10.234 12.1914C10.1652 12.4669 8.27258 19.3892 10.1996 22.4199C12.161 25.5194 19.9722 25.1062 28.3684 24.7273C36.7646 24.3829 39.5175 23.1431 40.9283 20.7668C42.0294 18.9071 40.9283 14.8088 40.4121 13.1213L41.238 15.5665C42.2015 19.3892 42.0294 22.9709 40.4121 25.2439Z" fill="url(#paint14_linear_61_3651)"/>
<path d="M24.893 30.2034C20.2131 30.2034 16.8065 29.6868 14.9139 28.8947C13.6751 28.4126 13.0557 27.7927 13.1589 27.2072C13.2277 26.8284 14.1224 26.5184 15.5677 26.2429C19.8346 25.4852 28.6437 25.2442 33.3924 25.9674C33.8053 26.0363 34.1838 26.1051 34.5279 26.174C34.5968 26.174 34.6656 26.2085 34.7344 26.2085H34.7688C35.5947 26.4151 36.1797 26.6562 36.4205 26.9661C36.4894 27.035 36.5238 27.1039 36.5582 27.2072C37.0399 28.757 29.1255 30.2034 24.893 30.2034Z" fill="url(#paint15_linear_61_3651)"/>
<path opacity="0.5" d="M36.5238 26.8284C36.5238 26.8628 36.4894 26.9317 36.455 26.9661C36.0077 27.6205 34.1151 28.447 34.1151 28.447C34.1151 28.447 26.9576 25.5197 21.1422 26.8284C15.3268 28.1371 14.8795 28.8947 14.8795 28.8947C13.6407 28.4126 13.0213 27.7927 13.1246 27.2072C13.1934 26.8284 14.0881 26.5184 15.5333 26.2429C19.8002 25.4852 28.6094 25.2442 33.358 25.9674C33.8398 26.0707 34.3215 26.1396 34.7 26.2429H34.7345C35.9388 26.484 36.5926 26.6906 36.5238 26.8284Z" fill="url(#paint16_linear_61_3651)"/>
<path d="M34.5624 26.174C33.4612 27.2417 28.1276 28.1371 25.0995 28.1371C19.6626 28.1371 16.3591 27.2761 15.6021 26.2429C20.2131 25.4164 30.2266 25.2097 34.5624 26.174Z" fill="url(#paint17_linear_61_3651)"/>
<path opacity="0.5" d="M10.0963 26.0361C10.0963 26.0361 11.0598 24.9341 12.918 24.0387C14.7762 23.1432 16.4967 22.4544 16.772 21.7312C17.0473 21.008 11.6448 21.4213 11.6448 21.4213L8.96075 22.5922C8.96075 22.5922 9.37368 24.7619 10.0963 26.0361Z" fill="url(#paint18_linear_61_3651)"/>
<path d="M7.8941 9.05762C7.8941 9.05762 9.27053 9.95304 8.37585 12.0194C8.37585 12.0194 1.87224 15.5667 2.25076 19.4239C2.56045 22.6612 11.5416 21.077 11.5416 21.077L11.8513 22.1446C11.8513 22.1446 4.21216 23.6255 1.59695 21.8346C1.59695 21.8346 0.702276 19.6994 2.93897 15.8766C5.14125 12.0538 7.8941 9.05762 7.8941 9.05762Z" fill="url(#paint19_linear_61_3651)"/>
<path d="M10.4061 20.8013C9.58025 21.7312 11.3352 22.73 12.746 22.9021C14.3633 23.0743 17.185 22.4544 17.0129 20.8358C16.8753 19.1827 12.3331 18.6317 10.4061 20.8013Z" fill="url(#paint20_linear_61_3651)"/>
<path opacity="0.5" d="M14.9483 6.819C14.7074 8.2999 18.0108 8.23102 22.5186 8.09326C27.8867 7.92106 33.3236 12.5704 36.4894 9.22976C37.0055 8.67873 31.8439 1.44646 25.5812 1.58422C19.3184 1.72198 15.1547 5.54475 14.9483 6.819Z" fill="url(#paint21_linear_61_3651)"/>
<path opacity="0.5" d="M18.0108 19.7681C17.7355 20.8357 19.9722 21.7311 25.5123 21.6622C32.5321 21.5934 33.7709 19.8714 33.6332 19.7681C33.6332 19.7681 30.7083 21.4901 25.237 20.2502C21.5895 19.4926 18.2861 18.6316 18.0108 19.7681Z" fill="url(#paint22_linear_61_3651)"/>
<path opacity="0.3" d="M40.3779 13.018L40.2057 12.5359C40.2401 12.6392 40.2746 12.777 40.3779 13.018Z" fill="url(#paint23_linear_61_3651)"/>
<path d="M28.6781 0.964213C28.1964 1.06753 32.188 3.16833 32.3601 2.92726C32.5321 2.68618 30.0201 0.654259 28.6781 0.964213Z" fill="white"/>
<path d="M36.3173 2.514C35.9044 2.72064 35.9388 3.16835 36.7646 3.06503C37.5905 2.96171 38.0378 2.30736 37.9346 2.16961C37.9002 2.06629 36.7646 2.27292 36.3173 2.514Z" fill="white"/>
<path d="M43.578 14.9123C43.3714 14.8779 43.4403 16.8065 43.7158 16.7032C43.9913 16.5999 43.888 14.9468 43.578 14.9123Z" fill="white"/>
<path d="M10.5093 20.9735C10.4749 21.249 16.1871 21.3179 16.3247 20.2847C16.4624 19.2515 10.8878 18.9071 10.5093 20.9735Z" fill="url(#paint24_linear_61_3651)"/>
<path opacity="0.2" d="M11.9201 16.9098C11.9201 16.9098 11.6792 15.36 11.9545 13.2592C12.2298 11.1584 12.7803 9.81528 13.1244 9.98747C13.4685 10.1941 13.3997 12.226 13.6062 14.258C13.7438 15.8422 14.0535 17.3231 14.0535 17.3231C14.0535 17.3231 12.6427 18.7006 11.9201 16.9098Z" fill="url(#paint25_linear_61_3651)"/>
<path opacity="0.72" d="M40.8251 4.23602C40.8251 4.23602 40.068 3.30616 39.0357 3.54723C38.0034 3.78831 37.9346 7.06005 38.554 7.12893C39.1734 7.19781 39.4486 5.33808 39.896 5.02813C40.3777 4.71817 41.2036 4.85593 41.2036 4.85593L40.8251 4.23602Z" fill="url(#paint26_linear_61_3651)"/>
<path opacity="0.72" d="M8.89197 5.37249C8.89197 5.37249 9.3049 4.92478 10.1996 5.06253C11.0943 5.20029 11.6104 7.06002 12.0577 6.85338C12.5051 6.68119 12.1954 3.68496 10.9566 2.82397C10.9566 2.82397 9.40813 4.16711 8.89197 5.37249Z" fill="url(#paint27_linear_61_3651)"/>
<path d="M7.68756 9.71191C7.68756 9.71191 4.52178 13.2592 4.72824 13.5347C4.9003 13.7758 7.85961 10.0907 7.68756 9.71191Z" fill="url(#paint28_linear_61_3651)"/>
<path d="M18.6646 28.9635C18.2517 30.9955 17.4258 33.8884 16.0494 36.0925C13.7783 39.7431 10.5093 44.2546 10.4061 44.3924C8.82316 44.9779 7.17145 44.599 6.13913 44.2546C5.51974 44.048 5.10681 43.8069 5.10681 43.8069C5.10681 43.8069 6.44883 39.3642 9.88989 34.7494C11.6104 32.4075 13.6751 30.3411 15.3612 28.8258C15.3612 28.8258 15.3612 28.8258 15.3956 28.7913C15.43 28.7569 15.43 28.7569 15.4644 28.7225L15.4988 28.688L15.5332 28.6536L15.5677 28.6192C17.2882 27.1038 18.6302 26.2773 18.8367 26.4495C18.9743 26.5872 18.9399 27.5515 18.6646 28.9635Z" fill="url(#paint29_linear_61_3651)"/>
<path opacity="0.3" d="M18.6646 28.9634C18.2517 30.9954 17.4258 33.8883 16.0494 36.0924C13.7783 39.743 10.5093 44.2545 10.4061 44.3923L6.13913 44.2545C5.51974 44.0479 5.10681 43.8068 5.10681 43.8068C5.10681 43.8068 6.44883 39.3641 9.88989 34.7493C11.6104 32.4074 13.6751 30.341 15.3612 28.8257C14.3977 29.7211 10.234 33.5783 8.6167 37.2289C6.79293 41.3961 11.1631 40.5006 13.331 38.1243C15.4988 35.7824 18.5958 28.929 18.5958 28.929L18.6646 28.9634Z" fill="url(#paint30_linear_61_3651)"/>
<path d="M14.1568 33.1996C13.8471 33.0274 14.9483 31.3054 15.4644 31.3743C16.015 31.4432 14.4321 33.3718 14.1568 33.1996Z" fill="white"/>
<path d="M12.5399 35.6104C12.2988 35.4382 11.92 36.0925 12.1266 36.2647C12.3677 36.4025 12.8154 35.817 12.5399 35.6104Z" fill="white"/>
<path d="M5.79507 41.9128C5.79507 41.9128 6.89621 39.7087 8.75439 40.6041C10.6126 41.4651 9.27055 44.4958 9.27055 44.4958C9.27055 44.4958 6.79298 45.6323 5.07245 43.8414C5.07245 43.807 5.31332 43.0493 5.79507 41.9128Z" fill="url(#paint31_linear_61_3651)"/>
<path d="M5.76062 41.3617C5.76062 41.3617 8.13495 40.3974 9.23609 41.4995C10.1308 42.3949 9.78666 44.3235 9.2705 45.5633C8.75434 46.8031 5.14122 50.7636 3.52392 50.7292C1.90662 50.6603 1.04636 48.9039 1.70016 46.8376C1.66575 46.8376 3.97126 42.7737 5.76062 41.3617Z" fill="url(#paint32_linear_61_3651)"/>
<path d="M5.76062 41.3618C5.76062 41.3618 5.72621 43.5659 4.31538 45.0813C2.90454 46.5966 1.97545 49.9028 1.97545 49.9028C1.97545 49.9028 1.21842 49.0762 1.66576 46.8377C2.11309 44.5991 5.76062 41.3618 5.76062 41.3618Z" fill="url(#paint33_linear_61_3651)"/>
<path opacity="0.5" d="M1.80341 46.4243L3.00778 47.2164C3.00778 47.2164 3.45512 46.1488 4.07451 45.3911C4.6939 44.6335 5.21006 43.1526 5.21006 43.1526L1.80341 46.4243Z" fill="url(#paint34_linear_61_3651)"/>
<path d="M5.34769 41.6716C5.34769 41.6716 4.28096 41.9127 2.66366 42.9803C1.08077 44.0824 0.117272 45.3566 0.0140401 45.6666C-0.0891919 46.011 0.392557 46.5965 0.943128 46.6309C1.4937 46.6653 3.35187 45.5977 3.35187 45.5977C3.35187 45.5977 5.89826 43.187 5.34769 41.6716Z" fill="url(#paint35_linear_61_3651)"/>
<path d="M4.31539 45.0813C4.31539 45.0813 7.24029 44.0481 9.44257 45.0813L9.23611 45.5634C9.23611 45.5634 6.99942 44.4614 4.0401 45.3568L4.31539 45.0813Z" fill="url(#paint36_linear_61_3651)"/>
<path d="M1.45928 45.219C1.32164 45.0468 2.90453 43.9791 2.97335 44.2547C3.07659 44.4957 1.66575 45.4256 1.45928 45.219Z" fill="white"/>
<path d="M18.8711 26.4839C18.8711 26.4839 16.6 30.2722 16.8409 34.6116C16.8409 34.5771 19.7658 29.2735 18.8711 26.4839Z" fill="url(#paint37_linear_61_3651)"/>
<path d="M31.8095 28.5846C32.2224 30.6166 33.0483 33.5095 34.4247 35.7136C36.6958 39.3642 39.9648 43.8757 40.0681 44.0135C41.6509 44.599 43.3027 44.2201 44.335 43.8757C44.9544 43.6691 45.3673 43.428 45.3673 43.428C45.3673 43.428 44.0253 38.9853 40.5842 34.3705C38.8637 32.0286 36.799 29.9622 35.1129 28.4469C35.1129 28.4469 35.1129 28.4469 35.0785 28.4124C35.0441 28.378 35.0441 28.378 35.0097 28.3436L34.9753 28.3091L34.9409 28.2747L34.9065 28.2402C33.1859 26.7249 31.8439 25.8984 31.6374 26.0706C31.4654 26.2083 31.5342 27.2071 31.8095 28.5846Z" fill="url(#paint38_linear_61_3651)"/>
<path opacity="0.3" d="M31.8095 28.5848C32.2224 30.6167 33.0483 33.5096 34.4247 35.7137C36.6958 39.3643 39.9648 43.8759 40.0681 44.0136L44.335 43.8759C44.9544 43.6692 45.3673 43.4282 45.3673 43.4282C45.3673 43.4282 44.0253 38.9855 40.5842 34.3706C38.8637 32.0287 36.7991 29.9624 35.1129 28.447C36.0764 29.3424 40.2401 33.1997 41.8574 36.8502C43.6812 41.0174 39.311 40.122 37.1432 37.7457C34.9409 35.4382 31.8439 28.5848 31.8439 28.5848H31.8095Z" fill="url(#paint39_linear_61_3651)"/>
<path d="M36.3173 32.8551C36.627 32.6829 35.5258 30.961 35.0097 31.0298C34.4591 31.0987 36.042 33.0273 36.3173 32.8551Z" fill="white"/>
<path d="M44.6448 41.5684C44.6448 41.5684 43.5436 39.3642 41.6854 40.2597C39.8273 41.1206 41.1693 44.1513 41.1693 44.1513C41.1693 44.1513 43.6468 45.2878 45.3674 43.497C45.3674 43.4625 45.1609 42.6704 44.6448 41.5684Z" fill="url(#paint40_linear_61_3651)"/>
<path d="M44.7135 41.0172C44.7135 41.0172 42.3392 40.0529 41.238 41.155C40.3433 42.0504 40.6875 43.979 41.2036 45.2188C41.7198 46.4586 45.3329 50.4192 46.9502 50.3847C48.5675 50.3158 49.4278 48.5594 48.774 46.4931C48.774 46.4931 46.5029 42.3948 44.7135 41.0172Z" fill="url(#paint41_linear_61_3651)"/>
<path d="M43.9221 40.7761C43.9221 40.7761 44.4726 43.1524 46.1588 44.7366C47.6728 46.1487 48.4987 49.5582 48.4987 49.5582C48.4987 49.5582 49.2557 48.7316 48.8084 46.4931C48.3266 44.2545 43.9221 40.7761 43.9221 40.7761Z" fill="url(#paint42_linear_61_3651)"/>
<path opacity="0.5" d="M48.6707 46.0453L47.5008 46.7341C47.5008 46.7341 47.0534 45.701 46.3996 45.0122C44.3694 42.8769 43.9565 40.7761 43.9565 40.7761L46.7093 43.2902C46.7093 43.2902 47.3976 44.0134 47.8793 44.6678C48.1202 45.0122 48.6707 46.0453 48.6707 46.0453Z" fill="url(#paint43_linear_61_3651)"/>
<path d="M43.9221 40.7763C43.9221 40.7763 44.4726 40.6041 46.434 40.5697C48.4299 40.5352 49.4966 41.0863 49.7719 41.2584C50.0472 41.4306 50.116 42.1883 49.7375 42.6016C49.3589 43.0149 45.8491 43.6348 45.8491 43.6348C45.8491 43.6348 44.5759 42.2572 43.9221 40.7763Z" fill="url(#paint44_linear_61_3651)"/>
<path d="M46.1587 44.7368C46.1587 44.7368 43.2338 43.7036 41.0316 44.7368L41.238 45.2189C41.238 45.2189 43.4747 44.1169 46.434 45.0123L46.1587 44.7368Z" fill="url(#paint45_linear_61_3651)"/>
<path d="M48.189 41.0518C48.2234 40.8451 46.2964 40.8796 46.3996 41.1551C46.4685 41.4306 48.1546 41.3617 48.189 41.0518Z" fill="white"/>
<path d="M31.603 26.105C31.603 26.105 33.8741 29.8933 33.6332 34.2327C33.6332 34.2327 30.6739 28.929 31.603 26.105Z" fill="url(#paint46_linear_61_3651)"/>
<path d="M22.8972 18.3905C22.8972 18.3905 24.2392 16.703 25.65 16.393C27.0608 16.0831 27.5426 17.8051 27.5426 17.8051C27.5426 17.8051 24.9274 17.6329 22.8972 18.3905Z" fill="#2F95CD"/>
<path d="M22.4154 6.6123C22.3466 8.23096 22.3122 9.81517 22.3122 11.3994C22.3122 11.8815 22.3122 12.3637 22.3122 12.8458C22.3122 13.328 22.3122 13.8101 22.3466 14.2923H21.1422C21.1766 13.8446 21.1766 13.4313 21.211 12.9836C21.211 12.5359 21.2454 12.1226 21.2454 11.6749H19.0432C19.1464 10.9172 19.2496 10.1251 19.3184 9.33302C19.3873 8.54091 19.4561 7.7488 19.4905 6.88782H20.6605C20.5916 7.50773 20.5228 8.16208 20.454 8.81643C20.3852 9.47077 20.3508 10.1251 20.3508 10.745L21.3143 10.7106C21.3143 10.4695 21.3143 10.194 21.3143 9.95292C21.3143 9.71185 21.3143 9.43633 21.3143 9.19526C21.3143 8.78199 21.3143 8.33427 21.3143 7.921C21.3143 7.50773 21.3143 7.06002 21.2798 6.6123H22.4154Z" fill="#FF008B"/>
<path d="M26.8887 10.4696C26.8887 11.1584 26.8199 11.7783 26.7511 12.2949C26.6478 12.8115 26.5102 13.2247 26.3382 13.5691C26.1661 13.9135 25.9596 14.1546 25.7188 14.2923C25.4779 14.4645 25.237 14.5334 24.9617 14.5334C24.6864 14.5334 24.4456 14.4645 24.2047 14.2923C23.9638 14.1546 23.7574 13.9135 23.5853 13.5691C23.4132 13.2592 23.2756 12.8115 23.1724 12.3293C23.0691 11.8127 23.0347 11.1928 23.0347 10.504C23.0347 9.74635 23.0691 9.12644 23.1724 8.60985C23.2756 8.09326 23.4132 7.67999 23.5853 7.37003C23.7574 7.06008 23.9638 6.819 24.2047 6.68125C24.4456 6.54349 24.6864 6.47461 24.9617 6.47461C25.237 6.47461 25.4779 6.54349 25.7188 6.71569C25.9596 6.85344 26.1661 7.09452 26.3382 7.43891C26.5102 7.74887 26.6478 8.19658 26.7511 8.67873C26.8543 9.16088 26.8887 9.78079 26.8887 10.4696ZM25.6843 10.4696C25.6843 9.95299 25.6499 9.47084 25.6155 9.092C25.5811 8.71317 25.5123 8.40322 25.4435 8.16214C25.3747 7.92106 25.3058 7.74887 25.2026 7.61111C25.0994 7.50779 25.0305 7.43891 24.9273 7.43891C24.8241 7.43891 24.7209 7.50779 24.6176 7.61111C24.5144 7.71443 24.4456 7.88662 24.3767 8.1277C24.3079 8.36878 24.2391 8.67873 24.2047 9.05756C24.1703 9.4364 24.1359 9.91855 24.1359 10.4696C24.1359 11.0206 24.1703 11.4683 24.2047 11.8472C24.2391 12.226 24.3079 12.5359 24.3767 12.8115C24.4456 13.0525 24.5144 13.2592 24.6176 13.3625C24.7209 13.4658 24.8241 13.5347 24.9273 13.5347C25.0305 13.5347 25.1338 13.4658 25.2026 13.3625C25.3058 13.2247 25.3747 13.0525 25.4435 12.8115C25.5123 12.5704 25.5467 12.226 25.6155 11.8472C25.6499 11.4683 25.6843 11.0206 25.6843 10.4696Z" fill="#FF008B"/>
<path d="M30.6052 6.6123C30.5363 8.23096 30.5019 9.81517 30.5019 11.3994C30.5019 11.8815 30.5019 12.3637 30.5019 12.8458C30.5019 13.328 30.5019 13.8101 30.5363 14.2923H29.332C29.3664 13.8446 29.3664 13.4313 29.4008 12.9836C29.4008 12.5359 29.4352 12.1226 29.4352 11.6749H27.2329C27.3361 10.9172 27.4394 10.1251 27.5082 9.33302C27.577 8.54091 27.6458 7.7488 27.6802 6.88782H28.8502C28.7814 7.50773 28.7126 8.16208 28.6437 8.81643C28.5749 9.47077 28.5405 10.1251 28.5405 10.745L29.504 10.7106C29.504 10.4695 29.504 10.194 29.504 9.95292C29.504 9.71185 29.504 9.43633 29.504 9.19526C29.504 8.78199 29.504 8.33427 29.504 7.921C29.504 7.50773 29.504 7.06002 29.4696 6.6123H30.6052Z" fill="#FF008B"/>
<path d="M34.5624 45.77C33.9086 49.6272 30.4331 52.2102 25.478 52.2102C21.1422 52.2102 17.4947 50.5916 16.5312 47.0443C15.5677 43.497 15.9462 36.9191 17.2194 32.8553C17.4259 32.2354 17.6323 31.6499 17.9076 31.0989C18.1485 30.5823 18.4238 30.1001 18.7335 29.6524C20.3164 27.2761 22.6219 25.7263 25.2371 25.7263C27.9555 25.7263 30.0202 26.8284 31.4654 28.5159C32.1192 29.2736 32.6354 30.169 33.0139 31.0989C33.4268 32.1665 33.8053 33.3374 34.0806 34.5084V34.5428C34.9753 38.2623 35.1473 42.3261 34.5624 45.77Z" fill="url(#paint47_linear_61_3651)"/>
<path opacity="0.3" d="M34.5624 45.7698C33.9086 49.627 30.4331 52.21 25.478 52.21C21.1422 52.21 17.4947 50.5913 16.5312 47.0441C15.5677 43.4968 15.9462 36.9189 17.2194 32.855C17.4259 32.2351 17.6323 31.6497 17.9076 31.0986C17.9076 31.0986 15.2924 39.7774 17.3914 45.3221C19.4905 50.8668 29.2287 50.7291 32.5321 47.0441C35.6635 43.5657 34.2183 35.3347 34.0806 34.5426C34.9753 38.262 35.1473 42.3259 34.5624 45.7698Z" fill="url(#paint48_linear_61_3651)"/>
<path d="M16.7032 43.4969C17.4258 38.2966 21.6239 34.7838 26.2349 35.2315C31.2245 35.7136 33.9085 40.4663 33.8397 44.5646C33.7709 48.6628 30.7771 51.8313 25.4435 51.8313C20.0754 51.7968 16.015 48.3529 16.7032 43.4969Z" fill="url(#paint49_linear_61_3651)"/>
<path d="M16.7721 43.9102C17.4947 38.7099 21.6928 35.1971 26.3038 35.6104C31.2934 36.0925 33.9774 40.8451 33.9086 44.9434C33.8397 49.0417 30.846 52.2101 25.5124 52.2101C20.1787 52.2101 16.0838 48.7662 16.7721 43.9102Z" fill="url(#paint50_radial_61_3651)"/>
<path opacity="0.5" d="M31.4654 28.5159C30.3986 30.169 24.5832 31.1333 21.211 30.8233C18.2861 30.5478 18.7334 29.7557 18.7334 29.6524C20.3163 27.2761 22.6218 25.7263 25.237 25.7263C27.9555 25.7263 30.0545 26.8628 31.4654 28.5159Z" fill="url(#paint51_linear_61_3651)"/>
<path d="M29.4009 31.3742C29.1254 31.4775 29.1254 33.6472 29.4009 33.9916C29.6764 34.336 30.1241 34.2327 30.2963 33.7161C30.4341 33.234 29.7797 31.2365 29.4009 31.3742Z" fill="white"/>
<path opacity="0.72" d="M18.527 40.6039C19.4217 42.0159 23.0348 41.2583 27.0953 41.6715C31.1557 42.0848 31.8784 43.3935 32.7386 43.118C33.5989 42.8425 32.2569 36.7123 26.1318 36.299C20.0755 35.8857 18.3206 40.2595 18.527 40.6039Z" fill="url(#paint52_linear_61_3651)"/>
<path opacity="0.72" d="M19.8001 49.3862C19.8001 49.3862 21.0045 51.4525 25.4435 51.487C29.8824 51.5214 31.7062 48.8351 31.7062 48.8351C31.7062 48.8351 29.6416 50.1783 26.7167 49.3862C23.7573 48.5596 20.8668 48.1119 19.8001 49.3862Z" fill="url(#paint53_linear_61_3651)"/>
<defs>
<linearGradient id="paint0_linear_61_3651" x1="36.1592" y1="59.6085" x2="32.1053" y2="44.5325" gradientUnits="userSpaceOnUse">
<stop stop-color="#CBC1F7"/>
<stop offset="1" stop-color="#E8DCF7"/>
</linearGradient>
<linearGradient id="paint1_linear_61_3651" x1="33.9601" y1="50.3765" x2="31.8319" y2="45.1653" gradientUnits="userSpaceOnUse">
<stop stop-color="#BE9DEA"/>
<stop offset="1" stop-color="#9E8CEF"/>
</linearGradient>
<linearGradient id="paint2_linear_61_3651" x1="37.3844" y1="58.7129" x2="31.8326" y2="45.1181" gradientUnits="userSpaceOnUse">
<stop stop-color="#9D68C2"/>
<stop offset="1" stop-color="#CCEDFF"/>
</linearGradient>
<linearGradient id="paint3_linear_61_3651" x1="15.2026" y1="60.4575" x2="19.2564" y2="45.3815" gradientUnits="userSpaceOnUse">
<stop stop-color="#CBC1F7"/>
<stop offset="1" stop-color="#E8DCF7"/>
</linearGradient>
<linearGradient id="paint4_linear_61_3651" x1="17.4018" y1="51.2253" x2="19.5299" y2="46.0142" gradientUnits="userSpaceOnUse">
<stop stop-color="#BE9DEA"/>
<stop offset="1" stop-color="#9E8CEF"/>
</linearGradient>
<linearGradient id="paint5_linear_61_3651" x1="13.9775" y1="59.5619" x2="19.5293" y2="45.9671" gradientUnits="userSpaceOnUse">
<stop stop-color="#9D68C2"/>
<stop offset="1" stop-color="#CCEDFF"/>
</linearGradient>
<linearGradient id="paint6_linear_61_3651" x1="12.9245" y1="13.5557" x2="12.9245" y2="1.61376" gradientUnits="userSpaceOnUse">
<stop stop-color="#B9ACF4"/>
<stop offset="1" stop-color="#E1D1F5"/>
</linearGradient>
<linearGradient id="paint7_linear_61_3651" x1="12.0702" y1="9.04423" x2="12.0702" y2="1.61376" gradientUnits="userSpaceOnUse">
<stop stop-color="#BE9DEA"/>
<stop offset="1" stop-color="#9E8CEF"/>
</linearGradient>
<linearGradient id="paint8_linear_61_3651" x1="37.5362" y1="13.5557" x2="37.5362" y2="1.61376" gradientUnits="userSpaceOnUse">
<stop stop-color="#B9ACF4"/>
<stop offset="1" stop-color="#E1D1F5"/>
</linearGradient>
<linearGradient id="paint9_linear_61_3651" x1="38.4026" y1="8.1048" x2="38.4026" y2="1.61294" gradientUnits="userSpaceOnUse">
<stop stop-color="#BE9DEA"/>
<stop offset="1" stop-color="#9E8CEF"/>
</linearGradient>
<linearGradient id="paint10_linear_61_3651" x1="40.0153" y1="14.127" x2="40.0153" y2="2.39368" gradientUnits="userSpaceOnUse">
<stop stop-color="#DD1A8F"/>
<stop offset="1" stop-color="#FE117E"/>
</linearGradient>
<linearGradient id="paint11_linear_61_3651" x1="10.4454" y1="14.127" x2="10.4454" y2="2.39368" gradientUnits="userSpaceOnUse">
<stop stop-color="#DD1A8F"/>
<stop offset="1" stop-color="#FE117E"/>
</linearGradient>
<linearGradient id="paint12_linear_61_3651" x1="23.9433" y1="30.494" x2="27.7429" y2="0.266002" gradientUnits="userSpaceOnUse">
<stop stop-color="#CBC1F7"/>
<stop offset="1" stop-color="#E8DCF7"/>
</linearGradient>
<linearGradient id="paint13_linear_61_3651" x1="25.181" y1="22.2071" x2="25.181" y2="1.05544" gradientUnits="userSpaceOnUse">
<stop stop-color="#0665BD"/>
<stop offset="1" stop-color="#1A1F77"/>
</linearGradient>
<linearGradient id="paint14_linear_61_3651" x1="25.285" y1="30.2144" x2="25.285" y2="12.1964" gradientUnits="userSpaceOnUse">
<stop stop-color="#9D68C2"/>
<stop offset="1" stop-color="#CCEDFF"/>
</linearGradient>
<linearGradient id="paint15_linear_61_3651" x1="13.1513" y1="27.8724" x2="36.6113" y2="27.8724" gradientUnits="userSpaceOnUse">
<stop stop-color="#8879EA"/>
<stop offset="1" stop-color="#9E8CEF"/>
</linearGradient>
<linearGradient id="paint16_linear_61_3651" x1="24.847" y1="28.9187" x2="24.847" y2="25.5343" gradientUnits="userSpaceOnUse">
<stop stop-color="#8DA4E5"/>
<stop offset="1" stop-color="#755CBB"/>
</linearGradient>
<linearGradient id="paint17_linear_61_3651" x1="24.7874" y1="28.4397" x2="25.2285" y2="24.9311" gradientUnits="userSpaceOnUse">
<stop stop-color="#5E36CC"/>
<stop offset="1" stop-color="#6C4A96"/>
</linearGradient>
<linearGradient id="paint18_linear_61_3651" x1="12.8711" y1="26.0369" x2="12.8711" y2="21.2885" gradientUnits="userSpaceOnUse">
<stop stop-color="#8DA4E5"/>
<stop offset="1" stop-color="#755CBB"/>
</linearGradient>
<linearGradient id="paint19_linear_61_3651" x1="6.43021" y1="22.9342" x2="8.1718" y2="9.07905" gradientUnits="userSpaceOnUse">
<stop stop-color="#BE9DEA"/>
<stop offset="1" stop-color="#9E8CEF"/>
</linearGradient>
<linearGradient id="paint20_linear_61_3651" x1="13.1815" y1="23.0163" x2="14.0773" y2="19.2149" gradientUnits="userSpaceOnUse">
<stop stop-color="#DD1A8F"/>
<stop offset="1" stop-color="#FE117E"/>
</linearGradient>
<linearGradient id="paint21_linear_61_3651" x1="14.9197" y1="6.03189" x2="36.54" y2="6.03189" gradientUnits="userSpaceOnUse">
<stop/>
<stop offset="1" stop-color="#6A9BFF"/>
</linearGradient>
<linearGradient id="paint22_linear_61_3651" x1="17.9761" y1="20.448" x2="33.6456" y2="20.448" gradientUnits="userSpaceOnUse">
<stop/>
<stop offset="1" stop-color="#6A9BFF"/>
</linearGradient>
<linearGradient id="paint23_linear_61_3651" x1="40.2798" y1="13.0198" x2="40.2798" y2="12.5315" gradientUnits="userSpaceOnUse">
<stop stop-color="#9D68C2"/>
<stop offset="1" stop-color="#CCEDFF"/>
</linearGradient>
<linearGradient id="paint24_linear_61_3651" x1="13.4225" y1="21.1248" x2="13.4225" y2="19.4666" gradientUnits="userSpaceOnUse">
<stop stop-color="#D93DE3"/>
<stop offset="1" stop-color="#FF6DBA"/>
</linearGradient>
<linearGradient id="paint25_linear_61_3651" x1="12.8329" y1="17.8323" x2="13.3699" y2="10.0067" gradientUnits="userSpaceOnUse">
<stop/>
<stop offset="1" stop-color="#00E3FF"/>
</linearGradient>
<linearGradient id="paint26_linear_61_3651" x1="38.1518" y1="5.32899" x2="41.2021" y2="5.32899" gradientUnits="userSpaceOnUse">
<stop/>
<stop offset="1" stop-color="#D4E2FF"/>
</linearGradient>
<linearGradient id="paint27_linear_61_3651" x1="8.89128" y1="4.85772" x2="12.2529" y2="4.85772" gradientUnits="userSpaceOnUse">
<stop stop-color="#D4E2FF"/>
<stop offset="1"/>
</linearGradient>
<linearGradient id="paint28_linear_61_3651" x1="6.15525" y1="13.5694" x2="6.21928" y2="9.69256" gradientUnits="userSpaceOnUse">
<stop stop-color="#CBC1F7"/>
<stop offset="1" stop-color="#E8DCF7"/>
</linearGradient>
<linearGradient id="paint29_linear_61_3651" x1="9.10103" y1="45.2314" x2="15.5479" y2="25.3866" gradientUnits="userSpaceOnUse">
<stop stop-color="#CBC1F7"/>
<stop offset="1" stop-color="#E8DCF7"/>
</linearGradient>
<linearGradient id="paint30_linear_61_3651" x1="10.2174" y1="45.0448" x2="13.4872" y2="27.9578" gradientUnits="userSpaceOnUse">
<stop stop-color="#9D68C2"/>
<stop offset="1" stop-color="#CCEDFF"/>
</linearGradient>
<linearGradient id="paint31_linear_61_3651" x1="7.47604" y1="44.8329" x2="7.31375" y2="40.4015" gradientUnits="userSpaceOnUse">
<stop stop-color="#BE9DEA"/>
<stop offset="1" stop-color="#9E8CEF"/>
</linearGradient>
<linearGradient id="paint32_linear_61_3651" x1="9.56263" y1="41.8706" x2="1.5293" y2="49.4767" gradientUnits="userSpaceOnUse">
<stop stop-color="#CBC1F7"/>
<stop offset="1" stop-color="#E8DCF7"/>
</linearGradient>
<linearGradient id="paint33_linear_61_3651" x1="7.12427" y1="43.2391" x2="0.58798" y2="48.0366" gradientUnits="userSpaceOnUse">
<stop stop-color="#BE9DEA"/>
<stop offset="1" stop-color="#9E8CEF"/>
</linearGradient>
<linearGradient id="paint34_linear_61_3651" x1="5.7803" y1="43.9069" x2="1.99403" y2="46.6859" gradientUnits="userSpaceOnUse">
<stop stop-color="#8DA4E5"/>
<stop offset="1" stop-color="#755CBB"/>
</linearGradient>
<linearGradient id="paint35_linear_61_3651" x1="5.51748" y1="41.8469" x2="0.53257" y2="46.5667" gradientUnits="userSpaceOnUse">
<stop stop-color="#CBC1F7"/>
<stop offset="1" stop-color="#E8DCF7"/>
</linearGradient>
<linearGradient id="paint36_linear_61_3651" x1="8.62066" y1="43.9788" x2="4.99737" y2="46.6382" gradientUnits="userSpaceOnUse">
<stop stop-color="#BE9DEA"/>
<stop offset="1" stop-color="#9E8CEF"/>
</linearGradient>
<linearGradient id="paint37_linear_61_3651" x1="17.022" y1="30.4748" x2="18.8601" y2="30.5942" gradientUnits="userSpaceOnUse">
<stop stop-color="#8879EA"/>
<stop offset="1" stop-color="#9E8CEF"/>
</linearGradient>
<linearGradient id="paint38_linear_61_3651" x1="41.3596" y1="44.8788" x2="34.9127" y2="25.0341" gradientUnits="userSpaceOnUse">
<stop stop-color="#CBC1F7"/>
<stop offset="1" stop-color="#E8DCF7"/>
</linearGradient>
<linearGradient id="paint39_linear_61_3651" x1="40.2432" y1="44.6924" x2="36.9734" y2="27.6055" gradientUnits="userSpaceOnUse">
<stop stop-color="#9D68C2"/>
<stop offset="1" stop-color="#CCEDFF"/>
</linearGradient>
<linearGradient id="paint40_linear_61_3651" x1="42.9847" y1="44.4803" x2="43.147" y2="40.0489" gradientUnits="userSpaceOnUse">
<stop stop-color="#BE9DEA"/>
<stop offset="1" stop-color="#9E8CEF"/>
</linearGradient>
<linearGradient id="paint41_linear_61_3651" x1="40.898" y1="41.5181" x2="48.9313" y2="49.1241" gradientUnits="userSpaceOnUse">
<stop stop-color="#CBC1F7"/>
<stop offset="1" stop-color="#E8DCF7"/>
</linearGradient>
<linearGradient id="paint42_linear_61_3651" x1="42.6414" y1="42.5426" x2="49.7934" y2="47.7919" gradientUnits="userSpaceOnUse">
<stop stop-color="#BE9DEA"/>
<stop offset="1" stop-color="#9E8CEF"/>
</linearGradient>
<linearGradient id="paint43_linear_61_3651" x1="43.1396" y1="41.8637" x2="48.7336" y2="45.9695" gradientUnits="userSpaceOnUse">
<stop stop-color="#8DA4E5"/>
<stop offset="1" stop-color="#755CBB"/>
</linearGradient>
<linearGradient id="paint44_linear_61_3651" x1="43.9257" y1="42.0751" x2="50.0162" y2="42.1188" gradientUnits="userSpaceOnUse">
<stop stop-color="#CBC1F7"/>
<stop offset="1" stop-color="#E8DCF7"/>
</linearGradient>
<linearGradient id="paint45_linear_61_3651" x1="41.84" y1="43.6262" x2="45.4633" y2="46.2856" gradientUnits="userSpaceOnUse">
<stop stop-color="#BE9DEA"/>
<stop offset="1" stop-color="#9E8CEF"/>
</linearGradient>
<linearGradient id="paint46_linear_61_3651" x1="33.4387" y1="30.1222" x2="31.6005" y2="30.2416" gradientUnits="userSpaceOnUse">
<stop stop-color="#8879EA"/>
<stop offset="1" stop-color="#9E8CEF"/>
</linearGradient>
<linearGradient id="paint47_linear_61_3651" x1="24.1078" y1="52.1914" x2="27.4087" y2="25.9311" gradientUnits="userSpaceOnUse">
<stop stop-color="#CBC1F7"/>
<stop offset="1" stop-color="#E8DCF7"/>
</linearGradient>
<linearGradient id="paint48_linear_61_3651" x1="25.4473" y1="52.2361" x2="25.4473" y2="31.1079" gradientUnits="userSpaceOnUse">
<stop stop-color="#9D68C2"/>
<stop offset="1" stop-color="#CCEDFF"/>
</linearGradient>
<linearGradient id="paint49_linear_61_3651" x1="25.245" y1="51.8066" x2="25.245" y2="35.1661" gradientUnits="userSpaceOnUse">
<stop stop-color="#BE9DEA"/>
<stop offset="1" stop-color="#9E8CEF"/>
</linearGradient>
<radialGradient id="paint50_radial_61_3651" cx="0" cy="0" r="1" gradientUnits="userSpaceOnUse" gradientTransform="translate(25.8134 50.1811) scale(13.2782 13.2893)">
<stop stop-color="#CE40E0"/>
<stop offset="1" stop-color="#DD1A8F"/>
</radialGradient>
<linearGradient id="paint51_linear_61_3651" x1="25.0829" y1="30.8844" x2="25.0829" y2="25.7338" gradientUnits="userSpaceOnUse">
<stop stop-color="#8DA4E5"/>
<stop offset="1" stop-color="#755CBB"/>
</linearGradient>
<linearGradient id="paint52_linear_61_3651" x1="18.5165" y1="39.7186" x2="32.9748" y2="39.7186" gradientUnits="userSpaceOnUse">
<stop/>
<stop offset="1" stop-color="#FF955C"/>
</linearGradient>
<linearGradient id="paint53_linear_61_3651" x1="25.7455" y1="51.4766" x2="25.7455" y2="48.5941" gradientUnits="userSpaceOnUse">
<stop stop-color="#FF4B90"/>
<stop offset="1"/>
</linearGradient>
</defs>
</svg>
