<svg width="50" height="60" viewBox="0 0 50 60" fill="none" xmlns="http://www.w3.org/2000/svg">
<path d="M13.4419 46.3898C13.373 46.5965 13.3386 46.8375 13.2698 47.0786C12.3407 50.6259 11.274 55.9295 11.5493 58.1337C11.6181 58.6503 11.7557 58.9946 11.9966 59.1324C12.0654 59.1668 12.1343 59.1668 12.2031 59.1668C12.444 59.2013 12.7537 59.098 13.1322 58.9258C15.3345 57.8237 19.1884 53.3466 19.8767 51.8313C19.9799 51.6591 20.0143 51.4869 19.9799 51.418C19.6014 49.9026 14.9559 43.2903 14.4054 43.6347C14.2333 43.7036 13.8892 44.8056 13.4419 46.3898Z" fill="url(#paint0_linear_111_1159)"/>
<path d="M19.8421 51.8313C19.8421 52.3823 13.6482 48.594 14.3708 43.6347C14.3708 43.6347 19.8765 46.6309 19.8421 51.8313Z" fill="url(#paint1_linear_111_1159)"/>
<path opacity="0.3" d="M13.4418 46.3898C13.4418 46.3898 16.642 48.9383 16.7796 51.0391C16.9173 53.1055 14.9215 57.066 13.0977 58.9258C15.3 57.8237 19.154 53.3466 19.8422 51.8313C19.9454 51.6591 19.9798 51.4869 19.9454 51.418C19.5669 49.9026 14.9215 43.2903 14.3709 43.6347C14.2332 43.7036 13.8891 44.8056 13.4418 46.3898Z" fill="url(#paint2_linear_111_1159)"/>
<path d="M35.1894 47.2164C35.2582 47.423 35.2926 47.6641 35.3615 47.9052C36.2906 51.4524 37.3573 56.7561 37.082 58.9602C37.0132 59.4768 36.8755 59.8212 36.6347 59.9589C36.5658 59.9934 36.497 59.9934 36.4282 59.9934C36.1873 60.0278 35.8776 59.9245 35.4991 59.7523C33.2968 58.6502 29.4428 54.1731 28.7546 52.6578C28.6514 52.4856 28.617 52.3134 28.6514 52.2445C29.0299 50.7292 33.6753 44.1168 34.2259 44.4612C34.398 44.5645 34.7765 45.6666 35.1894 47.2164Z" fill="url(#paint3_linear_111_1159)"/>
<path d="M28.789 52.6578C28.789 53.2088 34.9829 49.4205 34.2603 44.4612C34.2603 44.4612 28.789 47.4919 28.789 52.6578Z" fill="url(#paint4_linear_111_1159)"/>
<path d="M33.056 52.7267C32.8151 52.9333 33.641 55.103 34.1571 55.0341C34.6733 54.9997 33.6066 52.279 33.056 52.7267Z" fill="white"/>
<path d="M14.4395 55.9295C14.1296 55.8951 13.4408 57.1693 13.854 57.4793C14.2673 57.7892 15.1283 55.9984 14.4395 55.9295Z" fill="white"/>
<path opacity="0.3" d="M35.1893 47.2164C35.1893 47.2164 31.9891 49.7649 31.8515 51.8657C31.7139 53.932 33.7097 57.8926 35.5334 59.7523C33.3312 58.6502 29.4772 54.1731 28.789 52.6578C28.6857 52.4856 28.6513 52.3134 28.6857 52.2445C29.0642 50.7292 33.7097 44.1168 34.2603 44.4612C34.3979 44.5645 34.7764 45.6666 35.1893 47.2164Z" fill="url(#paint5_linear_111_1159)"/>
<path d="M33.6753 3.78833C33.6753 3.78833 35.8432 1.92861 38.4584 1.61865C38.4584 1.61865 39.2499 1.99749 40.2134 4.92483C41.1424 7.81774 39.4219 13.5691 39.4219 13.5691L33.6753 3.78833Z" fill="url(#paint6_linear_111_1159)"/>
<path d="M39.4907 3.06511C39.4907 3.06511 39.0778 2.06636 38.4584 1.61865C38.4584 1.61865 36.2905 3.61614 36.3938 8.40321L37.0132 9.05756L39.4907 3.06511Z" fill="url(#paint7_linear_111_1159)"/>
<path d="M15.8505 3.78833C15.8505 3.78833 13.6827 1.92861 11.0674 1.61865C11.0674 1.61865 10.276 1.99749 9.3125 4.92483C8.38341 7.81774 10.1039 13.5691 10.1039 13.5691L15.8505 3.78833Z" fill="url(#paint8_linear_111_1159)"/>
<path d="M11.0675 1.61861C11.0675 1.61861 13.201 3.89161 13.201 7.57662L12.3751 8.09321L9.96639 3.13394C10.0008 3.13394 10.7922 1.58417 11.0675 1.61861Z" fill="url(#paint9_linear_111_1159)"/>
<path d="M12.4783 7.8522C12.4783 7.8522 13.0289 4.71822 10.9642 2.37634C10.9642 2.37634 8.62432 3.4784 7.66082 7.57669C6.69732 11.675 9.2093 14.1202 9.2093 14.1202L12.4783 7.8522Z" fill="url(#paint10_linear_111_1159)"/>
<path d="M37.0819 7.8522C37.0819 7.8522 36.5314 4.71822 38.596 2.37634C38.596 2.37634 40.9359 3.4784 41.8994 7.57669C42.8629 11.675 40.3509 14.1202 40.3509 14.1202L37.0819 7.8522Z" fill="url(#paint11_linear_111_1159)"/>
<path d="M9.58786 25.2441C14.4054 31.9942 36.9788 31.4776 39.9037 26.0362C41.8307 22.4889 41.6242 17.1164 39.766 12.1915C37.3573 5.75138 32.0924 0 25.1415 0C16.9517 0 10.6546 8.16213 8.76201 15.601C7.79851 19.3894 7.97056 22.9711 9.58786 25.2441Z" fill="url(#paint12_linear_111_1159)"/>
<path d="M38.2174 19.0105C37.1507 23.591 17.2958 24.1076 12.4439 19.9404C7.59196 15.7732 14.5773 0.99874 25.3479 1.65309C35.1549 2.23856 39.9724 11.4683 38.2174 19.0105Z" fill="#DFE3FB"/>
<path d="M38.3208 18.425C37.254 23.0055 17.3991 23.5221 12.5472 19.3549C7.66088 15.1877 14.6807 0.413229 25.4512 1.06758C35.2582 1.65305 40.0757 10.9172 38.3208 18.425Z" fill="url(#paint13_linear_111_1159)"/>
<path opacity="0.3" d="M9.58786 25.2441C14.4054 31.9942 36.9788 31.4776 39.9037 26.0362C41.8307 22.4889 41.6242 17.1164 39.766 12.1915C39.8348 12.467 41.7274 19.3894 39.8004 22.42C37.839 25.5196 30.0278 25.1063 21.6316 24.7275C13.2354 24.3831 10.4825 23.1433 9.0717 20.7669C7.97056 18.9072 9.0717 14.8089 9.58786 13.1214L8.76201 15.5666C7.79851 19.3894 7.97056 22.9711 9.58786 25.2441Z" fill="url(#paint14_linear_111_1159)"/>
<path d="M25.107 30.2033C29.7869 30.2033 33.1935 29.6867 35.0861 28.8946C36.3249 28.4125 36.9443 27.7926 36.8411 27.2071C36.7723 26.8283 35.8776 26.5183 34.4323 26.2428C30.1654 25.4851 21.3563 25.244 16.6076 25.9673C16.1947 26.0361 15.8162 26.105 15.4721 26.1739C15.4032 26.1739 15.3344 26.2083 15.2656 26.2083H15.2312C14.4053 26.415 13.8203 26.6561 13.5795 26.966C13.5106 27.0349 13.4762 27.1038 13.4418 27.2071C12.9601 28.7569 20.8745 30.2033 25.107 30.2033Z" fill="url(#paint15_linear_111_1159)"/>
<path opacity="0.5" d="M13.4762 26.8283C13.4762 26.8627 13.5106 26.9316 13.545 26.966C13.9923 27.6204 15.8849 28.4469 15.8849 28.4469C15.8849 28.4469 23.0424 25.5196 28.8578 26.8283C34.6732 28.1369 35.1205 28.8946 35.1205 28.8946C36.3593 28.4125 36.9787 27.7926 36.8754 27.2071C36.8066 26.8283 35.9119 26.5183 34.4667 26.2428C30.1998 25.4851 21.3906 25.244 16.642 25.9673C16.1602 26.0706 15.6785 26.1395 15.3 26.2428H15.2655C14.0612 26.4839 13.4074 26.6905 13.4762 26.8283Z" fill="url(#paint16_linear_111_1159)"/>
<path d="M15.4376 26.1739C16.5388 27.2415 21.8724 28.137 24.9005 28.137C30.3374 28.137 33.6409 27.276 34.3979 26.2428C29.7869 25.4162 19.7734 25.2096 15.4376 26.1739Z" fill="url(#paint17_linear_111_1159)"/>
<path opacity="0.5" d="M39.9037 26.0361C39.9037 26.0361 38.9402 24.9341 37.082 24.0387C35.2238 23.1432 33.5033 22.4544 33.228 21.7312C32.9527 21.008 38.3552 21.4213 38.3552 21.4213L41.0392 22.5922C41.0392 22.5922 40.6263 24.7619 39.9037 26.0361Z" fill="url(#paint18_linear_111_1159)"/>
<path d="M42.1059 9.05756C42.1059 9.05756 40.7295 9.95298 41.6241 12.0193C41.6241 12.0193 48.1278 15.5666 47.7492 19.4238C47.4395 22.6611 38.4584 21.0769 38.4584 21.0769L38.1487 22.1445C38.1487 22.1445 45.7878 23.6254 48.403 21.8346C48.403 21.8346 49.2977 19.6993 47.061 15.8766C44.8587 12.0538 42.1059 9.05756 42.1059 9.05756Z" fill="url(#paint19_linear_111_1159)"/>
<path d="M39.5939 20.8013C40.4198 21.7312 38.6648 22.73 37.254 22.9021C35.6367 23.0743 32.815 22.4544 32.9871 20.8358C33.1247 19.1827 37.6669 18.6317 39.5939 20.8013Z" fill="url(#paint20_linear_111_1159)"/>
<path opacity="0.5" d="M35.0517 6.819C35.2926 8.2999 31.9892 8.23102 27.4814 8.09326C22.1133 7.92106 16.6764 12.5704 13.5106 9.22976C12.9945 8.67873 18.1561 1.44646 24.4188 1.58422C30.6816 1.72198 34.8453 5.54475 35.0517 6.819Z" fill="url(#paint21_linear_111_1159)"/>
<path opacity="0.5" d="M31.9892 19.7682C32.2645 20.8358 30.0278 21.7312 24.4877 21.6624C17.4679 21.5935 16.2291 19.8715 16.3668 19.7682C16.3668 19.7682 19.2917 21.4902 24.763 20.2504C28.4105 19.4927 31.7139 18.6317 31.9892 19.7682Z" fill="url(#paint22_linear_111_1159)"/>
<path opacity="0.3" d="M9.62211 13.018L9.79431 12.5359C9.75987 12.6392 9.72543 12.777 9.62211 13.018Z" fill="url(#paint23_linear_111_1159)"/>
<path d="M21.3219 0.964335C21.8036 1.06765 17.812 3.16846 17.6399 2.92738C17.4679 2.6863 19.9799 0.654381 21.3219 0.964335Z" fill="white"/>
<path d="M13.6827 2.51412C14.0956 2.72076 14.0612 3.16847 13.2354 3.06515C12.4095 2.96183 11.9622 2.30749 12.0654 2.16973C12.0998 2.06641 13.2354 2.27305 13.6827 2.51412Z" fill="white"/>
<path d="M6.42197 14.9123C6.6286 14.8778 6.55972 16.8064 6.28421 16.7031C6.00869 16.5998 6.11201 14.9467 6.42197 14.9123Z" fill="white"/>
<path d="M39.4907 20.9736C39.5251 21.2491 33.8129 21.318 33.6753 20.2848C33.5376 19.2516 39.1122 18.9072 39.4907 20.9736Z" fill="url(#paint24_linear_111_1159)"/>
<path opacity="0.2" d="M38.0799 16.9097C38.0799 16.9097 38.3208 15.36 38.0455 13.2592C37.7702 11.1584 37.2197 9.81522 36.8756 9.98741C36.5315 10.194 36.6003 12.226 36.3938 14.2579C36.2562 15.8421 35.9465 17.323 35.9465 17.323C35.9465 17.323 37.3573 18.7006 38.0799 16.9097Z" fill="url(#paint25_linear_111_1159)"/>
<path opacity="0.72" d="M9.17493 4.23602C9.17493 4.23602 9.93196 3.30616 10.9643 3.54723C11.9966 3.78831 12.0654 7.06005 11.446 7.12893C10.8266 7.19781 10.5514 5.33808 10.104 5.02813C9.62227 4.71817 8.79641 4.85593 8.79641 4.85593L9.17493 4.23602Z" fill="url(#paint26_linear_111_1159)"/>
<path opacity="0.72" d="M41.108 5.37255C41.108 5.37255 40.6951 4.92484 39.8004 5.0626C38.9057 5.20035 38.3896 7.06008 37.9423 6.85344C37.4949 6.68125 37.8046 3.68502 39.0434 2.82404C39.0434 2.82404 40.5919 4.16717 41.108 5.37255Z" fill="url(#paint27_linear_111_1159)"/>
<path d="M42.3124 9.71191C42.3124 9.71191 45.4782 13.2592 45.2718 13.5347C45.0997 13.7758 42.1404 10.0907 42.3124 9.71191Z" fill="url(#paint28_linear_111_1159)"/>
<path d="M31.3354 28.9635C31.7483 30.9955 32.5742 33.8884 33.9506 36.0925C36.2217 39.7431 39.4907 44.2546 39.5939 44.3924C41.1768 44.9779 42.8285 44.599 43.8609 44.2546C44.4803 44.048 44.8932 43.8069 44.8932 43.8069C44.8932 43.8069 43.5512 39.3642 40.1101 34.7494C38.3896 32.4075 36.3249 30.3411 34.6388 28.8258C34.6388 28.8258 34.6388 28.8258 34.6044 28.7913C34.57 28.7569 34.57 28.7569 34.5356 28.7225L34.5012 28.688L34.4668 28.6536L34.4323 28.6192C32.7118 27.1038 31.3698 26.2773 31.1633 26.4495C31.0257 26.5872 31.0601 27.5515 31.3354 28.9635Z" fill="url(#paint29_linear_111_1159)"/>
<path opacity="0.3" d="M31.3354 28.9635C31.7483 30.9954 32.5742 33.8883 33.9506 36.0925C36.2217 39.743 39.4907 44.2546 39.5939 44.3923L43.8609 44.2546C44.4803 44.048 44.8932 43.8069 44.8932 43.8069C44.8932 43.8069 43.5512 39.3642 40.1101 34.7493C38.3896 32.4074 36.3249 30.3411 34.6388 28.8257C35.6023 29.7212 39.766 33.5784 41.3833 37.229C43.2071 41.3961 38.8369 40.5007 36.669 38.1244C34.5012 35.7825 31.4042 28.9291 31.4042 28.9291L31.3354 28.9635Z" fill="url(#paint30_linear_111_1159)"/>
<path d="M35.8432 33.1996C36.1529 33.0274 35.0517 31.3054 34.5356 31.3743C33.985 31.4431 35.5679 33.3717 35.8432 33.1996Z" fill="white"/>
<path d="M37.4601 35.6103C37.7012 35.4381 38.08 36.0925 37.8734 36.2647C37.6323 36.4024 37.1846 35.817 37.4601 35.6103Z" fill="white"/>
<path d="M44.2049 41.9127C44.2049 41.9127 43.1038 39.7086 41.2456 40.604C39.3874 41.465 40.7295 44.4957 40.7295 44.4957C40.7295 44.4957 43.207 45.6322 44.9276 43.8413C44.9276 43.8069 44.6867 43.0492 44.2049 41.9127Z" fill="url(#paint31_linear_111_1159)"/>
<path d="M44.2394 41.3617C44.2394 41.3617 41.865 40.3974 40.7639 41.4995C39.8692 42.3949 40.2133 44.3235 40.7295 45.5633C41.2457 46.8031 44.8588 50.7636 46.4761 50.7292C48.0934 50.6603 48.9536 48.9039 48.2998 46.8376C48.3343 46.8376 46.0287 42.7737 44.2394 41.3617Z" fill="url(#paint32_linear_111_1159)"/>
<path d="M44.2394 41.3617C44.2394 41.3617 44.2738 43.5658 45.6846 45.0811C47.0955 46.5965 48.0245 49.9027 48.0245 49.9027C48.0245 49.9027 48.7816 49.0761 48.3342 46.8376C47.8869 44.599 44.2394 41.3617 44.2394 41.3617Z" fill="url(#paint33_linear_111_1159)"/>
<path opacity="0.5" d="M48.1966 46.4243L46.9922 47.2164C46.9922 47.2164 46.5449 46.1488 45.9255 45.3911C45.3061 44.6335 44.7899 43.1526 44.7899 43.1526L48.1966 46.4243Z" fill="url(#paint34_linear_111_1159)"/>
<path d="M44.6523 41.6716C44.6523 41.6716 45.719 41.9127 47.3363 42.9803C48.9192 44.0824 49.8827 45.3566 49.986 45.6666C50.0892 46.011 49.6074 46.5965 49.0569 46.6309C48.5063 46.6653 46.6481 45.5977 46.6481 45.5977C46.6481 45.5977 44.1017 43.187 44.6523 41.6716Z" fill="url(#paint35_linear_111_1159)"/>
<path d="M45.6846 45.0811C45.6846 45.0811 42.7597 44.048 40.5574 45.0811L40.7639 45.5633C40.7639 45.5633 43.0006 44.4612 45.9599 45.3567L45.6846 45.0811Z" fill="url(#paint36_linear_111_1159)"/>
<path d="M48.5407 45.2189C48.6784 45.0467 47.0955 43.9791 47.0266 44.2546C46.9234 44.4957 48.3343 45.4255 48.5407 45.2189Z" fill="white"/>
<path d="M31.1289 26.4839C31.1289 26.4839 33.4 30.2722 33.1591 34.6116C33.1591 34.5771 30.2342 29.2735 31.1289 26.4839Z" fill="url(#paint37_linear_111_1159)"/>
<path d="M18.1905 28.5846C17.7776 30.6166 16.9517 33.5095 15.5753 35.7136C13.3042 39.3642 10.0352 43.8757 9.93194 44.0135C8.34905 44.599 6.69734 44.2201 5.66502 43.8757C5.04563 43.6691 4.6327 43.428 4.6327 43.428C4.6327 43.428 5.97472 38.9853 9.41578 34.3705C11.1363 32.0286 13.201 29.9622 14.8871 28.4469C14.8871 28.4469 14.8871 28.4469 14.9215 28.4124C14.9559 28.378 14.9559 28.378 14.9903 28.3436L15.0247 28.3091L15.0591 28.2747L15.0935 28.2402C16.8141 26.7249 18.1561 25.8984 18.3626 26.0706C18.5346 26.2083 18.4658 27.2071 18.1905 28.5846Z" fill="url(#paint38_linear_111_1159)"/>
<path opacity="0.3" d="M18.1905 28.5847C17.7776 30.6166 16.9517 33.5095 15.5753 35.7136C13.3042 39.3642 10.0352 43.8757 9.93193 44.0135L5.66501 43.8757C5.04562 43.6691 4.63269 43.428 4.63269 43.428C4.63269 43.428 5.97471 38.9854 9.41577 34.3705C11.1363 32.0286 13.2009 29.9622 14.8871 28.4469C13.9236 29.3423 9.75988 33.1995 8.14258 36.8501C6.31881 41.0173 10.689 40.1219 12.8568 37.7455C15.0591 35.4381 18.1561 28.5847 18.1561 28.5847H18.1905Z" fill="url(#paint39_linear_111_1159)"/>
<path d="M13.6827 32.8551C13.373 32.6829 14.4742 30.961 14.9903 31.0298C15.5409 31.0987 13.958 33.0273 13.6827 32.8551Z" fill="white"/>
<path d="M5.35524 41.5684C5.35524 41.5684 6.45638 39.3642 8.31456 40.2597C10.1727 41.1206 8.83072 44.1513 8.83072 44.1513C8.83072 44.1513 6.35315 45.2878 4.63262 43.497C4.63262 43.4625 4.83908 42.6704 5.35524 41.5684Z" fill="url(#paint40_linear_111_1159)"/>
<path d="M5.2865 41.0173C5.2865 41.0173 7.66083 40.053 8.76198 41.1551C9.65665 42.0505 9.31255 43.9791 8.79639 45.2189C8.28023 46.4588 4.66711 50.4193 3.04981 50.3848C1.43251 50.316 0.57224 48.5596 1.22604 46.4932C1.22604 46.4932 3.49715 42.3949 5.2865 41.0173Z" fill="url(#paint41_linear_111_1159)"/>
<path d="M6.07794 40.7762C6.07794 40.7762 5.52737 43.1526 3.84125 44.7368C2.32718 46.1488 1.50133 49.5583 1.50133 49.5583C1.50133 49.5583 0.744288 48.7317 1.19163 46.4932C1.67338 44.2546 6.07794 40.7762 6.07794 40.7762Z" fill="url(#paint42_linear_111_1159)"/>
<path opacity="0.5" d="M1.32926 46.0455L2.49922 46.7343C2.49922 46.7343 2.94656 45.7011 3.60036 45.0123C5.63059 42.877 6.04352 40.7762 6.04352 40.7762L3.29067 43.2903C3.29067 43.2903 2.60245 44.0135 2.1207 44.6679C1.87983 45.0123 1.32926 46.0455 1.32926 46.0455Z" fill="url(#paint43_linear_111_1159)"/>
<path d="M6.07794 40.7762C6.07794 40.7762 5.52737 40.604 3.56597 40.5696C1.57015 40.5352 0.503412 41.0862 0.228127 41.2584C-0.0471582 41.4306 -0.115978 42.1882 0.262539 42.6015C0.641057 43.0148 4.15095 43.6347 4.15095 43.6347C4.15095 43.6347 5.42414 42.2571 6.07794 40.7762Z" fill="url(#paint44_linear_111_1159)"/>
<path d="M3.84125 44.7368C3.84125 44.7368 6.76616 43.7036 8.96844 44.7368L8.76198 45.2189C8.76198 45.2189 6.52529 44.1169 3.56597 45.0123L3.84125 44.7368Z" fill="url(#paint45_linear_111_1159)"/>
<path d="M1.81101 41.0518C1.7766 40.8451 3.7036 40.8796 3.60037 41.1551C3.53154 41.4306 1.84542 41.3617 1.81101 41.0518Z" fill="white"/>
<path d="M18.397 26.105C18.397 26.105 16.1259 29.8934 16.3668 34.2327C16.3668 34.2327 19.3261 28.9291 18.397 26.105Z" fill="url(#paint46_linear_111_1159)"/>
<path d="M27.1028 18.3907C27.1028 18.3907 25.7608 16.7031 24.35 16.3932C22.9392 16.0832 22.4574 17.8052 22.4574 17.8052C22.4574 17.8052 25.0726 17.633 27.1028 18.3907Z" fill="#2F95CD"/>
<path d="M15.4376 45.7699C16.0914 49.6271 19.5669 52.2101 24.522 52.2101C28.8578 52.2101 32.5053 50.5914 33.4688 47.0442C34.4323 43.4969 34.0538 36.919 32.7806 32.8551C32.5741 32.2352 32.3677 31.6498 32.0924 31.0987C31.8515 30.5822 31.5762 30.1 31.2665 29.6523C29.6836 27.276 27.3781 25.7262 24.7629 25.7262C22.0445 25.7262 19.9798 26.8283 18.5346 28.5158C17.8808 29.2735 17.3646 30.1689 16.9861 31.0987C16.5732 32.1664 16.1947 33.3373 15.9194 34.5082V34.5427C15.0247 38.2621 14.8527 42.326 15.4376 45.7699Z" fill="url(#paint47_linear_111_1159)"/>
<path opacity="0.3" d="M15.4376 45.7699C16.0914 49.6271 19.5669 52.2101 24.522 52.2101C28.8578 52.2101 32.5053 50.5914 33.4688 47.0442C34.4323 43.4969 34.0538 36.919 32.7806 32.8552C32.5741 32.2353 32.3677 31.6498 32.0924 31.0988C32.0924 31.0988 34.7076 39.7775 32.6086 45.3222C30.5095 50.867 20.7713 50.7292 17.4679 47.0442C14.3365 43.5658 15.7817 35.3348 15.9194 34.5427C15.0247 38.2621 14.8527 42.326 15.4376 45.7699Z" fill="url(#paint48_linear_111_1159)"/>
<path d="M33.2968 43.4969C32.5742 38.2966 28.3761 34.7838 23.7651 35.2315C18.7755 35.7136 16.0915 40.4663 16.1603 44.5646C16.2291 48.6628 19.2229 51.8313 24.5565 51.8313C29.9246 51.7968 33.985 48.3529 33.2968 43.4969Z" fill="url(#paint49_linear_111_1159)"/>
<path opacity="0.5" d="M18.5346 28.5158C19.6014 30.1689 25.4168 31.1332 28.789 30.8232C31.7139 30.5477 31.2666 29.7556 31.2666 29.6523C29.6837 27.276 27.3782 25.7262 24.763 25.7262C22.0445 25.7262 19.9455 26.8627 18.5346 28.5158Z" fill="url(#paint50_linear_111_1159)"/>
<path d="M20.5991 31.3743C20.8746 31.4776 20.8746 33.6473 20.5991 33.9917C20.3236 34.3361 19.8759 34.2328 19.7037 33.7162C19.5659 33.234 20.2203 31.2365 20.5991 31.3743Z" fill="white"/>
<defs>
<linearGradient id="paint0_linear_111_1159" x1="13.8408" y1="59.6086" x2="17.8947" y2="44.5326" gradientUnits="userSpaceOnUse">
<stop stop-color="#CBC1F7"/>
<stop offset="1" stop-color="#E8DCF7"/>
</linearGradient>
<linearGradient id="paint1_linear_111_1159" x1="16.0399" y1="50.3764" x2="18.1681" y2="45.1653" gradientUnits="userSpaceOnUse">
<stop stop-color="#BE9DEA"/>
<stop offset="1" stop-color="#9E8CEF"/>
</linearGradient>
<linearGradient id="paint2_linear_111_1159" x1="12.6156" y1="58.713" x2="18.1674" y2="45.1182" gradientUnits="userSpaceOnUse">
<stop stop-color="#9D68C2"/>
<stop offset="1" stop-color="#CCEDFF"/>
</linearGradient>
<linearGradient id="paint3_linear_111_1159" x1="34.7974" y1="60.4575" x2="30.7436" y2="45.3815" gradientUnits="userSpaceOnUse">
<stop stop-color="#CBC1F7"/>
<stop offset="1" stop-color="#E8DCF7"/>
</linearGradient>
<linearGradient id="paint4_linear_111_1159" x1="32.5982" y1="51.2254" x2="30.4701" y2="46.0142" gradientUnits="userSpaceOnUse">
<stop stop-color="#BE9DEA"/>
<stop offset="1" stop-color="#9E8CEF"/>
</linearGradient>
<linearGradient id="paint5_linear_111_1159" x1="36.0225" y1="59.5619" x2="30.4707" y2="45.9671" gradientUnits="userSpaceOnUse">
<stop stop-color="#9D68C2"/>
<stop offset="1" stop-color="#CCEDFF"/>
</linearGradient>
<linearGradient id="paint6_linear_111_1159" x1="37.0755" y1="13.5557" x2="37.0755" y2="1.61376" gradientUnits="userSpaceOnUse">
<stop stop-color="#B9ACF4"/>
<stop offset="1" stop-color="#E1D1F5"/>
</linearGradient>
<linearGradient id="paint7_linear_111_1159" x1="37.9298" y1="9.04423" x2="37.9298" y2="1.61376" gradientUnits="userSpaceOnUse">
<stop stop-color="#BE9DEA"/>
<stop offset="1" stop-color="#9E8CEF"/>
</linearGradient>
<linearGradient id="paint8_linear_111_1159" x1="12.4638" y1="13.5557" x2="12.4638" y2="1.61376" gradientUnits="userSpaceOnUse">
<stop stop-color="#B9ACF4"/>
<stop offset="1" stop-color="#E1D1F5"/>
</linearGradient>
<linearGradient id="paint9_linear_111_1159" x1="11.5974" y1="8.10468" x2="11.5974" y2="1.61282" gradientUnits="userSpaceOnUse">
<stop stop-color="#BE9DEA"/>
<stop offset="1" stop-color="#9E8CEF"/>
</linearGradient>
<linearGradient id="paint10_linear_111_1159" x1="9.98474" y1="14.1271" x2="9.98474" y2="2.3938" gradientUnits="userSpaceOnUse">
<stop stop-color="#DD1A8F"/>
<stop offset="1" stop-color="#FE117E"/>
</linearGradient>
<linearGradient id="paint11_linear_111_1159" x1="39.5546" y1="14.1271" x2="39.5546" y2="2.3938" gradientUnits="userSpaceOnUse">
<stop stop-color="#DD1A8F"/>
<stop offset="1" stop-color="#FE117E"/>
</linearGradient>
<linearGradient id="paint12_linear_111_1159" x1="26.0567" y1="30.494" x2="22.2571" y2="0.266002" gradientUnits="userSpaceOnUse">
<stop stop-color="#CBC1F7"/>
<stop offset="1" stop-color="#E8DCF7"/>
</linearGradient>
<linearGradient id="paint13_linear_111_1159" x1="24.819" y1="22.207" x2="24.819" y2="1.05532" gradientUnits="userSpaceOnUse">
<stop stop-color="#0665BD"/>
<stop offset="1" stop-color="#1A1F77"/>
</linearGradient>
<linearGradient id="paint14_linear_111_1159" x1="24.715" y1="30.2145" x2="24.715" y2="12.1966" gradientUnits="userSpaceOnUse">
<stop stop-color="#9D68C2"/>
<stop offset="1" stop-color="#CCEDFF"/>
</linearGradient>
<linearGradient id="paint15_linear_111_1159" x1="36.8487" y1="27.8722" x2="13.3887" y2="27.8722" gradientUnits="userSpaceOnUse">
<stop stop-color="#8879EA"/>
<stop offset="1" stop-color="#9E8CEF"/>
</linearGradient>
<linearGradient id="paint16_linear_111_1159" x1="25.153" y1="28.9186" x2="25.153" y2="25.5342" gradientUnits="userSpaceOnUse">
<stop stop-color="#8DA4E5"/>
<stop offset="1" stop-color="#755CBB"/>
</linearGradient>
<linearGradient id="paint17_linear_111_1159" x1="25.2126" y1="28.4396" x2="24.7715" y2="24.9309" gradientUnits="userSpaceOnUse">
<stop stop-color="#5E36CC"/>
<stop offset="1" stop-color="#6C4A96"/>
</linearGradient>
<linearGradient id="paint18_linear_111_1159" x1="37.1289" y1="26.0369" x2="37.1289" y2="21.2885" gradientUnits="userSpaceOnUse">
<stop stop-color="#8DA4E5"/>
<stop offset="1" stop-color="#755CBB"/>
</linearGradient>
<linearGradient id="paint19_linear_111_1159" x1="43.5698" y1="22.9341" x2="41.8282" y2="9.07899" gradientUnits="userSpaceOnUse">
<stop stop-color="#BE9DEA"/>
<stop offset="1" stop-color="#9E8CEF"/>
</linearGradient>
<linearGradient id="paint20_linear_111_1159" x1="36.8185" y1="23.0163" x2="35.9227" y2="19.2149" gradientUnits="userSpaceOnUse">
<stop stop-color="#DD1A8F"/>
<stop offset="1" stop-color="#FE117E"/>
</linearGradient>
<linearGradient id="paint21_linear_111_1159" x1="35.0803" y1="6.03189" x2="13.46" y2="6.03189" gradientUnits="userSpaceOnUse">
<stop/>
<stop offset="1" stop-color="#6A9BFF"/>
</linearGradient>
<linearGradient id="paint22_linear_111_1159" x1="32.0239" y1="20.4481" x2="16.3544" y2="20.4481" gradientUnits="userSpaceOnUse">
<stop/>
<stop offset="1" stop-color="#6A9BFF"/>
</linearGradient>
<linearGradient id="paint23_linear_111_1159" x1="9.7202" y1="13.0198" x2="9.7202" y2="12.5315" gradientUnits="userSpaceOnUse">
<stop stop-color="#9D68C2"/>
<stop offset="1" stop-color="#CCEDFF"/>
</linearGradient>
<linearGradient id="paint24_linear_111_1159" x1="36.5775" y1="21.125" x2="36.5775" y2="19.4667" gradientUnits="userSpaceOnUse">
<stop stop-color="#D93DE3"/>
<stop offset="1" stop-color="#FF6DBA"/>
</linearGradient>
<linearGradient id="paint25_linear_111_1159" x1="37.1671" y1="17.8322" x2="36.6301" y2="10.0066" gradientUnits="userSpaceOnUse">
<stop/>
<stop offset="1" stop-color="#00E3FF"/>
</linearGradient>
<linearGradient id="paint26_linear_111_1159" x1="11.8482" y1="5.32899" x2="8.79793" y2="5.32899" gradientUnits="userSpaceOnUse">
<stop/>
<stop offset="1" stop-color="#D4E2FF"/>
</linearGradient>
<linearGradient id="paint27_linear_111_1159" x1="41.1087" y1="4.85778" x2="37.7471" y2="4.85778" gradientUnits="userSpaceOnUse">
<stop stop-color="#D4E2FF"/>
<stop offset="1"/>
</linearGradient>
<linearGradient id="paint28_linear_111_1159" x1="43.8448" y1="13.5694" x2="43.7807" y2="9.69256" gradientUnits="userSpaceOnUse">
<stop stop-color="#CBC1F7"/>
<stop offset="1" stop-color="#E8DCF7"/>
</linearGradient>
<linearGradient id="paint29_linear_111_1159" x1="40.899" y1="45.2314" x2="34.4521" y2="25.3866" gradientUnits="userSpaceOnUse">
<stop stop-color="#CBC1F7"/>
<stop offset="1" stop-color="#E8DCF7"/>
</linearGradient>
<linearGradient id="paint30_linear_111_1159" x1="39.7826" y1="45.0448" x2="36.5128" y2="27.9578" gradientUnits="userSpaceOnUse">
<stop stop-color="#9D68C2"/>
<stop offset="1" stop-color="#CCEDFF"/>
</linearGradient>
<linearGradient id="paint31_linear_111_1159" x1="42.524" y1="44.8327" x2="42.6863" y2="40.4014" gradientUnits="userSpaceOnUse">
<stop stop-color="#BE9DEA"/>
<stop offset="1" stop-color="#9E8CEF"/>
</linearGradient>
<linearGradient id="paint32_linear_111_1159" x1="40.4374" y1="41.8706" x2="48.4707" y2="49.4767" gradientUnits="userSpaceOnUse">
<stop stop-color="#CBC1F7"/>
<stop offset="1" stop-color="#E8DCF7"/>
</linearGradient>
<linearGradient id="paint33_linear_111_1159" x1="42.8757" y1="43.239" x2="49.412" y2="48.0365" gradientUnits="userSpaceOnUse">
<stop stop-color="#BE9DEA"/>
<stop offset="1" stop-color="#9E8CEF"/>
</linearGradient>
<linearGradient id="paint34_linear_111_1159" x1="44.2197" y1="43.9069" x2="48.006" y2="46.6859" gradientUnits="userSpaceOnUse">
<stop stop-color="#8DA4E5"/>
<stop offset="1" stop-color="#755CBB"/>
</linearGradient>
<linearGradient id="paint35_linear_111_1159" x1="44.4825" y1="41.8469" x2="49.4674" y2="46.5667" gradientUnits="userSpaceOnUse">
<stop stop-color="#CBC1F7"/>
<stop offset="1" stop-color="#E8DCF7"/>
</linearGradient>
<linearGradient id="paint36_linear_111_1159" x1="41.3793" y1="43.9787" x2="45.0026" y2="46.638" gradientUnits="userSpaceOnUse">
<stop stop-color="#BE9DEA"/>
<stop offset="1" stop-color="#9E8CEF"/>
</linearGradient>
<linearGradient id="paint37_linear_111_1159" x1="32.978" y1="30.4748" x2="31.1399" y2="30.5942" gradientUnits="userSpaceOnUse">
<stop stop-color="#8879EA"/>
<stop offset="1" stop-color="#9E8CEF"/>
</linearGradient>
<linearGradient id="paint38_linear_111_1159" x1="8.6404" y1="44.8788" x2="15.0873" y2="25.0341" gradientUnits="userSpaceOnUse">
<stop stop-color="#CBC1F7"/>
<stop offset="1" stop-color="#E8DCF7"/>
</linearGradient>
<linearGradient id="paint39_linear_111_1159" x1="9.75682" y1="44.6923" x2="13.0266" y2="27.6054" gradientUnits="userSpaceOnUse">
<stop stop-color="#9D68C2"/>
<stop offset="1" stop-color="#CCEDFF"/>
</linearGradient>
<linearGradient id="paint40_linear_111_1159" x1="7.01527" y1="44.4803" x2="6.85299" y2="40.0489" gradientUnits="userSpaceOnUse">
<stop stop-color="#BE9DEA"/>
<stop offset="1" stop-color="#9E8CEF"/>
</linearGradient>
<linearGradient id="paint41_linear_111_1159" x1="9.10199" y1="41.5182" x2="1.06865" y2="49.1242" gradientUnits="userSpaceOnUse">
<stop stop-color="#CBC1F7"/>
<stop offset="1" stop-color="#E8DCF7"/>
</linearGradient>
<linearGradient id="paint42_linear_111_1159" x1="7.35865" y1="42.5427" x2="0.206637" y2="47.7921" gradientUnits="userSpaceOnUse">
<stop stop-color="#BE9DEA"/>
<stop offset="1" stop-color="#9E8CEF"/>
</linearGradient>
<linearGradient id="paint43_linear_111_1159" x1="6.86036" y1="41.8638" x2="1.26636" y2="45.9696" gradientUnits="userSpaceOnUse">
<stop stop-color="#8DA4E5"/>
<stop offset="1" stop-color="#755CBB"/>
</linearGradient>
<linearGradient id="paint44_linear_111_1159" x1="6.07432" y1="42.0751" x2="-0.0162271" y2="42.1187" gradientUnits="userSpaceOnUse">
<stop stop-color="#CBC1F7"/>
<stop offset="1" stop-color="#E8DCF7"/>
</linearGradient>
<linearGradient id="paint45_linear_111_1159" x1="8.15998" y1="43.6262" x2="4.5367" y2="46.2856" gradientUnits="userSpaceOnUse">
<stop stop-color="#BE9DEA"/>
<stop offset="1" stop-color="#9E8CEF"/>
</linearGradient>
<linearGradient id="paint46_linear_111_1159" x1="16.5613" y1="30.1222" x2="18.3995" y2="30.2417" gradientUnits="userSpaceOnUse">
<stop stop-color="#8879EA"/>
<stop offset="1" stop-color="#9E8CEF"/>
</linearGradient>
<linearGradient id="paint47_linear_111_1159" x1="25.8922" y1="52.1913" x2="22.5913" y2="25.9309" gradientUnits="userSpaceOnUse">
<stop stop-color="#CBC1F7"/>
<stop offset="1" stop-color="#E8DCF7"/>
</linearGradient>
<linearGradient id="paint48_linear_111_1159" x1="24.5527" y1="52.2362" x2="24.5527" y2="31.108" gradientUnits="userSpaceOnUse">
<stop stop-color="#9D68C2"/>
<stop offset="1" stop-color="#CCEDFF"/>
</linearGradient>
<linearGradient id="paint49_linear_111_1159" x1="24.755" y1="51.8066" x2="24.755" y2="35.1661" gradientUnits="userSpaceOnUse">
<stop stop-color="#BE9DEA"/>
<stop offset="1" stop-color="#9E8CEF"/>
</linearGradient>
<linearGradient id="paint50_linear_111_1159" x1="24.9171" y1="30.8843" x2="24.9171" y2="25.7337" gradientUnits="userSpaceOnUse">
<stop stop-color="#8DA4E5"/>
<stop offset="1" stop-color="#755CBB"/>
</linearGradient>
</defs>
</svg>
