<svg width="54" height="60" viewBox="0 0 54 60" fill="none" xmlns="http://www.w3.org/2000/svg">
<path d="M34.5586 1.83948C34.5586 1.83948 37.3505 3.88308 38.4741 8.42058C39.5977 12.9581 33.0945 7.34682 33.0945 7.34682L34.5586 1.83948Z" fill="url(#paint0_linear_82_362)"/>
<path d="M37.0101 6.58476C37.0101 6.58476 34.8991 1.11205 32.9244 0.246118C30.9496 -0.619817 28.0555 1.07742 28.0555 1.07742L37.0101 6.58476Z" fill="url(#paint1_linear_82_362)"/>
<path d="M12.802 25.0812C17.9092 30.5885 37.5889 27.7829 40.3127 23.9728C41.4023 22.4487 41.947 20.6476 42.0151 18.7079C42.3216 10.3949 34.0139 -0.238781 23.6974 0.592517C16.7175 1.14672 12.087 8.00492 10.8613 14.6207C10.1122 18.7425 10.657 22.7951 12.802 25.0812Z" fill="url(#paint2_linear_82_362)"/>
<path d="M17.1942 27.3671C19.7819 27.9559 23.5952 28.2677 26.1148 28.1291C30.7453 27.852 34.0479 27.1246 35.8865 26.2587C37.0782 25.6699 37.657 25.0464 37.5208 24.4576C37.4527 24.0766 36.5334 23.7995 35.0694 23.6263C30.8134 23.1067 22.0971 23.3838 17.4326 24.3537C17.024 24.4576 16.6495 24.5268 16.343 24.6307C16.2749 24.6654 16.2068 24.6654 16.1387 24.7H16.1047C15.3216 24.9425 14.7428 25.2196 14.5044 25.5313C14.4363 25.6006 14.4023 25.7045 14.3683 25.7738C14.2321 26.4319 15.4237 26.9515 17.1942 27.3671Z" fill="url(#paint3_linear_82_362)"/>
<path opacity="0.3" d="M12.802 25.0812C17.9092 30.5886 37.5889 27.7829 40.3127 23.9728C41.4023 22.4488 41.947 20.6476 42.0151 18.7079C42.0151 18.7079 40.8575 21.4097 36.8739 22.137C32.8903 22.8644 21.1778 22.9683 18.6923 21.3057C16.2068 19.6431 16.6835 11.4341 16.6835 11.4341L10.8613 14.6207C10.1122 18.7426 10.657 22.7951 12.802 25.0812Z" fill="url(#paint4_linear_82_362)"/>
<path opacity="0.5" d="M17.1942 27.3671C19.135 26.3626 24.855 23.7302 29.5877 24.5268C35.4099 25.4967 35.8865 26.2587 35.8865 26.2587C37.0782 25.6699 37.657 25.0464 37.5208 24.4576C37.4527 24.0766 36.5334 23.7995 35.0694 23.6263C30.8134 23.1067 22.0971 23.3838 17.4326 24.3537C16.9559 24.4576 16.5133 24.5961 16.1047 24.7H16.0706C15.2875 24.9425 14.7087 25.2196 14.4704 25.5313C14.4023 25.6006 14.3683 25.7045 14.3342 25.7738C14.2321 26.4319 15.4237 26.9515 17.1942 27.3671Z" fill="url(#paint5_linear_82_362)"/>
<path d="M16.343 24.6309C17.5006 25.6354 22.8121 26.2588 25.8083 26.0856C31.1879 25.7739 34.3884 24.7001 35.1034 23.6264C30.4388 23.0376 20.5649 23.4186 16.343 24.6309Z" fill="url(#paint6_linear_82_362)"/>
<path d="M42.1173 19.0889C41.4363 21.6175 24.4464 23.5225 19.8499 19.4353C15.2535 15.3481 18.488 0.592556 27.5788 1.38922C36.227 2.15124 43.377 14.4822 42.1173 19.0889Z" fill="#DFE3FB"/>
<path d="M42.0151 18.7079C41.3342 21.2364 24.3443 23.1414 19.7478 19.0542C15.1513 14.967 18.4199 0.246122 27.5107 1.00814C36.1589 1.77017 43.3089 14.1011 42.0151 18.7079Z" fill="url(#paint7_linear_82_362)"/>
<path d="M18.3859 3.53658C18.3859 3.53658 19.2711 12.092 14.0618 15.0708C14.0618 15.0708 11.5082 15.3479 10.0442 13.7546C10.0442 13.7546 12.3254 15.9714 14.7768 13.6853C17.2283 11.3993 16.6495 5.09526 14.8449 3.01702C13.0063 0.938775 10.3506 1.49297 10.3506 1.49297L11.4061 0.523127C11.4061 0.523127 15.3216 -0.273534 18.3859 3.53658Z" fill="url(#paint8_linear_82_362)"/>
<path d="M11.4061 0.52332C11.4061 0.52332 14.3001 0.280858 16.2749 3.67532C18.3859 7.31225 16.8197 13.547 14.198 14.4822C11.6103 15.4174 9.02271 5.30328 9.02271 5.30328L10.5549 1.28534C10.5549 1.28534 10.8613 0.731144 11.4061 0.52332Z" fill="url(#paint9_linear_82_362)"/>
<path d="M7.62666 9.11324C8.00119 11.0529 8.75025 12.6463 9.80573 13.6854L10.1122 13.9625C10.9634 14.6552 11.9507 15.0016 13.0403 14.863C16.5472 14.4128 17.0579 9.25179 16.6494 6.34225C16.1727 2.94778 13.3467 0.904176 11.0655 1.18128C8.37572 1.52765 6.9457 5.30313 7.62666 9.11324Z" fill="url(#paint10_linear_82_362)"/>
<path d="M42.1173 16.3872C42.1173 16.3872 44.5687 16.9414 46.884 18.8811C49.1992 20.8208 49.8121 23.1761 46.9521 22.9683L45.6242 22.1717C45.6242 22.1717 47.3266 22.4141 47.0883 20.6476C46.8499 18.8811 42.1513 16.6989 42.1513 16.6989L42.1173 16.3872Z" fill="url(#paint11_linear_82_362)"/>
<path d="M47.4628 21.5135C48.314 22.4141 46.6457 23.2107 45.2497 23.4532C43.6835 23.7303 40.8235 23.5571 40.9256 21.8945C40.9937 20.2665 45.454 19.4352 47.4628 21.5135Z" fill="url(#paint12_linear_82_362)"/>
<path d="M47.3607 21.6867C47.4288 21.9638 41.7768 22.3101 41.5725 21.3056C41.4023 20.3358 46.884 19.6777 47.3607 21.6867Z" fill="url(#paint13_linear_82_362)"/>
<path d="M27.4426 11.3301C27.5788 11.5033 25.2295 9.9446 21.4842 11.434C21.0756 11.6072 25.0252 8.0049 27.4426 11.3301Z" fill="url(#paint14_linear_82_362)"/>
<path d="M39.2233 11.3646C39.3595 11.5378 38.0997 10.3255 34.8311 11.1221C34.4566 11.2261 37.0782 8.38578 39.2233 11.3646Z" fill="url(#paint15_linear_82_362)"/>
<path opacity="0.5" d="M37.3164 8.10885C36.9419 8.69768 33.7074 7.00045 30.1664 7.38146C26.6254 7.76247 22.7439 11.2955 19.8499 10.8452C17.5346 10.4988 20.5989 2.08194 26.4551 1.31992C32.3114 0.557897 37.691 7.52001 37.3164 8.10885Z" fill="url(#paint16_linear_82_362)"/>
<path opacity="0.5" d="M38.372 19.4698C38.372 19.4698 34.6948 18.4653 30.1324 18.9849C25.57 19.5044 24.855 19.9893 24.9231 20.4396C24.9912 20.8899 28.3279 21.7559 32.4817 21.3056C36.6696 20.8553 38.372 19.4698 38.372 19.4698Z" fill="url(#paint17_linear_82_362)"/>
<path opacity="0.5" d="M41.913 18.0498C41.913 18.0498 42.3897 14.7938 39.4956 10.1871C39.4956 10.1871 38.8827 9.45969 38.5763 9.73679C38.2699 9.94461 41.1639 13.3044 41.913 18.0498Z" fill="url(#paint18_linear_82_362)"/>
<path opacity="0.72" d="M16.0366 10.4294C16.0366 10.4294 15.662 13.5814 13.3468 14.2742C11.0656 14.9323 9.19293 13.2697 8.61412 10.8797C8.61412 10.8797 9.32912 12.9233 12.2913 12.4384C15.3216 11.9189 16.0366 10.4294 16.0366 10.4294Z" fill="url(#paint19_linear_82_362)"/>
<path opacity="0.72" d="M15.6621 4.43724C15.628 5.02608 11.4401 3.77913 10.1123 3.95232C8.7844 4.1255 8.20559 5.7881 8.0013 5.75346C7.79701 5.71882 8.37582 1.8048 10.8613 1.5277C13.3128 1.28524 15.6621 4.05623 15.6621 4.43724Z" fill="url(#paint20_linear_82_362)"/>
<path d="M35.3757 14.6207C35.3757 14.6207 31.1878 14.7592 28.8385 14.1704C28.8385 14.1704 29.3833 18.1537 32.1071 18.1537C34.8309 18.1537 35.3757 14.6207 35.3757 14.6207Z" fill="#2F95CD"/>
<path d="M35.5461 38.1047C35.5461 38.1047 42.56 42.1573 44.1943 41.9841C45.8286 41.811 45.1136 38.0008 45.1136 38.0008C44.9093 37.7237 44.6369 37.4813 44.3986 37.2042C41.7769 34.3639 37.2826 30.7616 34.6949 29.0644C33.6054 28.337 32.8563 27.956 32.7201 28.0945C31.7327 29.1683 35.5461 38.1047 35.5461 38.1047Z" fill="url(#paint21_linear_82_362)"/>
<path d="M45.1136 38.0355C45.1136 38.0355 44.1943 37.2389 43.0707 38.3126C41.9471 39.3518 43.1047 41.8803 44.1943 42.0188C45.2838 42.1228 45.9307 39.6635 45.1136 38.0355Z" fill="url(#paint22_linear_82_362)"/>
<path opacity="0.3" d="M35.5461 38.1047C35.5461 38.1047 42.56 42.1573 44.1943 41.9841C45.8286 41.8109 45.1136 38.0008 45.1136 38.0008C44.9093 37.7237 44.6369 37.4812 44.3986 37.2041C44.3986 37.2041 42.6962 38.2433 39.5297 37.7237C36.3633 37.2388 34.6949 29.0297 34.6949 29.0297C33.6054 28.3023 32.8563 27.9213 32.7201 28.0599C31.7327 29.1683 35.5461 38.1047 35.5461 38.1047Z" fill="url(#paint23_linear_82_362)"/>
<path d="M27.3745 51.3016C27.2724 52.8257 28.8726 57.952 30.5069 59.5453C30.8134 59.8571 31.1538 60.0302 31.4262 59.9956C32.7881 59.9263 34.3543 53.657 34.9672 50.0547C35.2055 48.6692 35.2736 47.6993 35.1374 47.6301C34.0139 47.1451 27.4767 49.5005 27.3745 51.3016Z" fill="url(#paint24_linear_82_362)"/>
<path d="M27.2725 51.7865C27.2725 51.7865 28.7366 52.9295 31.4604 52.0289C33.5714 51.3362 35.3759 48.2535 35.1376 47.63C34.8992 47.0065 26.7277 49.3272 27.2725 51.7865Z" fill="url(#paint25_linear_82_362)"/>
<path opacity="0.3" d="M27.3745 51.3017C27.2724 52.8257 28.8726 57.952 30.5069 59.5454C29.3833 57.7442 29.826 54.4537 30.9155 53.1028C31.7326 52.0637 33.9458 50.6782 34.9672 50.0894C35.2055 48.7039 35.2736 47.734 35.1374 47.6647C34.0139 47.1452 27.4767 49.5005 27.3745 51.3017Z" fill="url(#paint26_linear_82_362)"/>
<path d="M32.5159 53.5877C32.9245 53.553 32.6521 54.6961 32.584 54.7654C32.5159 54.8346 32.3116 54.4536 32.3116 54.1419C32.2776 53.8301 32.3797 53.5877 32.5159 53.5877Z" fill="white"/>
<path d="M17.6368 42.0882C17.2282 47.7687 19.5435 50.9553 24.9571 52.514C30.2345 54.0381 35.1715 49.2235 35.4779 41.8803C35.6822 37.2043 35.546 32.9785 34.0138 29.8958C33.1286 28.1639 31.8348 26.7784 29.86 25.9125C28.2938 25.2198 26.7276 25.7047 25.1954 26.8823C21.2459 29.9304 17.9773 37.7239 17.6368 42.0882Z" fill="url(#paint27_linear_82_362)"/>
<path opacity="0.3" d="M23.3909 32.9438C23.3909 32.9438 21.6204 36.9271 20.8033 39.6981C19.8499 42.9887 20.7352 46.7295 20.7352 46.7295L17.5687 43.058C17.5687 43.058 17.4325 40.668 18.2837 38.5551C19.1009 36.4076 19.5776 35.4724 19.5776 35.4724L23.3909 32.9438Z" fill="url(#paint28_linear_82_362)"/>
<path d="M35.5459 42.8155C35.5459 42.8155 35.5119 38.4166 31.7326 37.2735C27.2042 35.888 22.6418 40.0792 21.9268 43.6122C21.1777 47.1452 21.2799 50.7128 25.5358 52.133C25.4677 52.133 33.5371 54.3844 35.5459 42.8155Z" fill="url(#paint29_linear_82_362)"/>
<path d="M35.3417 43.3004C35.3417 43.3004 35.3076 38.9014 31.5283 37.7584C26.9999 36.3729 22.4375 40.564 21.7225 44.097C20.9735 47.63 21.0756 51.1977 25.3316 52.6178C25.2975 52.6178 33.3669 54.8693 35.3417 43.3004Z" fill="url(#paint30_radial_82_362)"/>
<path d="M19.9861 36.7538C20.1904 36.8231 20.4287 36.7192 20.7352 36.4767C22.063 35.4722 24.1399 32.0778 24.7528 29.9995C24.9911 29.2029 24.9911 28.614 24.6507 28.4062C24.0718 28.1291 22.2333 29.8263 20.8032 32.5627C19.952 34.156 19.1689 36.4767 19.9861 36.7538Z" fill="url(#paint31_linear_82_362)"/>
<path d="M20.7691 36.4768C22.097 35.4723 24.1739 32.0779 24.7868 29.9996C23.9697 30.5885 22.812 31.974 21.8246 33.8444C21.348 34.6757 20.9394 35.6455 20.7691 36.4768Z" fill="#6340A2"/>
<path opacity="0.5" d="M25.2295 26.8477C25.2295 26.8477 30.1324 30.6578 32.3455 31.0388C34.4905 31.4198 34.082 29.9304 34.0479 29.8611C33.1627 28.1293 31.8688 26.7438 29.8941 25.8778C28.3279 25.1851 26.7276 25.67 25.2295 26.8477Z" fill="url(#paint32_linear_82_362)"/>
<path opacity="0.72" d="M34.9671 42.7808C34.0819 43.716 32.3454 41.6377 29.6216 41.1528C26.8637 40.6679 25.0251 41.6724 24.3782 41.0489C23.7313 40.4254 27.3063 37.1349 31.4261 38.174C34.7288 39.0399 35.2736 42.469 34.9671 42.7808Z" fill="url(#paint33_linear_82_362)"/>
<path opacity="0.72" d="M29.0768 51.925C29.0768 51.925 27.6128 52.7217 25.7742 52.2368C23.9016 51.7518 23.5611 50.6434 23.5611 50.6434C23.5611 50.6434 24.4804 50.5395 25.7061 51.1976C26.9318 51.8557 28.1575 52.0289 29.0768 51.925Z" fill="url(#paint34_linear_82_362)"/>
<path d="M27.8171 31.212C28.1236 31.3159 27.7831 34.6758 27.4767 34.7104C27.1702 34.745 27.034 33.9484 27.1021 32.84C27.1362 31.7316 27.5107 31.1081 27.8171 31.212Z" fill="white"/>
<path d="M5.24332 41.2222C4.7326 43.3697 6.70738 44.7898 7.55858 44.7206C8.30763 44.6513 10.7931 43.7853 14.0617 41.4646C14.5384 41.1183 15.0491 40.7373 15.5598 40.3216C19.5434 37.1003 25.1954 30.1728 23.3909 29.4801C18.1815 27.5058 5.75404 39.0747 5.24332 41.2222Z" fill="url(#paint35_linear_82_362)"/>
<path d="M9.22698 44.201C9.22698 44.201 10.1803 42.5385 9.05674 41.0837C7.96721 39.6289 5.41361 40.7373 5.41361 40.7373C5.41361 40.7373 4.32408 42.5731 6.23076 43.7854C8.13744 44.9977 9.22698 44.201 9.22698 44.201Z" fill="url(#paint36_linear_82_362)"/>
<path opacity="0.3" d="M5.2433 41.2222C4.73258 43.3697 6.70736 44.7898 7.55856 44.7206C8.30761 44.6513 10.7931 43.7854 14.0617 41.4646C13.7553 41.6378 11.6103 42.9887 10.691 42.4345C9.70358 41.8457 9.43119 37.897 14.7767 33.2209C19.952 28.6834 23.1866 29.4455 23.3908 29.5147C18.1815 27.5058 5.75402 39.0747 5.2433 41.2222Z" fill="url(#paint37_linear_82_362)"/>
<path d="M8.30763 41.7764C7.62667 41.049 5.95833 40.9451 5.10713 41.3608C4.25593 41.7764 1.49805 43.924 -5.62668e-05 47.9765C-5.62668e-05 47.9765 0.272326 50.3665 1.83853 50.8168C3.03021 51.1632 5.14118 48.1844 6.70738 46.1061C8.30763 43.9932 9.43121 42.9541 8.30763 41.7764Z" fill="url(#paint38_linear_82_362)"/>
<path d="M1.56622 50.7474C1.56622 50.7474 5.34554 43.1272 8.98866 43.716C8.98866 43.716 8.3077 44.9284 6.09459 47.3183C3.91552 49.7083 2.34932 50.9899 1.56622 50.7474Z" fill="url(#paint39_linear_82_362)"/>
<path opacity="0.5" d="M4.1197 46.8681C4.1197 46.8681 4.0516 48.3575 4.39208 48.8771C4.73256 49.3966 5.20923 49.5005 5.20923 49.5005L5.754 45.1362C5.754 45.1362 4.56233 46.1061 4.1197 46.8681Z" fill="url(#paint40_linear_82_362)"/>
<path d="M5.75412 45.1362C5.75412 45.1362 7.49057 43.5428 8.95463 43.9239C8.95463 43.9239 9.22701 45.725 6.0265 49.5698C6.0265 49.5698 4.86888 49.9161 4.63054 48.5306C4.63054 48.5306 4.97102 46.6256 5.75412 45.1362Z" fill="url(#paint41_linear_82_362)"/>
<path d="M6.8776 44.963C6.50307 44.6859 5.82212 46.7988 6.06045 46.9373C6.29879 47.0066 7.21808 45.2055 6.8776 44.963Z" fill="white"/>
<path d="M18.5901 35.6109C19.0327 36.4769 17.5687 37.1003 17.1941 36.9618C16.8196 36.8579 18.2837 35.0567 18.5901 35.6109Z" fill="white"/>
<path d="M16.8878 37.3082C17.0239 37.4121 16.4451 37.9663 16.2749 38.0355C16.0025 38.2087 15.4577 38.278 15.4237 38.1741C15.4237 38.0702 16.7175 37.1696 16.8878 37.3082Z" fill="white"/>
<path d="M41.879 35.3338C41.8109 35.5763 40.1426 34.8143 40.1426 34.0869C40.1426 33.3942 41.9812 34.9875 41.879 35.3338Z" fill="white"/>
<path d="M12.2573 58.333C12.5637 58.6448 13.1085 58.6101 13.7894 58.4023C14.5385 58.1599 15.4918 57.6749 16.4452 57.0515C19.169 55.3542 22.1312 52.6871 22.3014 51.9251C22.8462 49.258 20.1905 45.8289 18.4881 44.1317C17.8411 43.4736 17.2964 43.0579 17.1942 43.0926C16.7857 43.1272 10.7592 56.809 12.2573 58.333Z" fill="url(#paint42_linear_82_362)"/>
<path opacity="0.3" d="M12.2574 58.333C12.5638 58.6447 13.1086 58.6101 13.7895 58.4023L16.4452 57.0514C16.2069 57.1553 13.3128 58.333 14.3002 54.1072C15.3217 49.7083 18.6243 44.4434 18.6243 44.4434L18.5222 44.097C17.8753 43.4389 17.3305 43.0233 17.2283 43.0579C16.7857 43.1272 10.7592 56.809 12.2574 58.333Z" fill="url(#paint43_linear_82_362)"/>
<path d="M20.1905 51.0245C20.8374 51.4401 19.2371 52.791 19.0669 52.791C18.8966 52.791 18.9988 52.029 19.3052 51.5441C19.5776 51.1284 19.9862 50.8859 20.1905 51.0245Z" fill="white"/>
<path d="M18.8626 52.9297C18.9648 53.0682 18.4541 53.5185 18.386 53.3453C18.3179 53.2068 18.42 52.9297 18.5222 52.8604C18.6243 52.8258 18.7945 52.8604 18.8626 52.9297Z" fill="white"/>
<path d="M50.0504 38.6937C50.0163 38.9708 48.0416 38.0356 48.0416 37.6892C48.0416 37.3428 50.0844 38.2087 50.0504 38.6937Z" fill="white"/>
<path d="M54 42.2613C54 42.2613 53.966 42.8847 53.6255 43.5775C53.6255 43.5775 52.6381 44.2702 50.7654 44.1663C48.8588 44.097 44.9433 42.0534 44.3985 41.7071C43.8537 41.326 43.5813 40.2177 43.5813 40.2177L54 42.2613Z" fill="url(#paint44_linear_82_362)"/>
<path d="M43.7175 38.1395C44.6709 37.7585 47.1564 38.278 48.6545 38.8669C50.1866 39.4211 52.6381 41.1876 54 42.2613C54 42.2613 53.966 43.3005 51.9912 43.5429C50.0164 43.7854 44.6709 41.4993 43.7856 40.5295C42.9004 39.525 43.7175 38.1395 43.7175 38.1395Z" fill="url(#paint45_linear_82_362)"/>
<path d="M50.5612 39.8367C50.5612 39.8367 47.1904 39.3864 45.488 38.0702C45.488 38.0702 48.3821 37.9317 50.5612 39.8367Z" fill="url(#paint46_linear_82_362)"/>
<path d="M45.9988 38.1395C45.9988 38.1395 47.9736 39.3172 50.0505 39.3865C50.0505 39.3865 52.1615 39.4211 52.2636 39.1787C52.3658 38.9362 52.4339 38.001 51.8891 37.7585C51.3784 37.4814 47.7352 37.0658 45.9988 38.1395Z" fill="url(#paint47_linear_82_362)"/>
<path d="M50.2547 39.7673C50.2547 39.7673 47.7352 39.9405 45.0114 41.3607L44.7049 41.1875C44.7049 41.1875 46.6797 39.7673 50.2547 39.7673Z" fill="url(#paint48_linear_82_362)"/>
<path d="M50.3569 42.7809C50.3569 42.7809 49.2333 42.0882 48.0416 42.1575C48.0416 42.1921 49.6419 42.9195 50.3569 42.7809Z" fill="white"/>
<defs>
<linearGradient id="paint0_linear_82_362" x1="36.303" y1="10.528" x2="34.5949" y2="1.81889" gradientUnits="userSpaceOnUse">
<stop stop-color="#45FFCD"/>
<stop offset="1" stop-color="#22E0FF"/>
</linearGradient>
<linearGradient id="paint1_linear_82_362" x1="33.2026" y1="7.32901" x2="31.7444" y2="-0.10586" gradientUnits="userSpaceOnUse">
<stop stop-color="#B9ACF4"/>
<stop offset="1" stop-color="#E1D1F5"/>
</linearGradient>
<linearGradient id="paint2_linear_82_362" x1="29.6075" y1="28.5317" x2="20.5646" y2="1.28887" gradientUnits="userSpaceOnUse">
<stop stop-color="#CBC1F7"/>
<stop offset="1" stop-color="#E8DCF7"/>
</linearGradient>
<linearGradient id="paint3_linear_82_362" x1="37.3223" y1="23.4124" x2="14.6919" y2="27.701" gradientUnits="userSpaceOnUse">
<stop stop-color="#8879EA"/>
<stop offset="1" stop-color="#9E8CEF"/>
</linearGradient>
<linearGradient id="paint4_linear_82_362" x1="28.0117" y1="28.1998" x2="24.4289" y2="9.93223" gradientUnits="userSpaceOnUse">
<stop stop-color="#9D68C2"/>
<stop offset="1" stop-color="#CCEDFF"/>
</linearGradient>
<linearGradient id="paint5_linear_82_362" x1="26.4877" y1="28.0925" x2="25.4458" y2="22.78" gradientUnits="userSpaceOnUse">
<stop stop-color="#8DA4E5"/>
<stop offset="1" stop-color="#755CBB"/>
</linearGradient>
<linearGradient id="paint6_linear_82_362" x1="26.1008" y1="26.3383" x2="25.4458" y2="22.8449" gradientUnits="userSpaceOnUse">
<stop stop-color="#5E36CC"/>
<stop offset="1" stop-color="#6C4A96"/>
</linearGradient>
<linearGradient id="paint7_linear_82_362" x1="31.1496" y1="21.9895" x2="26.9955" y2="0.808978" gradientUnits="userSpaceOnUse">
<stop stop-color="#0665BD"/>
<stop offset="1" stop-color="#1A1F77"/>
</linearGradient>
<linearGradient id="paint8_linear_82_362" x1="14.2095" y1="15.0909" x2="14.2838" y2="0.470192" gradientUnits="userSpaceOnUse">
<stop stop-color="#B9ACF4"/>
<stop offset="1" stop-color="#E1D1F5"/>
</linearGradient>
<linearGradient id="paint9_linear_82_362" x1="13.1113" y1="14.5303" x2="13.1825" y2="0.532742" gradientUnits="userSpaceOnUse">
<stop stop-color="#BE9DEA"/>
<stop offset="1" stop-color="#9E8CEF"/>
</linearGradient>
<linearGradient id="paint10_linear_82_362" x1="12.071" y1="14.8725" x2="12.1408" y2="1.15216" gradientUnits="userSpaceOnUse">
<stop stop-color="#45FFCD"/>
<stop offset="1" stop-color="#22E0FF"/>
</linearGradient>
<linearGradient id="paint11_linear_82_362" x1="46.8526" y1="23.2932" x2="44.3199" y2="15.6629" gradientUnits="userSpaceOnUse">
<stop stop-color="#BE9DEA"/>
<stop offset="1" stop-color="#9E8CEF"/>
</linearGradient>
<linearGradient id="paint12_linear_82_362" x1="44.7704" y1="23.6429" x2="43.728" y2="20.1529" gradientUnits="userSpaceOnUse">
<stop stop-color="#DD1A8F"/>
<stop offset="1" stop-color="#FE117E"/>
</linearGradient>
<linearGradient id="paint13_linear_82_362" x1="44.5061" y1="22.0268" x2="44.414" y2="20.3616" gradientUnits="userSpaceOnUse">
<stop stop-color="#D93DE3"/>
<stop offset="1" stop-color="#FF6DBA"/>
</linearGradient>
<linearGradient id="paint14_linear_82_362" x1="24.5299" y1="11.9287" x2="24.1489" y2="9.9858" gradientUnits="userSpaceOnUse">
<stop stop-color="#45FFCD"/>
<stop offset="1" stop-color="#22E0FF"/>
</linearGradient>
<linearGradient id="paint15_linear_82_362" x1="37.1222" y1="11.7939" x2="36.7685" y2="9.99051" gradientUnits="userSpaceOnUse">
<stop stop-color="#45FFCD"/>
<stop offset="1" stop-color="#22E0FF"/>
</linearGradient>
<linearGradient id="paint16_linear_82_362" x1="36.5372" y1="3.82664" x2="18.5999" y2="7.2259" gradientUnits="userSpaceOnUse">
<stop/>
<stop offset="1" stop-color="#6A9BFF"/>
</linearGradient>
<linearGradient id="paint17_linear_82_362" x1="38.2203" y1="18.7636" x2="25.0758" y2="21.2546" gradientUnits="userSpaceOnUse">
<stop/>
<stop offset="1" stop-color="#6A9BFF"/>
</linearGradient>
<linearGradient id="paint18_linear_82_362" x1="41.1827" y1="18.1826" x2="39.478" y2="9.49036" gradientUnits="userSpaceOnUse">
<stop/>
<stop offset="1" stop-color="#6A9BFF"/>
</linearGradient>
<linearGradient id="paint19_linear_82_362" x1="12.3314" y1="14.4255" x2="12.3518" y2="10.4184" gradientUnits="userSpaceOnUse">
<stop stop-color="#D4E2FF"/>
<stop offset="1"/>
</linearGradient>
<linearGradient id="paint20_linear_82_362" x1="15.6589" y1="3.67982" x2="7.94121" y2="3.64189" gradientUnits="userSpaceOnUse">
<stop/>
<stop offset="1" stop-color="#D4E2FF"/>
</linearGradient>
<linearGradient id="paint21_linear_82_362" x1="39.9509" y1="42.5393" x2="38.0159" y2="27.3951" gradientUnits="userSpaceOnUse">
<stop stop-color="#CBC1F7"/>
<stop offset="1" stop-color="#D4BEF1"/>
</linearGradient>
<linearGradient id="paint22_linear_82_362" x1="43.8071" y1="41.9575" x2="44.2446" y2="37.7351" gradientUnits="userSpaceOnUse">
<stop stop-color="#BE9DEA"/>
<stop offset="1" stop-color="#9E8CEF"/>
</linearGradient>
<linearGradient id="paint23_linear_82_362" x1="38.9071" y1="42.0022" x2="38.9071" y2="28.0643" gradientUnits="userSpaceOnUse">
<stop stop-color="#9D68C2"/>
<stop offset="1" stop-color="#CCEDFF"/>
</linearGradient>
<linearGradient id="paint24_linear_82_362" x1="31.0232" y1="60.0087" x2="31.3575" y2="47.4832" gradientUnits="userSpaceOnUse">
<stop stop-color="#CBC1F7"/>
<stop offset="1" stop-color="#E8DCF7"/>
</linearGradient>
<linearGradient id="paint25_linear_82_362" x1="34.7955" y1="50.3905" x2="27.583" y2="49.3105" gradientUnits="userSpaceOnUse">
<stop stop-color="#8879EA"/>
<stop offset="1" stop-color="#9E8CEF"/>
</linearGradient>
<linearGradient id="paint26_linear_82_362" x1="29.8584" y1="59.4499" x2="31.7729" y2="47.0965" gradientUnits="userSpaceOnUse">
<stop stop-color="#9D68C2"/>
<stop offset="1" stop-color="#CCEDFF"/>
</linearGradient>
<linearGradient id="paint27_linear_82_362" x1="24.8706" y1="52.5521" x2="29.4005" y2="25.7258" gradientUnits="userSpaceOnUse">
<stop stop-color="#CBC1F7"/>
<stop offset="1" stop-color="#E8DCF7"/>
</linearGradient>
<linearGradient id="paint28_linear_82_362" x1="18.5166" y1="46.0569" x2="22.5624" y2="32.702" gradientUnits="userSpaceOnUse">
<stop stop-color="#9D68C2"/>
<stop offset="1" stop-color="#CCEDFF"/>
</linearGradient>
<linearGradient id="paint29_linear_82_362" x1="34.6014" y1="46.5326" x2="22.0903" y2="42.8704" gradientUnits="userSpaceOnUse">
<stop stop-color="#BE9DEA"/>
<stop offset="1" stop-color="#9E8CEF"/>
</linearGradient>
<radialGradient id="paint30_radial_82_362" cx="0" cy="0" r="1" gradientUnits="userSpaceOnUse" gradientTransform="translate(26.4149 50.3634) rotate(-163.146) scale(9.85235 9.9945)">
<stop stop-color="#45FFCD"/>
<stop offset="1" stop-color="#22E0FF"/>
</radialGradient>
<linearGradient id="paint31_linear_82_362" x1="23.8658" y1="33.0486" x2="20.6446" y2="32.1057" gradientUnits="userSpaceOnUse">
<stop stop-color="#8879EA"/>
<stop offset="1" stop-color="#9E8CEF"/>
</linearGradient>
<linearGradient id="paint32_linear_82_362" x1="29.2147" y1="30.1266" x2="30.4563" y2="26.0283" gradientUnits="userSpaceOnUse">
<stop stop-color="#8DA4E5"/>
<stop offset="1" stop-color="#755CBB"/>
</linearGradient>
<linearGradient id="paint33_linear_82_362" x1="35.258" y1="41.8756" x2="24.877" y2="38.8369" gradientUnits="userSpaceOnUse">
<stop/>
<stop offset="1" stop-color="#D4E2FF"/>
</linearGradient>
<linearGradient id="paint34_linear_82_362" x1="26.0047" y1="52.3254" x2="26.3721" y2="51.1126" gradientUnits="userSpaceOnUse">
<stop stop-color="#D4E2FF"/>
<stop offset="1"/>
</linearGradient>
<linearGradient id="paint35_linear_82_362" x1="10.106" y1="45.9842" x2="18.4171" y2="27.266" gradientUnits="userSpaceOnUse">
<stop stop-color="#CBC1F7"/>
<stop offset="1" stop-color="#E8DCF7"/>
</linearGradient>
<linearGradient id="paint36_linear_82_362" x1="6.4833" y1="43.9364" x2="8.50419" y2="40.5958" gradientUnits="userSpaceOnUse">
<stop stop-color="#BE9DEA"/>
<stop offset="1" stop-color="#9E8CEF"/>
</linearGradient>
<linearGradient id="paint37_linear_82_362" x1="8.35636" y1="45.4612" x2="19.4619" y2="27.1031" gradientUnits="userSpaceOnUse">
<stop stop-color="#9D68C2"/>
<stop offset="1" stop-color="#CCEDFF"/>
</linearGradient>
<linearGradient id="paint38_linear_82_362" x1="0.327468" y1="49.6286" x2="8.13474" y2="41.6015" gradientUnits="userSpaceOnUse">
<stop stop-color="#CBC1F7"/>
<stop offset="1" stop-color="#E8DCF7"/>
</linearGradient>
<linearGradient id="paint39_linear_82_362" x1="2.18848" y1="51.2262" x2="8.26179" y2="43.1744" gradientUnits="userSpaceOnUse">
<stop stop-color="#BE9DEA"/>
<stop offset="1" stop-color="#9E8CEF"/>
</linearGradient>
<linearGradient id="paint40_linear_82_362" x1="4.19086" y1="48.8264" x2="6.5392" y2="45.713" gradientUnits="userSpaceOnUse">
<stop stop-color="#8DA4E5"/>
<stop offset="1" stop-color="#755CBB"/>
</linearGradient>
<linearGradient id="paint41_linear_82_362" x1="4.50725" y1="48.8342" x2="9.12587" y2="44.0856" gradientUnits="userSpaceOnUse">
<stop stop-color="#CBC1F7"/>
<stop offset="1" stop-color="#E8DCF7"/>
</linearGradient>
<linearGradient id="paint42_linear_82_362" x1="16.1331" y1="59.2841" x2="19.5318" y2="43.5683" gradientUnits="userSpaceOnUse">
<stop stop-color="#CBC1F7"/>
<stop offset="1" stop-color="#E8DCF7"/>
</linearGradient>
<linearGradient id="paint43_linear_82_362" x1="13.4259" y1="58.8159" x2="18.7969" y2="43.6206" gradientUnits="userSpaceOnUse">
<stop stop-color="#9D68C2"/>
<stop offset="1" stop-color="#CCEDFF"/>
</linearGradient>
<linearGradient id="paint44_linear_82_362" x1="47.1842" y1="43.8014" x2="50.3993" y2="39.5387" gradientUnits="userSpaceOnUse">
<stop stop-color="#BE9DEA"/>
<stop offset="1" stop-color="#9E8CEF"/>
</linearGradient>
<linearGradient id="paint45_linear_82_362" x1="49.0548" y1="43.9192" x2="48.2344" y2="37.4976" gradientUnits="userSpaceOnUse">
<stop stop-color="#E8DCF7"/>
<stop offset="1" stop-color="#CBC1F7"/>
</linearGradient>
<linearGradient id="paint46_linear_82_362" x1="47.5489" y1="39.6031" x2="48.549" y2="38.2771" gradientUnits="userSpaceOnUse">
<stop stop-color="#BE9DEA"/>
<stop offset="1" stop-color="#9E8CEF"/>
</linearGradient>
<linearGradient id="paint47_linear_82_362" x1="49.3422" y1="39.6203" x2="49.0562" y2="37.3825" gradientUnits="userSpaceOnUse">
<stop stop-color="#CBC1F7"/>
<stop offset="1" stop-color="#E8DCF7"/>
</linearGradient>
<linearGradient id="paint48_linear_82_362" x1="49.6122" y1="38.8814" x2="45.2897" y2="42.0028" gradientUnits="userSpaceOnUse">
<stop stop-color="#BE9DEA"/>
<stop offset="1" stop-color="#9E8CEF"/>
</linearGradient>
</defs>
</svg>
