<svg width="92" height="92" viewBox="0 0 92 92" fill="none" xmlns="http://www.w3.org/2000/svg">
<path d="M50 50H0V0H40.6977L45.3488 5L50 10V50Z" fill="#8A35F2"/>
<path d="M50.376 76.0883C50.376 75.7381 50.1293 75.5991 50 75.5991C49.8706 75.5991 49.624 75.7381 49.624 76.0883C49.624 76.4384 49.8706 76.5774 50 76.5774C50.1293 76.5774 50.376 76.4384 50.376 76.0883Z" fill="white" stroke="white" stroke-width="2.5"/>
<path d="M50.3759 76.0885C50.3759 75.7383 50.1292 75.5994 49.9999 75.5994C49.8705 75.5994 49.6238 75.7383 49.6238 76.0885C49.6238 76.4387 49.8705 76.5776 49.9999 76.5776C50.1292 76.5776 50.3759 76.4387 50.3759 76.0885Z" stroke="white" stroke-width="2.5"/>
<path d="M84.634 60.4362C84.634 65.2379 80.9933 69.1318 76.5039 69.1318C72.0145 69.1318 68.3738 65.2379 68.3738 60.4362C68.3738 55.6344 72.0145 51.7405 76.5039 51.7405C80.9933 51.7405 84.634 55.6344 84.634 60.4362Z" stroke="white" stroke-width="2.5" stroke-miterlimit="10" stroke-linecap="round" stroke-linejoin="round"/>
<path d="M32.1138 90.0015H10V86.5232C10 78.8397 16.3122 72.6102 23.4959 72.6102C27.8878 72.6102 32.2585 74.9371 34.6129 78.5023" stroke="white" stroke-width="2.5" stroke-miterlimit="10" stroke-linecap="round" stroke-linejoin="round"/>
<path d="M65.3868 78.5023C67.7413 74.9371 72.112 72.6102 76.5039 72.6102C83.6876 72.6102 89.9998 78.8397 89.9998 86.5232V90.0015H67.886" stroke="white" stroke-width="2.5" stroke-miterlimit="10" stroke-linecap="round" stroke-linejoin="round"/>
<path d="M31.626 60.4362C31.626 65.2379 27.9853 69.1318 23.4959 69.1318C19.0065 69.1318 15.3658 65.2379 15.3658 60.4362C15.3658 55.6344 19.0065 51.7405 23.4959 51.7405C27.9853 51.7405 31.626 55.6344 31.626 60.4362Z" stroke="white" stroke-width="2.5" stroke-miterlimit="10" stroke-linecap="round" stroke-linejoin="round"/>
<path d="M61.382 53.4797C61.382 60.2031 56.286 65.6536 49.9999 65.6536C43.7137 65.6536 38.6178 60.2031 38.6178 53.4797C38.6178 46.7562 43.7137 41.3057 49.9999 41.3057C56.286 41.3057 61.382 46.7562 61.382 53.4797Z" stroke="white" stroke-width="2.5" stroke-miterlimit="10" stroke-linecap="round" stroke-linejoin="round"/>
<path d="M49.9413 10.0015L46.4242 17.6937L38.5609 18.9146L44.2519 24.8467L42.9088 33.2241L49.9413 29.2693C52.5836 30.7546 54.4081 31.7806 56.9756 33.2241L55.6307 24.8467L61.3218 18.9146L53.4584 17.6937L49.9413 10.0015Z" stroke="white" stroke-width="2.5" stroke-miterlimit="10" stroke-linecap="round" stroke-linejoin="round"/>
<path d="M77.525 39.3213L82.5315 42.1353L81.5754 36.1735L85.6256 31.9492L80.0275 31.0796L77.525 25.6535L75.021 31.0796L69.4226 31.9492L73.473 36.1735L72.5169 42.1353L77.525 39.3213Z" stroke="white" stroke-width="2.5" stroke-miterlimit="10" stroke-linecap="round" stroke-linejoin="round"/>
<path d="M22.2406 39.3213L27.2471 42.1353L26.291 36.1735L30.3414 31.9492L24.743 31.0796L22.2406 25.6535L19.7365 31.0796L14.1382 31.9492L18.1886 36.1735L17.2325 42.1353L22.2406 39.3213Z" stroke="white" stroke-width="2.5" stroke-miterlimit="10" stroke-linecap="round" stroke-linejoin="round"/>
<path d="M67.886 90.0015H32.1138V88.2623C32.1138 84.6971 33.026 81.3597 34.6129 78.5023C37.7316 72.8919 43.4552 69.1319 49.9999 69.1319C54.9397 69.1319 59.4113 71.2728 62.647 74.7354C63.699 75.8606 64.621 77.1249 65.3868 78.5023C66.9738 81.3597 67.886 84.6971 67.886 88.2623V90.0015Z" stroke="white" stroke-width="2.5" stroke-miterlimit="10" stroke-linecap="round" stroke-linejoin="round"/>
<path d="M56.2324 78.0797C57.9722 79.3023 59.3819 81.0206 60.2828 83.0449" stroke="white" stroke-width="2.5" stroke-miterlimit="10" stroke-linecap="round" stroke-linejoin="round"/>
</svg>
