<svg width="82" height="82" viewBox="0 0 82 82" fill="none" xmlns="http://www.w3.org/2000/svg">
<path d="M40 40H0V0H32.5581L36.2791 4L40 8V40Z" fill="#8A35F2"/>
<path d="M54.5456 68.1925V71.4649C54.5456 73.0371 53.1217 74.3104 51.3638 74.3104H38.6364C36.8785 74.3104 35.4546 73.0371 35.4546 71.4649V68.1925" stroke="white" stroke-width="2.5" stroke-miterlimit="10" stroke-linecap="round" stroke-linejoin="round"/>
<path d="M51.3638 74.3104C51.3638 77.4533 48.5144 80.0015 45.0001 80.0015C43.2437 80.0015 41.6528 79.3641 40.501 78.334C39.3492 77.3039 38.6364 75.8811 38.6364 74.3104" stroke="white" stroke-width="2.5" stroke-miterlimit="10" stroke-linecap="round" stroke-linejoin="round"/>
<path d="M76.8184 42.1559H80.0002" stroke="white" stroke-width="2.5" stroke-miterlimit="10" stroke-linecap="round" stroke-linejoin="round"/>
<path d="M10 42.1559H13.1818" stroke="white" stroke-width="2.5" stroke-miterlimit="10" stroke-linecap="round" stroke-linejoin="round"/>
<path d="M45.0001 13.7007V10.0015" stroke="white" stroke-width="2.5" stroke-miterlimit="10" stroke-linecap="round" stroke-linejoin="round"/>
<path d="M22.5014 22.0352L20.2518 20.0234" stroke="white" stroke-width="2.5" stroke-miterlimit="10" stroke-linecap="round" stroke-linejoin="round"/>
<path d="M69.7484 64.2885L67.4988 62.2767" stroke="white" stroke-width="2.5" stroke-miterlimit="10" stroke-linecap="round" stroke-linejoin="round"/>
<path d="M22.5014 62.2767L20.2518 64.2885" stroke="white" stroke-width="2.5" stroke-miterlimit="10" stroke-linecap="round" stroke-linejoin="round"/>
<path d="M69.7484 20.0234L67.4988 22.0352" stroke="white" stroke-width="2.5" stroke-miterlimit="10" stroke-linecap="round" stroke-linejoin="round"/>
<path d="M54.5456 68.1925V66.313C54.5456 61.4429 56.8317 59.6929 60.6977 56.2626C64.7561 52.6616 67.2729 47.6748 67.2729 42.1559C67.2729 31.0427 57.0958 22.0551 44.6231 22.2401C32.9967 22.4122 23.16 31.0299 22.7416 41.4218C22.5125 47.1356 24.9801 52.3244 29.091 56.072C32.9808 59.6175 35.4546 61.3604 35.4546 66.3273V68.1925H54.5456Z" stroke="white" stroke-width="2.5" stroke-miterlimit="10" stroke-linecap="round" stroke-linejoin="round"/>
<path d="M57.7274 42.156C57.7274 48.4417 52.0287 53.5381 45.0001 53.5381C37.9714 53.5381 32.2728 48.4417 32.2728 42.156C32.2728 35.8702 37.9714 30.7739 45.0001 30.7739C52.0287 30.7739 57.7274 35.8702 57.7274 42.156Z" stroke="white" stroke-width="2.5" stroke-miterlimit="10" stroke-linecap="round" stroke-linejoin="round"/>
<path d="M45.0001 33.6193V36.4648" stroke="white" stroke-width="2.5" stroke-miterlimit="10" stroke-linecap="round" stroke-linejoin="round"/>
<path d="M45.0001 47.847V50.6925" stroke="white" stroke-width="2.5" stroke-miterlimit="10" stroke-linecap="round" stroke-linejoin="round"/>
<path d="M41.7164 46.2635C42.7742 47.3889 43.9469 47.847 45.0001 47.847C46.7579 47.847 48.1819 46.5737 48.1819 45.0015C48.1819 43.4294 46.7579 42.156 45.0001 42.156C43.2421 42.156 41.8182 40.8826 41.8182 39.3105C41.8182 37.7383 43.2421 36.4649 45.0001 36.4649C45.9036 36.4649 46.8949 36.8021 47.827 37.6088" stroke="white" stroke-width="2.5" stroke-miterlimit="10" stroke-linecap="round" stroke-linejoin="round"/>
</svg>
