<svg width="92" height="92" viewBox="0 0 92 92" fill="none" xmlns="http://www.w3.org/2000/svg">
<path d="M50 50H0V0H40.6977L45.3488 5L50 10V50Z" fill="#8A35F2"/>
<path d="M57.5706 83.5488C61.3989 82.6874 65.0503 81.1735 68.365 79.0733L70.6972 81.4055C71.9232 82.6361 73.9328 82.6361 75.1589 81.4055L81.4041 75.1602C82.6348 73.9341 82.6348 71.9246 81.4041 70.6985L79.0719 68.3663C81.1721 65.0517 82.686 61.4002 83.5473 57.5719H86.8428C88.5805 57.5719 90 56.1524 90 54.4194V45.5837C90 43.846 88.5805 42.4265 86.8428 42.4265H83.5473C82.6852 38.5999 81.1713 34.95 79.0719 31.6366L81.4041 29.2998C82.6348 28.0738 82.6348 26.0688 81.4041 24.8382L75.1589 18.5929C73.9328 17.3668 71.9232 17.3668 70.6972 18.5929L68.365 20.925C65.0971 18.8602 61.4606 17.3254 57.5706 16.4542V13.1542C57.5706 11.4211 56.1509 10.0015 54.4179 10.0015H45.5821C43.8445 10.0015 42.4249 11.4211 42.4249 13.1542V16.4542C38.5395 17.3254 34.8984 18.8602 31.6351 20.925L29.2984 18.5929C28.0724 17.3668 26.0673 17.3668 24.8367 18.5929L18.5914 24.8382C17.3654 26.0688 17.3654 28.0738 18.5914 29.2998L20.9281 31.6366C18.8587 34.9044 17.3239 38.541 16.4528 42.4265H13.1527C11.4197 42.4265 10 43.846 10 45.5837V54.4194C10 56.1524 11.4197 57.5719 13.1527 57.5719H16.4528C17.3239 61.462 18.8587 65.0985 20.9281 68.3663L18.5914 70.6985C17.3654 71.9246 17.3654 73.9341 18.5914 75.1602L24.8367 81.4055C26.0673 82.6361 28.0724 82.6361 29.2984 81.4055L31.6351 79.0733C34.9486 81.1726 38.5983 82.6865 42.4249 83.5488V86.8442C42.4249 88.582 43.8445 90.0015 45.5821 90.0015H54.4179C56.1509 90.0015 57.5706 88.582 57.5706 86.8442V83.5488Z" stroke="white" stroke-width="2.5" stroke-miterlimit="10" stroke-linecap="round" stroke-linejoin="round"/>
<path d="M63.3872 26.2947C53.0075 20.4229 39.595 21.9115 30.7501 30.7518C20.1216 41.385 20.1216 58.6183 30.7501 69.2469C41.3833 79.8754 58.6166 79.8754 69.2452 69.2469C78.0855 60.4066 79.5743 47.0033 73.7114 36.6237" stroke="white" stroke-width="2.5" stroke-miterlimit="10" stroke-linecap="round" stroke-linejoin="round"/>
<path d="M69.2452 30.7515L69.2498 30.7607" stroke="white" stroke-width="2.5" stroke-miterlimit="10" stroke-linecap="round" stroke-linejoin="round"/>
<path d="M54.4041 53.184C58.1281 54.8755 60.7369 58.632 60.7369 62.9692V65.0894H39.2631V62.9692C39.2631 58.632 41.8672 54.8755 45.5959 53.184" stroke="white" stroke-width="2.5" stroke-miterlimit="10" stroke-linecap="round" stroke-linejoin="round"/>
<path d="M49.9975 40.6841C53.8785 40.6841 57.0265 43.8321 57.0265 47.7084C57.0265 51.5892 53.8785 54.7373 49.9975 54.7373C46.1167 54.7373 42.9735 51.5892 42.9735 47.7084C42.9735 43.8321 46.1167 40.6841 49.9975 40.6841Z" stroke="white" stroke-width="2.5" stroke-miterlimit="10" stroke-linecap="round" stroke-linejoin="round"/>
<path d="M43.0841 48.9622H42.9735C39.0925 48.9622 35.9447 45.8142 35.9447 41.9379C35.9447 38.0571 39.0925 34.909 42.9735 34.909C46.4257 34.909 49.2971 37.4026 49.8872 40.6843" stroke="white" stroke-width="2.5" stroke-miterlimit="10" stroke-linecap="round" stroke-linejoin="round"/>
<path d="M50.1083 40.6843C50.6982 37.4026 53.5698 34.909 57.0265 34.909C60.9075 34.909 64.0507 38.0571 64.0507 41.9379C64.0507 45.8142 60.9075 48.9622 57.0265 48.9622H56.9159" stroke="white" stroke-width="2.5" stroke-miterlimit="10" stroke-linecap="round" stroke-linejoin="round"/>
<path d="M39.9037 59.3142H32.2341V57.194C32.2341 52.8568 34.8429 49.1006 38.567 47.4088" stroke="white" stroke-width="2.5" stroke-miterlimit="10" stroke-linecap="round" stroke-linejoin="round"/>
<path d="M61.4281 47.4088C65.1571 49.1004 67.7611 52.8568 67.7611 57.194V59.3142H60.0915" stroke="white" stroke-width="2.5" stroke-miterlimit="10" stroke-linecap="round" stroke-linejoin="round"/>
</svg>
