<svg width="92" height="92" viewBox="0 0 92 92" fill="none" xmlns="http://www.w3.org/2000/svg">
<path d="M50 50H0V0H40.6977L45.3488 5L50 10V50Z" fill="#8A35F2"/>
<path d="M57.9069 90.0001H73.7159V85.2292C73.7159 82.5944 71.4078 80.4583 68.5604 80.4583H31.4394C28.5922 80.4583 26.2839 82.5942 26.2839 85.2292V90.0001H42.0931M43.8797 60.9351V67.3116C43.8797 71.4183 40.2823 74.7474 35.8446 74.7474V80.4425H64.1552V74.7474C59.7175 74.7474 56.1201 71.4183 56.1201 67.3116V60.9351" stroke="white" stroke-width="2.5" stroke-miterlimit="10" stroke-linecap="round" stroke-linejoin="round"/>
<path d="M43.8798 60.935V67.3115C43.8798 71.4182 40.2823 74.7473 35.8446 74.7473V80.4424H64.1553V74.7473C59.7176 74.7473 56.1201 71.4182 56.1201 67.3115V60.935M74.5224 20.1576H79.9718C81.6286 20.1576 82.9717 21.4005 82.9717 22.9337V28.3649C82.9717 33.1371 79.3562 37.1255 74.5224 38.119M50 60.935C36.4566 60.935 25.4777 50.7748 25.4777 38.2418V10H74.5224V38.2418C74.5224 50.775 63.5435 60.935 50 60.935Z" stroke="white" stroke-width="2.5" stroke-miterlimit="10" stroke-linecap="round" stroke-linejoin="round"/>
<path d="M74.5224 44.7206C83.2575 43.6557 90 36.7394 90 28.3651V22.9339C90 17.8085 85.5101 13.6536 79.9716 13.6536H74.5224M25.4776 20.1576H20.0282C18.3714 20.1576 17.0283 21.4006 17.0283 22.9337V28.3649C17.0283 33.1371 20.6439 37.1256 25.4776 38.1191" stroke="white" stroke-width="2.5" stroke-miterlimit="10" stroke-linecap="round" stroke-linejoin="round"/>
<path d="M25.4776 44.7205C16.7425 43.6556 10 36.7394 10 28.365V22.9338C10 17.8085 14.4899 13.6535 20.0284 13.6535H25.4776M56.9219 10V31.0211L62.1931 26.1517L67.4644 31.0211V10H56.9219Z" stroke="white" stroke-width="2.5" stroke-miterlimit="10" stroke-linecap="round" stroke-linejoin="round"/>
</svg>
