<svg width="26" height="26" viewBox="0 0 26 26" fill="none" xmlns="http://www.w3.org/2000/svg">
<path d="M21.7188 10.8182C21.46 10.8182 21.25 11.0626 21.25 11.3637C21.25 11.6647 21.46 11.9091 21.7188 11.9091C21.9775 11.9091 22.1875 11.6647 22.1875 11.3637C22.1875 11.0626 21.9775 10.8182 21.7188 10.8182ZM13.9375 5.36372C14.1963 5.36372 14.4062 5.11936 14.4062 4.81828C14.4062 4.51719 14.1963 4.27283 13.9375 4.27283C13.6788 4.27283 13.4688 4.51719 13.4688 4.81828C13.4688 5.11936 13.6788 5.36372 13.9375 5.36372Z" fill="white" stroke="white" stroke-width="0.2"/>
<path d="M23.5938 7.54538H17.2188V2.63634C17.2188 1.73401 16.588 1 15.8125 1H2.40625C1.6308 1 1 1.73401 1 2.63634V13.5453C1 14.4476 1.6308 15.1817 2.40625 15.1817H3.8125V17.9089C3.8125 18.3975 4.31988 18.6352 4.61266 18.2945L7.28781 15.1817H8.78125V20.0907C8.78125 20.993 9.41205 21.727 10.1875 21.727H18.7122L21.3873 24.8399C21.6805 25.181 22.1875 24.9418 22.1875 24.4543V21.727H23.5938C24.3692 21.727 25 20.993 25 20.0907V9.18172C25 8.27939 24.3692 7.54538 23.5938 7.54538ZM4.28125 8.63562H8.86183C8.80845 8.81076 8.7812 8.99524 8.78125 9.18107V10.8181H4.28125C4.02236 10.8181 3.8125 11.0623 3.8125 11.3635C3.8125 11.6648 4.02236 11.909 4.28125 11.909H8.78125V14.0908H7.09375C6.96944 14.0908 6.85023 14.1483 6.76234 14.2506L4.75 16.5919V14.6362C4.75 14.335 4.54014 14.0908 4.28125 14.0908H2.40625C2.14769 14.0908 1.9375 13.8462 1.9375 13.5453V2.63634C1.9375 2.33548 2.14769 2.0909 2.40625 2.0909H15.8125C16.0711 2.0909 16.2812 2.33548 16.2812 2.63634V7.54538H4.28125C4.02236 7.54538 3.8125 7.78958 3.8125 8.09083C3.8125 8.39208 4.02236 8.63562 4.28125 8.63562ZM24.0625 20.0907C24.0625 20.3916 23.8523 20.6361 23.5938 20.6361H21.7188C21.4599 20.6361 21.25 20.8803 21.25 21.1816V23.1373L19.2377 20.7959C19.1498 20.6937 19.0306 20.6362 18.9062 20.6361H10.1875C9.92894 20.6361 9.71875 20.3913 9.71875 20.0907V9.18172C9.71875 8.88085 9.92894 8.63627 10.1875 8.63627H23.5938C23.8523 8.63627 24.0625 8.88085 24.0625 9.18172V20.0907Z" fill="white" stroke="white" stroke-width="0.2"/>
<path d="M4.28125 5.36372H12.0625C12.3214 5.36372 12.5312 5.11953 12.5312 4.81828C12.5312 4.51702 12.3214 4.27283 12.0625 4.27283H4.28125C4.02236 4.27283 3.8125 4.51702 3.8125 4.81828C3.8125 5.11953 4.02236 5.36372 4.28125 5.36372ZM12.0625 11.9091H19.8438C20.1026 11.9091 20.3125 11.6649 20.3125 11.3637C20.3125 11.0624 20.1026 10.8182 19.8438 10.8182H12.0625C11.8036 10.8182 11.5938 11.0624 11.5938 11.3637C11.5938 11.6649 11.8036 11.9091 12.0625 11.9091ZM21.7188 14.0909H12.0625C11.8036 14.0909 11.5938 14.3351 11.5938 14.6363C11.5938 14.9376 11.8036 15.1818 12.0625 15.1818H21.7188C21.9776 15.1818 22.1875 14.9376 22.1875 14.6363C22.1875 14.3351 21.9776 14.0909 21.7188 14.0909ZM21.7188 17.3636H12.0625C11.8036 17.3636 11.5938 17.6078 11.5938 17.909C11.5938 18.2103 11.8036 18.4545 12.0625 18.4545H21.7188C21.9776 18.4545 22.1875 18.2103 22.1875 17.909C22.1875 17.6078 21.9776 17.3636 21.7188 17.3636Z" fill="white" stroke="white" stroke-width="0.2"/>
</svg>
