<svg width="24" height="24" viewBox="0 0 24 24" fill="none" xmlns="http://www.w3.org/2000/svg">
<path d="M24 24H0V0H19.5349L21.7674 2.4L24 4.8V24Z" fill="white"/>
<path d="M10.2589 18.4176H12.8451V11.9004H14.6554L14.8623 9.72799H12.8451C12.8451 9.72799 12.8451 8.9004 12.8451 8.48661C12.8451 7.96937 12.9485 7.76247 13.4658 7.76247C13.8796 7.76247 14.8623 7.76247 14.8623 7.76247V5.53833C14.8623 5.53833 13.3623 5.53833 13.052 5.53833C11.1382 5.53833 10.2589 6.36592 10.2589 8.02109C10.2589 9.41764 10.2589 9.77971 10.2589 9.77971H8.91406V12.0038H10.2589V18.4176Z" fill="#8A35F2"/>
</svg>
