<svg width="24" height="24" viewBox="0 0 24 24" fill="none" xmlns="http://www.w3.org/2000/svg">
<path d="M24 24H0V0H19.5349L21.7674 2.4L24 4.8V24Z" fill="white"/>
<path d="M9.28859 10.3737H7.06445V17.5116H9.28859V10.3737Z" fill="#8A35F2"/>
<path d="M8.15053 9.44338C8.86469 9.44338 9.44363 8.86444 9.44363 8.15028C9.44363 7.43612 8.86469 6.85718 8.15053 6.85718C7.43636 6.85718 6.85742 7.43612 6.85742 8.15028C6.85742 8.86444 7.43636 9.44338 8.15053 9.44338Z" fill="#8A35F2"/>
<path d="M12.8052 13.7345C12.8052 12.7517 13.2707 12.131 14.15 12.131C14.9776 12.131 15.3397 12.7 15.3397 13.7345C15.3397 14.7689 15.3397 17.4586 15.3397 17.4586H17.5121C17.5121 17.4586 17.5121 14.8724 17.5121 12.9586C17.5121 11.0448 16.4259 10.1138 14.9259 10.1138C13.4259 10.1138 12.7535 11.3034 12.7535 11.3034V10.3207H10.6328V17.4586H12.7535C12.8052 17.5103 12.8052 14.8724 12.8052 13.7345Z" fill="#8A35F2"/>
</svg>
