<svg width="24" height="24" viewBox="0 0 24 24" fill="none" xmlns="http://www.w3.org/2000/svg">
<path d="M0 24H24V0H4.46512L2.23256 2.4L0 4.8V24Z" fill="white"/>
<path d="M12.0167 7.25723C13.5684 7.25723 13.7753 7.25723 14.396 7.30895C14.965 7.36067 15.2753 7.4124 15.4822 7.51585C15.7408 7.6193 15.9477 7.72275 16.1546 7.92964C16.3615 8.13654 16.465 8.34343 16.5684 8.60205C16.6719 8.80895 16.7236 9.1193 16.7753 9.68826C16.827 10.309 16.827 10.4641 16.827 12.0676C16.827 13.6193 16.827 13.8262 16.7753 14.4469C16.7236 15.0158 16.6719 15.3262 16.5684 15.5331C16.465 15.7917 16.3615 15.9986 16.1546 16.2055C15.9477 16.4124 15.7408 16.5158 15.4822 16.6193C15.2753 16.7227 14.965 16.7745 14.396 16.8262C13.7753 16.8779 13.6202 16.8779 12.0167 16.8779C10.465 16.8779 10.2581 16.8779 9.63739 16.8262C9.06843 16.7745 8.75808 16.7227 8.55119 16.6193C8.29256 16.5158 8.08567 16.4124 7.87877 16.2055C7.67187 15.9986 7.56843 15.7917 7.46498 15.5331C7.36153 15.3262 7.30981 15.0158 7.25808 14.4469C7.20636 13.8262 7.20636 13.671 7.20636 12.0676C7.20636 10.5158 7.20636 10.309 7.25808 9.68826C7.30981 9.1193 7.36153 8.80895 7.46498 8.60205C7.56843 8.34343 7.67187 8.13654 7.87877 7.92964C8.08567 7.72275 8.29256 7.6193 8.55119 7.51585C8.75808 7.4124 9.06843 7.36067 9.63739 7.30895C10.3098 7.25723 10.465 7.25723 12.0167 7.25723ZM12.0167 6.17102C10.4133 6.17102 10.2064 6.17102 9.58567 6.22274C8.96498 6.27447 8.55119 6.32619 8.18912 6.48136C7.82705 6.63654 7.46498 6.84344 7.15463 7.15378C6.84429 7.46412 6.63739 7.82619 6.48222 8.18826C6.32705 8.55033 6.2236 8.96412 6.2236 9.58481C6.17187 10.2055 6.17188 10.4124 6.17188 12.0158C6.17188 13.6193 6.17187 13.8262 6.2236 14.4469C6.27532 15.0676 6.32705 15.4814 6.48222 15.8434C6.63739 16.2055 6.84429 16.5676 7.15463 16.8779C7.46498 17.1883 7.82705 17.3952 8.18912 17.5503C8.55119 17.7055 8.96498 17.809 9.58567 17.809C10.2064 17.8607 10.4133 17.8607 12.0167 17.8607C13.6202 17.8607 13.827 17.8607 14.4477 17.809C15.0684 17.7572 15.4822 17.7055 15.8443 17.5503C16.2064 17.3952 16.5684 17.1883 16.8788 16.8779C17.1891 16.5676 17.396 16.2055 17.5512 15.8434C17.7064 15.4814 17.8098 15.0676 17.8098 14.4469C17.8615 13.8262 17.8615 13.6193 17.8615 12.0158C17.8615 10.4124 17.8615 10.2055 17.8098 9.58481C17.7581 8.96412 17.7064 8.55033 17.5512 8.18826C17.396 7.82619 17.1891 7.46412 16.8788 7.15378C16.5684 6.84344 16.2064 6.63654 15.8443 6.48136C15.4822 6.32619 15.0684 6.22274 14.4477 6.22274C13.827 6.17102 13.6202 6.17102 12.0167 6.17102Z" fill="#8A35F2"/>
<path d="M12.0176 9.01294C10.3624 9.01294 9.01758 10.3578 9.01758 12.0129C9.01758 13.6681 10.3624 15.0129 12.0176 15.0129C13.6727 15.0129 15.0176 13.6681 15.0176 12.0129C15.0176 10.3578 13.7245 9.01294 12.0176 9.01294ZM12.0176 13.9785C10.9314 13.9785 10.0521 13.0991 10.0521 12.0129C10.0521 10.9267 10.9314 10.0474 12.0176 10.0474C13.1038 10.0474 13.9831 10.9267 13.9831 12.0129C13.9831 13.0991 13.1038 13.9785 12.0176 13.9785Z" fill="#8A35F2"/>
<path d="M15.8467 8.90944C15.8467 9.27151 15.5364 9.63358 15.1226 9.63358C14.7605 9.63358 14.3984 9.32323 14.3984 8.90944C14.3984 8.54737 14.7088 8.1853 15.1226 8.1853C15.5364 8.1853 15.8467 8.49565 15.8467 8.90944Z" fill="#8A35F2"/>
</svg>
