<svg width="50" height="60" viewBox="0 0 50 60" fill="none" xmlns="http://www.w3.org/2000/svg">
<path d="M13.4413 46.3898C13.3724 46.5965 13.338 46.8375 13.2692 47.0786C12.3401 50.6259 11.2734 55.9295 11.5487 58.1337C11.6175 58.6503 11.7551 58.9946 11.996 59.1324C12.0648 59.1668 12.1337 59.1668 12.2025 59.1668C12.4433 59.2013 12.753 59.098 13.1316 58.9258C15.3338 57.8237 19.1878 53.3466 19.8761 51.8313C19.9793 51.6591 20.0137 51.4869 19.9793 51.418C19.6008 49.9026 14.9553 43.2903 14.4048 43.6347C14.2327 43.7036 13.8886 44.8056 13.4413 46.3898Z" fill="url(#paint0_linear_117_1246)"/>
<path d="M19.8416 51.8313C19.8416 52.3824 13.6477 48.594 14.3703 43.6348C14.3703 43.6348 19.876 46.631 19.8416 51.8313Z" fill="url(#paint1_linear_117_1246)"/>
<path opacity="0.3" d="M13.4425 46.3898C13.4425 46.3898 16.6427 48.9383 16.7803 51.0391C16.9179 53.1055 14.9221 57.066 13.0984 58.9258C15.3006 57.8237 19.1546 53.3466 19.8428 51.8313C19.9461 51.6591 19.9805 51.4869 19.9461 51.418C19.5676 49.9026 14.9221 43.2903 14.3716 43.6347C14.2339 43.7036 13.8898 44.8056 13.4425 46.3898Z" fill="url(#paint2_linear_117_1246)"/>
<path d="M35.1903 47.2164C35.2591 47.423 35.2935 47.6641 35.3623 47.9052C36.2914 51.4524 37.3581 56.7561 37.0829 58.9602C37.014 59.4768 36.8764 59.8212 36.6355 59.9589C36.5667 59.9934 36.4979 59.9934 36.429 59.9934C36.1882 60.0278 35.8785 59.9245 35.5 59.7523C33.2977 58.6502 29.4437 54.1731 28.7555 52.6578C28.6522 52.4856 28.6178 52.3134 28.6522 52.2445C29.0308 50.7292 33.6762 44.1168 34.2268 44.4612C34.3988 44.5645 34.7773 45.6666 35.1903 47.2164Z" fill="url(#paint3_linear_117_1246)"/>
<path d="M28.7884 52.6577C28.7884 53.2088 34.9823 49.4205 34.2597 44.4612C34.2597 44.4612 28.7884 47.4918 28.7884 52.6577Z" fill="url(#paint4_linear_117_1246)"/>
<path d="M33.0565 52.7267C32.8157 52.9334 33.6415 55.1031 34.1577 55.0342C34.6738 54.9997 33.6071 52.279 33.0565 52.7267Z" fill="white"/>
<path d="M14.439 55.9295C14.129 55.8951 13.4402 57.1693 13.8535 57.4793C14.2668 57.7892 15.1277 55.9984 14.439 55.9295Z" fill="white"/>
<path opacity="0.3" d="M35.1891 47.2164C35.1891 47.2164 31.9889 49.7649 31.8513 51.8657C31.7136 53.932 33.7094 57.8926 35.5332 59.7523C33.3309 58.6502 29.4769 54.1731 28.7887 52.6578C28.6855 52.4856 28.6511 52.3134 28.6855 52.2445C29.064 50.7292 33.7094 44.1168 34.26 44.4612C34.3977 44.5645 34.7762 45.6666 35.1891 47.2164Z" fill="url(#paint5_linear_117_1246)"/>
<path d="M33.675 3.78833C33.675 3.78833 35.8428 1.92861 38.4581 1.61865C38.4581 1.61865 39.2495 1.99749 40.213 4.92483C41.1421 7.81774 39.4215 13.5691 39.4215 13.5691L33.675 3.78833Z" fill="url(#paint6_linear_117_1246)"/>
<path d="M39.4902 3.06511C39.4902 3.06511 39.0773 2.06636 38.4579 1.61865C38.4579 1.61865 36.29 3.61614 36.3933 8.40321L37.0127 9.05756L39.4902 3.06511Z" fill="url(#paint7_linear_117_1246)"/>
<path d="M15.8496 3.78833C15.8496 3.78833 13.6817 1.92861 11.0665 1.61865C11.0665 1.61865 10.2751 1.99749 9.31158 4.92483C8.3825 7.81774 10.103 13.5691 10.103 13.5691L15.8496 3.78833Z" fill="url(#paint8_linear_117_1246)"/>
<path d="M11.0677 1.61861C11.0677 1.61861 13.2012 3.89161 13.2012 7.57662L12.3753 8.09321L9.96657 3.13394C10.001 3.13394 10.7924 1.58417 11.0677 1.61861Z" fill="url(#paint9_linear_117_1246)"/>
<path d="M12.4783 7.8522C12.4783 7.8522 13.0289 4.71822 10.9642 2.37634C10.9642 2.37634 8.62432 3.4784 7.66082 7.57669C6.69732 11.675 9.2093 14.1202 9.2093 14.1202L12.4783 7.8522Z" fill="url(#paint10_linear_117_1246)"/>
<path d="M37.0816 7.8522C37.0816 7.8522 36.531 4.71822 38.5956 2.37634C38.5956 2.37634 40.9355 3.4784 41.899 7.57669C42.8625 11.675 40.3506 14.1202 40.3506 14.1202L37.0816 7.8522Z" fill="url(#paint11_linear_117_1246)"/>
<path d="M9.58847 25.2441C14.406 31.9942 36.9794 31.4776 39.9043 26.0362C41.8313 22.4889 41.6248 17.1164 39.7666 12.1915C37.3579 5.75138 32.093 0 25.1421 0C16.9524 0 10.6552 8.16213 8.76262 15.601C7.79912 19.3894 7.97117 22.9711 9.58847 25.2441Z" fill="url(#paint12_linear_117_1246)"/>
<path d="M38.217 19.0106C37.1502 23.591 17.2953 24.1076 12.4434 19.9405C7.59147 15.7733 14.5768 0.998801 25.3474 1.65315C35.1544 2.23862 39.9719 11.4684 38.217 19.0106Z" fill="#DFE3FB"/>
<path d="M38.3205 18.425C37.2537 23.0055 17.3988 23.5221 12.5469 19.3549C7.66057 15.1877 14.6803 0.413229 25.4509 1.06758C35.2579 1.65305 40.0754 10.9172 38.3205 18.425Z" fill="url(#paint13_linear_117_1246)"/>
<path opacity="0.3" d="M9.58847 25.2441C14.406 31.9942 36.9794 31.4776 39.9043 26.0362C41.8313 22.4889 41.6248 17.1164 39.7666 12.1915C39.8354 12.467 41.728 19.3894 39.801 22.42C37.8396 25.5196 30.0284 25.1063 21.6322 24.7275C13.236 24.3831 10.4832 23.1433 9.07232 20.7669C7.97117 18.9072 9.07232 14.8089 9.58847 13.1214L8.76262 15.5666C7.79912 19.3894 7.97117 22.9711 9.58847 25.2441Z" fill="url(#paint14_linear_117_1246)"/>
<path d="M25.1064 30.2033C29.7863 30.2033 33.1929 29.6867 35.0855 28.8946C36.3243 28.4125 36.9437 27.7926 36.8405 27.2071C36.7716 26.8283 35.877 26.5183 34.4317 26.2428C30.1648 25.4851 21.3557 25.244 16.607 25.9673C16.1941 26.0361 15.8155 26.105 15.4714 26.1739C15.4026 26.1739 15.3338 26.2083 15.265 26.2083H15.2306C14.4047 26.415 13.8197 26.6561 13.5789 26.966C13.51 27.0349 13.4756 27.1038 13.4412 27.2071C12.9595 28.7569 20.8739 30.2033 25.1064 30.2033Z" fill="url(#paint15_linear_117_1246)"/>
<path opacity="0.5" d="M13.4764 26.8283C13.4764 26.8627 13.5108 26.9316 13.5452 26.966C13.9925 27.6204 15.8851 28.4469 15.8851 28.4469C15.8851 28.4469 23.0425 25.5196 28.8579 26.8283C34.6733 28.1369 35.1207 28.8946 35.1207 28.8946C36.3595 28.4125 36.9789 27.7926 36.8756 27.2071C36.8068 26.8283 35.9121 26.5183 34.4669 26.2428C30.2 25.4851 21.3908 25.244 16.6422 25.9673C16.1604 26.0706 15.6787 26.1395 15.3001 26.2428H15.2657C14.0614 26.4839 13.4076 26.6905 13.4764 26.8283Z" fill="url(#paint16_linear_117_1246)"/>
<path d="M15.4382 26.1739C16.5393 27.2415 21.873 28.137 24.9011 28.137C30.338 28.137 33.6414 27.276 34.3984 26.2428C29.7874 25.4162 19.7739 25.2096 15.4382 26.1739Z" fill="url(#paint17_linear_117_1246)"/>
<path opacity="0.5" d="M39.9035 26.0361C39.9035 26.0361 38.94 24.9341 37.0818 24.0387C35.2237 23.1432 33.5031 22.4544 33.2278 21.7312C32.9526 21.008 38.355 21.4213 38.355 21.4213L41.0391 22.5922C41.0391 22.5922 40.6261 24.7619 39.9035 26.0361Z" fill="url(#paint18_linear_117_1246)"/>
<path d="M42.1062 9.05762C42.1062 9.05762 40.7298 9.95304 41.6245 12.0194C41.6245 12.0194 48.1281 15.5667 47.7495 19.4239C47.4399 22.6612 38.4587 21.077 38.4587 21.077L38.149 22.1446C38.149 22.1446 45.7881 23.6255 48.4034 21.8346C48.4034 21.8346 49.298 19.6994 47.0613 15.8766C44.8591 12.0538 42.1062 9.05762 42.1062 9.05762Z" fill="url(#paint19_linear_117_1246)"/>
<path d="M39.5944 20.8013C40.4203 21.7312 38.6654 22.73 37.2545 22.9021C35.6372 23.0743 32.8155 22.4544 32.9876 20.8358C33.1252 19.1827 37.6675 18.6317 39.5944 20.8013Z" fill="url(#paint20_linear_117_1246)"/>
<path opacity="0.5" d="M35.0521 6.819C35.293 8.2999 31.9895 8.23102 27.4817 8.09326C22.1137 7.92106 16.6768 12.5704 13.511 9.22976C12.9948 8.67873 18.1564 1.44646 24.4192 1.58422C30.6819 1.72198 34.8456 5.54475 35.0521 6.819Z" fill="url(#paint21_linear_117_1246)"/>
<path opacity="0.5" d="M31.9892 19.7682C32.2645 20.8358 30.0278 21.7312 24.4877 21.6624C17.4679 21.5935 16.2291 19.8715 16.3668 19.7682C16.3668 19.7682 19.2917 21.4902 24.763 20.2504C28.4105 19.4927 31.7139 18.6317 31.9892 19.7682Z" fill="url(#paint22_linear_117_1246)"/>
<path opacity="0.3" d="M9.62272 13.018L9.79492 12.5359C9.76048 12.6392 9.72604 12.777 9.62272 13.018Z" fill="url(#paint23_linear_117_1246)"/>
<path d="M21.321 0.964335C21.8028 1.06765 17.8111 3.16846 17.6391 2.92738C17.467 2.6863 19.979 0.654381 21.321 0.964335Z" fill="white"/>
<path d="M13.6826 2.51412C14.0956 2.72076 14.0612 3.16847 13.2353 3.06515C12.4094 2.96183 11.9621 2.30749 12.0653 2.16973C12.0997 2.06641 13.2353 2.27305 13.6826 2.51412Z" fill="white"/>
<path d="M6.42282 14.9123C6.62946 14.8779 6.56058 16.8065 6.28506 16.7032C6.00955 16.5999 6.11287 14.9468 6.42282 14.9123Z" fill="white"/>
<path d="M39.4901 20.9736C39.5245 21.2491 33.8123 21.318 33.6747 20.2848C33.537 19.2516 39.1116 18.9072 39.4901 20.9736Z" fill="url(#paint24_linear_117_1246)"/>
<path opacity="0.2" d="M38.0802 16.9098C38.0802 16.9098 38.3211 15.36 38.0458 13.2592C37.7705 11.1584 37.2199 9.81528 36.8758 9.98747C36.5317 10.1941 36.6005 12.226 36.3941 14.258C36.2564 15.8422 35.9467 17.3231 35.9467 17.3231C35.9467 17.3231 37.3576 18.7006 38.0802 16.9098Z" fill="url(#paint25_linear_117_1246)"/>
<path opacity="0.72" d="M9.17481 4.23602C9.17481 4.23602 9.93184 3.30616 10.9642 3.54723C11.9965 3.78831 12.0653 7.06005 11.4459 7.12893C10.8265 7.19781 10.5512 5.33808 10.1039 5.02813C9.62215 4.71817 8.79629 4.85593 8.79629 4.85593L9.17481 4.23602Z" fill="url(#paint26_linear_117_1246)"/>
<path opacity="0.72" d="M41.1074 5.37249C41.1074 5.37249 40.6945 4.92478 39.7998 5.06253C38.9051 5.20029 38.389 7.06002 37.9416 6.85338C37.4943 6.68119 37.804 3.68496 39.0428 2.82397C39.0428 2.82397 40.5913 4.16711 41.1074 5.37249Z" fill="url(#paint27_linear_117_1246)"/>
<path d="M42.3123 9.71191C42.3123 9.71191 45.478 13.2592 45.2716 13.5347C45.0995 13.7758 42.1402 10.0907 42.3123 9.71191Z" fill="url(#paint28_linear_117_1246)"/>
<path d="M31.3348 28.9635C31.7477 30.9955 32.5736 33.8884 33.95 36.0925C36.2211 39.7431 39.4901 44.2546 39.5933 44.3924C41.1762 44.9779 42.8279 44.599 43.8603 44.2546C44.4797 44.048 44.8926 43.8069 44.8926 43.8069C44.8926 43.8069 43.5506 39.3642 40.1095 34.7494C38.389 32.4075 36.3243 30.3411 34.6382 28.8258C34.6382 28.8258 34.6382 28.8258 34.6038 28.7913C34.5694 28.7569 34.5694 28.7569 34.535 28.7225L34.5006 28.688L34.4661 28.6536L34.4317 28.6192C32.7112 27.1038 31.3692 26.2773 31.1627 26.4495C31.0251 26.5872 31.0595 27.5515 31.3348 28.9635Z" fill="url(#paint29_linear_117_1246)"/>
<path opacity="0.3" d="M31.3348 28.9634C31.7477 30.9954 32.5736 33.8883 33.95 36.0924C36.2211 39.743 39.4901 44.2545 39.5933 44.3923L43.8603 44.2545C44.4797 44.0479 44.8926 43.8068 44.8926 43.8068C44.8926 43.8068 43.5506 39.3641 40.1095 34.7493C38.389 32.4074 36.3243 30.341 34.6382 28.8257C35.6017 29.7211 39.7654 33.5783 41.3827 37.2289C43.2065 41.3961 38.8363 40.5006 36.6684 38.1243C34.5006 35.7824 31.4036 28.929 31.4036 28.929L31.3348 28.9634Z" fill="url(#paint30_linear_117_1246)"/>
<path d="M35.8425 33.1996C36.1522 33.0274 35.051 31.3054 34.5349 31.3743C33.9843 31.4432 35.5672 33.3718 35.8425 33.1996Z" fill="white"/>
<path d="M37.4608 35.6104C37.7019 35.4382 38.0807 36.0925 37.8741 36.2647C37.633 36.4025 37.1853 35.817 37.4608 35.6104Z" fill="white"/>
<path d="M44.2051 41.9127C44.2051 41.9127 43.104 39.7086 41.2458 40.604C39.3876 41.465 40.7296 44.4957 40.7296 44.4957C40.7296 44.4957 43.2072 45.6322 44.9277 43.8413C44.9277 43.8069 44.6869 43.0492 44.2051 41.9127Z" fill="url(#paint31_linear_117_1246)"/>
<path d="M44.239 41.3617C44.239 41.3617 41.8647 40.3974 40.7635 41.4995C39.8689 42.3949 40.213 44.3235 40.7291 45.5633C41.2453 46.8031 44.8584 50.7636 46.4757 50.7292C48.093 50.6603 48.9533 48.9039 48.2995 46.8376C48.3339 46.8376 46.0284 42.7737 44.239 41.3617Z" fill="url(#paint32_linear_117_1246)"/>
<path d="M44.2403 41.3617C44.2403 41.3617 44.2747 43.5658 45.6855 45.0811C47.0964 46.5965 48.0255 49.9027 48.0255 49.9027C48.0255 49.9027 48.7825 49.0761 48.3352 46.8376C47.8878 44.599 44.2403 41.3617 44.2403 41.3617Z" fill="url(#paint33_linear_117_1246)"/>
<path opacity="0.5" d="M48.1973 46.4243L46.9929 47.2164C46.9929 47.2164 46.5456 46.1488 45.9262 45.3911C45.3068 44.6335 44.7906 43.1526 44.7906 43.1526L48.1973 46.4243Z" fill="url(#paint34_linear_117_1246)"/>
<path d="M44.6523 41.6716C44.6523 41.6716 45.719 41.9127 47.3363 42.9803C48.9192 44.0824 49.8827 45.3566 49.986 45.6666C50.0892 46.011 49.6074 46.5965 49.0569 46.6309C48.5063 46.6653 46.6481 45.5977 46.6481 45.5977C46.6481 45.5977 44.1017 43.187 44.6523 41.6716Z" fill="url(#paint35_linear_117_1246)"/>
<path d="M45.6837 45.0811C45.6837 45.0811 42.7588 44.048 40.5565 45.0811L40.763 45.5633C40.763 45.5633 42.9997 44.4612 45.959 45.3567L45.6837 45.0811Z" fill="url(#paint36_linear_117_1246)"/>
<path d="M48.5403 45.219C48.678 45.0468 47.0951 43.9791 47.0263 44.2547C46.923 44.4957 48.3339 45.4256 48.5403 45.219Z" fill="white"/>
<path d="M31.1296 26.4839C31.1296 26.4839 33.4007 30.2722 33.1598 34.6116C33.1598 34.5771 30.2349 29.2735 31.1296 26.4839Z" fill="url(#paint37_linear_117_1246)"/>
<path d="M18.1912 28.5846C17.7782 30.6166 16.9524 33.5095 15.576 35.7136C13.3049 39.3642 10.0358 43.8757 9.93262 44.0135C8.34973 44.599 6.69801 44.2201 5.66569 43.8757C5.0463 43.6691 4.63337 43.428 4.63337 43.428C4.63337 43.428 5.97539 38.9853 9.41646 34.3705C11.137 32.0286 13.2016 29.9622 14.8878 28.4469C14.8878 28.4469 14.8878 28.4469 14.9222 28.4124C14.9566 28.378 14.9566 28.378 14.991 28.3436L15.0254 28.3091L15.0598 28.2747L15.0942 28.2402C16.8147 26.7249 18.1568 25.8984 18.3632 26.0706C18.5353 26.2083 18.4665 27.2071 18.1912 28.5846Z" fill="url(#paint38_linear_117_1246)"/>
<path opacity="0.3" d="M18.1914 28.5847C17.7785 30.6166 16.9526 33.5095 15.5762 35.7136C13.3051 39.3642 10.0361 43.8757 9.93285 44.0135L5.66593 43.8757C5.04653 43.6691 4.63361 43.428 4.63361 43.428C4.63361 43.428 5.97562 38.9854 9.41669 34.3705C11.1372 32.0286 13.2019 29.9622 14.888 28.4469C13.9245 29.3423 9.7608 33.1995 8.14349 36.8501C6.31973 41.0173 10.6899 40.1219 12.8578 37.7455C15.06 35.4381 18.157 28.5847 18.157 28.5847H18.1914Z" fill="url(#paint39_linear_117_1246)"/>
<path d="M13.6824 32.8551C13.3727 32.6829 14.4739 30.961 14.99 31.0298C15.5406 31.0987 13.9577 33.0273 13.6824 32.8551Z" fill="white"/>
<path d="M5.35476 41.5684C5.35476 41.5684 6.4559 39.3642 8.31407 40.2597C10.1722 41.1206 8.83023 44.1513 8.83023 44.1513C8.83023 44.1513 6.35266 45.2878 4.63213 43.497C4.63213 43.4625 4.8386 42.6704 5.35476 41.5684Z" fill="url(#paint40_linear_117_1246)"/>
<path d="M5.2865 41.0173C5.2865 41.0173 7.66083 40.053 8.76198 41.1551C9.65665 42.0505 9.31255 43.9791 8.79639 45.2189C8.28023 46.4588 4.66711 50.4193 3.04981 50.3848C1.43251 50.316 0.57224 48.5596 1.22604 46.4932C1.22604 46.4932 3.49715 42.3949 5.2865 41.0173Z" fill="url(#paint41_linear_117_1246)"/>
<path d="M6.07812 40.7762C6.07812 40.7762 5.52755 43.1526 3.84143 44.7368C2.32736 46.1488 1.50151 49.5583 1.50151 49.5583C1.50151 49.5583 0.744471 48.7317 1.19181 46.4932C1.67356 44.2546 6.07812 40.7762 6.07812 40.7762Z" fill="url(#paint42_linear_117_1246)"/>
<path opacity="0.5" d="M1.32871 46.0455L2.49867 46.7343C2.49867 46.7343 2.94601 45.7011 3.59981 45.0123C5.63004 42.877 6.04297 40.7762 6.04297 40.7762L3.29012 43.2903C3.29012 43.2903 2.6019 44.0135 2.12015 44.6679C1.87928 45.0123 1.32871 46.0455 1.32871 46.0455Z" fill="url(#paint43_linear_117_1246)"/>
<path d="M6.07812 40.7763C6.07812 40.7763 5.52756 40.6041 3.56615 40.5697C1.57033 40.5352 0.503595 41.0863 0.22831 41.2584C-0.0469751 41.4306 -0.115795 42.1883 0.262722 42.6016C0.64124 43.0149 4.15113 43.6348 4.15113 43.6348C4.15113 43.6348 5.42432 42.2572 6.07812 40.7763Z" fill="url(#paint44_linear_117_1246)"/>
<path d="M3.84156 44.7368C3.84156 44.7368 6.76647 43.7036 8.96875 44.7368L8.76228 45.2189C8.76228 45.2189 6.52559 44.1169 3.56628 45.0123L3.84156 44.7368Z" fill="url(#paint45_linear_117_1246)"/>
<path d="M1.81016 41.0518C1.77575 40.8451 3.70274 40.8796 3.59951 41.1551C3.53069 41.4306 1.84457 41.3617 1.81016 41.0518Z" fill="white"/>
<path d="M18.3976 26.105C18.3976 26.105 16.1265 29.8933 16.3674 34.2327C16.3674 34.2327 19.3267 28.929 18.3976 26.105Z" fill="url(#paint46_linear_117_1246)"/>
<path d="M27.1035 18.3907C27.1035 18.3907 25.7615 16.7031 24.3507 16.3932C22.9398 16.0832 22.4581 17.8052 22.4581 17.8052C22.4581 17.8052 25.0733 17.633 27.1035 18.3907Z" fill="#2F95CD"/>
<path d="M15.437 45.7699C16.0908 49.6271 19.5662 52.2101 24.5214 52.2101C28.8571 52.2101 32.5047 50.5914 33.4681 47.0442C34.4316 43.4969 34.0531 36.919 32.7799 32.8551C32.5735 32.2352 32.367 31.6498 32.0917 31.0987C31.8508 30.5822 31.5756 30.1 31.2659 29.6523C29.683 27.276 27.3775 25.7262 24.7623 25.7262C22.0438 25.7262 19.9792 26.8283 18.5339 28.5158C17.8801 29.2735 17.364 30.1689 16.9854 31.0987C16.5725 32.1664 16.194 33.3373 15.9187 34.5082V34.5427C15.024 38.2621 14.852 42.326 15.437 45.7699Z" fill="url(#paint47_linear_117_1246)"/>
<path opacity="0.3" d="M15.437 45.7699C16.0908 49.6271 19.5662 52.2101 24.5214 52.2101C28.8571 52.2101 32.5047 50.5914 33.4681 47.0442C34.4316 43.4969 34.0531 36.919 32.7799 32.8552C32.5735 32.2353 32.367 31.6498 32.0917 31.0988C32.0917 31.0988 34.7069 39.7775 32.6079 45.3222C30.5088 50.867 20.7706 50.7292 17.4672 47.0442C14.3358 43.5658 15.7811 35.3348 15.9187 34.5427C15.024 38.2621 14.852 42.326 15.437 45.7699Z" fill="url(#paint48_linear_117_1246)"/>
<path d="M33.2969 43.4969C32.5743 38.2966 28.3762 34.7838 23.7651 35.2315C18.7756 35.7136 16.0915 40.4663 16.1604 44.5646C16.2292 48.6628 19.2229 51.8313 24.5566 51.8313C29.9246 51.7968 33.9851 48.3529 33.2969 43.4969Z" fill="url(#paint49_linear_117_1246)"/>
<path opacity="0.5" d="M18.5345 28.5158C19.6013 30.1689 25.4167 31.1332 28.7889 30.8232C31.7138 30.5477 31.2665 29.7556 31.2665 29.6523C29.6836 27.276 27.3781 25.7262 24.7629 25.7262C22.0444 25.7262 19.9454 26.8627 18.5345 28.5158Z" fill="url(#paint50_linear_117_1246)"/>
<path d="M20.6 31.3742C20.8755 31.4775 20.8755 33.6472 20.6 33.9916C20.3245 34.336 19.8768 34.2327 19.7046 33.7161C19.5668 33.234 20.2212 31.2365 20.6 31.3742Z" fill="white"/>
<defs>
<linearGradient id="paint0_linear_117_1246" x1="13.8402" y1="59.6086" x2="17.8941" y2="44.5326" gradientUnits="userSpaceOnUse">
<stop stop-color="#CBC1F7"/>
<stop offset="1" stop-color="#E8DCF7"/>
</linearGradient>
<linearGradient id="paint1_linear_117_1246" x1="16.0395" y1="50.3765" x2="18.1676" y2="45.1653" gradientUnits="userSpaceOnUse">
<stop stop-color="#BE9DEA"/>
<stop offset="1" stop-color="#9E8CEF"/>
</linearGradient>
<linearGradient id="paint2_linear_117_1246" x1="12.6163" y1="58.713" x2="18.1681" y2="45.1182" gradientUnits="userSpaceOnUse">
<stop stop-color="#9D68C2"/>
<stop offset="1" stop-color="#CCEDFF"/>
</linearGradient>
<linearGradient id="paint3_linear_117_1246" x1="34.7983" y1="60.4575" x2="30.7444" y2="45.3815" gradientUnits="userSpaceOnUse">
<stop stop-color="#CBC1F7"/>
<stop offset="1" stop-color="#E8DCF7"/>
</linearGradient>
<linearGradient id="paint4_linear_117_1246" x1="32.5976" y1="51.2253" x2="30.4694" y2="46.0142" gradientUnits="userSpaceOnUse">
<stop stop-color="#BE9DEA"/>
<stop offset="1" stop-color="#9E8CEF"/>
</linearGradient>
<linearGradient id="paint5_linear_117_1246" x1="36.0222" y1="59.5619" x2="30.4704" y2="45.9671" gradientUnits="userSpaceOnUse">
<stop stop-color="#9D68C2"/>
<stop offset="1" stop-color="#CCEDFF"/>
</linearGradient>
<linearGradient id="paint6_linear_117_1246" x1="37.0752" y1="13.5557" x2="37.0752" y2="1.61376" gradientUnits="userSpaceOnUse">
<stop stop-color="#B9ACF4"/>
<stop offset="1" stop-color="#E1D1F5"/>
</linearGradient>
<linearGradient id="paint7_linear_117_1246" x1="37.9293" y1="9.04423" x2="37.9293" y2="1.61376" gradientUnits="userSpaceOnUse">
<stop stop-color="#BE9DEA"/>
<stop offset="1" stop-color="#9E8CEF"/>
</linearGradient>
<linearGradient id="paint8_linear_117_1246" x1="12.4629" y1="13.5557" x2="12.4629" y2="1.61376" gradientUnits="userSpaceOnUse">
<stop stop-color="#B9ACF4"/>
<stop offset="1" stop-color="#E1D1F5"/>
</linearGradient>
<linearGradient id="paint9_linear_117_1246" x1="11.5976" y1="8.10468" x2="11.5976" y2="1.61282" gradientUnits="userSpaceOnUse">
<stop stop-color="#BE9DEA"/>
<stop offset="1" stop-color="#9E8CEF"/>
</linearGradient>
<linearGradient id="paint10_linear_117_1246" x1="9.98474" y1="14.1271" x2="9.98474" y2="2.3938" gradientUnits="userSpaceOnUse">
<stop stop-color="#DD1A8F"/>
<stop offset="1" stop-color="#FE117E"/>
</linearGradient>
<linearGradient id="paint11_linear_117_1246" x1="39.5542" y1="14.1271" x2="39.5542" y2="2.3938" gradientUnits="userSpaceOnUse">
<stop stop-color="#DD1A8F"/>
<stop offset="1" stop-color="#FE117E"/>
</linearGradient>
<linearGradient id="paint12_linear_117_1246" x1="26.0573" y1="30.494" x2="22.2577" y2="0.266002" gradientUnits="userSpaceOnUse">
<stop stop-color="#CBC1F7"/>
<stop offset="1" stop-color="#E8DCF7"/>
</linearGradient>
<linearGradient id="paint13_linear_117_1246" x1="24.8187" y1="22.207" x2="24.8187" y2="1.05532" gradientUnits="userSpaceOnUse">
<stop stop-color="#0665BD"/>
<stop offset="1" stop-color="#1A1F77"/>
</linearGradient>
<linearGradient id="paint14_linear_117_1246" x1="24.7156" y1="30.2145" x2="24.7156" y2="12.1966" gradientUnits="userSpaceOnUse">
<stop stop-color="#9D68C2"/>
<stop offset="1" stop-color="#CCEDFF"/>
</linearGradient>
<linearGradient id="paint15_linear_117_1246" x1="36.8481" y1="27.8722" x2="13.3881" y2="27.8722" gradientUnits="userSpaceOnUse">
<stop stop-color="#8879EA"/>
<stop offset="1" stop-color="#9E8CEF"/>
</linearGradient>
<linearGradient id="paint16_linear_117_1246" x1="25.1532" y1="28.9186" x2="25.1532" y2="25.5342" gradientUnits="userSpaceOnUse">
<stop stop-color="#8DA4E5"/>
<stop offset="1" stop-color="#755CBB"/>
</linearGradient>
<linearGradient id="paint17_linear_117_1246" x1="25.2131" y1="28.4396" x2="24.7721" y2="24.9309" gradientUnits="userSpaceOnUse">
<stop stop-color="#5E36CC"/>
<stop offset="1" stop-color="#6C4A96"/>
</linearGradient>
<linearGradient id="paint18_linear_117_1246" x1="37.1287" y1="26.0369" x2="37.1287" y2="21.2885" gradientUnits="userSpaceOnUse">
<stop stop-color="#8DA4E5"/>
<stop offset="1" stop-color="#755CBB"/>
</linearGradient>
<linearGradient id="paint19_linear_117_1246" x1="43.5701" y1="22.9342" x2="41.8285" y2="9.07905" gradientUnits="userSpaceOnUse">
<stop stop-color="#BE9DEA"/>
<stop offset="1" stop-color="#9E8CEF"/>
</linearGradient>
<linearGradient id="paint20_linear_117_1246" x1="36.8191" y1="23.0163" x2="35.9232" y2="19.2149" gradientUnits="userSpaceOnUse">
<stop stop-color="#DD1A8F"/>
<stop offset="1" stop-color="#FE117E"/>
</linearGradient>
<linearGradient id="paint21_linear_117_1246" x1="35.0806" y1="6.03189" x2="13.4603" y2="6.03189" gradientUnits="userSpaceOnUse">
<stop/>
<stop offset="1" stop-color="#6A9BFF"/>
</linearGradient>
<linearGradient id="paint22_linear_117_1246" x1="32.0239" y1="20.4481" x2="16.3544" y2="20.4481" gradientUnits="userSpaceOnUse">
<stop/>
<stop offset="1" stop-color="#6A9BFF"/>
</linearGradient>
<linearGradient id="paint23_linear_117_1246" x1="9.72081" y1="13.0198" x2="9.72081" y2="12.5315" gradientUnits="userSpaceOnUse">
<stop stop-color="#9D68C2"/>
<stop offset="1" stop-color="#CCEDFF"/>
</linearGradient>
<linearGradient id="paint24_linear_117_1246" x1="36.5769" y1="21.125" x2="36.5769" y2="19.4667" gradientUnits="userSpaceOnUse">
<stop stop-color="#D93DE3"/>
<stop offset="1" stop-color="#FF6DBA"/>
</linearGradient>
<linearGradient id="paint25_linear_117_1246" x1="37.1673" y1="17.8323" x2="36.6304" y2="10.0067" gradientUnits="userSpaceOnUse">
<stop/>
<stop offset="1" stop-color="#00E3FF"/>
</linearGradient>
<linearGradient id="paint26_linear_117_1246" x1="11.8481" y1="5.32899" x2="8.79781" y2="5.32899" gradientUnits="userSpaceOnUse">
<stop/>
<stop offset="1" stop-color="#D4E2FF"/>
</linearGradient>
<linearGradient id="paint27_linear_117_1246" x1="41.1081" y1="4.85772" x2="37.7465" y2="4.85772" gradientUnits="userSpaceOnUse">
<stop stop-color="#D4E2FF"/>
<stop offset="1"/>
</linearGradient>
<linearGradient id="paint28_linear_117_1246" x1="43.8446" y1="13.5694" x2="43.7805" y2="9.69256" gradientUnits="userSpaceOnUse">
<stop stop-color="#CBC1F7"/>
<stop offset="1" stop-color="#E8DCF7"/>
</linearGradient>
<linearGradient id="paint29_linear_117_1246" x1="40.8984" y1="45.2314" x2="34.4515" y2="25.3866" gradientUnits="userSpaceOnUse">
<stop stop-color="#CBC1F7"/>
<stop offset="1" stop-color="#E8DCF7"/>
</linearGradient>
<linearGradient id="paint30_linear_117_1246" x1="39.782" y1="45.0448" x2="36.5121" y2="27.9578" gradientUnits="userSpaceOnUse">
<stop stop-color="#9D68C2"/>
<stop offset="1" stop-color="#CCEDFF"/>
</linearGradient>
<linearGradient id="paint31_linear_117_1246" x1="42.5241" y1="44.8327" x2="42.6864" y2="40.4014" gradientUnits="userSpaceOnUse">
<stop stop-color="#BE9DEA"/>
<stop offset="1" stop-color="#9E8CEF"/>
</linearGradient>
<linearGradient id="paint32_linear_117_1246" x1="40.437" y1="41.8706" x2="48.4703" y2="49.4767" gradientUnits="userSpaceOnUse">
<stop stop-color="#CBC1F7"/>
<stop offset="1" stop-color="#E8DCF7"/>
</linearGradient>
<linearGradient id="paint33_linear_117_1246" x1="42.8766" y1="43.239" x2="49.4129" y2="48.0365" gradientUnits="userSpaceOnUse">
<stop stop-color="#BE9DEA"/>
<stop offset="1" stop-color="#9E8CEF"/>
</linearGradient>
<linearGradient id="paint34_linear_117_1246" x1="44.2204" y1="43.9069" x2="48.0066" y2="46.6859" gradientUnits="userSpaceOnUse">
<stop stop-color="#8DA4E5"/>
<stop offset="1" stop-color="#755CBB"/>
</linearGradient>
<linearGradient id="paint35_linear_117_1246" x1="44.4825" y1="41.8469" x2="49.4674" y2="46.5667" gradientUnits="userSpaceOnUse">
<stop stop-color="#CBC1F7"/>
<stop offset="1" stop-color="#E8DCF7"/>
</linearGradient>
<linearGradient id="paint36_linear_117_1246" x1="41.3784" y1="43.9787" x2="45.0017" y2="46.638" gradientUnits="userSpaceOnUse">
<stop stop-color="#BE9DEA"/>
<stop offset="1" stop-color="#9E8CEF"/>
</linearGradient>
<linearGradient id="paint37_linear_117_1246" x1="32.9787" y1="30.4748" x2="31.1406" y2="30.5942" gradientUnits="userSpaceOnUse">
<stop stop-color="#8879EA"/>
<stop offset="1" stop-color="#9E8CEF"/>
</linearGradient>
<linearGradient id="paint38_linear_117_1246" x1="8.64108" y1="44.8788" x2="15.088" y2="25.0341" gradientUnits="userSpaceOnUse">
<stop stop-color="#CBC1F7"/>
<stop offset="1" stop-color="#E8DCF7"/>
</linearGradient>
<linearGradient id="paint39_linear_117_1246" x1="9.75774" y1="44.6923" x2="13.0275" y2="27.6054" gradientUnits="userSpaceOnUse">
<stop stop-color="#9D68C2"/>
<stop offset="1" stop-color="#CCEDFF"/>
</linearGradient>
<linearGradient id="paint40_linear_117_1246" x1="7.01479" y1="44.4803" x2="6.8525" y2="40.0489" gradientUnits="userSpaceOnUse">
<stop stop-color="#BE9DEA"/>
<stop offset="1" stop-color="#9E8CEF"/>
</linearGradient>
<linearGradient id="paint41_linear_117_1246" x1="9.10199" y1="41.5182" x2="1.06865" y2="49.1242" gradientUnits="userSpaceOnUse">
<stop stop-color="#CBC1F7"/>
<stop offset="1" stop-color="#E8DCF7"/>
</linearGradient>
<linearGradient id="paint42_linear_117_1246" x1="7.35883" y1="42.5427" x2="0.20682" y2="47.7921" gradientUnits="userSpaceOnUse">
<stop stop-color="#BE9DEA"/>
<stop offset="1" stop-color="#9E8CEF"/>
</linearGradient>
<linearGradient id="paint43_linear_117_1246" x1="6.85981" y1="41.8638" x2="1.26581" y2="45.9696" gradientUnits="userSpaceOnUse">
<stop stop-color="#8DA4E5"/>
<stop offset="1" stop-color="#755CBB"/>
</linearGradient>
<linearGradient id="paint44_linear_117_1246" x1="6.07451" y1="42.0751" x2="-0.016044" y2="42.1188" gradientUnits="userSpaceOnUse">
<stop stop-color="#CBC1F7"/>
<stop offset="1" stop-color="#E8DCF7"/>
</linearGradient>
<linearGradient id="paint45_linear_117_1246" x1="8.16029" y1="43.6262" x2="4.537" y2="46.2856" gradientUnits="userSpaceOnUse">
<stop stop-color="#BE9DEA"/>
<stop offset="1" stop-color="#9E8CEF"/>
</linearGradient>
<linearGradient id="paint46_linear_117_1246" x1="16.5619" y1="30.1222" x2="18.4001" y2="30.2416" gradientUnits="userSpaceOnUse">
<stop stop-color="#8879EA"/>
<stop offset="1" stop-color="#9E8CEF"/>
</linearGradient>
<linearGradient id="paint47_linear_117_1246" x1="25.8915" y1="52.1913" x2="22.5906" y2="25.9309" gradientUnits="userSpaceOnUse">
<stop stop-color="#CBC1F7"/>
<stop offset="1" stop-color="#E8DCF7"/>
</linearGradient>
<linearGradient id="paint48_linear_117_1246" x1="24.552" y1="52.2362" x2="24.552" y2="31.108" gradientUnits="userSpaceOnUse">
<stop stop-color="#9D68C2"/>
<stop offset="1" stop-color="#CCEDFF"/>
</linearGradient>
<linearGradient id="paint49_linear_117_1246" x1="24.755" y1="51.8066" x2="24.755" y2="35.1661" gradientUnits="userSpaceOnUse">
<stop stop-color="#BE9DEA"/>
<stop offset="1" stop-color="#9E8CEF"/>
</linearGradient>
<linearGradient id="paint50_linear_117_1246" x1="24.9169" y1="30.8843" x2="24.9169" y2="25.7337" gradientUnits="userSpaceOnUse">
<stop stop-color="#8DA4E5"/>
<stop offset="1" stop-color="#755CBB"/>
</linearGradient>
</defs>
</svg>
