<svg width="24" height="24" viewBox="0 0 24 24" fill="none" xmlns="http://www.w3.org/2000/svg">
<path d="M0 24H24V0H4.46512L2.23256 2.4L0 4.8V24Z" fill="white"/>
<path d="M6.17188 15.7153C7.20636 16.3877 8.44774 16.7497 9.74084 16.7497C14.0857 16.7497 16.5167 13.0773 16.3615 9.81871C16.827 9.50836 17.1891 9.09457 17.4995 8.62905C17.0857 8.83595 16.6201 8.9394 16.1546 8.99112C16.6201 8.68078 16.9822 8.26698 17.1891 7.69802C16.7236 7.95664 16.2581 8.16354 15.6891 8.26698C15.2753 7.80147 14.6546 7.54285 13.9822 7.54285C12.4822 7.54285 11.396 8.9394 11.7064 10.3877C9.79256 10.2842 8.03394 9.35319 6.89601 7.95664C6.27532 8.99112 6.58567 10.3877 7.62015 11.0601C7.25808 11.0601 6.89601 10.9566 6.58567 10.7497C6.58567 11.836 7.30981 12.8187 8.44774 13.0773C8.13739 13.1808 7.77532 13.1808 7.41325 13.1291C7.7236 14.0601 8.55119 14.7325 9.58567 14.7325C8.60291 15.5084 7.41325 15.8704 6.17188 15.7153Z" fill="#8A35F2"/>
</svg>
