<svg width="50" height="50" viewBox="0 0 50 50" fill="none" xmlns="http://www.w3.org/2000/svg">
<path d="M49.5 49.5044H0.5V0.504395H40.4799L44.9827 5.34495L49.5 10.201V49.5044Z" stroke="#8A35F2"/>
<path d="M21.374 38.3744H26.7619V24.7968H30.5335L30.9645 20.2709H26.7619C26.7619 20.2709 26.7619 18.5468 26.7619 17.6847C26.7619 16.6071 26.9774 16.1761 28.055 16.1761C28.9171 16.1761 30.9645 16.1761 30.9645 16.1761V11.5425C30.9645 11.5425 27.8395 11.5425 27.193 11.5425C23.2059 11.5425 21.374 13.2666 21.374 16.7149C21.374 19.6244 21.374 20.3787 21.374 20.3787H18.5723V25.0123H21.374V38.3744Z" fill="#8A35F2"/>
</svg>
