<svg width="50" height="50" viewBox="0 0 50 50" fill="none" xmlns="http://www.w3.org/2000/svg">
<path d="M49.5 49.5044H0.5V0.504395H40.4799L44.9827 5.34495L49.5 10.201V49.5044Z" stroke="#8A35F2"/>
<path d="M19.3524 21.6162H14.7188V36.4869H19.3524V21.6162Z" fill="#8A35F2"/>
<path d="M16.9811 19.6782C18.4689 19.6782 19.675 18.4721 19.675 16.9842C19.675 15.4964 18.4689 14.2903 16.9811 14.2903C15.4932 14.2903 14.2871 15.4964 14.2871 16.9842C14.2871 18.4721 15.4932 19.6782 16.9811 19.6782Z" fill="#8A35F2"/>
<path d="M26.6782 28.6178C26.6782 26.5704 27.648 25.2773 29.4799 25.2773C31.2041 25.2773 31.9584 26.4626 31.9584 28.6178C31.9584 30.773 31.9584 36.3764 31.9584 36.3764H36.4842C36.4842 36.3764 36.4842 30.9885 36.4842 27.0014C36.4842 23.0144 34.2213 21.0747 31.0963 21.0747C27.9713 21.0747 26.5705 23.5531 26.5705 23.5531V21.5057H22.1523V36.3764H26.5705C26.6782 36.4842 26.6782 30.9885 26.6782 28.6178Z" fill="#8A35F2"/>
</svg>
