<svg width="50" height="50" viewBox="0 0 50 50" fill="none" xmlns="http://www.w3.org/2000/svg">
<path d="M0.5 49.5044H49.5V0.504395H9.5201L5.01726 5.34495L0.5 10.201V49.5044Z" stroke="#8A35F2"/>
<path d="M25.0322 15.1238C28.2649 15.1238 28.696 15.1238 29.9891 15.2315C31.1744 15.3393 31.821 15.447 32.252 15.6626C32.7908 15.8781 33.2218 16.0936 33.6529 16.5246C34.0839 16.9557 34.2994 17.3867 34.515 17.9255C34.7305 18.3565 34.8382 19.0031 34.946 20.1884C35.0537 21.4815 35.0537 21.8048 35.0537 25.1453C35.0537 28.3781 35.0537 28.8091 34.946 30.1022C34.8382 31.2876 34.7305 31.9341 34.515 32.3651C34.2994 32.9039 34.0839 33.335 33.6529 33.766C33.2218 34.197 32.7908 34.4126 32.252 34.6281C31.821 34.8436 31.1744 34.9514 29.9891 35.0591C28.696 35.1669 28.3727 35.1669 25.0322 35.1669C21.7994 35.1669 21.3684 35.1669 20.0753 35.0591C18.89 34.9514 18.2434 34.8436 17.8124 34.6281C17.2736 34.4126 16.8425 34.197 16.4115 33.766C15.9805 33.335 15.765 32.9039 15.5494 32.3651C15.3339 31.9341 15.2262 31.2876 15.1184 30.1022C15.0106 28.8091 15.0106 28.4858 15.0106 25.1453C15.0106 21.9126 15.0106 21.4815 15.1184 20.1884C15.2262 19.0031 15.3339 18.3565 15.5494 17.9255C15.765 17.3867 15.9805 16.9557 16.4115 16.5246C16.8425 16.0936 17.2736 15.8781 17.8124 15.6626C18.2434 15.447 18.89 15.3393 20.0753 15.2315C21.4762 15.1238 21.7994 15.1238 25.0322 15.1238ZM25.0322 12.8608C21.6917 12.8608 21.2606 12.8608 19.9675 12.9686C18.6744 13.0764 17.8124 13.1841 17.0581 13.5074C16.3037 13.8307 15.5494 14.2617 14.9029 14.9083C14.2563 15.5548 13.8253 16.3091 13.502 17.0634C13.1787 17.8177 12.9632 18.6798 12.9632 19.9729C12.8555 21.266 12.8555 21.6971 12.8555 25.0376C12.8555 28.3781 12.8555 28.8091 12.9632 30.1022C13.071 31.3953 13.1787 32.2574 13.502 33.0117C13.8253 33.766 14.2563 34.5203 14.9029 35.1669C15.5494 35.8134 16.3037 36.2445 17.0581 36.5677C17.8124 36.891 18.6744 37.1065 19.9675 37.1065C21.2606 37.2143 21.6917 37.2143 25.0322 37.2143C28.3727 37.2143 28.8037 37.2143 30.0968 37.1065C31.39 36.9988 32.252 36.891 33.0063 36.5677C33.7606 36.2445 34.5149 35.8134 35.1615 35.1669C35.8081 34.5203 36.2391 33.766 36.5624 33.0117C36.8856 32.2574 37.1012 31.3953 37.1012 30.1022C37.2089 28.8091 37.2089 28.3781 37.2089 25.0376C37.2089 21.6971 37.2089 21.266 37.1012 19.9729C36.9934 18.6798 36.8856 17.8177 36.5624 17.0634C36.2391 16.3091 35.8081 15.5548 35.1615 14.9083C34.5149 14.2617 33.7606 13.8307 33.0063 13.5074C32.252 13.1841 31.39 12.9686 30.0968 12.9686C28.8037 12.8608 28.3727 12.8608 25.0322 12.8608Z" fill="#8A35F2"/>
<path d="M25.0312 18.7815C21.583 18.7815 18.7812 21.5832 18.7812 25.0315C18.7812 28.4798 21.583 31.2815 25.0312 31.2815C28.4795 31.2815 31.2812 28.4798 31.2812 25.0315C31.2812 21.5832 28.5873 18.7815 25.0312 18.7815ZM25.0312 29.1263C22.7683 29.1263 20.9364 27.2944 20.9364 25.0315C20.9364 22.7686 22.7683 20.9367 25.0312 20.9367C27.2942 20.9367 29.1261 22.7686 29.1261 25.0315C29.1261 27.2944 27.2942 29.1263 25.0312 29.1263Z" fill="#8A35F2"/>
<path d="M33.0094 18.566C33.0094 19.3203 32.3629 20.0746 31.5008 20.0746C30.7465 20.0746 29.9922 19.4281 29.9922 18.566C29.9922 17.8117 30.6387 17.0574 31.5008 17.0574C32.3629 17.0574 33.0094 17.7039 33.0094 18.566Z" fill="#8A35F2"/>
</svg>
