<svg width="70" height="70" viewBox="0 0 70 70" fill="none" xmlns="http://www.w3.org/2000/svg">
<path d="M40 40.0015H0V0.00146484H32.5581L36.2791 4.00146L40 8.00146V40.0015Z" fill="#8A35F2"/>
<path d="M69.9988 36.3193C69.9996 36.0717 69.9214 35.8303 69.7757 35.6302C69.7242 35.5598 69.665 35.4954 69.5992 35.4381C69.5994 35.438 69.5996 35.4378 69.5998 35.4376L65.5555 31.8982C66.427 31.1964 66.9859 30.1218 66.9859 28.9185V26.9955C66.9859 21.826 62.7803 17.6204 57.6109 17.6204C52.4416 17.6204 48.2359 21.826 48.2359 26.9955C48.2359 32.1649 52.4416 36.3706 57.6109 36.3706C58.2582 36.3706 58.7828 35.8459 58.7828 35.1987C58.7828 34.5514 58.2582 34.0268 57.6109 34.0268C53.7339 34.0268 50.5797 30.8725 50.5797 26.9955C50.5797 23.1184 53.7339 19.9641 57.6109 19.9641C61.488 19.9641 64.6422 23.1184 64.6422 26.9955V28.9185C64.6422 29.7353 63.9777 30.3998 63.1608 30.3998C62.344 30.3998 61.6796 29.7353 61.6796 28.9185V23.93C61.6796 23.7706 61.6471 23.6128 61.584 23.4664C61.5209 23.32 61.4286 23.188 61.3128 23.0784C60.3075 22.1281 58.9929 21.6048 57.6109 21.6048C54.6386 21.6048 52.2203 24.0231 52.2203 26.9955C52.2203 29.9678 54.6386 32.3861 57.6109 32.3861C58.6053 32.3871 59.5804 32.1116 60.4273 31.5904C61.0998 32.2783 62.0288 32.7136 63.058 32.741C63.1223 32.8539 63.2049 32.9553 63.3025 33.041L66.9522 36.2351L57.5781 43.0549V39.9998C57.5781 39.3525 57.0535 38.8279 56.4062 38.8279C55.759 38.8279 55.2344 39.3525 55.2344 39.9998V44.76L46.4859 51.1246L40.6894 46.9077C40.4891 46.7619 40.2477 46.6834 40 46.6834C39.7523 46.6834 39.5109 46.7619 39.3106 46.9077L33.5141 51.1246L13.0987 36.272L19.767 30.4361C20.254 30.0099 20.3032 29.2695 19.877 28.7825C19.4507 28.2954 18.7104 28.2462 18.2234 28.6724L10.4322 35.4107L10.4308 35.4119C10.2961 35.5217 10.1875 35.6601 10.113 35.8171C10.0385 35.9741 9.99986 36.1457 10 36.3195V68.8281C10 69.4753 10.5246 70 11.1719 70H68.8281C69.4754 70 70 69.4753 70 68.8281V36.3195L69.9988 36.3193ZM59.3359 27.2993V29.5063C58.8288 29.8562 58.2271 30.0432 57.6111 30.0424C55.9311 30.0424 54.5642 28.6755 54.5642 26.9955C54.5642 25.3154 55.9311 23.9485 57.6111 23.9485C58.2271 23.9477 58.8288 24.1347 59.3359 24.4846V27.2993ZM12.3438 38.6212L31.5222 52.5738L12.3438 66.5264V38.6212ZM14.7747 67.6562L40 49.3044L65.2253 67.6562H14.7747ZM67.6562 66.5264L48.4778 52.5738L67.6562 38.6212V66.5264Z" fill="white"/>
<path d="M49.5329 17.8794L40.7673 10.2856C40.322 9.89967 39.6695 9.91045 39.2363 10.2842L39.2354 10.2832L35.0166 13.9161C34.5262 14.3384 34.471 15.0784 34.8933 15.5688C35.0033 15.6968 35.1396 15.7994 35.293 15.8697C35.4464 15.94 35.6131 15.9763 35.7818 15.976C36.0624 15.9763 36.3337 15.8756 36.546 15.6922L39.9979 12.7197L45.6546 17.6203H23.5938C22.9465 17.6203 22.4219 18.1449 22.4219 18.7922V35.6637C22.4219 36.3109 22.9465 36.8356 23.5938 36.8356C24.241 36.8356 24.7656 36.3109 24.7656 35.6637V19.9642H48.7655C48.7616 19.9545 48.7587 19.946 48.755 19.9365C48.7582 19.9365 48.7616 19.937 48.7649 19.937C49.093 19.937 49.4194 19.7999 49.6512 19.5325C50.075 19.0433 50.022 18.3032 49.5329 17.8794Z" fill="white"/>
<path d="M40.1632 29.4527H28.4473C27.8001 29.4527 27.2754 29.9773 27.2754 30.6246C27.2754 31.2718 27.8001 31.7965 28.4473 31.7965H40.1632C40.8105 31.7965 41.3351 31.2718 41.3351 30.6246C41.3351 29.9773 40.8105 29.4527 40.1632 29.4527ZM40 23.5933H28.4473C27.8001 23.5933 27.2754 24.1179 27.2754 24.7651C27.2754 25.4124 27.8001 25.937 28.4473 25.937H40C40.6472 25.937 41.1719 25.4124 41.1719 24.7651C41.1719 24.1179 40.6472 23.5933 40 23.5933ZM24.4223 39.5614C24.2043 39.3434 23.902 39.218 23.5938 39.218C23.2855 39.218 22.9832 39.3434 22.7652 39.5614C22.5463 39.7817 22.4229 40.0793 22.4219 40.3899C22.4219 40.6993 22.5473 41.0005 22.7652 41.2184C22.9832 41.4377 23.2855 41.5618 23.5938 41.5618C23.902 41.5618 24.2043 41.4376 24.4223 41.2184C24.6402 41.0005 24.7656 40.6993 24.7656 40.3899C24.7656 40.0817 24.6402 39.7794 24.4223 39.5614ZM47.9206 35.2292H45.625C44.9778 35.2292 44.4531 35.7538 44.4531 36.401C44.4531 37.0483 44.9778 37.5729 45.625 37.5729H47.9206C48.5678 37.5729 49.0925 37.0483 49.0925 36.401C49.0925 35.7538 48.5678 35.2292 47.9206 35.2292ZM40.4466 35.2292H40.4337C39.7865 35.2292 39.2618 35.7538 39.2618 36.401C39.2618 37.0483 39.7865 37.5729 40.4337 37.5729H40.4466C41.0937 37.5729 41.6185 37.0483 41.6185 36.401C41.6185 35.7538 41.0938 35.2292 40.4466 35.2292ZM34.8438 35.2292H28.4414C27.7942 35.2292 27.2696 35.7538 27.2696 36.401C27.2696 37.0483 27.7942 37.5729 28.4414 37.5729H34.8438C35.491 37.5729 36.0156 37.0483 36.0156 36.401C36.0156 35.7538 35.491 35.2292 34.8438 35.2292Z" fill="white"/>
</svg>
