<svg width="71" height="71" viewBox="0 0 71 71" fill="none" xmlns="http://www.w3.org/2000/svg">
<path d="M40 40.0029H0V0.00292969H32.5581L36.2791 4.00293L40 8.00293V40.0029Z" fill="#8A35F2"/>
<path d="M11.1953 36.5869V29.7576C11.1953 28.0747 11.8646 26.5503 12.9463 25.4467C14.028 24.343 15.522 23.6601 17.1714 23.6601C20.4714 23.6601 23.1475 26.3906 23.1475 29.7576V33.4162" stroke="white" stroke-width="2" stroke-miterlimit="10" stroke-linecap="round" stroke-linejoin="round"/>
<path d="M23.1475 40.7332V63.9039C23.1475 60.5368 20.4714 57.8063 17.1714 57.8063C13.8714 57.8063 11.1953 60.5368 11.1953 63.9039C11.1953 64.1112 11.2061 64.321 11.2264 64.5332C11.5371 67.7063 14.3865 70.0015 17.512 70.0015H23.1475" stroke="white" stroke-width="2" stroke-miterlimit="10" stroke-linecap="round" stroke-linejoin="round"/>
<path d="M33.4258 70.0015H64.0233C67.3245 70.0015 69.9994 67.2722 69.9994 63.9039" stroke="white" stroke-width="2" stroke-miterlimit="10" stroke-linecap="round" stroke-linejoin="round"/>
<path d="M58.0469 55.3672V63.9038C58.0469 60.0075 61.6277 56.9648 65.615 58.016C67.6277 58.5465 69.2735 60.2258 69.7935 62.2794C69.9333 62.8319 69.999 63.3758 69.999 63.9038V29.7575C69.999 26.3904 67.3229 23.6599 64.023 23.6599C62.3736 23.6599 60.8795 24.3428 59.7979 25.4465C58.7162 26.5501 58.0469 28.0745 58.0469 29.7575V48.0501" stroke="white" stroke-width="2" stroke-miterlimit="10" stroke-linecap="round" stroke-linejoin="round"/>
<path d="M11.1953 46.3428V63.9038" stroke="white" stroke-width="2" stroke-miterlimit="10" stroke-linecap="round" stroke-linejoin="round"/>
<path d="M58.0486 33.416H46.0977" stroke="white" stroke-width="2" stroke-miterlimit="10" stroke-linecap="round" stroke-linejoin="round"/>
<path d="M58.0468 48.0502V55.3673H47.7679L33.4253 70.0015H23.1465L38.2062 55.3673L23.1465 40.7332V33.4161H26.015C26.015 33.4161 36.9439 44.0368 41.0747 48.0502H58.0468Z" stroke="white" stroke-width="2" stroke-miterlimit="10" stroke-linecap="round" stroke-linejoin="round"/>
<path d="M35.0981 33.416H26.0156" stroke="white" stroke-width="2" stroke-miterlimit="10" stroke-linecap="round" stroke-linejoin="round"/>
<path d="M46.096 33.4161C48.7446 29.0368 51.3537 23.9636 51.3537 20.977C51.3537 14.9148 46.5382 10.0014 40.5968 10.0014C34.6554 10.0014 29.8398 14.9148 29.8398 20.977C29.8398 23.9636 32.449 29.0368 35.0976 33.4161C37.8264 37.9307 40.5968 41.7087 40.5968 41.7087C40.5968 41.7087 43.3673 37.9307 46.096 33.4161Z" stroke="white" stroke-width="2" stroke-miterlimit="10" stroke-linecap="round" stroke-linejoin="round"/>
<path d="M40.5973 25.855C43.2339 25.855 45.3781 23.6672 45.3781 20.9769C45.3781 18.2867 43.2339 16.0989 40.5973 16.0989C37.9606 16.0989 35.8164 18.2867 35.8164 20.9769C35.8164 23.6672 37.9606 25.855 40.5973 25.855Z" stroke="white" stroke-width="2" stroke-miterlimit="10" stroke-linecap="round" stroke-linejoin="round"/>
<path d="M11.1952 40.2453C11.855 40.2453 12.3904 40.7916 12.3904 41.4648C12.3904 42.138 11.855 42.6843 11.1952 42.6843C10.5355 42.6843 10 42.138 10 41.4648C10 40.7916 10.5355 40.2453 11.1952 40.2453Z" fill="white"/>
</svg>
