<svg width="70" height="70" viewBox="0 0 70 70" fill="none" xmlns="http://www.w3.org/2000/svg">
<path d="M40 40H0V0H32.5581L36.2791 4L40 8V40Z" fill="#8A35F2"/>
<path d="M37.273 55.7411C36.8152 56.198 36.8152 56.9399 37.273 57.3978C37.7317 57.8551 38.4742 57.8551 38.9314 57.3978C39.3901 56.9401 39.3901 56.198 38.9314 55.7411C38.4742 55.2829 37.7318 55.2829 37.273 55.7411Z" fill="white"/>
<path d="M67.3561 53.706L58.4495 46.1405C58.4083 46.1058 58.3647 46.0737 58.3193 46.0448C55.9828 44.5589 52.9826 44.8881 51.0236 46.8445L46.1675 51.6949C46.0037 51.8592 45.7948 51.9711 45.5672 52.0165C45.3396 52.0618 45.1037 52.0385 44.8893 51.9496C39.4059 49.6836 34.9014 46.2723 31.5006 41.8114C28.9074 38.4098 27.9725 35.7067 27.8492 35.3258C27.8344 35.2429 27.8106 35.1619 27.7783 35.0841C27.689 34.8703 27.6656 34.6347 27.711 34.4074C27.7564 34.1802 27.8685 33.9716 28.0331 33.8083L32.8886 28.9565C34.8478 26.9995 35.1767 24.0025 33.6893 21.6684C33.6773 21.6496 33.665 21.6313 33.6521 21.6131L27.2202 12.6843C25.1966 9.54823 20.7886 9.07444 18.1431 11.7166L17.1707 12.688C17.1701 12.689 17.1693 12.6898 17.1683 12.6903L13.6967 16.1583C9.55672 20.2942 8.87948 26.5088 11.7385 34.1313C14.1874 40.661 19.0898 47.8071 25.5424 54.2529C32.1477 60.8512 39.4949 65.8389 46.2302 68.2976C52.8969 70.7306 59.9883 71.0305 65.0075 66.016L68.2817 62.7459C70.9153 60.1146 70.4557 55.7401 67.3561 53.7059V53.706ZM56.9959 47.9816L65.8947 55.5407C65.9355 55.5755 65.9791 55.6075 66.0244 55.6364C67.9253 56.8453 68.2131 59.5003 66.6224 61.0888L66.3796 61.3319L51.2017 49.9802L52.6824 48.5017C53.8395 47.3454 55.6027 47.1362 56.9959 47.9816ZM25.2602 13.9721C25.2721 13.9908 25.2844 14.0096 25.2972 14.0274L31.7265 22.9529C32.5999 24.3495 32.3979 26.1325 31.2298 27.2994L29.7951 28.733L19.5264 13.6489L19.8019 13.3737C21.3988 11.7784 24.0544 12.0801 25.26 13.9721H25.2602ZM47.0349 66.0964C40.6139 63.7526 33.5701 58.9579 27.2013 52.5959C20.9801 46.3818 16.2689 39.5322 13.9349 33.3093C12.183 28.6382 11.0076 22.1587 15.3556 17.8159L17.8379 15.3357L28.1063 30.42L26.3746 32.1508C25.8939 32.6284 25.5621 33.2351 25.4195 33.8972C25.2769 34.5594 25.3296 35.2487 25.5713 35.8815C25.9416 37.3995 27.6454 40.5503 29.3642 42.8721C31.8938 46.2888 36.4851 51.0126 43.9926 54.1152C45.3119 54.6605 46.8163 54.3611 47.8264 53.3526L49.526 51.6543L64.7038 63.0059L63.3487 64.3591C58.6879 69.0155 51.9047 67.8739 47.0349 66.0964Z" fill="white"/>
<path d="M35.0722 52.9433C33.833 51.8579 31.6898 49.9911 30.5612 48.8312C27.7933 45.9897 24.8893 42.5456 23.1626 40.0571C22.7938 39.5252 22.0628 39.3924 21.5303 39.7614C20.9979 40.1299 20.8654 40.8601 21.2344 41.392C23.4119 44.5304 26.6115 48.1367 28.8794 50.4649C30.0708 51.6899 32.2324 53.5731 33.5251 54.7051C34.0113 55.1309 34.7523 55.0842 35.1808 54.5967C35.6078 54.1105 35.5593 53.3698 35.0722 52.9432V52.9433Z" fill="white"/>
</svg>
