<svg width="50" height="50" viewBox="0 0 50 50" fill="none" xmlns="http://www.w3.org/2000/svg">
<path d="M0.5 49.5044H49.5V0.504395H9.5201L5.01726 5.34495L0.5 10.201V49.5044Z" stroke="#8A35F2"/>
<path d="M12.8574 32.7449C15.0126 34.1457 17.5988 34.9 20.2928 34.9C29.3445 34.9 34.4091 27.2492 34.0859 20.4604C35.0557 19.8138 35.81 18.9518 36.4566 17.9819C35.5945 18.413 34.6247 18.6285 33.6548 18.7362C34.6247 18.0897 35.379 17.2276 35.81 16.0423C34.8402 16.5811 33.8703 17.0121 32.685 17.2276C31.8229 16.2578 30.5298 15.719 29.129 15.719C26.004 15.719 23.741 18.6285 24.3876 21.6457C20.4005 21.4302 16.7367 19.4905 14.366 16.5811C13.0729 18.7362 13.7195 21.6457 15.8747 23.0466C15.1204 23.0466 14.366 22.8311 13.7195 22.4C13.7195 24.663 15.2281 26.7104 17.5988 27.2492C16.9522 27.4647 16.1979 27.4647 15.4436 27.3569C16.0902 29.2966 17.8143 30.6974 19.9695 30.6974C17.9221 32.3138 15.4436 33.0681 12.8574 32.7449Z" fill="#8A35F2"/>
</svg>
