<svg width="21" height="21" viewBox="0 0 21 21" fill="none" xmlns="http://www.w3.org/2000/svg">
<path d="M5.41646 7.45068H1.24622V20.8343H5.41646V7.45068Z" fill="#8A35F2"/>
<path d="M3.28199 5.70656C4.62104 5.70656 5.70656 4.62104 5.70656 3.28199C5.70656 1.94294 4.62104 0.857422 3.28199 0.857422C1.94294 0.857422 0.857422 1.94294 0.857422 3.28199C0.857422 4.62104 1.94294 5.70656 3.28199 5.70656Z" fill="#8A35F2"/>
<path d="M12.0112 13.7522C12.0112 11.9095 12.884 10.7457 14.5327 10.7457C16.0844 10.7457 16.7633 11.8125 16.7633 13.7522C16.7633 15.6918 16.7633 20.7349 16.7633 20.7349H20.8366C20.8366 20.7349 20.8366 15.8858 20.8366 12.2974C20.8366 8.70907 18.7999 6.96338 15.9874 6.96338C13.1749 6.96338 11.9142 9.19397 11.9142 9.19397V7.3513H7.93787V20.7349H11.9142C12.0111 20.8319 12.0112 15.8858 12.0112 13.7522Z" fill="#8A35F2"/>
</svg>
