<svg width="23" height="23" viewBox="0 0 23 23" fill="none" xmlns="http://www.w3.org/2000/svg">
<path d="M11.5294 2.60744C14.4388 2.60744 14.8268 2.60744 15.9906 2.70442C17.0574 2.8014 17.6393 2.89839 18.0272 3.09235C18.5121 3.28632 18.9001 3.48028 19.288 3.86822C19.6759 4.25615 19.8699 4.64407 20.0638 5.12899C20.2578 5.51692 20.3548 6.09882 20.4518 7.16563C20.5488 8.32942 20.5488 8.62037 20.5488 11.6268C20.5488 14.5363 20.5488 14.9242 20.4518 16.088C20.3548 17.1549 20.2578 17.7367 20.0638 18.1247C19.8699 18.6096 19.6759 18.9975 19.288 19.3855C18.9001 19.7734 18.5121 19.9674 18.0272 20.1613C17.6393 20.3553 17.0574 20.4523 15.9906 20.5492C14.8268 20.6462 14.5358 20.6462 11.5294 20.6462C8.61988 20.6462 8.23195 20.6462 7.06816 20.5492C6.00135 20.4523 5.41945 20.3553 5.03152 20.1613C4.54661 19.9674 4.15867 19.7734 3.77074 19.3855C3.38281 18.9975 3.18885 18.6096 2.99488 18.1247C2.80092 17.7367 2.70393 17.1549 2.60695 16.088C2.50997 14.9242 2.50997 14.6333 2.50997 11.6268C2.50997 8.71735 2.50997 8.32942 2.60695 7.16563C2.70393 6.09882 2.80092 5.51692 2.99488 5.12899C3.18885 4.64407 3.38281 4.25615 3.77074 3.86822C4.15867 3.48028 4.54661 3.28632 5.03152 3.09235C5.41945 2.89839 6.00135 2.8014 7.06816 2.70442C8.32893 2.60744 8.61988 2.60744 11.5294 2.60744ZM11.5294 0.570801C8.5229 0.570801 8.13497 0.570799 6.97117 0.667782C5.80738 0.764765 5.03152 0.861748 4.35264 1.1527C3.67376 1.44364 2.99488 1.83158 2.41298 2.41347C1.83109 2.99537 1.44316 3.67425 1.15221 4.35313C0.86126 5.03201 0.667295 5.80787 0.667295 6.97166C0.570312 8.13545 0.570313 8.52339 0.570313 11.5299C0.570313 14.5363 0.570312 14.9242 0.667295 16.088C0.764277 17.2518 0.86126 18.0277 1.15221 18.7066C1.44316 19.3855 1.83109 20.0643 2.41298 20.6462C2.99488 21.2281 3.67376 21.6161 4.35264 21.907C5.03152 22.198 5.80738 22.3919 6.97117 22.3919C8.13497 22.4889 8.5229 22.4889 11.5294 22.4889C14.5358 22.4889 14.9238 22.4889 16.0876 22.3919C17.2513 22.2949 18.0272 22.198 18.7061 21.907C19.385 21.6161 20.0638 21.2281 20.6457 20.6462C21.2276 20.0643 21.6156 19.3855 21.9065 18.7066C22.1975 18.0277 22.3914 17.2518 22.3914 16.088C22.4884 14.9242 22.4884 14.5363 22.4884 11.5299C22.4884 8.52339 22.4884 8.13545 22.3914 6.97166C22.2944 5.80787 22.1975 5.03201 21.9065 4.35313C21.6156 3.67425 21.2276 2.99537 20.6457 2.41347C20.0638 1.83158 19.385 1.44364 18.7061 1.1527C18.0272 0.861748 17.2513 0.667782 16.0876 0.667782C14.9238 0.570799 14.5358 0.570801 11.5294 0.570801Z" fill="#8A35F2"/>
<path d="M11.5293 5.89941C8.42585 5.89941 5.9043 8.42097 5.9043 11.5244C5.9043 14.6279 8.42585 17.1494 11.5293 17.1494C14.6327 17.1494 17.1543 14.6279 17.1543 11.5244C17.1543 8.42097 14.7297 5.89941 11.5293 5.89941ZM11.5293 15.2098C9.49266 15.2098 7.84395 13.5611 7.84395 11.5244C7.84395 9.48778 9.49266 7.83907 11.5293 7.83907C13.5659 7.83907 15.2146 9.48778 15.2146 11.5244C15.2146 13.5611 13.5659 15.2098 11.5293 15.2098Z" fill="#8A35F2"/>
<path d="M18.7097 5.70542C18.7097 6.3843 18.1278 7.06317 17.3519 7.06317C16.673 7.06317 15.9941 6.48128 15.9941 5.70542C15.9941 5.02654 16.576 4.34766 17.3519 4.34766C18.1278 4.34766 18.7097 4.92955 18.7097 5.70542Z" fill="#8A35F2"/>
</svg>
