<svg width="22" height="18" viewBox="0 0 22 18" fill="none" xmlns="http://www.w3.org/2000/svg">
<path d="M0.57251 15.4663C2.51216 16.7271 4.83975 17.406 7.26432 17.406C15.4109 17.406 19.9691 10.5202 19.6781 4.41031C20.551 3.82841 21.2298 3.05255 21.8117 2.1797C21.0359 2.56764 20.163 2.7616 19.2902 2.85858C20.163 2.27669 20.8419 1.50083 21.2298 0.434015C20.357 0.918929 19.4841 1.30686 18.4173 1.50082C17.6415 0.62798 16.4777 0.143066 15.2169 0.143066C12.4044 0.143066 10.3678 2.7616 10.9497 5.47712C7.3613 5.28315 4.06389 3.53746 1.93027 0.918928C0.766475 2.85858 1.34837 5.47712 3.28803 6.73789C2.60915 6.73789 1.93027 6.54393 1.34837 6.156C1.34837 8.19264 2.70613 10.0353 4.83975 10.5202C4.25785 10.7142 3.57897 10.7142 2.9001 10.6172C3.48199 12.3629 5.03372 13.6237 6.97337 13.6237C5.1307 15.0784 2.9001 15.7573 0.57251 15.4663Z" fill="#8A35F2"/>
</svg>
