<svg width="63" height="62" viewBox="0 0 63 62" fill="none" xmlns="http://www.w3.org/2000/svg">
<path d="M33.4723 12.7407H50.6064L54.7081 16.2701V45.7325L50.6064 49.2585H33.4723" stroke="white" stroke-width="2" stroke-miterlimit="10" stroke-linecap="round" stroke-linejoin="round"/>
<path d="M47.6671 36.4718V43.2057H33.4724M33.4724 18.797H47.6671V25.5171" stroke="white" stroke-width="2" stroke-miterlimit="10" stroke-linecap="round" stroke-linejoin="round"/>
<path d="M33.4721 54.8518C33.4721 58.2463 30.2673 61.0015 26.3184 61.0015C22.6954 61.0015 19.7037 58.6855 19.2292 55.6849C13.0164 55.6157 8.0061 51.2637 8.0061 45.9056C8.0061 44.1668 8.53291 42.5351 9.45773 41.1213C4.7932 39.5105 1.49988 35.587 1.49988 30.9998C1.49988 26.416 4.7932 22.489 9.45773 20.8817C8.53291 19.4644 8.0061 17.8327 8.0061 16.094C8.0061 10.736 13.0164 6.38378 19.2292 6.31463C19.7037 3.31415 22.6954 1.00146 26.3184 1.00146C30.2673 1.00146 33.4721 3.75317 33.4721 7.1511V54.8518Z" stroke="white" stroke-width="2" stroke-miterlimit="10" stroke-linecap="round" stroke-linejoin="round"/>
<path d="M19.2292 6.31464C20.6446 6.35952 22.0761 6.64305 23.4434 7.17878C24.7221 7.68354 25.8399 8.37147 26.7689 9.19061" stroke="white" stroke-width="2" stroke-miterlimit="10" stroke-linecap="round" stroke-linejoin="round"/>
<path d="M19.2292 55.6849C20.6864 55.6382 22.1185 55.3445 23.4434 54.8207C24.6854 54.3318 25.8126 53.651 26.7689 52.8123" stroke="white" stroke-width="2" stroke-miterlimit="10" stroke-linecap="round" stroke-linejoin="round"/>
<path d="M54.712 30.9998H61.4998" stroke="white" stroke-width="2" stroke-miterlimit="10" stroke-linecap="round" stroke-linejoin="round"/>
<path d="M54.712 36.7588H61.4998" stroke="white" stroke-width="2" stroke-miterlimit="10" stroke-linecap="round" stroke-linejoin="round"/>
<path d="M54.712 42.5144H61.4998" stroke="white" stroke-width="2" stroke-miterlimit="10" stroke-linecap="round" stroke-linejoin="round"/>
<path d="M54.712 25.2442H61.4998" stroke="white" stroke-width="2" stroke-miterlimit="10" stroke-linecap="round" stroke-linejoin="round"/>
<path d="M54.712 19.485H61.4998" stroke="white" stroke-width="2" stroke-miterlimit="10" stroke-linecap="round" stroke-linejoin="round"/>
<path d="M40.1674 12.7409V6.90573" stroke="white" stroke-width="2" stroke-miterlimit="10" stroke-linecap="round" stroke-linejoin="round"/>
<path d="M46.8667 12.7409V6.90573" stroke="white" stroke-width="2" stroke-miterlimit="10" stroke-linecap="round" stroke-linejoin="round"/>
<path d="M40.1674 55.0972V49.2587" stroke="white" stroke-width="2" stroke-miterlimit="10" stroke-linecap="round" stroke-linejoin="round"/>
<path d="M46.8667 55.0972V49.2587" stroke="white" stroke-width="2" stroke-miterlimit="10" stroke-linecap="round" stroke-linejoin="round"/>
<path d="M21.9516 30.9998H33.4723" stroke="white" stroke-width="2" stroke-miterlimit="10" stroke-linecap="round" stroke-linejoin="round"/>
<path d="M18.3366 34.1074C20.3271 34.1074 21.9516 32.7109 21.9516 30.9998C21.9516 29.2887 20.3271 27.8955 18.3366 27.8955C16.3461 27.8955 14.7255 29.2887 14.7255 30.9998C14.7255 32.7109 16.3461 34.1074 18.3366 34.1074Z" stroke="white" stroke-width="2" stroke-miterlimit="10" stroke-linecap="round" stroke-linejoin="round"/>
<path d="M27.0503 23.3222H33.4721" stroke="white" stroke-width="2" stroke-miterlimit="10" stroke-linecap="round" stroke-linejoin="round"/>
<path d="M22.0119 18.9907L27.0503 23.3222" stroke="white" stroke-width="2" stroke-miterlimit="10" stroke-linecap="round" stroke-linejoin="round"/>
<path d="M16.901 18.9907C18.3125 20.204 20.6005 20.204 22.0119 18.9907C23.4234 17.7773 23.4234 15.8105 22.0119 14.5971C20.6005 13.3838 18.3125 13.3838 16.901 14.5971C15.4896 15.8105 15.4896 17.7773 16.901 18.9907Z" stroke="white" stroke-width="2" stroke-miterlimit="10" stroke-linecap="round" stroke-linejoin="round"/>
<path d="M27.0503 38.6773H33.4721" stroke="white" stroke-width="2" stroke-miterlimit="10" stroke-linecap="round" stroke-linejoin="round"/>
<path d="M22.0119 43.0122L27.0503 38.6773" stroke="white" stroke-width="2" stroke-miterlimit="10" stroke-linecap="round" stroke-linejoin="round"/>
<path d="M16.901 43.0122C18.3125 41.7989 20.6005 41.7989 22.0119 43.0122C23.4234 44.2256 23.4234 46.1924 22.0119 47.4024C20.6005 48.6157 18.3125 48.6157 16.901 47.4024C15.4896 46.1924 15.4896 44.2256 16.901 43.0122Z" stroke="white" stroke-width="2" stroke-miterlimit="10" stroke-linecap="round" stroke-linejoin="round"/>
<path d="M47.6668 30.9998V30.9963" stroke="white" stroke-width="2" stroke-miterlimit="10" stroke-linecap="round" stroke-linejoin="round"/>
</svg>
