<svg width="42" height="42" viewBox="0 0 42 42" fill="none" xmlns="http://www.w3.org/2000/svg">
<path d="M18.2805 39.7215V36.6427C18.2805 35.939 17.7275 35.3627 17.0522 35.3627H7.70017C7.02497 35.3627 6.4718 35.939 6.4718 36.6427V39.7215C6.4718 40.4251 7.02497 41.0015 7.70017 41.0015H17.0522C17.7297 41.0015 18.2805 40.4251 18.2805 39.7215Z" stroke="white" stroke-width="1.6" stroke-miterlimit="10" stroke-linecap="round" stroke-linejoin="round"/>
<path d="M1.00764 22.9947C0.908539 25.8164 1.77732 26.6186 3.36983 28.1243C4.73877 29.4164 7.88681 31.7867 7.88681 34.3875V35.3625M6.216 18.4462L5.656 10.9102C5.573 9.80306 4.78714 8.89289 3.72471 8.89044C2.66 8.88806 1.85797 9.79586 1.78658 10.9029L1.49618 15.4034" stroke="white" stroke-width="1.6" stroke-miterlimit="10" stroke-linecap="round" stroke-linejoin="round"/>
<path d="M16.8655 35.3627V32.9227C16.8355 31.5947 16.801 30.3291 16.4715 29.0395C15.81 26.4578 14.4825 24.6639 11.0763 23.7056C10.5832 23.5663 10.4542 23.5472 10.143 23.0188L8.02514 19.4357C7.44896 18.4559 6.20913 18.1485 5.27116 18.7512C4.3332 19.354 4.03816 20.6461 4.61433 21.6234L8.04587 27.4304" stroke="white" stroke-width="1.6" stroke-miterlimit="10" stroke-linecap="round" stroke-linejoin="round"/>
<path d="M23.7194 39.7215V36.6427C23.7194 35.939 24.2724 35.3627 24.9477 35.3627H34.2997C34.9749 35.3627 35.5281 35.939 35.5281 36.6427V39.7215C35.5281 40.4251 34.9749 41.0015 34.2997 41.0015H24.9477C24.2724 41.0015 23.7194 40.4251 23.7194 39.7215Z" stroke="white" stroke-width="1.6" stroke-miterlimit="10" stroke-linecap="round" stroke-linejoin="round"/>
<path d="M25.1343 35.3627V32.9227C25.1643 31.5947 25.1988 30.3291 25.5283 29.0395C26.1898 26.4578 27.5173 24.6639 30.9234 23.7056C31.4166 23.5663 31.5456 23.5472 31.8568 23.0188L33.9747 19.4357C34.5508 18.4559 35.7907 18.1485 36.7286 18.7512C37.669 19.354 37.9639 20.6461 37.3855 21.6234L33.9539 27.4304" stroke="white" stroke-width="1.6" stroke-miterlimit="10" stroke-linecap="round" stroke-linejoin="round"/>
<path d="M35.7838 18.4462L36.3438 10.9102C36.4269 9.8031 37.2127 8.89293 38.2751 8.89056C39.3399 8.8881 40.1419 9.7959 40.2133 10.903L40.9922 22.9947C41.0913 25.8166 40.2225 26.6187 38.63 28.1245C37.2611 29.4165 34.113 31.7867 34.113 34.3876V35.3627" stroke="white" stroke-width="1.6" stroke-miterlimit="10" stroke-linecap="round" stroke-linejoin="round"/>
<path d="M20.9999 4.65178C18.6447 4.65178 16.7365 6.64271 16.7365 9.09466C16.7365 11.549 18.6447 13.5399 20.9999 13.5399C23.3552 13.5399 25.2634 11.549 25.2634 9.09466C25.2634 6.64271 23.3552 4.65178 20.9999 4.65178Z" stroke="white" stroke-width="1.6" stroke-miterlimit="10" stroke-linecap="round" stroke-linejoin="round"/>
<path d="M25.1967 9.88715H25.2635C27.6188 9.88715 29.527 7.89867 29.527 5.44435C29.527 2.98994 27.6188 1.00147 25.2635 1.00147C23.1687 1.00147 21.4264 2.57689 21.0669 4.65418" stroke="white" stroke-width="1.6" stroke-miterlimit="10" stroke-linecap="round" stroke-linejoin="round"/>
<path d="M20.9332 4.65424C20.5759 2.57687 18.8314 1.00145 16.7365 1.00145C14.3812 1.00145 12.473 2.98992 12.473 5.44433C12.473 7.89873 14.3812 9.88721 16.7365 9.88721H16.8033" stroke="white" stroke-width="1.6" stroke-miterlimit="10" stroke-linecap="round" stroke-linejoin="round"/>
<path d="M18.3266 12.5577C16.0658 13.6263 14.4849 16.0015 14.4849 18.7464V20.0865H27.5151V18.7464C27.5151 16.0015 25.9341 13.6263 23.6733 12.5577" stroke="white" stroke-width="1.6" stroke-miterlimit="10" stroke-linecap="round" stroke-linejoin="round"/>
<path d="M27.1255 16.4338H31.7808V15.0937C31.7808 12.3512 30.1975 9.97361 27.9367 8.90496" stroke="white" stroke-width="1.6" stroke-miterlimit="10" stroke-linecap="round" stroke-linejoin="round"/>
<path d="M14.0631 8.90484C11.8023 9.97349 10.2214 12.3511 10.2214 15.0936V16.4337H14.8743" stroke="white" stroke-width="1.6" stroke-miterlimit="10" stroke-linecap="round" stroke-linejoin="round"/>
<path d="M1.25195 19.2028V19.1979" stroke="white" stroke-width="1.6" stroke-miterlimit="10" stroke-linecap="round" stroke-linejoin="round"/>
</svg>
