<svg width="42" height="42" viewBox="0 0 42 42" fill="none" xmlns="http://www.w3.org/2000/svg">
<path d="M21.5992 4.06805C21.047 4.06805 20.5613 3.74878 20.4214 3.28829C20.0212 1.97146 18.6315 1 16.9785 1C15.3256 1 13.9358 1.97146 13.5356 3.28829C13.3957 3.74878 12.91 4.06805 12.3578 4.06805H8.59192V7.76138H25.3651V4.06805H21.5992ZM10.5487 7.76138V9.38447C10.5487 10.4311 11.5329 11.2796 12.747 11.2796H21.21C22.4241 11.2796 23.4083 10.4311 23.4083 9.38447V7.76138H10.5487Z" stroke="white" stroke-width="1.5" stroke-miterlimit="10" stroke-linecap="round" stroke-linejoin="round"/>
<path d="M32.9568 12.5998V6.41814C32.9568 5.12001 31.7362 4.06854 30.2313 4.06854H25.3652V7.76204H8.59259V4.06854H3.72643C2.22156 4.06854 1 5.12001 1 6.41814V38.6504C1 39.9477 2.22156 41 3.72643 41H32.4479C31.7376 41.0007 31.0299 40.9249 30.3413 40.7746C28.1759 40.3024 26.3403 39.1178 25.1889 37.5272C24.3692 36.3957 23.8954 35.0591 23.8954 33.627C23.8954 31.9089 24.5767 30.3281 25.7197 29.0749L25.1312 26.4206L28.2272 27.2138C28.3978 27.1304 28.5717 27.0519 28.7484 26.9785C29.8676 26.5145 31.1223 26.2547 32.4481 26.2547C32.6187 26.2547 32.7883 26.2588 32.957 26.2678V19.7538" stroke="white" stroke-width="1.5" stroke-miterlimit="10" stroke-linecap="round" stroke-linejoin="round"/>
<path d="M28.7482 7.76123V26.9785C28.5714 27.0519 28.3976 27.1304 28.227 27.2138L25.1309 26.4206L25.7194 29.0749C24.5765 30.3281 23.8951 31.909 23.8951 33.627C23.8951 35.0591 24.3689 36.3957 25.1887 37.5272H5.12976V7.76123H28.7482Z" stroke="white" stroke-width="1.5" stroke-miterlimit="10" stroke-linecap="round" stroke-linejoin="round"/>
<path d="M17.9023 29.7408H20.899M17.9023 32.6731H19.9514M17.9023 22.2453H23.4084M17.9023 25.4549H19.9514M17.9023 14.7497H23.8957M17.9023 17.9256H19.9514M11.6376 33.5223C10.4784 33.5223 9.5387 32.7122 9.5387 31.7129V31.632C9.5387 30.6326 10.4784 29.8225 11.6376 29.8225C12.7968 29.8225 13.7365 30.6326 13.7365 31.632V31.7129C13.7365 32.7122 12.7967 33.5223 11.6376 33.5223ZM11.6376 26.0268C10.4784 26.0268 9.5387 25.2167 9.5387 24.2173V24.1364C9.5387 23.1371 10.4784 22.327 11.6376 22.327C12.7968 22.327 13.7365 23.1371 13.7365 24.1364V24.2173C13.7365 25.2166 12.7967 26.0268 11.6376 26.0268ZM11.6376 18.5312C10.4784 18.5312 9.5387 17.7212 9.5387 16.7218V16.6409C9.5387 15.6416 10.4784 14.8315 11.6376 14.8315C12.7968 14.8315 13.7365 15.6416 13.7365 16.6409V16.7218C13.7365 17.7211 12.7967 18.5312 11.6376 18.5312ZM32.4478 26.2546C30.9127 26.2546 29.4723 26.6034 28.2269 27.2138L25.1313 26.4204L25.7199 29.075C24.5771 30.3284 23.8957 31.9091 23.8957 33.6273C23.8957 37.072 26.6364 39.9661 30.3418 40.7744C31.0302 40.9247 31.7377 41.0005 32.4478 40.9999C33.1749 40.9999 33.8798 40.922 34.5539 40.7744C38.2593 39.9661 41 37.0719 41 33.6273C40.9999 29.5551 37.1715 26.2546 32.4478 26.2546Z" stroke="white" stroke-width="1.5" stroke-miterlimit="10" stroke-linecap="round" stroke-linejoin="round"/>
<path d="M35.9305 34.5256L34.7121 36.4933V40.7382C34.6597 40.7501 34.6072 40.7621 34.5538 40.774C33.8794 40.9223 33.1742 40.9999 32.4474 40.9999C31.7506 41.0006 31.0564 40.9274 30.3805 40.7817V36.4933L29.1621 34.5256L30.7712 30.5211H34.1524L35.9305 34.5256Z" stroke="white" stroke-width="1.5" stroke-miterlimit="10" stroke-linecap="round" stroke-linejoin="round"/>
</svg>
