<svg width="50" height="60" viewBox="0 0 50 60" fill="none" xmlns="http://www.w3.org/2000/svg">
<path d="M13.4419 46.3897C13.373 46.5963 13.3386 46.8374 13.2698 47.0785C12.3407 50.6258 11.274 55.9294 11.5493 58.1335C11.6181 58.6501 11.7557 58.9945 11.9966 59.1323C12.0654 59.1667 12.1343 59.1667 12.2031 59.1667C12.444 59.2012 12.7537 59.0978 13.1322 58.9256C15.3345 57.8236 19.1884 53.3465 19.8767 51.8311C19.9799 51.6589 20.0143 51.4867 19.9799 51.4179C19.6014 49.9025 14.9559 43.2902 14.4054 43.6346C14.2333 43.7034 13.8892 44.8055 13.4419 46.3897Z" fill="url(#paint0_linear_53_705)"/>
<path d="M19.8421 51.8313C19.8421 52.3824 13.6482 48.594 14.3708 43.6348C14.3708 43.6348 19.8765 46.631 19.8421 51.8313Z" fill="url(#paint1_linear_53_705)"/>
<path opacity="0.3" d="M13.4417 46.3897C13.4417 46.3897 16.6419 48.9382 16.7796 51.039C16.9172 53.1054 14.9214 57.0659 13.0976 58.9256C15.2999 57.8236 19.1539 53.3465 19.8421 51.8311C19.9453 51.6589 19.9798 51.4867 19.9453 51.4179C19.5668 49.9025 14.9214 43.2902 14.3708 43.6346C14.2332 43.7034 13.8891 44.8055 13.4417 46.3897Z" fill="url(#paint2_linear_53_705)"/>
<path d="M35.1894 47.2164C35.2582 47.423 35.2926 47.6641 35.3615 47.9052C36.2906 51.4524 37.3573 56.7561 37.082 58.9602C37.0132 59.4768 36.8755 59.8212 36.6347 59.9589C36.5658 59.9934 36.497 59.9934 36.4282 59.9934C36.1873 60.0278 35.8776 59.9245 35.4991 59.7523C33.2968 58.6502 29.4428 54.1731 28.7546 52.6578C28.6514 52.4856 28.617 52.3134 28.6514 52.2445C29.0299 50.7292 33.6753 44.1168 34.2259 44.4612C34.398 44.5645 34.7765 45.6666 35.1894 47.2164Z" fill="url(#paint3_linear_53_705)"/>
<path d="M28.789 52.6577C28.789 53.2088 34.9829 49.4205 34.2603 44.4612C34.2603 44.4612 28.789 47.4918 28.789 52.6577Z" fill="url(#paint4_linear_53_705)"/>
<path d="M33.0559 52.7267C32.8151 52.9334 33.6409 55.1031 34.1571 55.0342C34.6732 54.9997 33.6065 52.279 33.0559 52.7267Z" fill="white"/>
<path d="M14.4394 55.9296C14.1295 55.8952 13.4407 57.1695 13.854 57.4794C14.2673 57.7894 15.1282 55.9985 14.4394 55.9296Z" fill="white"/>
<path opacity="0.3" d="M35.1893 47.2164C35.1893 47.2164 31.9891 49.7649 31.8515 51.8657C31.7139 53.932 33.7097 57.8926 35.5334 59.7523C33.3312 58.6502 29.4772 54.1731 28.789 52.6578C28.6857 52.4856 28.6513 52.3134 28.6857 52.2445C29.0642 50.7292 33.7097 44.1168 34.2603 44.4612C34.3979 44.5645 34.7764 45.6666 35.1893 47.2164Z" fill="url(#paint5_linear_53_705)"/>
<path d="M33.6753 3.78833C33.6753 3.78833 35.8432 1.92861 38.4584 1.61865C38.4584 1.61865 39.2499 1.99749 40.2134 4.92483C41.1424 7.81774 39.4219 13.5691 39.4219 13.5691L33.6753 3.78833Z" fill="url(#paint6_linear_53_705)"/>
<path d="M39.4907 3.06511C39.4907 3.06511 39.0778 2.06636 38.4584 1.61865C38.4584 1.61865 36.2905 3.61614 36.3938 8.40321L37.0132 9.05756L39.4907 3.06511Z" fill="url(#paint7_linear_53_705)"/>
<path d="M15.8505 3.78833C15.8505 3.78833 13.6826 1.92861 11.0674 1.61865C11.0674 1.61865 10.2759 1.99749 9.31244 4.92483C8.38335 7.81774 10.1039 13.5691 10.1039 13.5691L15.8505 3.78833Z" fill="url(#paint8_linear_53_705)"/>
<path d="M11.0676 1.61861C11.0676 1.61861 13.201 3.89161 13.201 7.57662L12.3752 8.09321L9.96645 3.13394C10.0009 3.13394 10.7923 1.58417 11.0676 1.61861Z" fill="url(#paint9_linear_53_705)"/>
<path d="M12.4783 7.8522C12.4783 7.8522 13.0289 4.71822 10.9642 2.37634C10.9642 2.37634 8.62432 3.4784 7.66082 7.57669C6.69732 11.675 9.2093 14.1202 9.2093 14.1202L12.4783 7.8522Z" fill="url(#paint10_linear_53_705)"/>
<path d="M37.0819 7.8522C37.0819 7.8522 36.5314 4.71822 38.596 2.37634C38.596 2.37634 40.9359 3.4784 41.8994 7.57669C42.8629 11.675 40.3509 14.1202 40.3509 14.1202L37.0819 7.8522Z" fill="url(#paint11_linear_53_705)"/>
<path d="M9.58786 25.2441C14.4054 31.9942 36.9788 31.4776 39.9037 26.0362C41.8307 22.4889 41.6242 17.1164 39.766 12.1915C37.3573 5.75138 32.0924 0 25.1415 0C16.9517 0 10.6546 8.16213 8.76201 15.601C7.79851 19.3894 7.97056 22.9711 9.58786 25.2441Z" fill="url(#paint12_linear_53_705)"/>
<path d="M38.2174 19.0106C37.1507 23.591 17.2958 24.1076 12.4439 19.9405C7.59196 15.7733 14.5773 0.998801 25.3479 1.65315C35.1549 2.23862 39.9724 11.4684 38.2174 19.0106Z" fill="#DFE3FB"/>
<path d="M38.3207 18.425C37.254 23.0055 17.399 23.5221 12.5471 19.3549C7.66082 15.1877 14.6806 0.413229 25.4511 1.06758C35.2582 1.65305 40.0757 10.9172 38.3207 18.425Z" fill="url(#paint13_linear_53_705)"/>
<path opacity="0.3" d="M9.58786 25.2441C14.4054 31.9942 36.9788 31.4776 39.9037 26.0362C41.8307 22.4889 41.6242 17.1164 39.766 12.1915C39.8348 12.467 41.7274 19.3894 39.8004 22.42C37.839 25.5196 30.0278 25.1063 21.6316 24.7275C13.2354 24.3831 10.4825 23.1433 9.0717 20.7669C7.97056 18.9072 9.0717 14.8089 9.58786 13.1214L8.76201 15.5666C7.79851 19.3894 7.97056 22.9711 9.58786 25.2441Z" fill="url(#paint14_linear_53_705)"/>
<path d="M25.107 30.2033C29.7869 30.2033 33.1935 29.6867 35.0861 28.8946C36.3249 28.4125 36.9443 27.7926 36.8411 27.2071C36.7723 26.8283 35.8776 26.5183 34.4323 26.2428C30.1654 25.4851 21.3563 25.244 16.6076 25.9673C16.1947 26.0361 15.8162 26.105 15.4721 26.1739C15.4032 26.1739 15.3344 26.2083 15.2656 26.2083H15.2312C14.4053 26.415 13.8203 26.6561 13.5795 26.966C13.5106 27.0349 13.4762 27.1038 13.4418 27.2071C12.9601 28.7569 20.8745 30.2033 25.107 30.2033Z" fill="url(#paint15_linear_53_705)"/>
<path opacity="0.5" d="M13.4763 26.8283C13.4763 26.8627 13.5107 26.9316 13.5451 26.966C13.9924 27.6204 15.885 28.4469 15.885 28.4469C15.885 28.4469 23.0424 25.5196 28.8578 26.8283C34.6732 28.1369 35.1206 28.8946 35.1206 28.8946C36.3593 28.4125 36.9787 27.7926 36.8755 27.2071C36.8067 26.8283 35.912 26.5183 34.4668 26.2428C30.1998 25.4851 21.3907 25.244 16.642 25.9673C16.1603 26.0706 15.6785 26.1395 15.3 26.2428H15.2656C14.0612 26.4839 13.4074 26.6905 13.4763 26.8283Z" fill="url(#paint16_linear_53_705)"/>
<path d="M15.4377 26.1739C16.5388 27.2415 21.8725 28.137 24.9006 28.137C30.3375 28.137 33.6409 27.276 34.3979 26.2428C29.7869 25.4162 19.7734 25.2096 15.4377 26.1739Z" fill="url(#paint17_linear_53_705)"/>
<path opacity="0.5" d="M39.9036 26.0361C39.9036 26.0361 38.9401 24.9341 37.082 24.0387C35.2238 23.1432 33.5032 22.4544 33.228 21.7312C32.9527 21.008 38.3552 21.4213 38.3552 21.4213L41.0392 22.5922C41.0392 22.5922 40.6263 24.7619 39.9036 26.0361Z" fill="url(#paint18_linear_53_705)"/>
<path d="M42.106 9.05762C42.106 9.05762 40.7295 9.95304 41.6242 12.0194C41.6242 12.0194 48.1278 15.5667 47.7493 19.4239C47.4396 22.6612 38.4584 21.077 38.4584 21.077L38.1487 22.1446C38.1487 22.1446 45.7879 23.6255 48.4031 21.8346C48.4031 21.8346 49.2978 19.6994 47.0611 15.8766C44.8588 12.0538 42.106 9.05762 42.106 9.05762Z" fill="url(#paint19_linear_53_705)"/>
<path d="M39.594 20.8013C40.4198 21.7312 38.6649 22.73 37.254 22.9021C35.6367 23.0743 32.8151 22.4544 32.9871 20.8358C33.1248 19.1827 37.667 18.6317 39.594 20.8013Z" fill="url(#paint20_linear_53_705)"/>
<path opacity="0.5" d="M35.0517 6.819C35.2926 8.2999 31.9892 8.23102 27.4814 8.09326C22.1133 7.92106 16.6764 12.5704 13.5106 9.22976C12.9945 8.67873 18.1561 1.44646 24.4188 1.58422C30.6816 1.72198 34.8453 5.54475 35.0517 6.819Z" fill="url(#paint21_linear_53_705)"/>
<path opacity="0.5" d="M31.9892 19.7682C32.2645 20.8358 30.0278 21.7312 24.4877 21.6624C17.4679 21.5935 16.2291 19.8715 16.3668 19.7682C16.3668 19.7682 19.2917 21.4902 24.763 20.2504C28.4105 19.4927 31.7139 18.6317 31.9892 19.7682Z" fill="url(#paint22_linear_53_705)"/>
<path opacity="0.3" d="M9.62211 13.018L9.79431 12.5359C9.75987 12.6392 9.72543 12.777 9.62211 13.018Z" fill="url(#paint23_linear_53_705)"/>
<path d="M21.3219 0.964335C21.8036 1.06765 17.812 3.16846 17.6399 2.92738C17.4679 2.6863 19.9799 0.654381 21.3219 0.964335Z" fill="white"/>
<path d="M13.6828 2.51412C14.0957 2.72076 14.0613 3.16847 13.2354 3.06515C12.4096 2.96183 11.9622 2.30749 12.0655 2.16973C12.0999 2.06641 13.2354 2.27305 13.6828 2.51412Z" fill="white"/>
<path d="M6.42197 14.9123C6.6286 14.8779 6.55972 16.8065 6.28421 16.7032C6.00869 16.5999 6.11201 14.9468 6.42197 14.9123Z" fill="white"/>
<path d="M39.4907 20.9736C39.5251 21.2491 33.8129 21.318 33.6753 20.2848C33.5376 19.2516 39.1122 18.9072 39.4907 20.9736Z" fill="url(#paint24_linear_53_705)"/>
<path opacity="0.2" d="M38.0799 16.9098C38.0799 16.9098 38.3208 15.36 38.0455 13.2592C37.7702 11.1584 37.2197 9.81528 36.8756 9.98747C36.5315 10.1941 36.6003 12.226 36.3938 14.258C36.2562 15.8422 35.9465 17.3231 35.9465 17.3231C35.9465 17.3231 37.3573 18.7006 38.0799 16.9098Z" fill="url(#paint25_linear_53_705)"/>
<path opacity="0.72" d="M9.17493 4.23602C9.17493 4.23602 9.93196 3.30616 10.9643 3.54723C11.9966 3.78831 12.0654 7.06005 11.446 7.12893C10.8266 7.19781 10.5514 5.33808 10.104 5.02813C9.62227 4.71817 8.79641 4.85593 8.79641 4.85593L9.17493 4.23602Z" fill="url(#paint26_linear_53_705)"/>
<path opacity="0.72" d="M41.108 5.37249C41.108 5.37249 40.6951 4.92478 39.8004 5.06253C38.9057 5.20029 38.3896 7.06002 37.9423 6.85338C37.4949 6.68119 37.8046 3.68496 39.0434 2.82397C39.0434 2.82397 40.5919 4.16711 41.108 5.37249Z" fill="url(#paint27_linear_53_705)"/>
<path d="M42.3124 9.71191C42.3124 9.71191 45.4782 13.2592 45.2717 13.5347C45.0996 13.7758 42.1403 10.0907 42.3124 9.71191Z" fill="url(#paint28_linear_53_705)"/>
<path d="M31.3354 28.9635C31.7483 30.9955 32.5742 33.8884 33.9506 36.0925C36.2217 39.7431 39.4907 44.2546 39.5939 44.3924C41.1768 44.9779 42.8285 44.599 43.8609 44.2546C44.4803 44.048 44.8932 43.8069 44.8932 43.8069C44.8932 43.8069 43.5512 39.3642 40.1101 34.7494C38.3896 32.4075 36.3249 30.3411 34.6388 28.8258C34.6388 28.8258 34.6388 28.8258 34.6044 28.7913C34.57 28.7569 34.57 28.7569 34.5356 28.7225L34.5012 28.688L34.4668 28.6536L34.4323 28.6192C32.7118 27.1038 31.3698 26.2773 31.1633 26.4495C31.0257 26.5872 31.0601 27.5515 31.3354 28.9635Z" fill="url(#paint29_linear_53_705)"/>
<path opacity="0.3" d="M31.3354 28.9634C31.7483 30.9954 32.5742 33.8883 33.9506 36.0924C36.2217 39.743 39.4907 44.2545 39.5939 44.3923L43.8609 44.2545C44.4803 44.0479 44.8932 43.8068 44.8932 43.8068C44.8932 43.8068 43.5512 39.3641 40.1101 34.7493C38.3896 32.4074 36.3249 30.341 34.6388 28.8257C35.6023 29.7211 39.766 33.5783 41.3833 37.2289C43.2071 41.3961 38.8369 40.5006 36.669 38.1243C34.5012 35.7824 31.4042 28.929 31.4042 28.929L31.3354 28.9634Z" fill="url(#paint30_linear_53_705)"/>
<path d="M35.8431 33.1996C36.1528 33.0274 35.0517 31.3054 34.5355 31.3743C33.9849 31.4432 35.5678 33.3718 35.8431 33.1996Z" fill="white"/>
<path d="M37.4601 35.6104C37.7011 35.4382 38.08 36.0925 37.8733 36.2647C37.6323 36.4025 37.1846 35.817 37.4601 35.6104Z" fill="white"/>
<path d="M44.205 41.9128C44.205 41.9128 43.1038 39.7087 41.2457 40.6041C39.3875 41.4651 40.7295 44.4958 40.7295 44.4958C40.7295 44.4958 43.2071 45.6323 44.9276 43.8414C44.9276 43.807 44.6867 43.0493 44.205 41.9128Z" fill="url(#paint31_linear_53_705)"/>
<path d="M44.2394 41.3617C44.2394 41.3617 41.865 40.3974 40.7639 41.4995C39.8692 42.3949 40.2133 44.3235 40.7295 45.5633C41.2457 46.8031 44.8588 50.7636 46.4761 50.7292C48.0934 50.6603 48.9536 48.9039 48.2998 46.8376C48.3343 46.8376 46.0287 42.7737 44.2394 41.3617Z" fill="url(#paint32_linear_53_705)"/>
<path d="M44.2393 41.3618C44.2393 41.3618 44.2737 43.5659 45.6846 45.0813C47.0954 46.5966 48.0245 49.9028 48.0245 49.9028C48.0245 49.9028 48.7815 49.0762 48.3342 46.8377C47.8868 44.5991 44.2393 41.3618 44.2393 41.3618Z" fill="url(#paint33_linear_53_705)"/>
<path opacity="0.5" d="M48.1965 46.4243L46.9922 47.2164C46.9922 47.2164 46.5448 46.1488 45.9254 45.3911C45.306 44.6335 44.7899 43.1526 44.7899 43.1526L48.1965 46.4243Z" fill="url(#paint34_linear_53_705)"/>
<path d="M44.6523 41.6716C44.6523 41.6716 45.719 41.9127 47.3363 42.9803C48.9192 44.0824 49.8827 45.3566 49.986 45.6666C50.0892 46.011 49.6074 46.5965 49.0569 46.6309C48.5063 46.6653 46.6481 45.5977 46.6481 45.5977C46.6481 45.5977 44.1017 43.187 44.6523 41.6716Z" fill="url(#paint35_linear_53_705)"/>
<path d="M45.6847 45.0813C45.6847 45.0813 42.7598 44.0481 40.5575 45.0813L40.764 45.5634C40.764 45.5634 43.0006 44.4614 45.96 45.3568L45.6847 45.0813Z" fill="url(#paint36_linear_53_705)"/>
<path d="M48.5407 45.219C48.6784 45.0468 47.0955 43.9791 47.0266 44.2547C46.9234 44.4957 48.3343 45.4256 48.5407 45.219Z" fill="white"/>
<path d="M31.1289 26.4839C31.1289 26.4839 33.4 30.2722 33.1591 34.6116C33.1591 34.5771 30.2342 29.2735 31.1289 26.4839Z" fill="url(#paint37_linear_53_705)"/>
<path d="M18.1906 28.5846C17.7776 30.6166 16.9518 33.5095 15.5754 35.7136C13.3043 39.3642 10.0352 43.8757 9.93201 44.0135C8.34912 44.599 6.6974 44.2201 5.66508 43.8757C5.04569 43.6691 4.63276 43.428 4.63276 43.428C4.63276 43.428 5.97478 38.9853 9.41585 34.3705C11.1364 32.0286 13.201 29.9622 14.8871 28.4469C14.8871 28.4469 14.8871 28.4469 14.9216 28.4124C14.956 28.378 14.956 28.378 14.9904 28.3436L15.0248 28.3091L15.0592 28.2747L15.0936 28.2402C16.8141 26.7249 18.1562 25.8984 18.3626 26.0706C18.5347 26.2083 18.4659 27.2071 18.1906 28.5846Z" fill="url(#paint38_linear_53_705)"/>
<path opacity="0.3" d="M18.1904 28.5847C17.7775 30.6166 16.9516 33.5095 15.5752 35.7136C13.3041 39.3642 10.0351 43.8757 9.93187 44.0135L5.66495 43.8757C5.04556 43.6691 4.63263 43.428 4.63263 43.428C4.63263 43.428 5.97464 38.9854 9.41571 34.3705C11.1362 32.0286 13.2009 29.9622 14.887 28.4469C13.9235 29.3423 9.75982 33.1995 8.14252 36.8501C6.31875 41.0173 10.6889 40.1219 12.8568 37.7455C15.0591 35.4381 18.156 28.5847 18.156 28.5847H18.1904Z" fill="url(#paint39_linear_53_705)"/>
<path d="M13.6828 32.8551C13.3731 32.6829 14.4742 30.961 14.9904 31.0298C15.541 31.0987 13.9581 33.0273 13.6828 32.8551Z" fill="white"/>
<path d="M5.35524 41.5684C5.35524 41.5684 6.45638 39.3642 8.31456 40.2597C10.1727 41.1206 8.83072 44.1513 8.83072 44.1513C8.83072 44.1513 6.35315 45.2878 4.63262 43.497C4.63262 43.4625 4.83908 42.6704 5.35524 41.5684Z" fill="url(#paint40_linear_53_705)"/>
<path d="M5.2865 41.0172C5.2865 41.0172 7.66083 40.0529 8.76198 41.155C9.65665 42.0504 9.31255 43.979 8.79639 45.2188C8.28023 46.4586 4.66711 50.4192 3.04981 50.3847C1.43251 50.3158 0.57224 48.5594 1.22604 46.4931C1.22604 46.4931 3.49715 42.3948 5.2865 41.0172Z" fill="url(#paint41_linear_53_705)"/>
<path d="M6.07788 40.7761C6.07788 40.7761 5.52731 43.1524 3.84119 44.7366C2.32712 46.1487 1.50126 49.5582 1.50126 49.5582C1.50126 49.5582 0.744227 48.7316 1.19157 46.4931C1.67331 44.2545 6.07788 40.7761 6.07788 40.7761Z" fill="url(#paint42_linear_53_705)"/>
<path opacity="0.5" d="M1.32932 46.0453L2.49928 46.7341C2.49928 46.7341 2.94662 45.701 3.60042 45.0122C5.63065 42.8769 6.04358 40.7761 6.04358 40.7761L3.29073 43.2902C3.29073 43.2902 2.60251 44.0134 2.12076 44.6678C1.87989 45.0122 1.32932 46.0453 1.32932 46.0453Z" fill="url(#paint43_linear_53_705)"/>
<path d="M6.07788 40.7763C6.07788 40.7763 5.52731 40.6041 3.5659 40.5697C1.57009 40.5352 0.503351 41.0863 0.228066 41.2584C-0.0472193 41.4306 -0.116039 42.1883 0.262478 42.6016C0.640996 43.0149 4.15088 43.6348 4.15088 43.6348C4.15088 43.6348 5.42408 42.2572 6.07788 40.7763Z" fill="url(#paint44_linear_53_705)"/>
<path d="M3.84131 44.7368C3.84131 44.7368 6.76622 43.7036 8.96851 44.7368L8.76204 45.2189C8.76204 45.2189 6.52535 44.1169 3.56603 45.0123L3.84131 44.7368Z" fill="url(#paint45_linear_53_705)"/>
<path d="M1.81101 41.0518C1.7766 40.8451 3.7036 40.8796 3.60037 41.1551C3.53154 41.4306 1.84542 41.3617 1.81101 41.0518Z" fill="white"/>
<path d="M18.397 26.105C18.397 26.105 16.1259 29.8933 16.3668 34.2327C16.3668 34.2327 19.3261 28.929 18.397 26.105Z" fill="url(#paint46_linear_53_705)"/>
<path d="M27.1029 18.3907C27.1029 18.3907 25.7609 16.7031 24.3501 16.3932C22.9392 16.0832 22.4575 17.8052 22.4575 17.8052C22.4575 17.8052 25.0727 17.633 27.1029 18.3907Z" fill="#2F95CD"/>
<path d="M15.4376 45.7699C16.0914 49.6271 19.5669 52.2101 24.522 52.2101C28.8577 52.2101 32.5053 50.5914 33.4688 47.0442C34.4323 43.4969 34.0537 36.919 32.7805 32.8551C32.5741 32.2352 32.3676 31.6498 32.0923 31.0987C31.8515 30.5822 31.5762 30.1 31.2665 29.6523C29.6836 27.276 27.3781 25.7262 24.7629 25.7262C22.0444 25.7262 19.9798 26.8283 18.5345 28.5158C17.8807 29.2735 17.3646 30.1689 16.9861 31.0987C16.5731 32.1664 16.1946 33.3373 15.9193 34.5082V34.5427C15.0246 38.2621 14.8526 42.326 15.4376 45.7699Z" fill="url(#paint47_linear_53_705)"/>
<path opacity="0.3" d="M15.4376 45.7699C16.0914 49.6271 19.5669 52.2101 24.522 52.2101C28.8577 52.2101 32.5053 50.5914 33.4688 47.0442C34.4323 43.4969 34.0537 36.919 32.7805 32.8552C32.5741 32.2353 32.3676 31.6498 32.0923 31.0988C32.0923 31.0988 34.7075 39.7775 32.6085 45.3222C30.5094 50.867 20.7712 50.7292 17.4678 47.0442C14.3364 43.5658 15.7817 35.3348 15.9193 34.5427C15.0246 38.2621 14.8526 42.326 15.4376 45.7699Z" fill="url(#paint48_linear_53_705)"/>
<path d="M33.2969 43.4969C32.5743 38.2966 28.3762 34.7838 23.7651 35.2315C18.7756 35.7136 16.0915 40.4663 16.1604 44.5646C16.2292 48.6628 19.2229 51.8313 24.5566 51.8313C29.9246 51.7968 33.9851 48.3529 33.2969 43.4969Z" fill="url(#paint49_linear_53_705)"/>
<path opacity="0.5" d="M18.5346 28.5158C19.6014 30.1689 25.4168 31.1332 28.789 30.8232C31.7139 30.5477 31.2666 29.7556 31.2666 29.6523C29.6837 27.276 27.3782 25.7262 24.763 25.7262C22.0445 25.7262 19.9455 26.8627 18.5346 28.5158Z" fill="url(#paint50_linear_53_705)"/>
<path d="M20.5991 31.3742C20.8747 31.4775 20.8747 33.6472 20.5991 33.9916C20.3236 34.336 19.8759 34.2327 19.7037 33.7161C19.566 33.234 20.2203 31.2365 20.5991 31.3742Z" fill="white"/>
<defs>
<linearGradient id="paint0_linear_53_705" x1="13.8408" y1="59.6085" x2="17.8947" y2="44.5325" gradientUnits="userSpaceOnUse">
<stop stop-color="#CBC1F7"/>
<stop offset="1" stop-color="#E8DCF7"/>
</linearGradient>
<linearGradient id="paint1_linear_53_705" x1="16.0399" y1="50.3765" x2="18.1681" y2="45.1653" gradientUnits="userSpaceOnUse">
<stop stop-color="#BE9DEA"/>
<stop offset="1" stop-color="#9E8CEF"/>
</linearGradient>
<linearGradient id="paint2_linear_53_705" x1="12.6156" y1="58.7129" x2="18.1674" y2="45.1181" gradientUnits="userSpaceOnUse">
<stop stop-color="#9D68C2"/>
<stop offset="1" stop-color="#CCEDFF"/>
</linearGradient>
<linearGradient id="paint3_linear_53_705" x1="34.7974" y1="60.4575" x2="30.7436" y2="45.3815" gradientUnits="userSpaceOnUse">
<stop stop-color="#CBC1F7"/>
<stop offset="1" stop-color="#E8DCF7"/>
</linearGradient>
<linearGradient id="paint4_linear_53_705" x1="32.5982" y1="51.2253" x2="30.4701" y2="46.0142" gradientUnits="userSpaceOnUse">
<stop stop-color="#BE9DEA"/>
<stop offset="1" stop-color="#9E8CEF"/>
</linearGradient>
<linearGradient id="paint5_linear_53_705" x1="36.0225" y1="59.5619" x2="30.4707" y2="45.9671" gradientUnits="userSpaceOnUse">
<stop stop-color="#9D68C2"/>
<stop offset="1" stop-color="#CCEDFF"/>
</linearGradient>
<linearGradient id="paint6_linear_53_705" x1="37.0755" y1="13.5557" x2="37.0755" y2="1.61376" gradientUnits="userSpaceOnUse">
<stop stop-color="#B9ACF4"/>
<stop offset="1" stop-color="#E1D1F5"/>
</linearGradient>
<linearGradient id="paint7_linear_53_705" x1="37.9298" y1="9.04423" x2="37.9298" y2="1.61376" gradientUnits="userSpaceOnUse">
<stop stop-color="#BE9DEA"/>
<stop offset="1" stop-color="#9E8CEF"/>
</linearGradient>
<linearGradient id="paint8_linear_53_705" x1="12.4638" y1="13.5557" x2="12.4638" y2="1.61376" gradientUnits="userSpaceOnUse">
<stop stop-color="#B9ACF4"/>
<stop offset="1" stop-color="#E1D1F5"/>
</linearGradient>
<linearGradient id="paint9_linear_53_705" x1="11.5974" y1="8.10468" x2="11.5974" y2="1.61282" gradientUnits="userSpaceOnUse">
<stop stop-color="#BE9DEA"/>
<stop offset="1" stop-color="#9E8CEF"/>
</linearGradient>
<linearGradient id="paint10_linear_53_705" x1="9.98474" y1="14.1271" x2="9.98474" y2="2.3938" gradientUnits="userSpaceOnUse">
<stop stop-color="#DD1A8F"/>
<stop offset="1" stop-color="#FE117E"/>
</linearGradient>
<linearGradient id="paint11_linear_53_705" x1="39.5546" y1="14.1271" x2="39.5546" y2="2.3938" gradientUnits="userSpaceOnUse">
<stop stop-color="#DD1A8F"/>
<stop offset="1" stop-color="#FE117E"/>
</linearGradient>
<linearGradient id="paint12_linear_53_705" x1="26.0567" y1="30.494" x2="22.2571" y2="0.266002" gradientUnits="userSpaceOnUse">
<stop stop-color="#CBC1F7"/>
<stop offset="1" stop-color="#E8DCF7"/>
</linearGradient>
<linearGradient id="paint13_linear_53_705" x1="24.8189" y1="22.207" x2="24.8189" y2="1.05532" gradientUnits="userSpaceOnUse">
<stop stop-color="#0665BD"/>
<stop offset="1" stop-color="#1A1F77"/>
</linearGradient>
<linearGradient id="paint14_linear_53_705" x1="24.715" y1="30.2145" x2="24.715" y2="12.1966" gradientUnits="userSpaceOnUse">
<stop stop-color="#9D68C2"/>
<stop offset="1" stop-color="#CCEDFF"/>
</linearGradient>
<linearGradient id="paint15_linear_53_705" x1="36.8487" y1="27.8722" x2="13.3887" y2="27.8722" gradientUnits="userSpaceOnUse">
<stop stop-color="#8879EA"/>
<stop offset="1" stop-color="#9E8CEF"/>
</linearGradient>
<linearGradient id="paint16_linear_53_705" x1="25.1531" y1="28.9186" x2="25.1531" y2="25.5342" gradientUnits="userSpaceOnUse">
<stop stop-color="#8DA4E5"/>
<stop offset="1" stop-color="#755CBB"/>
</linearGradient>
<linearGradient id="paint17_linear_53_705" x1="25.2126" y1="28.4396" x2="24.7716" y2="24.9309" gradientUnits="userSpaceOnUse">
<stop stop-color="#5E36CC"/>
<stop offset="1" stop-color="#6C4A96"/>
</linearGradient>
<linearGradient id="paint18_linear_53_705" x1="37.1288" y1="26.0369" x2="37.1288" y2="21.2885" gradientUnits="userSpaceOnUse">
<stop stop-color="#8DA4E5"/>
<stop offset="1" stop-color="#755CBB"/>
</linearGradient>
<linearGradient id="paint19_linear_53_705" x1="43.5699" y1="22.9342" x2="41.8283" y2="9.07905" gradientUnits="userSpaceOnUse">
<stop stop-color="#BE9DEA"/>
<stop offset="1" stop-color="#9E8CEF"/>
</linearGradient>
<linearGradient id="paint20_linear_53_705" x1="36.8186" y1="23.0163" x2="35.9227" y2="19.2149" gradientUnits="userSpaceOnUse">
<stop stop-color="#DD1A8F"/>
<stop offset="1" stop-color="#FE117E"/>
</linearGradient>
<linearGradient id="paint21_linear_53_705" x1="35.0803" y1="6.03189" x2="13.46" y2="6.03189" gradientUnits="userSpaceOnUse">
<stop/>
<stop offset="1" stop-color="#6A9BFF"/>
</linearGradient>
<linearGradient id="paint22_linear_53_705" x1="32.0239" y1="20.4481" x2="16.3544" y2="20.4481" gradientUnits="userSpaceOnUse">
<stop/>
<stop offset="1" stop-color="#6A9BFF"/>
</linearGradient>
<linearGradient id="paint23_linear_53_705" x1="9.7202" y1="13.0198" x2="9.7202" y2="12.5315" gradientUnits="userSpaceOnUse">
<stop stop-color="#9D68C2"/>
<stop offset="1" stop-color="#CCEDFF"/>
</linearGradient>
<linearGradient id="paint24_linear_53_705" x1="36.5775" y1="21.125" x2="36.5775" y2="19.4667" gradientUnits="userSpaceOnUse">
<stop stop-color="#D93DE3"/>
<stop offset="1" stop-color="#FF6DBA"/>
</linearGradient>
<linearGradient id="paint25_linear_53_705" x1="37.1671" y1="17.8323" x2="36.6301" y2="10.0067" gradientUnits="userSpaceOnUse">
<stop/>
<stop offset="1" stop-color="#00E3FF"/>
</linearGradient>
<linearGradient id="paint26_linear_53_705" x1="11.8482" y1="5.32899" x2="8.79793" y2="5.32899" gradientUnits="userSpaceOnUse">
<stop/>
<stop offset="1" stop-color="#D4E2FF"/>
</linearGradient>
<linearGradient id="paint27_linear_53_705" x1="41.1087" y1="4.85772" x2="37.7471" y2="4.85772" gradientUnits="userSpaceOnUse">
<stop stop-color="#D4E2FF"/>
<stop offset="1"/>
</linearGradient>
<linearGradient id="paint28_linear_53_705" x1="43.8447" y1="13.5694" x2="43.7807" y2="9.69256" gradientUnits="userSpaceOnUse">
<stop stop-color="#CBC1F7"/>
<stop offset="1" stop-color="#E8DCF7"/>
</linearGradient>
<linearGradient id="paint29_linear_53_705" x1="40.899" y1="45.2314" x2="34.4521" y2="25.3866" gradientUnits="userSpaceOnUse">
<stop stop-color="#CBC1F7"/>
<stop offset="1" stop-color="#E8DCF7"/>
</linearGradient>
<linearGradient id="paint30_linear_53_705" x1="39.7826" y1="45.0448" x2="36.5128" y2="27.9578" gradientUnits="userSpaceOnUse">
<stop stop-color="#9D68C2"/>
<stop offset="1" stop-color="#CCEDFF"/>
</linearGradient>
<linearGradient id="paint31_linear_53_705" x1="42.524" y1="44.8329" x2="42.6863" y2="40.4015" gradientUnits="userSpaceOnUse">
<stop stop-color="#BE9DEA"/>
<stop offset="1" stop-color="#9E8CEF"/>
</linearGradient>
<linearGradient id="paint32_linear_53_705" x1="40.4374" y1="41.8706" x2="48.4707" y2="49.4767" gradientUnits="userSpaceOnUse">
<stop stop-color="#CBC1F7"/>
<stop offset="1" stop-color="#E8DCF7"/>
</linearGradient>
<linearGradient id="paint33_linear_53_705" x1="42.8757" y1="43.2391" x2="49.412" y2="48.0366" gradientUnits="userSpaceOnUse">
<stop stop-color="#BE9DEA"/>
<stop offset="1" stop-color="#9E8CEF"/>
</linearGradient>
<linearGradient id="paint34_linear_53_705" x1="44.2196" y1="43.9069" x2="48.0059" y2="46.6859" gradientUnits="userSpaceOnUse">
<stop stop-color="#8DA4E5"/>
<stop offset="1" stop-color="#755CBB"/>
</linearGradient>
<linearGradient id="paint35_linear_53_705" x1="44.4825" y1="41.8469" x2="49.4674" y2="46.5667" gradientUnits="userSpaceOnUse">
<stop stop-color="#CBC1F7"/>
<stop offset="1" stop-color="#E8DCF7"/>
</linearGradient>
<linearGradient id="paint36_linear_53_705" x1="41.3794" y1="43.9788" x2="45.0027" y2="46.6382" gradientUnits="userSpaceOnUse">
<stop stop-color="#BE9DEA"/>
<stop offset="1" stop-color="#9E8CEF"/>
</linearGradient>
<linearGradient id="paint37_linear_53_705" x1="32.978" y1="30.4748" x2="31.1399" y2="30.5942" gradientUnits="userSpaceOnUse">
<stop stop-color="#8879EA"/>
<stop offset="1" stop-color="#9E8CEF"/>
</linearGradient>
<linearGradient id="paint38_linear_53_705" x1="8.64047" y1="44.8788" x2="15.0873" y2="25.0341" gradientUnits="userSpaceOnUse">
<stop stop-color="#CBC1F7"/>
<stop offset="1" stop-color="#E8DCF7"/>
</linearGradient>
<linearGradient id="paint39_linear_53_705" x1="9.75676" y1="44.6923" x2="13.0266" y2="27.6054" gradientUnits="userSpaceOnUse">
<stop stop-color="#9D68C2"/>
<stop offset="1" stop-color="#CCEDFF"/>
</linearGradient>
<linearGradient id="paint40_linear_53_705" x1="7.01527" y1="44.4803" x2="6.85299" y2="40.0489" gradientUnits="userSpaceOnUse">
<stop stop-color="#BE9DEA"/>
<stop offset="1" stop-color="#9E8CEF"/>
</linearGradient>
<linearGradient id="paint41_linear_53_705" x1="9.10199" y1="41.5181" x2="1.06865" y2="49.1241" gradientUnits="userSpaceOnUse">
<stop stop-color="#CBC1F7"/>
<stop offset="1" stop-color="#E8DCF7"/>
</linearGradient>
<linearGradient id="paint42_linear_53_705" x1="7.35859" y1="42.5426" x2="0.206576" y2="47.7919" gradientUnits="userSpaceOnUse">
<stop stop-color="#BE9DEA"/>
<stop offset="1" stop-color="#9E8CEF"/>
</linearGradient>
<linearGradient id="paint43_linear_53_705" x1="6.86042" y1="41.8637" x2="1.26642" y2="45.9695" gradientUnits="userSpaceOnUse">
<stop stop-color="#8DA4E5"/>
<stop offset="1" stop-color="#755CBB"/>
</linearGradient>
<linearGradient id="paint44_linear_53_705" x1="6.07426" y1="42.0751" x2="-0.0162881" y2="42.1188" gradientUnits="userSpaceOnUse">
<stop stop-color="#CBC1F7"/>
<stop offset="1" stop-color="#E8DCF7"/>
</linearGradient>
<linearGradient id="paint45_linear_53_705" x1="8.16004" y1="43.6262" x2="4.53676" y2="46.2856" gradientUnits="userSpaceOnUse">
<stop stop-color="#BE9DEA"/>
<stop offset="1" stop-color="#9E8CEF"/>
</linearGradient>
<linearGradient id="paint46_linear_53_705" x1="16.5613" y1="30.1222" x2="18.3995" y2="30.2416" gradientUnits="userSpaceOnUse">
<stop stop-color="#8879EA"/>
<stop offset="1" stop-color="#9E8CEF"/>
</linearGradient>
<linearGradient id="paint47_linear_53_705" x1="25.8922" y1="52.1913" x2="22.5912" y2="25.9309" gradientUnits="userSpaceOnUse">
<stop stop-color="#CBC1F7"/>
<stop offset="1" stop-color="#E8DCF7"/>
</linearGradient>
<linearGradient id="paint48_linear_53_705" x1="24.5526" y1="52.2362" x2="24.5526" y2="31.108" gradientUnits="userSpaceOnUse">
<stop stop-color="#9D68C2"/>
<stop offset="1" stop-color="#CCEDFF"/>
</linearGradient>
<linearGradient id="paint49_linear_53_705" x1="24.755" y1="51.8066" x2="24.755" y2="35.1661" gradientUnits="userSpaceOnUse">
<stop stop-color="#BE9DEA"/>
<stop offset="1" stop-color="#9E8CEF"/>
</linearGradient>
<linearGradient id="paint50_linear_53_705" x1="24.9171" y1="30.8843" x2="24.9171" y2="25.7337" gradientUnits="userSpaceOnUse">
<stop stop-color="#8DA4E5"/>
<stop offset="1" stop-color="#755CBB"/>
</linearGradient>
</defs>
</svg>
