<svg width="50" height="58" viewBox="0 0 50 58" fill="none" xmlns="http://www.w3.org/2000/svg">
<g filter="url(#filter0_d_19_2066)">
<path d="M26.1183 43.1132C26.1183 43.3345 26.0631 47.5662 25.2071 49.281C24.9862 49.7235 24.71 50.0001 24.3787 50.0001C23.1913 49.9448 20.4576 44.8833 19.3806 42.0069C19.1321 41.3431 18.9664 40.8176 18.9388 40.458C18.9112 40.2091 18.9388 40.0708 19.0769 40.0708C19.3254 40.0708 19.5739 40.0708 19.8225 40.0985C19.8501 40.0985 19.8777 40.0985 19.9329 40.1261C22.8875 40.458 25.7869 42.8366 26.1183 43.1132Z" fill="url(#paint0_linear_19_2066)"/>
<path d="M26.1184 43.1132C22.142 43.4727 19.5188 41.3431 18.9389 40.458C18.8008 40.2367 18.8008 40.0708 18.9389 40.0708C19.215 40.0431 19.5188 40.0708 19.8225 40.0984C19.8501 40.0984 19.8777 40.0984 19.933 40.1261C22.5562 40.5133 25.7594 42.8643 26.1184 43.1132Z" fill="url(#paint1_linear_19_2066)"/>
<path d="M33.2702 40.4578C33.2426 40.845 33.0493 41.4811 32.7456 42.2556C31.6134 45.1597 29.0178 49.9445 27.8304 49.9998C27.5543 49.9998 27.3057 49.8339 27.1125 49.502C26.146 47.9255 26.0908 43.1406 26.0908 43.1406C26.0908 43.1406 26.0908 43.1406 26.1184 43.113C26.4221 42.864 29.3215 40.4854 32.3038 40.1259C32.3314 40.1259 32.359 40.1259 32.3866 40.1259C32.6351 40.0982 32.8837 40.0982 33.1322 40.0982C33.2702 40.0706 33.2979 40.2088 33.2702 40.4578Z" fill="url(#paint2_linear_19_2066)"/>
<path d="M33.2702 40.458C32.718 41.3707 30.0671 43.4727 26.0908 43.1132C26.0908 43.1132 26.0908 43.1132 26.1184 43.0855C26.4497 42.8366 29.6529 40.4857 32.3038 40.0984C32.3314 40.0984 32.359 40.0984 32.3866 40.0984C32.6904 40.0708 32.9941 40.0431 33.2702 40.0708C33.4359 40.0708 33.4359 40.2367 33.2702 40.458Z" fill="url(#paint3_linear_19_2066)"/>
<path opacity="0.3" d="M26.1183 43.1132C26.1183 43.3344 26.0631 47.5662 25.2071 49.281C25.2071 49.281 24.9862 44.8003 23.7988 43.8046C22.6114 42.7813 19.4083 42.0069 19.4083 42.0069C19.1598 41.3431 18.9941 40.8176 18.9665 40.458C18.8284 40.2367 18.8284 40.0708 18.9665 40.0708C19.2426 40.0431 19.5463 40.0708 19.8501 40.0984C19.8777 40.0984 19.9053 40.0984 19.9605 40.1261C22.8876 40.458 25.787 42.8366 26.1183 43.1132Z" fill="url(#paint4_linear_19_2066)"/>
<path opacity="0.3" d="M33.2702 40.4579C33.2426 40.8451 33.0493 41.4813 32.7456 42.2557C32.1933 42.3663 29.2111 43.0578 28.1618 44.8832C27.2781 46.4044 27.1401 48.5341 27.1125 49.5022C26.146 47.9256 26.0908 43.1408 26.0908 43.1408C26.0908 43.1408 26.0908 43.1408 26.1184 43.1131C26.4221 42.8642 29.3215 40.4856 32.3038 40.126C32.3314 40.126 32.359 40.126 32.3866 40.126C32.6904 40.0984 32.9941 40.0707 33.2702 40.0984C33.4359 40.0707 33.4359 40.2367 33.2702 40.4579Z" fill="url(#paint5_linear_19_2066)"/>
<path d="M20.4852 27.5691C20.4024 28.4265 20.2367 29.3945 19.9606 30.3349C19.9606 30.3349 19.712 30.7221 19.1874 31.3306C17.8896 32.8241 14.9901 35.5899 10.4892 37.0005C10.3787 37.0282 10.2683 37.0835 10.1578 37.1111C9.43985 37.3324 8.11441 35.1474 8.80474 33.2943C8.85997 33.1283 8.94281 32.9347 9.05326 32.7688C9.3294 32.2986 9.90928 31.6901 10.6548 30.971C12.6154 29.1179 15.8462 26.684 18.6903 25.2458C19.3531 24.9139 19.9882 24.6373 20.5681 24.416C20.5404 24.416 20.6785 25.7989 20.4852 27.5691Z" fill="url(#paint6_linear_19_2066)"/>
<path d="M10.4616 37.0006C10.3787 37.0835 10.2959 37.1665 10.1854 37.2495C9.10852 38.0516 7.53455 37.5814 8.39057 34.2347C8.39057 34.2347 8.47341 33.7369 8.74954 33.2667C8.97045 32.8795 9.35704 32.5199 9.93692 32.4646C11.4557 32.3263 11.6213 35.673 10.4616 37.0006Z" fill="url(#paint7_linear_19_2066)"/>
<path opacity="0.3" d="M20.4852 27.5694L19.1598 31.3309C17.862 32.8244 14.9626 35.5902 10.4616 37.0008C10.3787 37.0838 10.2959 37.1668 10.1854 37.2497C9.10852 38.0518 7.53455 37.5816 8.39057 34.235C8.39057 34.235 8.47341 33.7371 8.74954 33.267C8.80477 33.101 8.88761 32.9074 8.99807 32.7414C9.2742 32.2713 9.85408 31.6628 10.5996 30.9437C10.5444 31.0543 10.1578 31.8011 10.9862 32.1053C11.8699 32.4095 16.4537 31.3309 18.4971 29.1459C20.5129 26.9885 20.4576 24.9418 18.6628 25.2184C19.3255 24.8865 19.9606 24.6099 20.5405 24.3887C20.5405 24.4163 20.6785 25.7992 20.4852 27.5694Z" fill="url(#paint8_linear_19_2066)"/>
<path d="M9.68836 33.8201C8.55621 33.5988 5.10454 36.1157 4 41.1771C4 41.1771 4.08284 41.592 5.10454 41.6197C6.12623 41.6473 7.89349 39.7666 9.08087 38.6602C10.2682 37.5539 11.5937 34.152 9.68836 33.8201Z" fill="url(#paint9_linear_19_2066)"/>
<path d="M5.10455 41.5919C5.10455 41.5919 6.89942 38.909 7.2584 38.2452C7.2584 38.2452 7.94873 34.9262 8.99804 34.2624C10.0474 33.6263 10.4063 34.3454 10.6548 35.1752C10.8758 36.0326 9.13611 41.011 5.10455 41.5919Z" fill="url(#paint10_linear_19_2066)"/>
<path opacity="0.5" d="M7.17554 38.7984C7.17554 38.7984 7.61735 39.7941 8.14201 39.9324C8.14201 39.9324 7.67258 36.7241 8.50098 35.0093C8.47337 35.0093 7.45167 36.6135 7.17554 38.7984Z" fill="url(#paint11_linear_19_2066)"/>
<path d="M8.94279 34.4837C8.94279 34.4837 10.0473 33.7093 10.6548 35.1752C10.6548 35.1752 10.4615 37.5814 9.10847 40.0153C9.10847 40.0153 8.41814 40.209 8.142 39.9324C7.53451 39.2962 7.7278 35.3411 8.94279 34.4837Z" fill="url(#paint12_linear_19_2066)"/>
<path d="M33.4359 37.8026C32.9113 40.9004 30.1223 42.9747 26.146 42.9747C22.6667 42.9747 19.7397 41.6748 18.9665 38.826C18.1933 35.9772 18.4971 30.6945 19.5188 27.4308C19.6844 26.933 19.8501 26.4628 20.071 26.0202C20.2643 25.6054 20.4852 25.2182 20.7337 24.8586C22.004 22.9502 23.8541 21.7056 25.9527 21.7056C28.1341 21.7056 29.7909 22.5906 30.9507 23.9459C31.4754 24.5544 31.8896 25.2735 32.1933 26.0202C32.5247 26.8776 32.8284 27.818 33.0493 28.7584V28.7861C33.7397 31.7455 33.9053 35.0092 33.4359 37.8026Z" fill="url(#paint13_linear_19_2066)"/>
<path opacity="0.3" d="M33.4359 37.8027C32.9113 40.9004 30.1223 42.9747 26.146 42.9747C22.6667 42.9747 19.7397 41.6748 18.9665 38.826C18.1933 35.9772 18.4971 30.6945 19.5188 27.4308C19.6844 26.933 19.8501 26.4628 20.071 26.0203C20.071 26.0203 17.9724 32.9901 19.6568 37.4431C21.3412 41.8961 29.1558 41.7854 31.8067 38.826C34.3195 36.0325 33.1598 29.4222 33.0493 28.7861C33.7397 31.7455 33.9053 35.0092 33.4359 37.8027Z" fill="url(#paint14_linear_19_2066)"/>
<path d="M19.1045 35.9496C19.6844 31.7732 23.0532 28.952 26.7534 29.3116C30.7574 29.6988 32.9112 33.5156 32.856 36.807C32.8008 40.0983 30.3984 42.6428 26.1183 42.6428C21.8106 42.6152 18.5523 39.8494 19.1045 35.9496Z" fill="url(#paint15_linear_19_2066)"/>
<path d="M19.1322 36.2815C19.7121 32.1051 23.0809 29.2839 26.7811 29.6158C30.785 30.003 32.9389 33.8199 32.8836 37.1112C32.8284 40.4025 30.4261 42.9471 26.146 42.9471C21.8383 42.9747 18.5799 40.1813 19.1322 36.2815Z" fill="url(#paint16_radial_19_2066)"/>
<path opacity="0.5" d="M30.9231 23.9183C30.0671 25.2459 25.4004 26.0203 22.6943 25.7714C20.3472 25.5501 20.7062 24.914 20.7062 24.831C21.9764 22.9226 23.8265 21.678 25.9251 21.678C28.1066 21.678 29.791 22.5907 30.9231 23.9183Z" fill="url(#paint17_linear_19_2066)"/>
<path d="M29.2663 26.2141C29.0454 26.2971 29.0454 28.0395 29.2663 28.3161C29.4872 28.5927 29.8461 28.5097 29.9842 28.0949C30.0947 27.7076 29.5976 26.1311 29.2663 26.2141Z" fill="white"/>
<path d="M29.6531 28.8136C29.4595 28.8689 29.4595 29.2838 29.5425 29.4498C29.6254 29.6157 29.9297 29.5604 29.985 29.3944C30.0403 29.1732 29.8467 28.7583 29.6531 28.8136Z" fill="white"/>
<path opacity="0.72" d="M21.4793 40.5407C21.4793 40.5407 22.4458 42.2002 26.0079 42.2279C29.57 42.2555 31.0335 40.0982 31.0335 40.0982C31.0335 40.0982 29.3767 41.1769 27.0296 40.5407C24.6825 39.9046 22.3353 39.5174 21.4793 40.5407Z" fill="url(#paint18_linear_19_2066)"/>
<path opacity="0.72" d="M20.5405 33.654C21.2584 34.788 24.1578 34.1795 27.4162 34.5114C30.6746 34.8433 31.2545 35.8943 31.9448 35.673C32.6351 35.4518 31.5582 30.5286 26.643 30.1967C21.7831 29.8371 20.3748 33.3497 20.5405 33.654Z" fill="url(#paint19_linear_19_2066)"/>
<path d="M31.1716 24.2502C31.1716 24.2502 30.923 23.9183 30.5917 23.78C30.5917 23.78 31.5029 28.316 33.2978 30.1691C33.2978 30.1414 32.5246 25.8821 31.1716 24.2502Z" fill="url(#paint20_linear_19_2066)"/>
<path d="M33.1597 2.8704C33.1597 2.8704 34.8994 1.37685 36.998 1.12793C36.998 1.12793 37.6331 1.43217 38.4063 3.78312C39.1518 6.1064 37.7712 10.7253 37.7712 10.7253L33.1597 2.8704Z" fill="url(#paint21_linear_19_2066)"/>
<path d="M36.998 1.1279C36.998 1.1279 35.286 2.95334 35.286 5.91276L35.9487 6.32764L37.8817 2.34486C37.8817 2.34486 37.2466 1.10024 36.998 1.1279Z" fill="url(#paint22_linear_19_2066)"/>
<path d="M35.8935 6.13398C35.8935 6.13398 35.4517 3.61709 37.1085 1.73633C37.1085 1.73633 38.9862 2.62139 39.7594 5.91271C40.5325 9.20404 38.5168 11.1678 38.5168 11.1678L35.8935 6.13398Z" fill="url(#paint23_linear_19_2066)"/>
<path d="M34.927 1.84707C34.5957 2.01302 34.6233 2.37257 35.286 2.2896C35.9487 2.20662 36.3077 1.68112 36.2248 1.57049C36.1696 1.48751 35.286 1.65346 34.927 1.84707Z" fill="white"/>
<path d="M18.6628 3.2576C18.6628 3.2576 16.9231 1.76406 14.8245 1.51514C14.8245 1.51514 14.1894 1.81938 13.4162 4.17032C12.6707 6.49361 14.0513 11.1125 14.0513 11.1125L18.6628 3.2576Z" fill="url(#paint24_linear_19_2066)"/>
<path d="M14.8245 1.48751C14.8245 1.48751 16.5365 3.31296 16.5365 6.27238L15.8738 6.71491L13.9409 2.70448C13.9409 2.70448 14.6036 1.45986 14.8245 1.48751Z" fill="url(#paint25_linear_19_2066)"/>
<path d="M15.929 6.52119C15.929 6.52119 16.3708 4.00429 14.714 2.12354C14.714 2.12354 12.8363 3.0086 12.0631 6.29992C11.2899 9.59125 13.5266 11.7762 13.5266 11.7762L15.929 6.52119Z" fill="url(#paint26_linear_19_2066)"/>
<path d="M16.8955 2.23418C17.2268 2.40013 17.1992 2.75969 16.5365 2.67671C15.8738 2.56608 15.5148 2.06823 15.5976 1.9576C15.6529 1.84697 16.5365 2.04058 16.8955 2.23418Z" fill="white"/>
<path d="M13.8304 19.2441C16.4813 25.3566 36.2801 23.4481 38.6549 18.442C41.2505 12.938 35.286 -0.614491 25.8146 0.021648C17.7515 0.519495 10.4063 11.3892 13.8304 19.2441Z" fill="url(#paint27_linear_19_2066)"/>
<path d="M14.9073 18.3589C17.4478 23.365 34.7338 22.5353 37.2466 17.944C39.4004 14.0166 34.3196 2.12355 25.649 2.53842C16.9507 2.95329 12.4774 13.5464 14.9073 18.3589Z" fill="url(#paint28_linear_19_2066)"/>
<path d="M28.5759 1.12797C28.3826 1.34923 30.5089 2.26195 30.785 2.12366C31.0611 1.98537 29.1834 0.408853 28.5759 1.12797Z" fill="white"/>
<path opacity="0.5" d="M17.9448 7.57227C17.7515 8.76157 20.0158 8.62328 23.6055 8.51265C27.9408 8.37436 32.3037 12.1082 34.8442 9.42537C35.2584 8.98284 31.1164 3.17462 26.0907 3.28525C21.0927 3.42354 18.1381 6.52126 17.9448 7.57227Z" fill="url(#paint29_linear_19_2066)"/>
<path opacity="0.5" d="M20.1815 20.0186C19.9606 20.876 21.7555 21.761 26.2012 21.5398C31.5858 21.2632 32.718 20.1569 32.4419 19.825C32.2762 19.6314 30.6746 20.6547 26.2565 19.6867C23.3847 19.0505 20.43 19.1059 20.1815 20.0186Z" fill="url(#paint30_linear_19_2066)"/>
<path opacity="0.2" d="M15.4043 17.3356C15.4043 17.3356 15.211 16.091 15.4319 14.4038C15.6528 12.7167 16.0947 11.638 16.3708 11.7763C16.6469 11.9423 16.5917 13.5741 16.7574 15.2059C16.8678 16.4782 17.1164 17.6675 17.1164 17.6675C17.1164 17.6675 15.9566 18.7738 15.4043 17.3356Z" fill="url(#paint31_linear_19_2066)"/>
<path opacity="0.5" d="M15.7633 21.2907C15.7633 21.2907 16.0395 21.0141 17.4754 20.1567C18.4418 19.6035 19.4359 18.9121 19.6016 18.6632C19.8225 18.0823 15.4872 18.4142 15.4872 18.4142L13.8304 19.2163C13.8304 19.244 14.4655 20.5163 15.7633 21.2907Z" fill="url(#paint32_linear_19_2066)"/>
<path d="M12.4497 8.5127C12.4497 8.5127 13.5542 9.23181 12.8363 10.8913C12.8363 10.8913 7.61736 13.7401 7.92111 16.8378C8.16963 19.4377 15.3767 18.1654 15.3767 18.1654L15.6253 19.0228C15.6253 19.0228 9.49507 20.2121 7.39646 18.7739C7.39646 18.7739 6.67851 17.0591 8.47338 13.989C10.2406 10.919 12.4497 8.5127 12.4497 8.5127Z" fill="url(#paint33_linear_19_2066)"/>
<path d="M14.4654 17.9442C13.8027 18.691 15.211 19.493 16.3432 19.6313C17.641 19.7696 19.9053 19.2718 19.7672 17.9718C19.6568 16.6719 16.0118 16.2017 14.4654 17.9442Z" fill="url(#paint34_linear_19_2066)"/>
<path d="M14.5483 18.0824C14.5207 18.3037 19.1046 18.359 19.215 17.5292C19.3255 16.6995 14.8521 16.4506 14.5483 18.0824Z" fill="url(#paint35_linear_19_2066)"/>
<path opacity="0.72" d="M38.6272 3.22999C38.6272 3.22999 38.0197 2.48322 37.1913 2.67683C36.3629 2.87043 36.3077 5.49796 36.8047 5.55328C37.3018 5.6086 37.5227 4.11505 37.8817 3.86613C38.2683 3.61721 38.931 3.72784 38.931 3.72784L38.6272 3.22999Z" fill="url(#paint36_linear_19_2066)"/>
<path opacity="0.5" d="M31.0335 22.4247C31.0335 22.4247 28.1893 19.5483 27.2781 16.6995L34.3747 21.3737C34.4023 21.3737 31.9724 22.2311 31.0335 22.4247Z" fill="url(#paint37_linear_19_2066)"/>
<path opacity="0.72" d="M12.7811 4.33626C12.7811 4.33626 13.1124 3.9767 13.8304 4.08733C14.5483 4.19797 14.9625 5.69151 15.3215 5.52556C15.6805 5.38727 15.432 2.98101 14.4379 2.28955C14.4379 2.31721 13.1953 3.36822 12.7811 4.33626Z" fill="url(#paint38_linear_19_2066)"/>
<path d="M11.4556 10.1997C11.4556 10.1997 8.97039 13.1038 9.10845 13.2974C9.27413 13.491 11.6213 10.4763 11.4556 10.1997Z" fill="url(#paint39_linear_19_2066)"/>
<path d="M18.1381 11.168C18.1381 11.168 20.43 10.8361 22.6667 11.4999C22.998 11.6105 21.9763 10.3935 20.4024 10.1723C18.8284 9.95101 18.0276 10.6425 18.1381 11.168Z" fill="url(#paint40_radial_19_2066)"/>
<path d="M23.6332 16.0633C24.0198 14.874 25.5109 14.9293 25.8147 15.9803C26.146 17.1143 24.8206 18.4142 24.2407 18.2206C23.6332 17.9994 23.3295 16.9207 23.6332 16.0633Z" fill="#2F95CD"/>
<path d="M27.5543 14.5698C26.146 10.67 29.8462 5.69156 35.5069 5.05542C35.5069 5.05542 40.8639 8.51269 39.6213 18.0824C39.6213 18.0548 31.1716 24.6651 27.5543 14.5698Z" fill="url(#paint41_linear_19_2066)"/>
<path d="M35.4793 5.05542C35.4793 5.05542 37.3846 5.08308 39.6489 6.93618C41.9132 8.78928 42.9625 14.3209 39.6213 18.0548C39.6213 18.0548 41.1124 10.3935 35.4793 5.05542Z" fill="url(#paint42_linear_19_2066)"/>
<path d="M30.8127 13.2975C30.9784 15.0676 36.2525 14.9016 37.1085 13.2975C37.7989 11.9975 35.8107 7.79349 33.7121 8.09773C31.5859 8.40197 30.5642 10.8082 30.8127 13.2975Z" fill="url(#paint43_radial_19_2066)"/>
<path d="M34.7338 5.11084C30.2328 5.11084 26.5602 8.76172 26.5602 13.2977C26.5602 17.8336 30.2052 21.4845 34.7338 21.4845C39.2624 21.4845 42.9073 17.8336 42.9073 13.2977C42.9073 8.76172 39.2347 5.11084 34.7338 5.11084ZM34.7338 20.1016C30.9783 20.1016 27.9409 17.0592 27.9409 13.2977C27.9409 9.53615 30.9783 6.49375 34.7338 6.49375C38.4892 6.49375 41.5266 9.53615 41.5266 13.2977C41.5266 17.0592 38.4892 20.1016 34.7338 20.1016Z" fill="url(#paint44_linear_19_2066)"/>
<path d="M34.7338 4.55762C30.2328 4.55762 26.5602 8.2085 26.5602 12.7444C26.5602 17.2527 30.2052 20.9313 34.7338 20.9313C39.2624 20.9313 42.9073 17.2804 42.9073 12.7444C42.8797 8.2085 39.2347 4.55762 34.7338 4.55762ZM34.7338 19.5484C30.9783 19.5484 27.9409 16.506 27.9409 12.7444C27.9409 8.98293 30.9783 5.94053 34.7338 5.94053C38.4892 5.94053 41.5266 8.98293 41.5266 12.7444C41.5266 16.506 38.4892 19.5484 34.7338 19.5484Z" fill="url(#paint45_linear_19_2066)"/>
<path d="M43.8185 25.412C43.8185 25.412 42.0512 28.7586 39.8145 29.865C37.5779 30.9713 34.1538 29.6437 33.0493 28.7586C31.5305 27.5693 30.9783 23.4206 31.6134 23.4206C32.1932 23.4206 32.7455 23.8631 34.5956 24.0844C35.0927 24.1397 35.6725 24.195 36.3905 24.2227C38.0473 24.278 39.5936 23.8631 40.6153 23.5312C41.3333 23.2823 41.8027 23.061 41.8027 23.061C43.0729 23.061 43.8185 25.412 43.8185 25.412Z" fill="url(#paint46_linear_19_2066)"/>
<path d="M41.5266 23.1992C41.5266 23.1992 41.3609 25.6608 42.2998 25.9927C43.2386 26.3246 43.8185 25.4119 43.8185 25.4119L44.2879 24.4162L41.5266 23.1992Z" fill="url(#paint47_linear_19_2066)"/>
<path d="M38.6272 20.2121C38.6272 20.2121 41.996 23.9183 44.2879 25.4118C44.2879 25.4118 45.7238 25.2459 46 23.8353L41.0848 18.1377L38.6272 20.2121Z" fill="url(#paint48_linear_19_2066)"/>
<path opacity="0.5" d="M44.647 22.2589C44.647 22.2589 41.4991 19.8526 40.9192 19.659C40.9192 19.659 40.4774 20.2398 40.2565 20.9313C40.0632 21.6227 43.6529 24.997 43.6529 24.997C43.6529 24.997 40.3117 22.2865 38.793 20.4334C38.793 20.4334 40.4774 19.2441 41.2506 18.3867L44.647 22.2589Z" fill="url(#paint49_linear_19_2066)"/>
<path d="M40.5325 22.2588C40.4773 22.4524 39.1243 22.8396 38.7377 22.1205C38.7101 22.0375 38.6548 21.9822 38.6548 21.8992C38.4339 21.2631 38.7377 20.7652 39.0138 20.627L39.0414 20.6546C39.2623 20.8482 40.5878 22.0928 40.5325 22.2588Z" fill="url(#paint50_linear_19_2066)"/>
<path d="M44.6469 22.2588L43.9842 21.4844C43.9842 21.4844 41.7199 20.3504 41.2781 18.359C41.2781 18.359 41.8027 17.2803 42.9073 17.2527C43.3491 17.2527 43.7633 17.8335 44.067 18.6079C44.5088 19.7972 44.7574 21.4844 44.6469 22.2588Z" fill="url(#paint51_linear_19_2066)"/>
<path opacity="0.3" d="M43.8185 25.412C43.8185 25.412 42.0512 28.7586 39.8145 29.865C37.5779 30.9713 34.1538 29.6437 33.0493 28.7586C31.5305 27.5693 30.9783 23.4206 31.6134 23.4206C32.1932 23.4206 32.7455 23.8631 34.5956 24.0844C34.4852 24.0844 32.9112 23.9738 32.6351 24.4163C32.3589 24.8865 35.5069 29.4777 38.6272 28.2055C41.7475 26.9332 41.1124 23.5312 40.5877 23.5312C41.3057 23.2823 41.7751 23.061 41.7751 23.061C43.0729 23.061 43.8185 25.412 43.8185 25.412Z" fill="url(#paint52_linear_19_2066)"/>
<path opacity="0.3" d="M40.5326 22.259C40.4773 22.4526 39.1243 22.8398 38.7377 22.1207C38.7101 22.0377 38.6548 21.9824 38.6548 21.8994C38.9586 22.2866 39.428 22.2036 39.5661 21.7888C39.7042 21.3739 39.1795 20.7654 39.069 20.6548C39.2623 20.8484 40.5878 22.093 40.5326 22.259Z" fill="url(#paint53_linear_19_2066)"/>
<path opacity="0.3" d="M44.6469 22.2587L43.9842 21.4843C43.9842 21.4843 41.7199 20.3503 41.2781 18.3589C41.3333 18.4695 42.4102 20.1567 43.57 20.3226C44.426 20.4333 44.0946 18.7461 44.067 18.6078C44.5088 19.7971 44.7574 21.4843 44.6469 22.2587Z" fill="url(#paint54_linear_19_2066)"/>
<path d="M8.47392 36.2815C8.47392 36.2815 8.0867 36.8347 8.16968 37.6921C8.16968 37.6921 8.58455 37.1389 8.47392 36.2815Z" fill="white"/>
<path d="M5.4635 39.9048C5.4635 39.9048 5.54634 39.2687 6.09861 38.8262C6.09861 38.8262 5.82248 39.7389 5.4635 39.9048Z" fill="white"/>
<path d="M12.3116 30.3074C12.2288 30.1691 13.8856 28.565 14.3826 28.5097C14.852 28.4543 14.2169 28.6756 13.8303 29.2841C13.4161 29.8649 12.4773 30.584 12.3116 30.3074Z" fill="white"/>
<path d="M14.8245 28.1501C14.6588 27.9565 15.57 27.5969 15.57 27.5969C15.57 27.5969 15.0177 28.3714 14.8245 28.1501Z" fill="white"/>
<path d="M34.7337 25.246C34.6785 25.6332 36.6114 25.6332 36.5838 25.246C36.5562 24.8588 34.7889 24.8588 34.7337 25.246Z" fill="white"/>
<path d="M21.9211 45.0216C21.6726 45.1322 22.142 46.4598 22.501 46.4322C22.8324 46.4045 22.2249 44.8833 21.9211 45.0216Z" fill="white"/>
<path opacity="0.5" d="M34.7337 19.5485C38.4853 19.5485 41.5266 16.6137 41.5266 12.9935C41.5266 9.37325 38.4853 6.43848 34.7337 6.43848C30.9821 6.43848 27.9408 9.37325 27.9408 12.9935C27.9408 16.6137 30.9821 19.5485 34.7337 19.5485Z" fill="url(#paint55_radial_19_2066)"/>
<path opacity="0.5" d="M28.7139 11.3615C28.7692 12.5785 30.7297 12.9934 34.5404 11.1126C37.5778 9.61906 40.4773 11.3339 40.7534 10.8637C41.0019 10.3935 37.8264 6.549 34.3747 6.96387C30.923 7.4064 28.6587 10.2829 28.7139 11.3615Z" fill="url(#paint56_linear_19_2066)"/>
</g>
<defs>
<filter id="filter0_d_19_2066" x="0" y="0" width="50" height="58" filterUnits="userSpaceOnUse" color-interpolation-filters="sRGB">
<feFlood flood-opacity="0" result="BackgroundImageFix"/>
<feColorMatrix in="SourceAlpha" type="matrix" values="0 0 0 0 0 0 0 0 0 0 0 0 0 0 0 0 0 0 127 0" result="hardAlpha"/>
<feOffset dy="4"/>
<feGaussianBlur stdDeviation="2"/>
<feComposite in2="hardAlpha" operator="out"/>
<feColorMatrix type="matrix" values="0 0 0 0 0 0 0 0 0 0 0 0 0 0 0 0 0 0 0.25 0"/>
<feBlend mode="normal" in2="BackgroundImageFix" result="effect1_dropShadow_19_2066"/>
<feBlend mode="normal" in="SourceGraphic" in2="effect1_dropShadow_19_2066" result="shape"/>
</filter>
<linearGradient id="paint0_linear_19_2066" x1="21.6181" y1="49.6333" x2="22.772" y2="40.4612" gradientUnits="userSpaceOnUse">
<stop stop-color="#CBC1F7"/>
<stop offset="1" stop-color="#E8DCF7"/>
</linearGradient>
<linearGradient id="paint1_linear_19_2066" x1="22.4652" y1="43.1481" x2="22.4652" y2="40.0461" gradientUnits="userSpaceOnUse">
<stop stop-color="#BE9DEA"/>
<stop offset="1" stop-color="#9E8CEF"/>
</linearGradient>
<linearGradient id="paint2_linear_19_2066" x1="28.6529" y1="50.0952" x2="29.9651" y2="39.6638" gradientUnits="userSpaceOnUse">
<stop stop-color="#CBC1F7"/>
<stop offset="1" stop-color="#E8DCF7"/>
</linearGradient>
<linearGradient id="paint3_linear_19_2066" x1="29.7496" y1="43.1568" x2="29.7496" y2="40.0544" gradientUnits="userSpaceOnUse">
<stop stop-color="#BE9DEA"/>
<stop offset="1" stop-color="#9E8CEF"/>
</linearGradient>
<linearGradient id="paint4_linear_19_2066" x1="22.4652" y1="49.2723" x2="22.4652" y2="40.0461" gradientUnits="userSpaceOnUse">
<stop stop-color="#9D68C2"/>
<stop offset="1" stop-color="#CCEDFF"/>
</linearGradient>
<linearGradient id="paint5_linear_19_2066" x1="29.7496" y1="49.4824" x2="29.7496" y2="40.0543" gradientUnits="userSpaceOnUse">
<stop stop-color="#9D68C2"/>
<stop offset="1" stop-color="#CCEDFF"/>
</linearGradient>
<linearGradient id="paint6_linear_19_2066" x1="13.6987" y1="37.5684" x2="15.4336" y2="23.7777" gradientUnits="userSpaceOnUse">
<stop stop-color="#CBC1F7"/>
<stop offset="1" stop-color="#E8DCF7"/>
</linearGradient>
<linearGradient id="paint7_linear_19_2066" x1="9.69975" y1="37.579" x2="9.69975" y2="32.4659" gradientUnits="userSpaceOnUse">
<stop stop-color="#BE9DEA"/>
<stop offset="1" stop-color="#9E8CEF"/>
</linearGradient>
<linearGradient id="paint8_linear_19_2066" x1="14.3804" y1="37.5792" x2="14.3804" y2="24.4215" gradientUnits="userSpaceOnUse">
<stop stop-color="#9D68C2"/>
<stop offset="1" stop-color="#CCEDFF"/>
</linearGradient>
<linearGradient id="paint9_linear_19_2066" x1="6.86975" y1="41.842" x2="7.90754" y2="33.5925" gradientUnits="userSpaceOnUse">
<stop stop-color="#CBC1F7"/>
<stop offset="1" stop-color="#E8DCF7"/>
</linearGradient>
<linearGradient id="paint10_linear_19_2066" x1="7.88047" y1="41.6053" x2="7.88047" y2="34.043" gradientUnits="userSpaceOnUse">
<stop stop-color="#BE9DEA"/>
<stop offset="1" stop-color="#9E8CEF"/>
</linearGradient>
<linearGradient id="paint11_linear_19_2066" x1="7.82128" y1="39.9476" x2="7.82128" y2="35.0225" gradientUnits="userSpaceOnUse">
<stop stop-color="#8DA4E5"/>
<stop offset="1" stop-color="#755CBB"/>
</linearGradient>
<linearGradient id="paint12_linear_19_2066" x1="8.7619" y1="40.1328" x2="9.49898" y2="34.2736" gradientUnits="userSpaceOnUse">
<stop stop-color="#CBC1F7"/>
<stop offset="1" stop-color="#E8DCF7"/>
</linearGradient>
<linearGradient id="paint13_linear_19_2066" x1="25.026" y1="42.9353" x2="27.679" y2="21.8461" gradientUnits="userSpaceOnUse">
<stop stop-color="#CBC1F7"/>
<stop offset="1" stop-color="#E8DCF7"/>
</linearGradient>
<linearGradient id="paint14_linear_19_2066" x1="26.1009" y1="42.9714" x2="26.1009" y2="26.0033" gradientUnits="userSpaceOnUse">
<stop stop-color="#9D68C2"/>
<stop offset="1" stop-color="#CCEDFF"/>
</linearGradient>
<linearGradient id="paint15_linear_19_2066" x1="25.9386" y1="42.6263" x2="25.9386" y2="29.2624" gradientUnits="userSpaceOnUse">
<stop stop-color="#BE9DEA"/>
<stop offset="1" stop-color="#9E8CEF"/>
</linearGradient>
<radialGradient id="paint16_radial_19_2066" cx="0" cy="0" r="1" gradientUnits="userSpaceOnUse" gradientTransform="translate(26.2061 40.8981) scale(10.1814 10.1979)">
<stop stop-color="#45FFCD"/>
<stop offset="1" stop-color="#22E0FF"/>
</radialGradient>
<linearGradient id="paint17_linear_19_2066" x1="25.8086" y1="25.8237" x2="25.8086" y2="21.6873" gradientUnits="userSpaceOnUse">
<stop stop-color="#8DA4E5"/>
<stop offset="1" stop-color="#755CBB"/>
</linearGradient>
<linearGradient id="paint18_linear_19_2066" x1="26.2626" y1="42.2265" x2="26.2626" y2="39.9116" gradientUnits="userSpaceOnUse">
<stop stop-color="#D4E2FF"/>
<stop offset="1"/>
</linearGradient>
<linearGradient id="paint19_linear_19_2066" x1="20.5391" y1="32.9186" x2="32.1414" y2="32.9186" gradientUnits="userSpaceOnUse">
<stop/>
<stop offset="1" stop-color="#D4E2FF"/>
</linearGradient>
<linearGradient id="paint20_linear_19_2066" x1="30.6153" y1="26.9534" x2="33.3096" y2="26.9534" gradientUnits="userSpaceOnUse">
<stop stop-color="#8879EA"/>
<stop offset="1" stop-color="#9E8CEF"/>
</linearGradient>
<linearGradient id="paint21_linear_19_2066" x1="35.8885" y1="10.7149" x2="35.8885" y2="1.12431" gradientUnits="userSpaceOnUse">
<stop stop-color="#B9ACF4"/>
<stop offset="1" stop-color="#E1D1F5"/>
</linearGradient>
<linearGradient id="paint22_linear_19_2066" x1="36.5839" y1="6.33715" x2="36.5839" y2="1.12355" gradientUnits="userSpaceOnUse">
<stop stop-color="#BE9DEA"/>
<stop offset="1" stop-color="#9E8CEF"/>
</linearGradient>
<linearGradient id="paint23_linear_19_2066" x1="37.8779" y1="11.1737" x2="37.8779" y2="1.75065" gradientUnits="userSpaceOnUse">
<stop stop-color="#45FFCD"/>
<stop offset="1" stop-color="#22E0FF"/>
</linearGradient>
<linearGradient id="paint24_linear_19_2066" x1="15.9409" y1="11.0889" x2="15.9409" y2="1.49832" gradientUnits="userSpaceOnUse">
<stop stop-color="#B9ACF4"/>
<stop offset="1" stop-color="#E1D1F5"/>
</linearGradient>
<linearGradient id="paint25_linear_19_2066" x1="15.2455" y1="6.71123" x2="15.2455" y2="1.49764" gradientUnits="userSpaceOnUse">
<stop stop-color="#BE9DEA"/>
<stop offset="1" stop-color="#9E8CEF"/>
</linearGradient>
<linearGradient id="paint26_linear_19_2066" x1="13.9584" y1="11.7604" x2="13.9584" y2="2.12464" gradientUnits="userSpaceOnUse">
<stop stop-color="#45FFCD"/>
<stop offset="1" stop-color="#22E0FF"/>
</linearGradient>
<linearGradient id="paint27_linear_19_2066" x1="25.0569" y1="23.3792" x2="27.9868" y2="0.0889804" gradientUnits="userSpaceOnUse">
<stop stop-color="#CBC1F7"/>
<stop offset="1" stop-color="#E8DCF7"/>
</linearGradient>
<linearGradient id="paint28_linear_19_2066" x1="25.9973" y1="21.7843" x2="25.9973" y2="2.53001" gradientUnits="userSpaceOnUse">
<stop stop-color="#0665BD"/>
<stop offset="1" stop-color="#1A1F77"/>
</linearGradient>
<linearGradient id="paint29_linear_19_2066" x1="17.9456" y1="6.83623" x2="34.9031" y2="6.83623" gradientUnits="userSpaceOnUse">
<stop/>
<stop offset="1" stop-color="#6A9BFF"/>
</linearGradient>
<linearGradient id="paint30_linear_19_2066" x1="20.1757" y1="20.4195" x2="32.5049" y2="20.4195" gradientUnits="userSpaceOnUse">
<stop/>
<stop offset="1" stop-color="#6A9BFF"/>
</linearGradient>
<linearGradient id="paint31_linear_19_2066" x1="16.1211" y1="18.0612" x2="16.5527" y2="11.7766" gradientUnits="userSpaceOnUse">
<stop/>
<stop offset="1" stop-color="#00E3FF"/>
</linearGradient>
<linearGradient id="paint32_linear_19_2066" x1="16.7022" y1="21.2964" x2="16.7022" y2="18.3439" gradientUnits="userSpaceOnUse">
<stop stop-color="#8DA4E5"/>
<stop offset="1" stop-color="#755CBB"/>
</linearGradient>
<linearGradient id="paint33_linear_19_2066" x1="11.279" y1="19.6656" x2="12.6788" y2="8.53884" gradientUnits="userSpaceOnUse">
<stop stop-color="#BE9DEA"/>
<stop offset="1" stop-color="#9E8CEF"/>
</linearGradient>
<linearGradient id="paint34_linear_19_2066" x1="16.6967" y1="19.7317" x2="17.4166" y2="16.679" gradientUnits="userSpaceOnUse">
<stop stop-color="#DD1A8F"/>
<stop offset="1" stop-color="#FE117E"/>
</linearGradient>
<linearGradient id="paint35_linear_19_2066" x1="16.8901" y1="18.2126" x2="16.8901" y2="16.8809" gradientUnits="userSpaceOnUse">
<stop stop-color="#D93DE3"/>
<stop offset="1" stop-color="#FF6DBA"/>
</linearGradient>
<linearGradient id="paint36_linear_19_2066" x1="36.4747" y1="4.1036" x2="38.9224" y2="4.1036" gradientUnits="userSpaceOnUse">
<stop/>
<stop offset="1" stop-color="#D4E2FF"/>
</linearGradient>
<linearGradient id="paint37_linear_19_2066" x1="30.8427" y1="22.4341" x2="30.8427" y2="16.7017" gradientUnits="userSpaceOnUse">
<stop stop-color="#8DA4E5"/>
<stop offset="1" stop-color="#755CBB"/>
</linearGradient>
<linearGradient id="paint38_linear_19_2066" x1="12.7784" y1="3.9327" x2="15.476" y2="3.9327" gradientUnits="userSpaceOnUse">
<stop stop-color="#D4E2FF"/>
<stop offset="1"/>
</linearGradient>
<linearGradient id="paint39_linear_19_2066" x1="10.2846" y1="13.3031" x2="10.2846" y2="10.1892" gradientUnits="userSpaceOnUse">
<stop stop-color="#CBC1F7"/>
<stop offset="1" stop-color="#E8DCF7"/>
</linearGradient>
<radialGradient id="paint40_radial_19_2066" cx="0" cy="0" r="1" gradientUnits="userSpaceOnUse" gradientTransform="translate(20.4972 11.3079) scale(3.25893 3.26422)">
<stop stop-color="#45FFCD"/>
<stop offset="1" stop-color="#22E0FF"/>
</radialGradient>
<linearGradient id="paint41_linear_19_2066" x1="33.5226" y1="20.1851" x2="33.5226" y2="5.05033" gradientUnits="userSpaceOnUse">
<stop stop-color="#0665BD"/>
<stop offset="1" stop-color="#1A1F77"/>
</linearGradient>
<linearGradient id="paint42_linear_19_2066" x1="37.5118" y1="17.8024" x2="39.0608" y2="5.48922" gradientUnits="userSpaceOnUse">
<stop stop-color="#CBC1F7"/>
<stop offset="1" stop-color="#E8DCF7"/>
</linearGradient>
<radialGradient id="paint43_radial_19_2066" cx="0" cy="0" r="1" gradientUnits="userSpaceOnUse" gradientTransform="translate(34.1129 13.5672) scale(4.78477 4.79253)">
<stop stop-color="#45FFCD"/>
<stop offset="1" stop-color="#22E0FF"/>
</radialGradient>
<linearGradient id="paint44_linear_19_2066" x1="32.8524" y1="21.2677" x2="36.6079" y2="5.34176" gradientUnits="userSpaceOnUse">
<stop stop-color="#DD1A8F"/>
<stop offset="1" stop-color="#FE117E"/>
</linearGradient>
<linearGradient id="paint45_linear_19_2066" x1="32.8524" y1="20.6953" x2="36.6079" y2="4.76937" gradientUnits="userSpaceOnUse">
<stop stop-color="#D93DE3"/>
<stop offset="1" stop-color="#FF6DBA"/>
</linearGradient>
<linearGradient id="paint46_linear_19_2066" x1="36.8816" y1="30.246" x2="37.8481" y2="22.5632" gradientUnits="userSpaceOnUse">
<stop stop-color="#CBC1F7"/>
<stop offset="1" stop-color="#E8DCF7"/>
</linearGradient>
<linearGradient id="paint47_linear_19_2066" x1="42.9002" y1="26.0782" x2="42.9002" y2="23.2039" gradientUnits="userSpaceOnUse">
<stop stop-color="#BE9DEA"/>
<stop offset="1" stop-color="#9E8CEF"/>
</linearGradient>
<linearGradient id="paint48_linear_19_2066" x1="42.0777" y1="25.2654" x2="42.5763" y2="18.2526" gradientUnits="userSpaceOnUse">
<stop stop-color="#A242EA"/>
<stop offset="1" stop-color="#FE117E"/>
</linearGradient>
<linearGradient id="paint49_linear_19_2066" x1="41.711" y1="24.9677" x2="41.711" y2="18.3504" gradientUnits="userSpaceOnUse">
<stop stop-color="#8DA4E5"/>
<stop offset="1" stop-color="#755CBB"/>
</linearGradient>
<linearGradient id="paint50_linear_19_2066" x1="39.476" y1="22.5414" x2="39.7053" y2="20.7186" gradientUnits="userSpaceOnUse">
<stop stop-color="#CBC1F7"/>
<stop offset="1" stop-color="#E8DCF7"/>
</linearGradient>
<linearGradient id="paint51_linear_19_2066" x1="42.7285" y1="22.0185" x2="43.3238" y2="17.2869" gradientUnits="userSpaceOnUse">
<stop stop-color="#CBC1F7"/>
<stop offset="1" stop-color="#E8DCF7"/>
</linearGradient>
<linearGradient id="paint52_linear_19_2066" x1="37.5746" y1="30.307" x2="37.5746" y2="23.0634" gradientUnits="userSpaceOnUse">
<stop stop-color="#9D68C2"/>
<stop offset="1" stop-color="#CCEDFF"/>
</linearGradient>
<linearGradient id="paint53_linear_19_2066" x1="39.6007" y1="22.548" x2="39.6007" y2="20.6585" gradientUnits="userSpaceOnUse">
<stop stop-color="#9D68C2"/>
<stop offset="1" stop-color="#CCEDFF"/>
</linearGradient>
<linearGradient id="paint54_linear_19_2066" x1="42.9608" y1="22.2583" x2="42.9608" y2="18.3502" gradientUnits="userSpaceOnUse">
<stop stop-color="#9D68C2"/>
<stop offset="1" stop-color="#CCEDFF"/>
</linearGradient>
<radialGradient id="paint55_radial_19_2066" cx="0" cy="0" r="1" gradientUnits="userSpaceOnUse" gradientTransform="translate(34.722 12.9806) scale(6.79179 6.5619)">
<stop/>
<stop offset="0.229" stop-color="#010303"/>
<stop offset="0.3654" stop-color="#050B0B"/>
<stop offset="0.4774" stop-color="#0B1919"/>
<stop offset="0.5764" stop-color="#132D2D"/>
<stop offset="0.6667" stop-color="#1F4848"/>
<stop offset="0.7506" stop-color="#2C6868"/>
<stop offset="0.8298" stop-color="#3D8E8E"/>
<stop offset="0.905" stop-color="#50BABA"/>
<stop offset="0.9747" stop-color="#65EBEB"/>
<stop offset="1" stop-color="#6DFFFF"/>
</radialGradient>
<linearGradient id="paint56_linear_19_2066" x1="28.7001" y1="9.67332" x2="40.7485" y2="9.67332" gradientUnits="userSpaceOnUse">
<stop stop-color="#6A9BFF"/>
<stop offset="1"/>
</linearGradient>
</defs>
</svg>
