<svg width="50" height="60" viewBox="0 0 50 60" fill="none" xmlns="http://www.w3.org/2000/svg">
<path d="M36.5581 46.3898C36.627 46.5965 36.6614 46.8375 36.7302 47.0786C37.6593 50.6259 38.726 55.9295 38.4507 58.1337C38.3819 58.6503 38.2443 58.9946 38.0034 59.1324C37.9346 59.1668 37.8657 59.1668 37.7969 59.1668C37.556 59.2013 37.2463 59.098 36.8678 58.9258C34.6655 57.8237 30.8116 53.3466 30.1233 51.8313C30.0201 51.6591 29.9857 51.4869 30.0201 51.418C30.3986 49.9026 35.0441 43.2903 35.5946 43.6347C35.7667 43.7036 36.1108 44.8056 36.5581 46.3898Z" fill="url(#paint0_linear_44_280)"/>
<path d="M30.1579 51.8313C30.1579 52.3823 36.3518 48.594 35.6292 43.6347C35.6292 43.6347 30.1235 46.6309 30.1579 51.8313Z" fill="url(#paint1_linear_44_280)"/>
<path opacity="0.3" d="M36.5583 46.3898C36.5583 46.3898 33.3581 48.9383 33.2204 51.0391C33.0828 53.1055 35.0786 57.066 36.9024 58.9258C34.7001 57.8237 30.8461 53.3466 30.1579 51.8313C30.0547 51.6591 30.0202 51.4869 30.0547 51.418C30.4332 49.9026 35.0786 43.2903 35.6292 43.6347C35.7668 43.7036 36.1109 44.8056 36.5583 46.3898Z" fill="url(#paint2_linear_44_280)"/>
<path d="M14.8106 47.2164C14.7418 47.423 14.7074 47.6641 14.6385 47.9052C13.7094 51.4524 12.6427 56.7561 12.918 58.9602C12.9868 59.4768 13.1245 59.8212 13.3653 59.9589C13.4342 59.9934 13.503 59.9934 13.5718 59.9934C13.8127 60.0278 14.1224 59.9245 14.5009 59.7523C16.7032 58.6502 20.5572 54.1731 21.2454 52.6578C21.3486 52.4856 21.383 52.3134 21.3486 52.2445C20.9701 50.7292 16.3247 44.1168 15.7741 44.4612C15.602 44.5645 15.2235 45.6666 14.8106 47.2164Z" fill="url(#paint3_linear_44_280)"/>
<path d="M21.211 52.6578C21.211 53.2088 15.0171 49.4205 15.7397 44.4612C15.7397 44.4612 21.211 47.4919 21.211 52.6578Z" fill="url(#paint4_linear_44_280)"/>
<path d="M16.9441 52.7267C17.1849 52.9333 16.3591 55.103 15.8429 55.0341C15.3268 54.9997 16.3935 52.279 16.9441 52.7267Z" fill="white"/>
<path d="M35.5606 55.9295C35.8705 55.8951 36.5593 57.1693 36.146 57.4793C35.7327 57.7892 34.8718 55.9984 35.5606 55.9295Z" fill="white"/>
<path opacity="0.3" d="M14.8107 47.2164C14.8107 47.2164 18.0109 49.7649 18.1485 51.8657C18.2861 53.932 16.2903 57.8926 14.4666 59.7523C16.6688 58.6502 20.5228 54.1731 21.211 52.6578C21.3143 52.4856 21.3487 52.3134 21.3143 52.2445C20.9358 50.7292 16.2903 44.1168 15.7397 44.4612C15.6021 44.5645 15.2236 45.6666 14.8107 47.2164Z" fill="url(#paint5_linear_44_280)"/>
<path d="M16.3247 3.78833C16.3247 3.78833 14.1568 1.92861 11.5416 1.61865C11.5416 1.61865 10.7501 1.99749 9.78664 4.92483C8.85755 7.81774 10.5781 13.5691 10.5781 13.5691L16.3247 3.78833Z" fill="url(#paint6_linear_44_280)"/>
<path d="M10.5093 3.06511C10.5093 3.06511 10.9222 2.06636 11.5416 1.61865C11.5416 1.61865 13.7095 3.61614 13.6062 8.40321L12.9868 9.05756L10.5093 3.06511Z" fill="url(#paint7_linear_44_280)"/>
<path d="M34.1495 3.78833C34.1495 3.78833 36.3174 1.92861 38.9326 1.61865C38.9326 1.61865 39.7241 1.99749 40.6876 4.92483C41.6166 7.81774 39.8961 13.5691 39.8961 13.5691L34.1495 3.78833Z" fill="url(#paint8_linear_44_280)"/>
<path d="M38.9324 1.61861C38.9324 1.61861 36.799 3.89161 36.799 7.57662L37.6248 8.09321L40.0336 3.13394C39.9991 3.13394 39.2077 1.58417 38.9324 1.61861Z" fill="url(#paint9_linear_44_280)"/>
<path d="M37.5217 7.8522C37.5217 7.8522 36.9711 4.71822 39.0358 2.37634C39.0358 2.37634 41.3757 3.4784 42.3392 7.57669C43.3027 11.675 40.7907 14.1202 40.7907 14.1202L37.5217 7.8522Z" fill="url(#paint10_linear_44_280)"/>
<path d="M12.9181 7.8522C12.9181 7.8522 13.4686 4.71822 11.404 2.37634C11.404 2.37634 9.06409 3.4784 8.10059 7.57669C7.13709 11.675 9.64907 14.1202 9.64907 14.1202L12.9181 7.8522Z" fill="url(#paint11_linear_44_280)"/>
<path d="M40.4121 25.2441C35.5946 31.9942 13.0212 31.4776 10.0963 26.0362C8.16935 22.4889 8.37581 17.1164 10.234 12.1915C12.6427 5.75138 17.9076 0 24.8585 0C33.0483 0 39.3454 8.16213 41.238 15.601C42.2015 19.3894 42.0294 22.9711 40.4121 25.2441Z" fill="url(#paint12_linear_44_280)"/>
<path d="M11.7826 19.0105C12.8493 23.591 32.7042 24.1076 37.5561 19.9404C42.408 15.7732 35.4227 0.99874 24.6521 1.65309C14.8451 2.23856 10.0276 11.4683 11.7826 19.0105Z" fill="#DFE3FB"/>
<path d="M11.6793 18.425C12.746 23.0055 32.601 23.5221 37.4529 19.3549C42.3392 15.1877 35.3194 0.413229 24.5489 1.06758C14.7418 1.65305 9.92434 10.9172 11.6793 18.425Z" fill="url(#paint13_linear_44_280)"/>
<path opacity="0.3" d="M40.4121 25.2441C35.5946 31.9942 13.0212 31.4776 10.0963 26.0362C8.16935 22.4889 8.37581 17.1164 10.234 12.1915C10.1652 12.467 8.27258 19.3894 10.1996 22.42C12.161 25.5196 19.9722 25.1063 28.3684 24.7275C36.7646 24.3831 39.5175 23.1433 40.9283 20.7669C42.0294 18.9072 40.9283 14.8089 40.4121 13.1214L41.238 15.5666C42.2015 19.3894 42.0294 22.9711 40.4121 25.2441Z" fill="url(#paint14_linear_44_280)"/>
<path d="M24.893 30.2033C20.2131 30.2033 16.8065 29.6867 14.9139 28.8946C13.6751 28.4125 13.0557 27.7926 13.1589 27.2071C13.2277 26.8283 14.1224 26.5183 15.5677 26.2428C19.8346 25.4851 28.6437 25.244 33.3924 25.9673C33.8053 26.0361 34.1838 26.105 34.5279 26.1739C34.5968 26.1739 34.6656 26.2083 34.7344 26.2083H34.7688C35.5947 26.415 36.1797 26.6561 36.4205 26.966C36.4894 27.0349 36.5238 27.1038 36.5582 27.2071C37.0399 28.7569 29.1255 30.2033 24.893 30.2033Z" fill="url(#paint15_linear_44_280)"/>
<path opacity="0.5" d="M36.5237 26.8283C36.5237 26.8627 36.4893 26.9316 36.4549 26.966C36.0076 27.6204 34.115 28.4469 34.115 28.4469C34.115 28.4469 26.9576 25.5196 21.1422 26.8283C15.3268 28.1369 14.8794 28.8946 14.8794 28.8946C13.6407 28.4125 13.0213 27.7926 13.1245 27.2071C13.1933 26.8283 14.088 26.5183 15.5332 26.2428C19.8002 25.4851 28.6093 25.244 33.358 25.9673C33.8397 26.0706 34.3215 26.1395 34.7 26.2428H34.7344C35.9388 26.4839 36.5926 26.6905 36.5237 26.8283Z" fill="url(#paint16_linear_44_280)"/>
<path d="M34.5623 26.1739C33.4612 27.2415 28.1275 28.137 25.0994 28.137C19.6625 28.137 16.3591 27.276 15.6021 26.2428C20.2131 25.4162 30.2266 25.2096 34.5623 26.1739Z" fill="url(#paint17_linear_44_280)"/>
<path opacity="0.5" d="M10.0964 26.0361C10.0964 26.0361 11.0599 24.9341 12.918 24.0387C14.7762 23.1432 16.4968 22.4544 16.772 21.7312C17.0473 21.008 11.6448 21.4213 11.6448 21.4213L8.96082 22.5922C8.96082 22.5922 9.37374 24.7619 10.0964 26.0361Z" fill="url(#paint18_linear_44_280)"/>
<path d="M7.89404 9.05756C7.89404 9.05756 9.27047 9.95298 8.37579 12.0193C8.37579 12.0193 1.87218 15.5666 2.2507 19.4238C2.56039 22.6611 11.5416 21.0769 11.5416 21.0769L11.8513 22.1445C11.8513 22.1445 4.2121 23.6254 1.59689 21.8346C1.59689 21.8346 0.702215 19.6993 2.93891 15.8766C5.14119 12.0538 7.89404 9.05756 7.89404 9.05756Z" fill="url(#paint19_linear_44_280)"/>
<path d="M10.406 20.8013C9.58018 21.7312 11.3351 22.73 12.746 22.9021C14.3633 23.0743 17.1849 22.4544 17.0129 20.8358C16.8752 19.1827 12.333 18.6317 10.406 20.8013Z" fill="url(#paint20_linear_44_280)"/>
<path opacity="0.5" d="M14.9483 6.819C14.7074 8.2999 18.0108 8.23102 22.5186 8.09326C27.8867 7.92106 33.3236 12.5704 36.4894 9.22976C37.0055 8.67873 31.8439 1.44646 25.5812 1.58422C19.3184 1.72198 15.1547 5.54475 14.9483 6.819Z" fill="url(#paint21_linear_44_280)"/>
<path opacity="0.5" d="M18.0108 19.7682C17.7355 20.8358 19.9722 21.7312 25.5123 21.6624C32.5321 21.5935 33.7709 19.8715 33.6332 19.7682C33.6332 19.7682 30.7083 21.4902 25.237 20.2504C21.5895 19.4927 18.2861 18.6317 18.0108 19.7682Z" fill="url(#paint22_linear_44_280)"/>
<path opacity="0.3" d="M40.3779 13.018L40.2057 12.5359C40.2401 12.6392 40.2746 12.777 40.3779 13.018Z" fill="url(#paint23_linear_44_280)"/>
<path d="M28.6781 0.964335C28.1964 1.06765 32.188 3.16846 32.3601 2.92738C32.5321 2.6863 30.0201 0.654381 28.6781 0.964335Z" fill="white"/>
<path d="M36.3172 2.51412C35.9043 2.72076 35.9387 3.16847 36.7646 3.06515C37.5904 2.96183 38.0378 2.30749 37.9345 2.16973C37.9001 2.06641 36.7646 2.27305 36.3172 2.51412Z" fill="white"/>
<path d="M43.578 14.9123C43.3714 14.8778 43.4403 16.8064 43.7158 16.7031C43.9913 16.5998 43.888 14.9467 43.578 14.9123Z" fill="white"/>
<path d="M10.5093 20.9736C10.4749 21.2491 16.1871 21.318 16.3247 20.2848C16.4624 19.2516 10.8878 18.9072 10.5093 20.9736Z" fill="url(#paint24_linear_44_280)"/>
<path opacity="0.2" d="M11.9201 16.9097C11.9201 16.9097 11.6792 15.36 11.9545 13.2592C12.2298 11.1584 12.7803 9.81522 13.1244 9.98741C13.4685 10.194 13.3997 12.226 13.6062 14.2579C13.7438 15.8421 14.0535 17.323 14.0535 17.323C14.0535 17.323 12.6427 18.7006 11.9201 16.9097Z" fill="url(#paint25_linear_44_280)"/>
<path opacity="0.72" d="M40.8251 4.23602C40.8251 4.23602 40.068 3.30616 39.0357 3.54723C38.0034 3.78831 37.9346 7.06005 38.554 7.12893C39.1734 7.19781 39.4486 5.33808 39.896 5.02813C40.3777 4.71817 41.2036 4.85593 41.2036 4.85593L40.8251 4.23602Z" fill="url(#paint26_linear_44_280)"/>
<path opacity="0.72" d="M8.89197 5.37255C8.89197 5.37255 9.3049 4.92484 10.1996 5.0626C11.0943 5.20035 11.6104 7.06008 12.0577 6.85344C12.5051 6.68125 12.1954 3.68502 10.9566 2.82404C10.9566 2.82404 9.40813 4.16717 8.89197 5.37255Z" fill="url(#paint27_linear_44_280)"/>
<path d="M7.68762 9.71191C7.68762 9.71191 4.52184 13.2592 4.7283 13.5347C4.90036 13.7758 7.85968 10.0907 7.68762 9.71191Z" fill="url(#paint28_linear_44_280)"/>
<path d="M18.6646 28.9635C18.2517 30.9955 17.4258 33.8884 16.0494 36.0925C13.7783 39.7431 10.5093 44.2546 10.4061 44.3924C8.82316 44.9779 7.17145 44.599 6.13913 44.2546C5.51974 44.048 5.10681 43.8069 5.10681 43.8069C5.10681 43.8069 6.44883 39.3642 9.88989 34.7494C11.6104 32.4075 13.6751 30.3411 15.3612 28.8258C15.3612 28.8258 15.3612 28.8258 15.3956 28.7913C15.43 28.7569 15.43 28.7569 15.4644 28.7225L15.4988 28.688L15.5332 28.6536L15.5677 28.6192C17.2882 27.1038 18.6302 26.2773 18.8367 26.4495C18.9743 26.5872 18.9399 27.5515 18.6646 28.9635Z" fill="url(#paint29_linear_44_280)"/>
<path opacity="0.3" d="M18.6646 28.9635C18.2517 30.9954 17.4258 33.8883 16.0494 36.0925C13.7783 39.743 10.5093 44.2546 10.4061 44.3923L6.13913 44.2546C5.51974 44.048 5.10681 43.8069 5.10681 43.8069C5.10681 43.8069 6.44883 39.3642 9.88989 34.7493C11.6104 32.4074 13.6751 30.3411 15.3612 28.8257C14.3977 29.7212 10.234 33.5784 8.6167 37.229C6.79293 41.3961 11.1631 40.5007 13.331 38.1244C15.4988 35.7825 18.5958 28.9291 18.5958 28.9291L18.6646 28.9635Z" fill="url(#paint30_linear_44_280)"/>
<path d="M14.1569 33.1996C13.8472 33.0274 14.9483 31.3054 15.4645 31.3743C16.0151 31.4431 14.4322 33.3717 14.1569 33.1996Z" fill="white"/>
<path d="M12.5399 35.6103C12.2989 35.4381 11.92 36.0925 12.1267 36.2647C12.3677 36.4024 12.8154 35.817 12.5399 35.6103Z" fill="white"/>
<path d="M5.79501 41.9127C5.79501 41.9127 6.89615 39.7086 8.75433 40.604C10.6125 41.465 9.27049 44.4957 9.27049 44.4957C9.27049 44.4957 6.79292 45.6322 5.07239 43.8413C5.07239 43.8069 5.31326 43.0492 5.79501 41.9127Z" fill="url(#paint31_linear_44_280)"/>
<path d="M5.76062 41.3617C5.76062 41.3617 8.13495 40.3974 9.23609 41.4995C10.1308 42.3949 9.78666 44.3235 9.2705 45.5633C8.75434 46.8031 5.14122 50.7636 3.52392 50.7292C1.90662 50.6603 1.04636 48.9039 1.70016 46.8376C1.66575 46.8376 3.97126 42.7737 5.76062 41.3617Z" fill="url(#paint32_linear_44_280)"/>
<path d="M5.76069 41.3617C5.76069 41.3617 5.72627 43.5658 4.31544 45.0811C2.9046 46.5965 1.97551 49.9027 1.97551 49.9027C1.97551 49.9027 1.21848 49.0761 1.66582 46.8376C2.11316 44.599 5.76069 41.3617 5.76069 41.3617Z" fill="url(#paint33_linear_44_280)"/>
<path opacity="0.5" d="M1.80347 46.4243L3.00784 47.2164C3.00784 47.2164 3.45518 46.1488 4.07457 45.3911C4.69396 44.6335 5.21012 43.1526 5.21012 43.1526L1.80347 46.4243Z" fill="url(#paint34_linear_44_280)"/>
<path d="M5.34769 41.6716C5.34769 41.6716 4.28096 41.9127 2.66366 42.9803C1.08077 44.0824 0.117272 45.3566 0.0140401 45.6666C-0.0891919 46.011 0.392557 46.5965 0.943128 46.6309C1.4937 46.6653 3.35187 45.5977 3.35187 45.5977C3.35187 45.5977 5.89826 43.187 5.34769 41.6716Z" fill="url(#paint35_linear_44_280)"/>
<path d="M4.31532 45.0811C4.31532 45.0811 7.24023 44.048 9.44251 45.0811L9.23605 45.5633C9.23605 45.5633 6.99936 44.4612 4.04004 45.3567L4.31532 45.0811Z" fill="url(#paint36_linear_44_280)"/>
<path d="M1.45928 45.2189C1.32164 45.0467 2.90453 43.9791 2.97335 44.2546C3.07659 44.4957 1.66575 45.4255 1.45928 45.2189Z" fill="white"/>
<path d="M18.8711 26.4839C18.8711 26.4839 16.6 30.2722 16.8409 34.6116C16.8409 34.5771 19.7658 29.2735 18.8711 26.4839Z" fill="url(#paint37_linear_44_280)"/>
<path d="M31.8094 28.5846C32.2224 30.6166 33.0482 33.5095 34.4246 35.7136C36.6957 39.3642 39.9648 43.8757 40.068 44.0135C41.6509 44.599 43.3026 44.2201 44.3349 43.8757C44.9543 43.6691 45.3672 43.428 45.3672 43.428C45.3672 43.428 44.0252 38.9853 40.5842 34.3705C38.8636 32.0286 36.799 29.9622 35.1129 28.4469C35.1129 28.4469 35.1129 28.4469 35.0784 28.4124C35.044 28.378 35.044 28.378 35.0096 28.3436L34.9752 28.3091L34.9408 28.2747L34.9064 28.2402C33.1859 26.7249 31.8438 25.8984 31.6374 26.0706C31.4653 26.2083 31.5341 27.2071 31.8094 28.5846Z" fill="url(#paint38_linear_44_280)"/>
<path opacity="0.3" d="M31.8096 28.5847C32.2225 30.6166 33.0484 33.5095 34.4248 35.7136C36.6959 39.3642 39.9649 43.8757 40.0681 44.0135L44.3351 43.8757C44.9544 43.6691 45.3674 43.428 45.3674 43.428C45.3674 43.428 44.0254 38.9854 40.5843 34.3705C38.8638 32.0286 36.7991 29.9622 35.113 28.4469C36.0765 29.3423 40.2402 33.1995 41.8575 36.8501C43.6812 41.0173 39.3111 40.1219 37.1432 37.7455C34.9409 35.4381 31.844 28.5847 31.844 28.5847H31.8096Z" fill="url(#paint39_linear_44_280)"/>
<path d="M36.3172 32.8551C36.6269 32.6829 35.5258 30.961 35.0096 31.0298C34.459 31.0987 36.0419 33.0273 36.3172 32.8551Z" fill="white"/>
<path d="M44.6448 41.5684C44.6448 41.5684 43.5436 39.3642 41.6854 40.2597C39.8273 41.1206 41.1693 44.1513 41.1693 44.1513C41.1693 44.1513 43.6468 45.2878 45.3674 43.497C45.3674 43.4625 45.1609 42.6704 44.6448 41.5684Z" fill="url(#paint40_linear_44_280)"/>
<path d="M44.7135 41.0173C44.7135 41.0173 42.3392 40.053 41.238 41.1551C40.3433 42.0505 40.6875 43.9791 41.2036 45.2189C41.7198 46.4588 45.3329 50.4193 46.9502 50.3848C48.5675 50.316 49.4278 48.5596 48.774 46.4932C48.774 46.4932 46.5029 42.3949 44.7135 41.0173Z" fill="url(#paint41_linear_44_280)"/>
<path d="M43.9221 40.7762C43.9221 40.7762 44.4727 43.1526 46.1588 44.7368C47.6729 46.1488 48.4987 49.5583 48.4987 49.5583C48.4987 49.5583 49.2558 48.7317 48.8084 46.4932C48.3267 44.2546 43.9221 40.7762 43.9221 40.7762Z" fill="url(#paint42_linear_44_280)"/>
<path opacity="0.5" d="M48.6707 46.0455L47.5007 46.7343C47.5007 46.7343 47.0534 45.7011 46.3996 45.0123C44.3694 42.877 43.9564 40.7762 43.9564 40.7762L46.7093 43.2903C46.7093 43.2903 47.3975 44.0135 47.8792 44.6679C48.1201 45.0123 48.6707 46.0455 48.6707 46.0455Z" fill="url(#paint43_linear_44_280)"/>
<path d="M43.9221 40.7762C43.9221 40.7762 44.4727 40.604 46.4341 40.5696C48.4299 40.5352 49.4966 41.0862 49.7719 41.2584C50.0472 41.4306 50.116 42.1882 49.7375 42.6015C49.359 43.0148 45.8491 43.6347 45.8491 43.6347C45.8491 43.6347 44.5759 42.2571 43.9221 40.7762Z" fill="url(#paint44_linear_44_280)"/>
<path d="M46.1587 44.7368C46.1587 44.7368 43.2338 43.7036 41.0315 44.7368L41.238 45.2189C41.238 45.2189 43.4746 44.1169 46.434 45.0123L46.1587 44.7368Z" fill="url(#paint45_linear_44_280)"/>
<path d="M48.189 41.0518C48.2234 40.8451 46.2964 40.8796 46.3996 41.1551C46.4685 41.4306 48.1546 41.3617 48.189 41.0518Z" fill="white"/>
<path d="M31.603 26.105C31.603 26.105 33.8741 29.8934 33.6332 34.2327C33.6332 34.2327 30.6739 28.9291 31.603 26.105Z" fill="url(#paint46_linear_44_280)"/>
<path d="M22.8971 18.3907C22.8971 18.3907 24.2391 16.7031 25.6499 16.3932C27.0608 16.0832 27.5425 17.8052 27.5425 17.8052C27.5425 17.8052 24.9273 17.633 22.8971 18.3907Z" fill="#2F95CD"/>
<path d="M22.4155 6.61237C22.3466 8.23102 22.3122 9.81523 22.3122 11.3994C22.3122 11.8816 22.3122 12.3637 22.3122 12.8459C22.3122 13.328 22.3122 13.8102 22.3466 14.2923H21.1423C21.1767 13.8446 21.1767 13.4314 21.2111 12.9837C21.2111 12.5359 21.2455 12.1227 21.2455 11.675H19.0432C19.1464 10.9173 19.2497 10.1252 19.3185 9.33308C19.3873 8.54097 19.4561 7.74887 19.4906 6.88788H20.6605C20.5917 7.50779 20.5229 8.16214 20.4541 8.81649C20.3852 9.47083 20.3508 10.1252 20.3508 10.7451L21.3143 10.7107C21.3143 10.4696 21.3143 10.1941 21.3143 9.95299C21.3143 9.71191 21.3143 9.43639 21.3143 9.19532C21.3143 8.78205 21.3143 8.33433 21.3143 7.92106C21.3143 7.50779 21.3143 7.06008 21.2799 6.61237H22.4155Z" fill="#FF008B"/>
<path d="M26.8888 10.4696C26.8888 11.1584 26.82 11.7783 26.7511 12.2949C26.6479 12.8115 26.5103 13.2247 26.3382 13.5691C26.1662 13.9135 25.9597 14.1546 25.7188 14.2923C25.4779 14.4645 25.2371 14.5334 24.9618 14.5334C24.6865 14.5334 24.4456 14.4645 24.2048 14.2923C23.9639 14.1546 23.7574 13.9135 23.5854 13.5691C23.4133 13.2592 23.2757 12.8115 23.1724 12.3293C23.0692 11.8127 23.0348 11.1928 23.0348 10.504C23.0348 9.74635 23.0692 9.12644 23.1724 8.60985C23.2757 8.09326 23.4133 7.67999 23.5854 7.37003C23.7574 7.06008 23.9639 6.819 24.2048 6.68125C24.4456 6.54349 24.6865 6.47461 24.9618 6.47461C25.2371 6.47461 25.4779 6.54349 25.7188 6.71569C25.9597 6.85344 26.1662 7.09452 26.3382 7.43891C26.5103 7.74887 26.6479 8.19658 26.7511 8.67873C26.8544 9.16088 26.8888 9.78079 26.8888 10.4696ZM25.6844 10.4696C25.6844 9.95299 25.65 9.47084 25.6156 9.092C25.5812 8.71317 25.5124 8.40322 25.4435 8.16214C25.3747 7.92106 25.3059 7.74887 25.2027 7.61111C25.0994 7.50779 25.0306 7.43891 24.9274 7.43891C24.8241 7.43891 24.7209 7.50779 24.6177 7.61111C24.5144 7.71443 24.4456 7.88662 24.3768 8.1277C24.308 8.36878 24.2392 8.67873 24.2048 9.05756C24.1703 9.4364 24.1359 9.91855 24.1359 10.4696C24.1359 11.0206 24.1703 11.4683 24.2048 11.8472C24.2392 12.226 24.308 12.5359 24.3768 12.8115C24.4456 13.0525 24.5144 13.2592 24.6177 13.3625C24.7209 13.4658 24.8241 13.5347 24.9274 13.5347C25.0306 13.5347 25.1338 13.4658 25.2027 13.3625C25.3059 13.2247 25.3747 13.0525 25.4435 12.8115C25.5124 12.5704 25.5468 12.226 25.6156 11.8472C25.65 11.4683 25.6844 11.0206 25.6844 10.4696Z" fill="#FF008B"/>
<path d="M30.6052 6.61237C30.5363 8.23102 30.5019 9.81523 30.5019 11.3994C30.5019 11.8816 30.5019 12.3637 30.5019 12.8459C30.5019 13.328 30.5019 13.8102 30.5363 14.2923H29.332C29.3664 13.8446 29.3664 13.4314 29.4008 12.9837C29.4008 12.5359 29.4352 12.1227 29.4352 11.675H27.2329C27.3361 10.9173 27.4394 10.1252 27.5082 9.33308C27.577 8.54097 27.6458 7.74887 27.6802 6.88788H28.8502C28.7814 7.50779 28.7126 8.16214 28.6437 8.81649C28.5749 9.47083 28.5405 10.1252 28.5405 10.7451L29.504 10.7107C29.504 10.4696 29.504 10.1941 29.504 9.95299C29.504 9.71191 29.504 9.43639 29.504 9.19532C29.504 8.78205 29.504 8.33433 29.504 7.92106C29.504 7.50779 29.504 7.06008 29.4696 6.61237H30.6052Z" fill="#FF008B"/>
<path d="M34.5624 45.7699C33.9086 49.6271 30.4331 52.2101 25.478 52.2101C21.1423 52.2101 17.4947 50.5914 16.5312 47.0442C15.5677 43.4969 15.9463 36.919 17.2195 32.8551C17.4259 32.2352 17.6324 31.6498 17.9077 31.0987C18.1485 30.5822 18.4238 30.1 18.7335 29.6523C20.3164 27.276 22.6219 25.7262 25.2371 25.7262C27.9556 25.7262 30.0202 26.8283 31.4655 28.5158C32.1193 29.2735 32.6354 30.1689 33.0139 31.0987C33.4269 32.1664 33.8054 33.3373 34.0807 34.5082V34.5427C34.9754 38.2621 35.1474 42.326 34.5624 45.7699Z" fill="url(#paint47_linear_44_280)"/>
<path opacity="0.3" d="M34.5624 45.7699C33.9086 49.6271 30.4331 52.2101 25.478 52.2101C21.1423 52.2101 17.4947 50.5914 16.5312 47.0442C15.5677 43.4969 15.9463 36.919 17.2195 32.8552C17.4259 32.2353 17.6324 31.6498 17.9077 31.0988C17.9077 31.0988 15.2925 39.7775 17.3915 45.3222C19.4906 50.867 29.2288 50.7292 32.5322 47.0442C35.6636 43.5658 34.2183 35.3348 34.0807 34.5427C34.9754 38.2621 35.1474 42.326 34.5624 45.7699Z" fill="url(#paint48_linear_44_280)"/>
<path d="M16.7031 43.4969C17.4257 38.2966 21.6238 34.7838 26.2349 35.2315C31.2244 35.7136 33.9085 40.4663 33.8396 44.5646C33.7708 48.6628 30.7771 51.8313 25.4434 51.8313C20.0754 51.7968 16.0149 48.3529 16.7031 43.4969Z" fill="url(#paint49_linear_44_280)"/>
<path d="M16.7721 43.9102C17.4947 38.7099 21.6928 35.1971 26.3038 35.6104C31.2934 36.0925 33.9774 40.8451 33.9086 44.9434C33.8397 49.0417 30.846 52.2101 25.5124 52.2101C20.1787 52.2101 16.0838 48.7662 16.7721 43.9102Z" fill="url(#paint50_radial_44_280)"/>
<path opacity="0.5" d="M31.4654 28.5158C30.3986 30.1689 24.5832 31.1332 21.211 30.8232C18.2861 30.5477 18.7334 29.7556 18.7334 29.6523C20.3163 27.276 22.6218 25.7262 25.237 25.7262C27.9555 25.7262 30.0545 26.8627 31.4654 28.5158Z" fill="url(#paint51_linear_44_280)"/>
<path d="M29.4009 31.3743C29.1253 31.4776 29.1253 33.6473 29.4009 33.9917C29.6764 34.3361 30.1241 34.2328 30.2963 33.7162C30.434 33.234 29.7797 31.2365 29.4009 31.3743Z" fill="white"/>
<path opacity="0.72" d="M18.527 40.604C19.4216 42.0161 23.0348 41.2584 27.0952 41.6717C31.1557 42.0849 31.8783 43.3936 32.7386 43.1181C33.5988 42.8426 32.2568 36.7124 26.1317 36.2991C20.0754 35.8858 18.3205 40.2596 18.527 40.604Z" fill="url(#paint52_linear_44_280)"/>
<path opacity="0.72" d="M19.8002 49.386C19.8002 49.386 21.0045 51.4524 25.4435 51.4868C29.8825 51.5213 31.7063 48.835 31.7063 48.835C31.7063 48.835 29.6416 50.1781 26.7167 49.386C23.7574 48.5595 20.8669 48.1118 19.8002 49.386Z" fill="url(#paint53_linear_44_280)"/>
<defs>
<linearGradient id="paint0_linear_44_280" x1="36.1592" y1="59.6086" x2="32.1053" y2="44.5326" gradientUnits="userSpaceOnUse">
<stop stop-color="#CBC1F7"/>
<stop offset="1" stop-color="#E8DCF7"/>
</linearGradient>
<linearGradient id="paint1_linear_44_280" x1="33.9601" y1="50.3764" x2="31.8319" y2="45.1653" gradientUnits="userSpaceOnUse">
<stop stop-color="#BE9DEA"/>
<stop offset="1" stop-color="#9E8CEF"/>
</linearGradient>
<linearGradient id="paint2_linear_44_280" x1="37.3844" y1="58.713" x2="31.8326" y2="45.1182" gradientUnits="userSpaceOnUse">
<stop stop-color="#9D68C2"/>
<stop offset="1" stop-color="#CCEDFF"/>
</linearGradient>
<linearGradient id="paint3_linear_44_280" x1="15.2026" y1="60.4575" x2="19.2564" y2="45.3815" gradientUnits="userSpaceOnUse">
<stop stop-color="#CBC1F7"/>
<stop offset="1" stop-color="#E8DCF7"/>
</linearGradient>
<linearGradient id="paint4_linear_44_280" x1="17.4018" y1="51.2254" x2="19.5299" y2="46.0142" gradientUnits="userSpaceOnUse">
<stop stop-color="#BE9DEA"/>
<stop offset="1" stop-color="#9E8CEF"/>
</linearGradient>
<linearGradient id="paint5_linear_44_280" x1="13.9775" y1="59.5619" x2="19.5293" y2="45.9671" gradientUnits="userSpaceOnUse">
<stop stop-color="#9D68C2"/>
<stop offset="1" stop-color="#CCEDFF"/>
</linearGradient>
<linearGradient id="paint6_linear_44_280" x1="12.9245" y1="13.5557" x2="12.9245" y2="1.61376" gradientUnits="userSpaceOnUse">
<stop stop-color="#B9ACF4"/>
<stop offset="1" stop-color="#E1D1F5"/>
</linearGradient>
<linearGradient id="paint7_linear_44_280" x1="12.0702" y1="9.04423" x2="12.0702" y2="1.61376" gradientUnits="userSpaceOnUse">
<stop stop-color="#BE9DEA"/>
<stop offset="1" stop-color="#9E8CEF"/>
</linearGradient>
<linearGradient id="paint8_linear_44_280" x1="37.5362" y1="13.5557" x2="37.5362" y2="1.61376" gradientUnits="userSpaceOnUse">
<stop stop-color="#B9ACF4"/>
<stop offset="1" stop-color="#E1D1F5"/>
</linearGradient>
<linearGradient id="paint9_linear_44_280" x1="38.4026" y1="8.10468" x2="38.4026" y2="1.61282" gradientUnits="userSpaceOnUse">
<stop stop-color="#BE9DEA"/>
<stop offset="1" stop-color="#9E8CEF"/>
</linearGradient>
<linearGradient id="paint10_linear_44_280" x1="40.0153" y1="14.1271" x2="40.0153" y2="2.3938" gradientUnits="userSpaceOnUse">
<stop stop-color="#DD1A8F"/>
<stop offset="1" stop-color="#FE117E"/>
</linearGradient>
<linearGradient id="paint11_linear_44_280" x1="10.4454" y1="14.1271" x2="10.4454" y2="2.3938" gradientUnits="userSpaceOnUse">
<stop stop-color="#DD1A8F"/>
<stop offset="1" stop-color="#FE117E"/>
</linearGradient>
<linearGradient id="paint12_linear_44_280" x1="23.9433" y1="30.494" x2="27.7429" y2="0.266002" gradientUnits="userSpaceOnUse">
<stop stop-color="#CBC1F7"/>
<stop offset="1" stop-color="#E8DCF7"/>
</linearGradient>
<linearGradient id="paint13_linear_44_280" x1="25.1811" y1="22.207" x2="25.1811" y2="1.05532" gradientUnits="userSpaceOnUse">
<stop stop-color="#0665BD"/>
<stop offset="1" stop-color="#1A1F77"/>
</linearGradient>
<linearGradient id="paint14_linear_44_280" x1="25.285" y1="30.2145" x2="25.285" y2="12.1966" gradientUnits="userSpaceOnUse">
<stop stop-color="#9D68C2"/>
<stop offset="1" stop-color="#CCEDFF"/>
</linearGradient>
<linearGradient id="paint15_linear_44_280" x1="13.1513" y1="27.8722" x2="36.6113" y2="27.8722" gradientUnits="userSpaceOnUse">
<stop stop-color="#8879EA"/>
<stop offset="1" stop-color="#9E8CEF"/>
</linearGradient>
<linearGradient id="paint16_linear_44_280" x1="24.8469" y1="28.9186" x2="24.8469" y2="25.5342" gradientUnits="userSpaceOnUse">
<stop stop-color="#8DA4E5"/>
<stop offset="1" stop-color="#755CBB"/>
</linearGradient>
<linearGradient id="paint17_linear_44_280" x1="24.7874" y1="28.4396" x2="25.2284" y2="24.9309" gradientUnits="userSpaceOnUse">
<stop stop-color="#5E36CC"/>
<stop offset="1" stop-color="#6C4A96"/>
</linearGradient>
<linearGradient id="paint18_linear_44_280" x1="12.8712" y1="26.0369" x2="12.8712" y2="21.2885" gradientUnits="userSpaceOnUse">
<stop stop-color="#8DA4E5"/>
<stop offset="1" stop-color="#755CBB"/>
</linearGradient>
<linearGradient id="paint19_linear_44_280" x1="6.43015" y1="22.9341" x2="8.17174" y2="9.07899" gradientUnits="userSpaceOnUse">
<stop stop-color="#BE9DEA"/>
<stop offset="1" stop-color="#9E8CEF"/>
</linearGradient>
<linearGradient id="paint20_linear_44_280" x1="13.1814" y1="23.0163" x2="14.0773" y2="19.2149" gradientUnits="userSpaceOnUse">
<stop stop-color="#DD1A8F"/>
<stop offset="1" stop-color="#FE117E"/>
</linearGradient>
<linearGradient id="paint21_linear_44_280" x1="14.9197" y1="6.03189" x2="36.54" y2="6.03189" gradientUnits="userSpaceOnUse">
<stop/>
<stop offset="1" stop-color="#6A9BFF"/>
</linearGradient>
<linearGradient id="paint22_linear_44_280" x1="17.9761" y1="20.4481" x2="33.6456" y2="20.4481" gradientUnits="userSpaceOnUse">
<stop/>
<stop offset="1" stop-color="#6A9BFF"/>
</linearGradient>
<linearGradient id="paint23_linear_44_280" x1="40.2798" y1="13.0198" x2="40.2798" y2="12.5315" gradientUnits="userSpaceOnUse">
<stop stop-color="#9D68C2"/>
<stop offset="1" stop-color="#CCEDFF"/>
</linearGradient>
<linearGradient id="paint24_linear_44_280" x1="13.4225" y1="21.125" x2="13.4225" y2="19.4667" gradientUnits="userSpaceOnUse">
<stop stop-color="#D93DE3"/>
<stop offset="1" stop-color="#FF6DBA"/>
</linearGradient>
<linearGradient id="paint25_linear_44_280" x1="12.8329" y1="17.8322" x2="13.3699" y2="10.0066" gradientUnits="userSpaceOnUse">
<stop/>
<stop offset="1" stop-color="#00E3FF"/>
</linearGradient>
<linearGradient id="paint26_linear_44_280" x1="38.1518" y1="5.32899" x2="41.2021" y2="5.32899" gradientUnits="userSpaceOnUse">
<stop/>
<stop offset="1" stop-color="#D4E2FF"/>
</linearGradient>
<linearGradient id="paint27_linear_44_280" x1="8.89128" y1="4.85778" x2="12.2529" y2="4.85778" gradientUnits="userSpaceOnUse">
<stop stop-color="#D4E2FF"/>
<stop offset="1"/>
</linearGradient>
<linearGradient id="paint28_linear_44_280" x1="6.15531" y1="13.5694" x2="6.21934" y2="9.69256" gradientUnits="userSpaceOnUse">
<stop stop-color="#CBC1F7"/>
<stop offset="1" stop-color="#E8DCF7"/>
</linearGradient>
<linearGradient id="paint29_linear_44_280" x1="9.10103" y1="45.2314" x2="15.5479" y2="25.3866" gradientUnits="userSpaceOnUse">
<stop stop-color="#CBC1F7"/>
<stop offset="1" stop-color="#E8DCF7"/>
</linearGradient>
<linearGradient id="paint30_linear_44_280" x1="10.2174" y1="45.0448" x2="13.4872" y2="27.9578" gradientUnits="userSpaceOnUse">
<stop stop-color="#9D68C2"/>
<stop offset="1" stop-color="#CCEDFF"/>
</linearGradient>
<linearGradient id="paint31_linear_44_280" x1="7.47597" y1="44.8327" x2="7.31369" y2="40.4014" gradientUnits="userSpaceOnUse">
<stop stop-color="#BE9DEA"/>
<stop offset="1" stop-color="#9E8CEF"/>
</linearGradient>
<linearGradient id="paint32_linear_44_280" x1="9.56263" y1="41.8706" x2="1.5293" y2="49.4767" gradientUnits="userSpaceOnUse">
<stop stop-color="#CBC1F7"/>
<stop offset="1" stop-color="#E8DCF7"/>
</linearGradient>
<linearGradient id="paint33_linear_44_280" x1="7.12433" y1="43.239" x2="0.588041" y2="48.0365" gradientUnits="userSpaceOnUse">
<stop stop-color="#BE9DEA"/>
<stop offset="1" stop-color="#9E8CEF"/>
</linearGradient>
<linearGradient id="paint34_linear_44_280" x1="5.78036" y1="43.9069" x2="1.99409" y2="46.6859" gradientUnits="userSpaceOnUse">
<stop stop-color="#8DA4E5"/>
<stop offset="1" stop-color="#755CBB"/>
</linearGradient>
<linearGradient id="paint35_linear_44_280" x1="5.51748" y1="41.8469" x2="0.53257" y2="46.5667" gradientUnits="userSpaceOnUse">
<stop stop-color="#CBC1F7"/>
<stop offset="1" stop-color="#E8DCF7"/>
</linearGradient>
<linearGradient id="paint36_linear_44_280" x1="8.6206" y1="43.9787" x2="4.99731" y2="46.638" gradientUnits="userSpaceOnUse">
<stop stop-color="#BE9DEA"/>
<stop offset="1" stop-color="#9E8CEF"/>
</linearGradient>
<linearGradient id="paint37_linear_44_280" x1="17.022" y1="30.4748" x2="18.8601" y2="30.5942" gradientUnits="userSpaceOnUse">
<stop stop-color="#8879EA"/>
<stop offset="1" stop-color="#9E8CEF"/>
</linearGradient>
<linearGradient id="paint38_linear_44_280" x1="41.3595" y1="44.8788" x2="34.9127" y2="25.0341" gradientUnits="userSpaceOnUse">
<stop stop-color="#CBC1F7"/>
<stop offset="1" stop-color="#E8DCF7"/>
</linearGradient>
<linearGradient id="paint39_linear_44_280" x1="40.2432" y1="44.6923" x2="36.9734" y2="27.6054" gradientUnits="userSpaceOnUse">
<stop stop-color="#9D68C2"/>
<stop offset="1" stop-color="#CCEDFF"/>
</linearGradient>
<linearGradient id="paint40_linear_44_280" x1="42.9847" y1="44.4803" x2="43.147" y2="40.0489" gradientUnits="userSpaceOnUse">
<stop stop-color="#BE9DEA"/>
<stop offset="1" stop-color="#9E8CEF"/>
</linearGradient>
<linearGradient id="paint41_linear_44_280" x1="40.898" y1="41.5182" x2="48.9313" y2="49.1242" gradientUnits="userSpaceOnUse">
<stop stop-color="#CBC1F7"/>
<stop offset="1" stop-color="#E8DCF7"/>
</linearGradient>
<linearGradient id="paint42_linear_44_280" x1="42.6414" y1="42.5427" x2="49.7934" y2="47.7921" gradientUnits="userSpaceOnUse">
<stop stop-color="#BE9DEA"/>
<stop offset="1" stop-color="#9E8CEF"/>
</linearGradient>
<linearGradient id="paint43_linear_44_280" x1="43.1396" y1="41.8638" x2="48.7336" y2="45.9696" gradientUnits="userSpaceOnUse">
<stop stop-color="#8DA4E5"/>
<stop offset="1" stop-color="#755CBB"/>
</linearGradient>
<linearGradient id="paint44_linear_44_280" x1="43.9257" y1="42.0751" x2="50.0163" y2="42.1187" gradientUnits="userSpaceOnUse">
<stop stop-color="#CBC1F7"/>
<stop offset="1" stop-color="#E8DCF7"/>
</linearGradient>
<linearGradient id="paint45_linear_44_280" x1="41.84" y1="43.6262" x2="45.4632" y2="46.2856" gradientUnits="userSpaceOnUse">
<stop stop-color="#BE9DEA"/>
<stop offset="1" stop-color="#9E8CEF"/>
</linearGradient>
<linearGradient id="paint46_linear_44_280" x1="33.4387" y1="30.1222" x2="31.6005" y2="30.2417" gradientUnits="userSpaceOnUse">
<stop stop-color="#8879EA"/>
<stop offset="1" stop-color="#9E8CEF"/>
</linearGradient>
<linearGradient id="paint47_linear_44_280" x1="24.1078" y1="52.1913" x2="27.4088" y2="25.9309" gradientUnits="userSpaceOnUse">
<stop stop-color="#CBC1F7"/>
<stop offset="1" stop-color="#E8DCF7"/>
</linearGradient>
<linearGradient id="paint48_linear_44_280" x1="25.4474" y1="52.2362" x2="25.4474" y2="31.108" gradientUnits="userSpaceOnUse">
<stop stop-color="#9D68C2"/>
<stop offset="1" stop-color="#CCEDFF"/>
</linearGradient>
<linearGradient id="paint49_linear_44_280" x1="25.245" y1="51.8066" x2="25.245" y2="35.1661" gradientUnits="userSpaceOnUse">
<stop stop-color="#BE9DEA"/>
<stop offset="1" stop-color="#9E8CEF"/>
</linearGradient>
<radialGradient id="paint50_radial_44_280" cx="0" cy="0" r="1" gradientUnits="userSpaceOnUse" gradientTransform="translate(25.8134 50.1811) scale(13.2782 13.2893)">
<stop stop-color="#CE40E0"/>
<stop offset="1" stop-color="#DD1A8F"/>
</radialGradient>
<linearGradient id="paint51_linear_44_280" x1="25.0829" y1="30.8843" x2="25.0829" y2="25.7337" gradientUnits="userSpaceOnUse">
<stop stop-color="#8DA4E5"/>
<stop offset="1" stop-color="#755CBB"/>
</linearGradient>
<linearGradient id="paint52_linear_44_280" x1="18.5164" y1="39.7187" x2="32.9747" y2="39.7187" gradientUnits="userSpaceOnUse">
<stop/>
<stop offset="1" stop-color="#FF955C"/>
</linearGradient>
<linearGradient id="paint53_linear_44_280" x1="25.7456" y1="51.4764" x2="25.7456" y2="48.594" gradientUnits="userSpaceOnUse">
<stop stop-color="#FF4B90"/>
<stop offset="1"/>
</linearGradient>
</defs>
</svg>
