<svg width="68" height="68" viewBox="0 0 68 68" fill="none" xmlns="http://www.w3.org/2000/svg">
<g filter="url(#filter0_d_37_18)">
<path d="M29.1003 1.83936C29.1003 1.83936 26.2808 3.88296 25.1462 8.42046C24.0115 12.958 30.5788 7.3467 30.5788 7.3467L29.1003 1.83936Z" fill="url(#paint0_linear_37_18)"/>
<path d="M26.6246 6.58476C26.6246 6.58476 28.7564 1.11205 30.7507 0.246118C32.745 -0.619817 35.6676 1.07742 35.6676 1.07742L26.6246 6.58476Z" fill="url(#paint1_linear_37_18)"/>
<path d="M51.0716 25.0812C45.914 30.5885 26.0401 27.7829 23.2894 23.9728C22.1891 22.4487 21.639 20.6476 21.5702 18.7079C21.2607 10.3949 29.6504 -0.238781 40.0688 0.592517C47.1175 1.14672 51.7937 8.00492 53.0315 14.6207C53.788 18.7425 53.2378 22.7951 51.0716 25.0812Z" fill="url(#paint2_linear_37_18)"/>
<path d="M46.6361 27.3671C44.0229 27.9559 40.1719 28.2677 37.6275 28.1291C32.9513 27.852 29.616 27.1246 27.7593 26.2587C26.5558 25.6699 25.9713 25.0464 26.1088 24.4576C26.1776 24.0766 27.106 23.7995 28.5845 23.6263C32.8825 23.1067 41.6848 23.3838 46.3954 24.3537C46.808 24.4576 47.1862 24.5268 47.4957 24.6307C47.5644 24.6654 47.6332 24.6654 47.702 24.7H47.7364C48.5272 24.9425 49.1117 25.2196 49.3524 25.5313C49.4212 25.6006 49.4556 25.7045 49.4899 25.7738C49.6275 26.4319 48.424 26.9515 46.6361 27.3671Z" fill="url(#paint3_linear_37_18)"/>
<path opacity="0.3" d="M51.0716 25.0812C45.914 30.5886 26.0401 27.7829 23.2894 23.9728C22.1891 22.4488 21.639 20.6476 21.5702 18.7079C21.5702 18.7079 22.7392 21.4097 26.7622 22.137C30.7851 22.8644 42.6132 22.9683 45.1232 21.3057C47.6332 19.6431 47.1519 11.4341 47.1519 11.4341L53.0315 14.6207C53.788 18.7426 53.2378 22.7951 51.0716 25.0812Z" fill="url(#paint4_linear_37_18)"/>
<path opacity="0.5" d="M46.6361 27.3671C44.6762 26.3626 38.8997 23.7302 34.1203 24.5268C28.2407 25.4967 27.7593 26.2587 27.7593 26.2587C26.5558 25.6699 25.9713 25.0464 26.1088 24.4576C26.1776 24.0766 27.106 23.7995 28.5845 23.6263C32.8825 23.1067 41.6848 23.3838 46.3954 24.3537C46.8768 24.4576 47.3237 24.5961 47.7364 24.7H47.7707C48.5616 24.9425 49.1461 25.2196 49.3868 25.5313C49.4556 25.6006 49.4899 25.7045 49.5243 25.7738C49.6275 26.4319 48.424 26.9515 46.6361 27.3671Z" fill="url(#paint5_linear_37_18)"/>
<path d="M47.4957 24.6309C46.3267 25.6354 40.9628 26.2588 37.937 26.0856C32.5043 25.7739 29.2722 24.7001 28.5502 23.6264C33.2608 23.0376 43.2321 23.4186 47.4957 24.6309Z" fill="url(#paint6_linear_37_18)"/>
<path d="M21.4671 19.0889C22.1547 21.6175 39.3123 23.5225 43.9542 19.4353C48.596 15.3481 45.3295 0.592556 36.149 1.38922C27.4155 2.15124 20.1948 14.4822 21.4671 19.0889Z" fill="#DFE3FB"/>
<path d="M21.5702 18.7077C22.2579 21.2363 39.4155 23.1413 44.0573 19.0541C48.6992 14.9669 45.3983 0.246 36.2178 1.00802C27.4843 1.77005 20.2636 14.101 21.5702 18.7077Z" fill="url(#paint7_linear_37_18)"/>
<path d="M45.4326 3.53658C45.4326 3.53658 44.5387 12.092 49.7994 15.0708C49.7994 15.0708 52.3782 15.3479 53.8567 13.7546C53.8567 13.7546 51.553 15.9714 49.0773 13.6853C46.6017 11.3993 47.1862 5.09526 49.0086 3.01702C50.8653 0.938775 53.5473 1.49297 53.5473 1.49297L52.4814 0.523127C52.4814 0.523127 48.5272 -0.273534 45.4326 3.53658Z" fill="url(#paint8_linear_37_18)"/>
<path d="M52.4814 0.52332C52.4814 0.52332 49.5587 0.280858 47.5645 3.67532C45.4327 7.31225 47.0143 13.547 49.6619 14.4822C52.2751 15.4174 54.8883 5.30328 54.8883 5.30328L53.341 1.28534C53.341 1.28534 53.0315 0.731144 52.4814 0.52332Z" fill="url(#paint9_linear_37_18)"/>
<path d="M56.2981 9.11324C55.9198 11.0529 55.1634 12.6463 54.0975 13.6854L53.788 13.9625C52.9284 14.6552 51.9313 15.0016 50.831 14.863C47.2895 14.4128 46.7737 9.25179 47.1863 6.34225C47.6677 2.94778 50.5216 0.904176 52.8253 1.18128C55.5416 1.52765 56.9857 5.30313 56.2981 9.11324Z" fill="url(#paint10_linear_37_18)"/>
<path d="M21.4671 16.3872C21.4671 16.3872 18.9914 16.9414 16.6533 18.8811C14.3152 20.8208 13.6963 23.1761 16.5846 22.9683L17.9255 22.1717C17.9255 22.1717 16.2063 22.4141 16.447 20.6476C16.6877 18.8811 21.4327 16.6989 21.4327 16.6989L21.4671 16.3872Z" fill="url(#paint11_linear_37_18)"/>
<path d="M16.0687 21.5135C15.2091 22.4141 16.8939 23.2107 18.3037 23.4532C19.8853 23.7303 22.7736 23.5571 22.6704 21.8945C22.6017 20.2665 18.0974 19.4352 16.0687 21.5135Z" fill="url(#paint12_linear_37_18)"/>
<path d="M16.1719 21.6867C16.1031 21.9638 21.8108 22.3101 22.0172 21.3056C22.1891 20.3358 16.6533 19.6777 16.1719 21.6867Z" fill="url(#paint13_linear_37_18)"/>
<path d="M36.2866 11.3301C36.149 11.5033 38.5215 9.9446 42.3038 11.434C42.7164 11.6072 38.7278 8.0049 36.2866 11.3301Z" fill="url(#paint14_linear_37_18)"/>
<path d="M24.3896 11.3646C24.2521 11.5378 25.5243 10.3255 28.8252 11.1221C29.2034 11.2261 26.5558 8.38578 24.3896 11.3646Z" fill="url(#paint15_linear_37_18)"/>
<path opacity="0.5" d="M26.3153 8.10885C26.6935 8.69768 29.96 7.00045 33.5359 7.38146C37.1118 7.76247 41.0316 11.2955 43.9543 10.8452C46.2924 10.4988 43.1978 2.08194 37.2838 1.31992C31.3697 0.557897 25.9371 7.52001 26.3153 8.10885Z" fill="url(#paint16_linear_37_18)"/>
<path opacity="0.5" d="M25.2493 19.4698C25.2493 19.4698 28.9627 18.4653 33.5702 18.9849C38.1776 19.5044 38.8997 19.9893 38.8309 20.4396C38.7622 20.8899 35.3925 21.7559 31.1977 21.3056C26.9685 20.8553 25.2493 19.4698 25.2493 19.4698Z" fill="url(#paint17_linear_37_18)"/>
<path opacity="0.5" d="M21.6734 18.0498C21.6734 18.0498 21.192 14.7938 24.1146 10.1871C24.1146 10.1871 24.7335 9.45969 25.043 9.73679C25.3524 9.94461 22.4298 13.3044 21.6734 18.0498Z" fill="url(#paint18_linear_37_18)"/>
<path opacity="0.72" d="M47.8052 10.4294C47.8052 10.4294 48.1834 13.5814 50.5215 14.2742C52.8252 14.9323 54.7163 13.2697 55.3009 10.8797C55.3009 10.8797 54.5788 12.9233 51.5874 12.4384C48.5272 11.9189 47.8052 10.4294 47.8052 10.4294Z" fill="url(#paint19_linear_37_18)"/>
<path opacity="0.72" d="M48.1833 4.43724C48.2177 5.02608 52.447 3.77913 53.7879 3.95232C55.1289 4.1255 55.7134 5.7881 55.9197 5.75346C56.126 5.71882 55.5415 1.8048 53.0315 1.5277C50.5558 1.28524 48.1833 4.05623 48.1833 4.43724Z" fill="url(#paint20_linear_37_18)"/>
<path d="M28.2751 14.6207C28.2751 14.6207 32.5044 14.7592 34.8769 14.1704C34.8769 14.1704 34.3267 18.1537 31.576 18.1537C28.8253 18.1537 28.2751 14.6207 28.2751 14.6207Z" fill="#2F95CD"/>
<path d="M28.1031 38.1047C28.1031 38.1047 21.02 42.1573 19.3696 41.9841C17.7191 41.811 18.4412 38.0008 18.4412 38.0008C18.6475 37.7237 18.9226 37.4813 19.1632 37.2042C21.8108 34.3639 26.3495 30.7616 28.9627 29.0644C30.063 28.337 30.8194 27.956 30.9569 28.0945C31.9541 29.1683 28.1031 38.1047 28.1031 38.1047Z" fill="url(#paint21_linear_37_18)"/>
<path d="M18.4413 38.0355C18.4413 38.0355 19.3697 37.2389 20.5043 38.3126C21.639 39.3518 20.47 41.8803 19.3697 42.0188C18.2694 42.1228 17.6161 39.6635 18.4413 38.0355Z" fill="url(#paint22_linear_37_18)"/>
<path opacity="0.3" d="M28.1031 38.1047C28.1031 38.1047 21.02 42.1573 19.3696 41.9841C17.7191 41.8109 18.4412 38.0008 18.4412 38.0008C18.6475 37.7237 18.9226 37.4812 19.1632 37.2041C19.1632 37.2041 20.8824 38.2433 24.0802 37.7237C27.2779 37.2388 28.9627 29.0297 28.9627 29.0297C30.063 28.3023 30.8194 27.9213 30.9569 28.0599C31.9541 29.1683 28.1031 38.1047 28.1031 38.1047Z" fill="url(#paint23_linear_37_18)"/>
<path d="M36.3553 51.3016C36.4585 52.8257 34.8424 57.952 33.192 59.5453C32.8825 59.8571 32.5387 60.0302 32.2636 59.9956C30.8883 59.9263 29.3066 53.657 28.6877 50.0547C28.447 48.6692 28.3782 47.6993 28.5158 47.6301C29.6504 47.1451 36.2522 49.5005 36.3553 51.3016Z" fill="url(#paint24_linear_37_18)"/>
<path d="M36.4584 51.7865C36.4584 51.7865 34.9799 52.9295 32.2292 52.0289C30.0973 51.3362 28.275 48.2535 28.5157 47.63C28.7564 47.0065 37.0085 49.3272 36.4584 51.7865Z" fill="url(#paint25_linear_37_18)"/>
<path opacity="0.3" d="M36.3553 51.3017C36.4585 52.8257 34.8424 57.952 33.192 59.5454C34.3267 57.7442 33.8797 54.4537 32.7794 53.1028C31.9542 52.0637 29.7192 50.6782 28.6877 50.0894C28.447 48.7039 28.3782 47.734 28.5158 47.6647C29.6504 47.1452 36.2522 49.5005 36.3553 51.3017Z" fill="url(#paint26_linear_37_18)"/>
<path d="M31.1632 53.5877C30.7506 53.553 31.0257 54.6961 31.0945 54.7654C31.1632 54.8346 31.3695 54.4536 31.3695 54.1419C31.4039 53.8301 31.3008 53.5877 31.1632 53.5877Z" fill="white"/>
<path d="M46.1891 42.0882C46.6017 47.7687 44.2636 50.9553 38.7966 52.514C33.4671 54.0381 28.4814 49.2235 28.1719 41.8803C27.9656 37.2043 28.1032 32.9785 29.6505 29.8958C30.5444 28.1639 31.851 26.7784 33.8453 25.9125C35.427 25.2198 37.0086 25.7047 38.5559 26.8823C42.5444 29.9304 45.8453 37.7239 46.1891 42.0882Z" fill="url(#paint27_linear_37_18)"/>
<path opacity="0.3" d="M40.3782 32.9438C40.3782 32.9438 42.1661 36.9271 42.9914 39.6981C43.9541 42.9887 43.0601 46.7295 43.0601 46.7295L46.2578 43.058C46.2578 43.058 46.3954 40.668 45.5358 38.5551C44.7106 36.4076 44.2292 35.4724 44.2292 35.4724L40.3782 32.9438Z" fill="url(#paint28_linear_37_18)"/>
<path d="M28.1031 42.8155C28.1031 42.8155 28.1375 38.4166 31.9542 37.2735C36.5272 35.888 41.1347 40.0792 41.8567 43.6122C42.6132 47.1452 42.51 50.7128 38.212 52.133C38.2808 52.133 30.1318 54.3844 28.1031 42.8155Z" fill="url(#paint29_linear_37_18)"/>
<path d="M28.3094 43.3004C28.3094 43.3004 28.3438 38.9014 32.1605 37.7584C36.7335 36.3729 41.341 40.564 42.063 44.097C42.8195 47.63 42.7163 51.1977 38.4183 52.6178C38.4527 52.6178 30.3037 54.8693 28.3094 43.3004Z" fill="url(#paint30_radial_37_18)"/>
<path d="M43.8166 36.7538C43.6103 36.8231 43.3696 36.7192 43.0601 36.4767C41.7192 35.4722 39.6217 32.0778 39.0028 29.9995C38.7621 29.2029 38.7621 28.614 39.106 28.4062C39.6905 28.1291 41.5472 29.8263 42.9914 32.5627C43.851 34.156 44.6418 36.4767 43.8166 36.7538Z" fill="url(#paint31_linear_37_18)"/>
<path d="M43.0258 36.4767C41.6848 35.4722 39.5874 32.0778 38.9685 29.9995C39.7937 30.5883 40.9628 31.9738 41.9599 33.8443C42.4413 34.6756 42.8539 35.6454 43.0258 36.4767Z" fill="#6340A2"/>
<path opacity="0.5" d="M38.5215 26.8477C38.5215 26.8477 33.5702 30.6578 31.3352 31.0388C29.169 31.4198 29.5816 29.9304 29.616 29.8611C30.51 28.1293 31.8166 26.7438 33.8108 25.8778C35.3925 25.1851 37.0086 25.67 38.5215 26.8477Z" fill="url(#paint32_linear_37_18)"/>
<path opacity="0.72" d="M28.6877 42.7808C29.5817 43.716 31.3353 41.6377 34.086 41.1528C36.8711 40.6679 38.7278 41.6724 39.3811 41.0489C40.0344 40.4254 36.4241 37.1349 32.2636 38.174C28.9284 39.0399 28.3782 42.469 28.6877 42.7808Z" fill="url(#paint33_linear_37_18)"/>
<path opacity="0.72" d="M34.6361 51.925C34.6361 51.925 36.1146 52.7217 37.9714 52.2368C39.8625 51.7518 40.2063 50.6434 40.2063 50.6434C40.2063 50.6434 39.2779 50.5395 38.0401 51.1976C36.8023 51.8557 35.5645 52.0289 34.6361 51.925Z" fill="url(#paint34_linear_37_18)"/>
<path d="M35.9083 31.2119C35.5988 31.3158 35.9426 34.6756 36.2521 34.7103C36.5616 34.7449 36.6991 33.9483 36.6303 32.8399C36.5959 31.7315 36.2177 31.108 35.9083 31.2119Z" fill="white"/>
<path d="M58.7049 41.2222C59.2207 43.3697 57.2264 44.7898 56.3668 44.7206C55.6104 44.6513 53.1003 43.7853 49.7995 41.4646C49.3181 41.1183 48.8024 40.7373 48.2866 40.3216C44.2637 37.1003 38.5559 30.1728 40.3783 29.4801C45.639 27.5058 58.1892 39.0747 58.7049 41.2222Z" fill="url(#paint35_linear_37_18)"/>
<path d="M54.6819 44.201C54.6819 44.201 53.7192 42.5385 54.8539 41.0837C55.9541 39.6289 58.533 40.7373 58.533 40.7373C58.533 40.7373 59.6332 42.5731 57.7077 43.7854C55.7822 44.9977 54.6819 44.201 54.6819 44.201Z" fill="url(#paint36_linear_37_18)"/>
<path opacity="0.3" d="M58.7049 41.2222C59.2207 43.3697 57.2264 44.7898 56.3668 44.7206C55.6104 44.6513 53.1004 43.7854 49.7995 41.4646C50.109 41.6378 52.2751 42.9887 53.2035 42.4345C54.2006 41.8457 54.4757 37.897 49.0774 33.2209C43.8511 28.6834 40.5846 29.4455 40.3783 29.5147C45.639 27.5058 58.1892 39.0747 58.7049 41.2222Z" fill="url(#paint37_linear_37_18)"/>
<path d="M55.6104 41.7764C56.298 41.049 57.9829 40.9451 58.8425 41.3608C59.7021 41.7764 62.4872 43.924 64 47.9765C64 47.9765 63.725 50.3665 62.1433 50.8168C60.9399 51.1632 58.8081 48.1844 57.2264 46.1061C55.6104 43.9932 54.4757 42.9541 55.6104 41.7764Z" fill="url(#paint38_linear_37_18)"/>
<path d="M62.4183 50.7474C62.4183 50.7474 58.6017 43.1272 54.9226 43.716C54.9226 43.716 55.6103 44.9284 57.8452 47.3183C60.0458 49.7083 61.6275 50.9899 62.4183 50.7474Z" fill="url(#paint39_linear_37_18)"/>
<path opacity="0.5" d="M59.8396 46.8681C59.8396 46.8681 59.9084 48.3575 59.5646 48.8771C59.2207 49.3966 58.7393 49.5005 58.7393 49.5005L58.1892 45.1362C58.1892 45.1362 59.3926 46.1061 59.8396 46.8681Z" fill="url(#paint40_linear_37_18)"/>
<path d="M58.1891 45.1362C58.1891 45.1362 56.4355 43.5428 54.957 43.9239C54.957 43.9239 54.6819 45.725 57.914 49.5698C57.914 49.5698 59.0831 49.9161 59.3238 48.5306C59.3238 48.5306 58.9799 46.6256 58.1891 45.1362Z" fill="url(#paint41_linear_37_18)"/>
<path d="M57.0545 44.963C57.4327 44.6859 58.1204 46.7988 57.8797 46.9373C57.639 47.0066 56.7107 45.2055 57.0545 44.963Z" fill="white"/>
<path d="M45.2264 35.611C44.7794 36.477 46.2579 37.1004 46.6362 36.9619C47.0144 36.858 45.5359 35.0568 45.2264 35.611Z" fill="white"/>
<path d="M46.9456 37.3082C46.808 37.4121 47.3926 37.9663 47.5645 38.0355C47.8395 38.2087 48.3897 38.278 48.4241 38.1741C48.4241 38.0702 47.1175 37.1696 46.9456 37.3082Z" fill="white"/>
<path d="M21.7078 35.3338C21.7765 35.5763 23.4613 34.8143 23.4613 34.0869C23.4613 33.3942 21.6046 34.9875 21.7078 35.3338Z" fill="white"/>
<path d="M51.6217 58.333C51.3123 58.6448 50.7621 58.6101 50.0744 58.4023C49.318 58.1599 48.3552 57.6749 47.3925 57.0515C44.6418 55.3542 41.6504 52.6871 41.4785 51.9251C40.9283 49.258 43.6103 45.8289 45.3295 44.1317C45.9828 43.4736 46.5329 43.0579 46.636 43.0926C47.0487 43.1272 53.1346 56.809 51.6217 58.333Z" fill="url(#paint42_linear_37_18)"/>
<path opacity="0.3" d="M51.6217 58.333C51.3122 58.6447 50.7621 58.6101 50.0744 58.4023L47.3925 57.0514C47.6332 57.1553 50.5558 58.333 49.5587 54.1072C48.5271 49.7083 45.1919 44.4434 45.1919 44.4434L45.295 44.097C45.9483 43.4389 46.4985 43.0233 46.6016 43.0579C47.0486 43.1272 53.1346 56.809 51.6217 58.333Z" fill="url(#paint43_linear_37_18)"/>
<path d="M43.6103 51.0245C42.957 51.4401 44.573 52.791 44.745 52.791C44.9169 52.791 44.8137 52.029 44.5043 51.5441C44.2292 51.1284 43.8166 50.8859 43.6103 51.0245Z" fill="white"/>
<path d="M44.9512 52.9295C44.8481 53.0681 45.3638 53.5184 45.4326 53.3452C45.5014 53.2066 45.3982 52.9295 45.2951 52.8603C45.1919 52.8256 45.02 52.8603 44.9512 52.9295Z" fill="white"/>
<path d="M13.4556 38.6935C13.49 38.9706 15.4843 38.0354 15.4843 37.6891C15.4843 37.3427 13.4212 38.2086 13.4556 38.6935Z" fill="white"/>
<path d="M9.46704 42.2614C9.46704 42.2614 9.50143 42.8849 9.84526 43.5776C9.84526 43.5776 10.8424 44.2703 12.7335 44.1664C14.659 44.0972 18.6132 42.0536 19.1633 41.7072C19.7135 41.3262 19.9885 40.2178 19.9885 40.2178L9.46704 42.2614Z" fill="url(#paint44_linear_37_18)"/>
<path d="M19.851 38.1395C18.8882 37.7585 16.3782 38.278 14.8653 38.8669C13.318 39.4211 10.8424 41.1876 9.46704 42.2613C9.46704 42.2613 9.50142 43.3005 11.4957 43.5429C13.49 43.7854 18.8882 41.4993 19.7822 40.5295C20.6762 39.525 19.851 38.1395 19.851 38.1395Z" fill="url(#paint45_linear_37_18)"/>
<path d="M12.9398 39.8366C12.9398 39.8366 16.3438 39.3863 18.063 38.0701C18.063 38.0701 15.1404 37.9316 12.9398 39.8366Z" fill="url(#paint46_linear_37_18)"/>
<path d="M17.5472 38.1395C17.5472 38.1395 15.5529 39.3172 13.4555 39.3865C13.4555 39.3865 11.3237 39.4211 11.2206 39.1787C11.1174 38.9362 11.0486 38.001 11.5988 37.7585C12.1145 37.4814 15.7936 37.0658 17.5472 38.1395Z" fill="url(#paint47_linear_37_18)"/>
<path d="M13.2493 39.7673C13.2493 39.7673 15.7937 39.9405 18.5444 41.3607L18.8539 41.1875C18.8539 41.1875 16.8596 39.7673 13.2493 39.7673Z" fill="url(#paint48_linear_37_18)"/>
<path d="M8.64181 21.3405C8.64181 21.3405 10.1547 21.0634 11.7364 21.8947C11.7364 21.8947 15.2091 23.9729 14.8997 30.7272C14.5902 37.5508 11.6332 39.0402 11.6332 39.0402C11.6332 39.0402 9.36387 40.01 8.19482 39.4905C7.02576 38.9363 8.64181 21.3405 8.64181 21.3405Z" fill="url(#paint49_linear_37_18)"/>
<path d="M8.64183 39.4557C11.2054 39.4557 13.2837 35.3926 13.2837 30.3807C13.2837 25.3687 11.2054 21.3057 8.64183 21.3057C6.07822 21.3057 4 25.3687 4 30.3807C4 35.3926 6.07822 39.4557 8.64183 39.4557Z" fill="#FF7AE8"/>
<path d="M8.5043 39.4557C10.992 39.4557 13.0086 35.3926 13.0086 30.3807C13.0086 25.3687 10.992 21.3057 8.5043 21.3057C6.01664 21.3057 4 25.3687 4 30.3807C4 35.3926 6.01664 39.4557 8.5043 39.4557Z" fill="url(#paint50_linear_37_18)"/>
<path d="M12.149 30.3807C12.149 34.3293 10.5329 37.516 8.53866 37.516C8.26359 37.516 7.98852 37.4467 7.74783 37.3428C6.13178 36.65 4.92834 33.7751 4.92834 30.3807C4.92834 26.432 6.54439 23.2454 8.53866 23.2454C8.95127 23.2454 9.36388 23.3839 9.7421 23.661C11.1518 24.6655 12.149 27.2979 12.149 30.3807Z" fill="url(#paint51_linear_37_18)"/>
<path d="M12.149 30.3806C12.149 34.3293 10.533 37.5159 8.53869 37.5159C8.26362 37.5159 7.98855 37.4467 7.74786 37.3428C6.3725 36.3729 5.37537 33.7405 5.37537 30.6231C5.37537 26.6744 6.99141 23.4878 8.98568 23.4878C9.26075 23.4878 9.50144 23.5571 9.77651 23.661C11.1519 24.6655 12.149 27.2979 12.149 30.3806Z" fill="url(#paint52_linear_37_18)"/>
<path d="M10.7048 28.4064C10.7048 28.6142 10.6704 28.8567 10.6361 29.0645C10.6017 29.3069 10.5329 29.5148 10.4298 29.7226C10.3266 29.9304 10.1891 30.1382 10.0515 30.3114C9.914 30.4846 9.7077 30.6232 9.50139 30.7617C9.7077 30.8656 9.87962 30.9695 9.98277 31.1081C10.0859 31.2466 10.1891 31.3852 10.2578 31.5237C10.3266 31.6623 10.361 31.8008 10.361 31.9394C10.3954 32.0779 10.3954 32.1818 10.3954 32.2511C10.3954 32.5282 10.361 32.736 10.2922 32.9439C10.2235 33.1171 10.1203 33.2902 9.98277 33.4288C9.84523 33.5673 9.74208 33.6713 9.57016 33.7405C9.43263 33.8098 9.26071 33.8791 9.12317 33.9137C8.98563 33.9484 8.8481 33.983 8.71056 33.983C8.57303 33.983 8.46988 34.0176 8.40111 34.0176C8.29796 34.0176 8.1948 34.0176 8.09165 33.983C7.9885 33.983 7.91973 33.9484 7.81658 33.9137C7.71343 33.8791 7.64466 33.8444 7.54151 33.8098C7.57589 33.1517 7.57589 32.4936 7.57589 31.8355C7.57589 30.9349 7.54151 30.069 7.50712 29.1684C7.47274 28.3025 7.40397 27.4019 7.33521 26.5359C7.50712 26.5013 7.64466 26.432 7.81658 26.432C7.9885 26.3974 8.12604 26.3974 8.22919 26.3628C8.36672 26.3628 8.50426 26.3281 8.6418 26.3281C8.74495 26.3281 8.88248 26.3281 9.02002 26.3628C9.15755 26.3974 9.29509 26.432 9.46701 26.5013C9.60455 26.5706 9.77647 26.6399 9.914 26.7438C10.0515 26.8477 10.1891 26.9862 10.2922 27.1248C10.3954 27.2633 10.4985 27.4712 10.5673 27.679C10.6704 27.8868 10.7048 28.1293 10.7048 28.4064ZM9.43263 32.0779C9.43263 31.9047 9.39824 31.7662 9.32947 31.6276C9.29509 31.5584 9.26071 31.5237 9.22632 31.4545C9.19194 31.3852 9.15755 31.3505 9.08879 31.2813C9.02002 31.2466 8.95125 31.1774 8.88248 31.1427C8.81372 31.1081 8.71056 31.0734 8.60741 31.0734C8.60741 31.4545 8.57303 31.8008 8.57303 32.1472C8.57303 32.4936 8.57303 32.8746 8.57303 33.221C8.67618 33.1863 8.77933 33.1517 8.8481 33.0824C8.91687 33.0131 8.98563 32.9785 9.0544 32.9092C9.12317 32.84 9.15755 32.7707 9.19194 32.736C9.22632 32.6668 9.26071 32.5975 9.29509 32.5282C9.36386 32.3897 9.39824 32.2511 9.43263 32.0779ZM9.7077 28.6142C9.7077 28.6142 9.7077 28.5796 9.7077 28.5103C9.7077 28.441 9.7077 28.3717 9.67331 28.2678C9.67331 28.1639 9.63893 28.06 9.60455 27.9561C9.57016 27.8522 9.50139 27.7136 9.43263 27.6097C9.36386 27.5058 9.26071 27.4019 9.15755 27.3326C9.0544 27.2633 8.88248 27.1941 8.71056 27.1941C8.67618 27.7829 8.67618 28.3371 8.6418 28.9259C8.60741 29.4801 8.60741 30.069 8.60741 30.6578C8.74495 30.6232 8.8481 30.5539 8.95125 30.45C9.0544 30.3807 9.12317 30.2768 9.22632 30.1729C9.29509 30.069 9.36386 29.9651 9.39824 29.8611C9.46701 29.7572 9.50139 29.6187 9.53578 29.5148C9.63893 29.2377 9.67331 28.9259 9.7077 28.6142Z" fill="url(#paint53_linear_37_18)"/>
<path d="M9.05446 25.1851H8.22925V26.5706H9.05446V25.1851Z" fill="url(#paint54_linear_37_18)"/>
<path d="M9.05446 33.5327H8.22925V35.0914H9.05446V33.5327Z" fill="url(#paint55_linear_37_18)"/>
<path d="M10.2234 28.337C10.2234 28.5449 10.189 28.7873 10.1547 28.9951C10.1203 29.2376 10.0515 29.4454 9.94836 29.6533C9.8452 29.8611 9.70767 30.0689 9.57013 30.2421C9.4326 30.4153 9.22629 30.5538 9.01999 30.6924C9.22629 30.7963 9.39821 30.9002 9.50136 31.0387C9.60452 31.1773 9.70767 31.3158 9.77644 31.4544C9.8452 31.5929 9.87959 31.7315 9.87959 31.87C9.91397 32.0086 9.91397 32.1125 9.91397 32.1818C9.91397 32.4589 9.87959 32.6667 9.81082 32.8745C9.74205 33.0477 9.6389 33.2209 9.50136 33.3595C9.36383 33.498 9.26068 33.6019 9.08876 33.6712C8.95122 33.7405 8.7793 33.8097 8.64177 33.8444C8.50423 33.879 8.36669 33.9137 8.22916 33.9137C8.09162 33.9137 7.98847 33.9483 7.9197 33.9483C7.81655 33.9483 7.7134 33.9483 7.61025 33.9137C7.50709 33.9137 7.43833 33.879 7.33518 33.8444C7.23202 33.8097 7.16326 33.7751 7.0601 33.7405C7.09449 33.0824 7.09449 32.4242 7.09449 31.7661C7.12887 30.8309 7.09449 29.965 7.0601 29.0991C7.02572 28.2331 6.95695 27.3325 6.88818 26.4666C7.0601 26.432 7.19764 26.3627 7.36956 26.3627C7.54148 26.3281 7.67901 26.3281 7.78217 26.2934C7.9197 26.2934 8.05724 26.2588 8.19477 26.2588C8.29793 26.2588 8.43546 26.2588 8.573 26.2934C8.71053 26.3281 8.84807 26.3627 9.01999 26.432C9.15752 26.5013 9.32944 26.5705 9.46698 26.6744C9.60452 26.7783 9.74205 26.9169 9.8452 27.0554C9.94836 27.194 10.0515 27.4018 10.1203 27.6096C10.189 27.8175 10.2234 28.0599 10.2234 28.337ZM8.91684 32.0432C8.91684 31.87 8.88245 31.7315 8.81369 31.5929C8.7793 31.5237 8.74492 31.489 8.71053 31.4198C8.67615 31.3505 8.64177 31.3158 8.573 31.2466C8.50423 31.2119 8.43546 31.1427 8.36669 31.108C8.29793 31.0734 8.19477 31.0387 8.09162 31.0387C8.09162 31.4198 8.05724 31.7661 8.05724 32.1125C8.05724 32.4589 8.05724 32.8399 8.05724 33.1863C8.16039 33.1516 8.26354 33.117 8.33231 33.0477C8.40108 32.9784 8.46985 32.9438 8.53861 32.8745C8.60738 32.8053 8.64177 32.736 8.67615 32.7013C8.71053 32.6321 8.74492 32.5628 8.7793 32.4935C8.88245 32.355 8.91684 32.1818 8.91684 32.0432ZM9.19191 28.5795C9.19191 28.5795 9.19191 28.5449 9.19191 28.4756C9.19191 28.4063 9.19191 28.337 9.15752 28.2331C9.15752 28.1292 9.12314 28.0253 9.08876 27.9214C9.05437 27.8175 8.98561 27.6789 8.91684 27.575C8.84807 27.4711 8.74492 27.3672 8.64177 27.2979C8.53861 27.2286 8.36669 27.1594 8.19477 27.1594C8.16039 27.7482 8.16039 28.3024 8.12601 28.8912C8.09162 29.4454 8.09162 30.0343 8.09162 30.6231C8.22916 30.5885 8.33231 30.5192 8.43546 30.4153C8.53861 30.346 8.60738 30.2421 8.71053 30.1382C8.7793 30.0343 8.84807 29.9304 8.88245 29.8264C8.95122 29.7225 8.98561 29.584 9.01999 29.4801C9.12314 29.1683 9.19191 28.8912 9.19191 28.5795Z" fill="#FF7AE8"/>
<path d="M8.53872 25.1157H7.7135V26.5012H8.53872V25.1157Z" fill="#FF7AE8"/>
<path d="M8.53872 33.4634H7.7135V35.0221H8.53872V33.4634Z" fill="#FF7AE8"/>
<path opacity="0.3" d="M4.06873 31.8354L12.4584 25.1504C12.4584 25.1504 13.1461 26.9515 13.2492 28.6834L4.37818 33.9137C4.37818 33.9137 4.10311 32.4935 4.06873 31.8354Z" fill="url(#paint56_linear_37_18)"/>
<path opacity="0.72" d="M12.4585 25.1158L14.1089 24.9773C14.1089 24.9773 14.8654 26.8477 14.9341 28.5103L13.2837 28.6835C13.2493 28.6835 12.9743 26.3282 12.4585 25.1158Z" fill="url(#paint57_linear_37_18)"/>
<path opacity="0.5" d="M11.5989 37.4468H13.1805C13.1805 37.4468 12.4585 38.5552 11.6676 39.0055L10.2235 38.9362C10.2235 38.9362 11.0831 38.3473 11.5989 37.4468Z" fill="#C44FE5"/>
<path opacity="0.72" d="M10.4642 22.033C10.4642 22.033 11.8396 22.2062 12.5272 22.5179C12.5272 22.5179 12.0802 21.9984 11.8052 21.8945C11.5301 21.7559 10.3954 21.2017 8.64185 21.3056C8.64185 21.3403 9.63898 21.4095 10.4642 22.033Z" fill="url(#paint58_linear_37_18)"/>
<path d="M13.1461 42.7809C13.1461 42.7809 14.2808 42.0882 15.4842 42.1575C15.4842 42.1921 13.8682 42.9195 13.1461 42.7809Z" fill="white"/>
</g>
<defs>
<filter id="filter0_d_37_18" x="0" y="0" width="68" height="68" filterUnits="userSpaceOnUse" color-interpolation-filters="sRGB">
<feFlood flood-opacity="0" result="BackgroundImageFix"/>
<feColorMatrix in="SourceAlpha" type="matrix" values="0 0 0 0 0 0 0 0 0 0 0 0 0 0 0 0 0 0 127 0" result="hardAlpha"/>
<feOffset dy="4"/>
<feGaussianBlur stdDeviation="2"/>
<feComposite in2="hardAlpha" operator="out"/>
<feColorMatrix type="matrix" values="0 0 0 0 0 0 0 0 0 0 0 0 0 0 0 0 0 0 0.25 0"/>
<feBlend mode="normal" in2="BackgroundImageFix" result="effect1_dropShadow_37_18"/>
<feBlend mode="normal" in="SourceGraphic" in2="effect1_dropShadow_37_18" result="shape"/>
</filter>
<linearGradient id="paint0_linear_37_18" x1="27.3387" y1="10.5278" x2="29.0313" y2="1.81249" gradientUnits="userSpaceOnUse">
<stop stop-color="#45FFCD"/>
<stop offset="1" stop-color="#22E0FF"/>
</linearGradient>
<linearGradient id="paint1_linear_37_18" x1="30.4697" y1="7.32901" x2="31.9147" y2="-0.11122" gradientUnits="userSpaceOnUse">
<stop stop-color="#B9ACF4"/>
<stop offset="1" stop-color="#E1D1F5"/>
</linearGradient>
<linearGradient id="paint2_linear_37_18" x1="34.1003" y1="28.5317" x2="43.0721" y2="1.23618" gradientUnits="userSpaceOnUse">
<stop stop-color="#CBC1F7"/>
<stop offset="1" stop-color="#E8DCF7"/>
</linearGradient>
<linearGradient id="paint3_linear_37_18" x1="26.3093" y1="23.4124" x2="49.1473" y2="27.7831" gradientUnits="userSpaceOnUse">
<stop stop-color="#8879EA"/>
<stop offset="1" stop-color="#9E8CEF"/>
</linearGradient>
<linearGradient id="paint4_linear_37_18" x1="35.7118" y1="28.1998" x2="39.2621" y2="9.91906" gradientUnits="userSpaceOnUse">
<stop stop-color="#9D68C2"/>
<stop offset="1" stop-color="#CCEDFF"/>
</linearGradient>
<linearGradient id="paint5_linear_37_18" x1="37.2509" y1="28.0925" x2="38.2834" y2="22.7762" gradientUnits="userSpaceOnUse">
<stop stop-color="#8DA4E5"/>
<stop offset="1" stop-color="#755CBB"/>
</linearGradient>
<linearGradient id="paint6_linear_37_18" x1="37.6416" y1="26.3383" x2="38.2906" y2="22.8426" gradientUnits="userSpaceOnUse">
<stop stop-color="#5E36CC"/>
<stop offset="1" stop-color="#6C4A96"/>
</linearGradient>
<linearGradient id="paint7_linear_37_18" x1="32.543" y1="21.9894" x2="36.6594" y2="0.793584" gradientUnits="userSpaceOnUse">
<stop stop-color="#0665BD"/>
<stop offset="1" stop-color="#1A1F77"/>
</linearGradient>
<linearGradient id="paint8_linear_37_18" x1="49.6503" y1="15.0909" x2="49.5766" y2="0.470184" gradientUnits="userSpaceOnUse">
<stop stop-color="#B9ACF4"/>
<stop offset="1" stop-color="#E1D1F5"/>
</linearGradient>
<linearGradient id="paint9_linear_37_18" x1="50.7594" y1="14.5303" x2="50.6889" y2="0.532735" gradientUnits="userSpaceOnUse">
<stop stop-color="#BE9DEA"/>
<stop offset="1" stop-color="#9E8CEF"/>
</linearGradient>
<linearGradient id="paint10_linear_37_18" x1="51.8099" y1="14.8725" x2="51.7408" y2="1.15216" gradientUnits="userSpaceOnUse">
<stop stop-color="#45FFCD"/>
<stop offset="1" stop-color="#22E0FF"/>
</linearGradient>
<linearGradient id="paint11_linear_37_18" x1="16.685" y1="23.2932" x2="19.1979" y2="15.6481" gradientUnits="userSpaceOnUse">
<stop stop-color="#BE9DEA"/>
<stop offset="1" stop-color="#9E8CEF"/>
</linearGradient>
<linearGradient id="paint12_linear_37_18" x1="18.7878" y1="23.6429" x2="19.8216" y2="20.1473" gradientUnits="userSpaceOnUse">
<stop stop-color="#DD1A8F"/>
<stop offset="1" stop-color="#FE117E"/>
</linearGradient>
<linearGradient id="paint13_linear_37_18" x1="19.0546" y1="22.0268" x2="19.1459" y2="20.3615" gradientUnits="userSpaceOnUse">
<stop stop-color="#D93DE3"/>
<stop offset="1" stop-color="#FF6DBA"/>
</linearGradient>
<linearGradient id="paint14_linear_37_18" x1="39.228" y1="11.9287" x2="39.6056" y2="9.9844" gradientUnits="userSpaceOnUse">
<stop stop-color="#45FFCD"/>
<stop offset="1" stop-color="#22E0FF"/>
</linearGradient>
<linearGradient id="paint15_linear_37_18" x1="26.5114" y1="11.7939" x2="26.8619" y2="9.98921" gradientUnits="userSpaceOnUse">
<stop stop-color="#45FFCD"/>
<stop offset="1" stop-color="#22E0FF"/>
</linearGradient>
<linearGradient id="paint16_linear_37_18" x1="27.1022" y1="3.82664" x2="45.2041" y2="7.29095" gradientUnits="userSpaceOnUse">
<stop/>
<stop offset="1" stop-color="#6A9BFF"/>
</linearGradient>
<linearGradient id="paint17_linear_37_18" x1="25.4025" y1="18.7636" x2="38.6676" y2="21.3023" gradientUnits="userSpaceOnUse">
<stop/>
<stop offset="1" stop-color="#6A9BFF"/>
</linearGradient>
<linearGradient id="paint18_linear_37_18" x1="22.4108" y1="18.1826" x2="24.1002" y2="9.4841" gradientUnits="userSpaceOnUse">
<stop/>
<stop offset="1" stop-color="#6A9BFF"/>
</linearGradient>
<linearGradient id="paint19_linear_37_18" x1="51.5469" y1="14.4255" x2="51.5267" y2="10.4184" gradientUnits="userSpaceOnUse">
<stop stop-color="#D4E2FF"/>
<stop offset="1"/>
</linearGradient>
<linearGradient id="paint20_linear_37_18" x1="48.1866" y1="3.67982" x2="55.9804" y2="3.64114" gradientUnits="userSpaceOnUse">
<stop/>
<stop offset="1" stop-color="#D4E2FF"/>
</linearGradient>
<linearGradient id="paint21_linear_37_18" x1="23.6548" y1="42.5393" x2="25.5715" y2="27.3903" gradientUnits="userSpaceOnUse">
<stop stop-color="#CBC1F7"/>
<stop offset="1" stop-color="#D4BEF1"/>
</linearGradient>
<linearGradient id="paint22_linear_37_18" x1="19.7607" y1="41.9575" x2="19.3273" y2="37.7342" gradientUnits="userSpaceOnUse">
<stop stop-color="#BE9DEA"/>
<stop offset="1" stop-color="#9E8CEF"/>
</linearGradient>
<linearGradient id="paint23_linear_37_18" x1="24.7089" y1="42.0022" x2="24.7089" y2="28.0643" gradientUnits="userSpaceOnUse">
<stop stop-color="#9D68C2"/>
<stop offset="1" stop-color="#CCEDFF"/>
</linearGradient>
<linearGradient id="paint24_linear_37_18" x1="32.6707" y1="60.0087" x2="32.3396" y2="47.483" gradientUnits="userSpaceOnUse">
<stop stop-color="#CBC1F7"/>
<stop offset="1" stop-color="#E8DCF7"/>
</linearGradient>
<linearGradient id="paint25_linear_37_18" x1="28.8611" y1="50.3905" x2="36.1416" y2="49.2896" gradientUnits="userSpaceOnUse">
<stop stop-color="#8879EA"/>
<stop offset="1" stop-color="#9E8CEF"/>
</linearGradient>
<linearGradient id="paint26_linear_37_18" x1="33.8469" y1="59.4499" x2="31.9503" y2="47.0909" gradientUnits="userSpaceOnUse">
<stop stop-color="#9D68C2"/>
<stop offset="1" stop-color="#CCEDFF"/>
</linearGradient>
<linearGradient id="paint27_linear_37_18" x1="38.8839" y1="52.5521" x2="34.3959" y2="25.7113" gradientUnits="userSpaceOnUse">
<stop stop-color="#CBC1F7"/>
<stop offset="1" stop-color="#E8DCF7"/>
</linearGradient>
<linearGradient id="paint28_linear_37_18" x1="45.3006" y1="46.0569" x2="41.2878" y2="32.6801" gradientUnits="userSpaceOnUse">
<stop stop-color="#9D68C2"/>
<stop offset="1" stop-color="#CCEDFF"/>
</linearGradient>
<linearGradient id="paint29_linear_37_18" x1="29.057" y1="46.5326" x2="41.6718" y2="42.8036" gradientUnits="userSpaceOnUse">
<stop stop-color="#BE9DEA"/>
<stop offset="1" stop-color="#9E8CEF"/>
</linearGradient>
<radialGradient id="paint30_radial_37_18" cx="0" cy="0" r="1" gradientUnits="userSpaceOnUse" gradientTransform="translate(37.3243 50.3634) rotate(-16.6983) scale(9.94146 10.0027)">
<stop stop-color="#45FFCD"/>
<stop offset="1" stop-color="#22E0FF"/>
</radialGradient>
<linearGradient id="paint31_linear_37_18" x1="39.8986" y1="33.0486" x2="43.1465" y2="32.0885" gradientUnits="userSpaceOnUse">
<stop stop-color="#8879EA"/>
<stop offset="1" stop-color="#9E8CEF"/>
</linearGradient>
<linearGradient id="paint32_linear_37_18" x1="34.4969" y1="30.1266" x2="33.2654" y2="26.0216" gradientUnits="userSpaceOnUse">
<stop stop-color="#8DA4E5"/>
<stop offset="1" stop-color="#755CBB"/>
</linearGradient>
<linearGradient id="paint33_linear_37_18" x1="28.394" y1="41.8756" x2="38.8611" y2="38.7815" gradientUnits="userSpaceOnUse">
<stop/>
<stop offset="1" stop-color="#D4E2FF"/>
</linearGradient>
<linearGradient id="paint34_linear_37_18" x1="37.7386" y1="52.3254" x2="37.3742" y2="51.1107" gradientUnits="userSpaceOnUse">
<stop stop-color="#D4E2FF"/>
<stop offset="1"/>
</linearGradient>
<linearGradient id="paint35_linear_37_18" x1="53.7942" y1="45.9842" x2="45.5379" y2="27.2059" gradientUnits="userSpaceOnUse">
<stop stop-color="#CBC1F7"/>
<stop offset="1" stop-color="#E8DCF7"/>
</linearGradient>
<linearGradient id="paint36_linear_37_18" x1="57.4527" y1="43.9364" x2="55.4411" y2="40.5783" gradientUnits="userSpaceOnUse">
<stop stop-color="#BE9DEA"/>
<stop offset="1" stop-color="#9E8CEF"/>
</linearGradient>
<linearGradient id="paint37_linear_37_18" x1="55.5612" y1="45.4612" x2="44.5065" y2="27.007" gradientUnits="userSpaceOnUse">
<stop stop-color="#9D68C2"/>
<stop offset="1" stop-color="#CCEDFF"/>
</linearGradient>
<linearGradient id="paint38_linear_37_18" x1="63.6693" y1="49.6286" x2="55.8645" y2="41.5249" gradientUnits="userSpaceOnUse">
<stop stop-color="#CBC1F7"/>
<stop offset="1" stop-color="#E8DCF7"/>
</linearGradient>
<linearGradient id="paint39_linear_37_18" x1="61.7899" y1="51.2262" x2="55.7332" y2="43.1172" gradientUnits="userSpaceOnUse">
<stop stop-color="#BE9DEA"/>
<stop offset="1" stop-color="#9E8CEF"/>
</linearGradient>
<linearGradient id="paint40_linear_37_18" x1="59.7678" y1="48.8264" x2="57.4259" y2="45.6909" gradientUnits="userSpaceOnUse">
<stop stop-color="#8DA4E5"/>
<stop offset="1" stop-color="#755CBB"/>
</linearGradient>
<linearGradient id="paint41_linear_37_18" x1="59.4483" y1="48.8342" x2="54.8311" y2="44.0403" gradientUnits="userSpaceOnUse">
<stop stop-color="#CBC1F7"/>
<stop offset="1" stop-color="#E8DCF7"/>
</linearGradient>
<linearGradient id="paint42_linear_37_18" x1="47.7076" y1="59.2841" x2="44.3393" y2="43.5546" gradientUnits="userSpaceOnUse">
<stop stop-color="#CBC1F7"/>
<stop offset="1" stop-color="#E8DCF7"/>
</linearGradient>
<linearGradient id="paint43_linear_37_18" x1="50.4416" y1="58.8159" x2="45.1116" y2="43.5877" gradientUnits="userSpaceOnUse">
<stop stop-color="#9D68C2"/>
<stop offset="1" stop-color="#CCEDFF"/>
</linearGradient>
<linearGradient id="paint44_linear_37_18" x1="16.3501" y1="43.8016" x2="13.1438" y2="39.5086" gradientUnits="userSpaceOnUse">
<stop stop-color="#BE9DEA"/>
<stop offset="1" stop-color="#9E8CEF"/>
</linearGradient>
<linearGradient id="paint45_linear_37_18" x1="14.461" y1="43.9192" x2="15.2737" y2="37.4956" gradientUnits="userSpaceOnUse">
<stop stop-color="#E8DCF7"/>
<stop offset="1" stop-color="#CBC1F7"/>
</linearGradient>
<linearGradient id="paint46_linear_37_18" x1="15.9818" y1="39.603" x2="14.9844" y2="38.2675" gradientUnits="userSpaceOnUse">
<stop stop-color="#BE9DEA"/>
<stop offset="1" stop-color="#9E8CEF"/>
</linearGradient>
<linearGradient id="paint47_linear_37_18" x1="14.1708" y1="39.6203" x2="14.4541" y2="37.3818" gradientUnits="userSpaceOnUse">
<stop stop-color="#CBC1F7"/>
<stop offset="1" stop-color="#E8DCF7"/>
</linearGradient>
<linearGradient id="paint48_linear_37_18" x1="13.8981" y1="38.8814" x2="18.2339" y2="42.0432" gradientUnits="userSpaceOnUse">
<stop stop-color="#BE9DEA"/>
<stop offset="1" stop-color="#9E8CEF"/>
</linearGradient>
<linearGradient id="paint49_linear_37_18" x1="11.3598" y1="39.6019" x2="11.3598" y2="21.2909" gradientUnits="userSpaceOnUse">
<stop stop-color="#DD1A8F"/>
<stop offset="1" stop-color="#FE117E"/>
</linearGradient>
<linearGradient id="paint50_linear_37_18" x1="6.7784" y1="39.154" x2="10.2883" y2="21.6444" gradientUnits="userSpaceOnUse">
<stop stop-color="#D93DE3"/>
<stop offset="1" stop-color="#FF6DBA"/>
</linearGradient>
<linearGradient id="paint51_linear_37_18" x1="7.18194" y1="37.2892" x2="9.94504" y2="23.5051" gradientUnits="userSpaceOnUse">
<stop stop-color="#DD1A8F"/>
<stop offset="1" stop-color="#FE117E"/>
</linearGradient>
<linearGradient id="paint52_linear_37_18" x1="7.40866" y1="37.3346" x2="10.142" y2="23.6989" gradientUnits="userSpaceOnUse">
<stop stop-color="#D93DE3"/>
<stop offset="1" stop-color="#E652AD"/>
</linearGradient>
<linearGradient id="paint53_linear_37_18" x1="7.38936" y1="30.1402" x2="10.7192" y2="30.1402" gradientUnits="userSpaceOnUse">
<stop stop-color="#DD1A8F"/>
<stop offset="1" stop-color="#FE117E"/>
</linearGradient>
<linearGradient id="paint54_linear_37_18" x1="8.21972" y1="25.8662" x2="9.05436" y2="25.8662" gradientUnits="userSpaceOnUse">
<stop stop-color="#DD1A8F"/>
<stop offset="1" stop-color="#FE117E"/>
</linearGradient>
<linearGradient id="paint55_linear_37_18" x1="8.21972" y1="34.2965" x2="9.05436" y2="34.2965" gradientUnits="userSpaceOnUse">
<stop stop-color="#DD1A8F"/>
<stop offset="1" stop-color="#FE117E"/>
</linearGradient>
<linearGradient id="paint56_linear_37_18" x1="4.05762" y1="29.5214" x2="13.2322" y2="29.5214" gradientUnits="userSpaceOnUse">
<stop/>
<stop offset="1" stop-color="#FF955C"/>
</linearGradient>
<linearGradient id="paint57_linear_37_18" x1="12.4462" y1="26.8252" x2="14.8915" y2="26.8252" gradientUnits="userSpaceOnUse">
<stop/>
<stop offset="1" stop-color="#FF955C"/>
</linearGradient>
<linearGradient id="paint58_linear_37_18" x1="8.65849" y1="21.9329" x2="12.5549" y2="21.9329" gradientUnits="userSpaceOnUse">
<stop/>
<stop offset="1" stop-color="#FF955C"/>
</linearGradient>
</defs>
</svg>
