<svg width="73" height="60" viewBox="0 0 73 60" fill="none" xmlns="http://www.w3.org/2000/svg">
<path d="M39.4737 52.0612C39.4737 52.0612 31.8799 55.3641 30.4829 54.0358C28.9785 52.5997 34.0649 45.886 35.7126 45.886C38.1484 45.886 39.7245 51.0918 39.4737 52.0612Z" fill="url(#paint0_linear_49_1582)"/>
<path opacity="0.3" d="M34.4589 46.7117C34.4589 46.7117 36.7872 48.5786 36.5006 50.266C36.214 51.9175 32.2738 54.323 32.2738 54.323C32.2738 54.323 35.7126 53.6408 38.7931 52.4202L34.8529 46.5681L34.4589 46.7117Z" fill="url(#paint1_linear_49_1582)"/>
<path d="M37.3604 24.0214C37.3604 24.0214 31.3784 21.3647 26.5069 16.3025C26.5069 16.3025 24.9308 17.9899 26.1845 21.7955C26.1845 21.7955 35.4261 31.7045 40.6558 32.3507C45.8855 32.997 43.9154 25.7447 43.9154 25.7447C43.9154 25.7447 39.5454 25.5293 37.3604 24.0214Z" fill="url(#paint2_linear_49_1582)"/>
<path d="M47.7482 0.900635C47.7482 0.900635 44.2378 1.79819 41.4438 5.78332C38.6499 9.76846 47.1034 6.78858 47.1034 6.78858L47.7482 0.900635Z" fill="url(#paint3_linear_49_1582)"/>
<path d="M43.593 4.56264C43.593 4.56264 47.7124 0.0748717 49.969 0.00306746C52.2257 -0.104639 54.4465 2.65982 54.4465 2.65982L43.593 4.56264Z" fill="url(#paint4_linear_49_1582)"/>
<path d="M60.4285 31.6687C53.3362 35.0435 35.1037 24.8473 33.8142 20.1442C33.3127 18.2772 33.456 16.3026 34.1008 14.3998C36.9306 6.25003 49.0378 -0.858588 58.8525 3.84459C65.515 7.03988 67.5209 15.441 66.2314 22.2983C65.4792 26.5706 63.4016 30.2326 60.4285 31.6687Z" fill="url(#paint5_linear_49_1582)"/>
<path d="M55.2704 32.2072C52.4764 31.8123 48.6437 30.6634 46.2437 29.5504C41.802 27.5399 38.8289 25.5653 37.3603 24.0215C36.3932 23.0163 36.0708 22.1905 36.429 21.652C36.6439 21.3289 37.6469 21.4007 39.1513 21.7956C43.5214 22.9086 51.9749 26.4629 56.1659 29.2273C56.5241 29.4786 56.8464 29.6941 57.133 29.9095C57.2046 29.9454 57.2405 30.0172 57.3121 30.0531C57.3121 30.0531 57.3479 30.0531 57.3479 30.089C58.0285 30.6275 58.4942 31.1301 58.6016 31.5251C58.6375 31.6328 58.6375 31.7046 58.6375 31.8123C58.5658 32.4226 57.1688 32.4944 55.2704 32.2072Z" fill="url(#paint6_linear_49_1582)"/>
<path opacity="0.3" d="M60.4285 31.6688C53.3361 35.0436 35.1037 24.8474 33.8142 20.1442C33.3127 18.2773 33.456 16.3027 34.1007 14.3999C34.1007 14.3999 34.244 17.4516 37.8618 19.6775C41.4797 21.9034 52.9779 26.4271 56.0226 25.7809C59.1031 25.1346 61.718 17.0208 61.718 17.0208L66.2313 22.2984C65.4791 26.5707 63.4015 30.2327 60.4285 31.6688Z" fill="url(#paint7_linear_49_1582)"/>
<path opacity="0.5" d="M55.2704 32.2072C53.7301 30.4839 49.1093 25.7807 44.1661 24.7396C38.1125 23.483 37.3603 24.0215 37.3603 24.0215C36.3932 23.0163 36.0708 22.1905 36.429 21.652C36.6439 21.3289 37.6469 21.4007 39.1513 21.7956C43.5214 22.9086 51.9749 26.4629 56.1659 29.2273C56.5957 29.5145 56.9897 29.8018 57.3121 30.0531C57.3121 30.0531 57.3479 30.0531 57.3479 30.089C58.0285 30.6275 58.4942 31.1301 58.6016 31.5251C58.6375 31.6328 58.6375 31.7046 58.6375 31.8123C58.5658 32.4226 57.1688 32.4944 55.2704 32.2072Z" fill="url(#paint8_linear_49_1582)"/>
<path d="M57.1688 29.8736C55.6644 30.4122 50.2197 28.9761 47.3541 27.6836C42.196 25.35 39.4379 23.0881 39.1513 21.7957C43.8796 22.9804 53.4794 27.1092 57.1688 29.8736Z" fill="url(#paint9_linear_49_1582)"/>
<path d="M33.9216 14.7589C33.6709 17.4874 49.6108 25.7808 55.6644 23.5549C61.718 21.329 63.9746 5.81924 54.7689 3.16249C45.993 0.577535 34.3873 9.80438 33.9216 14.7589Z" fill="#DFE3FB"/>
<path d="M34.1366 14.3997C33.8858 17.1283 49.8258 25.4217 55.8793 23.1957C61.8971 21.0057 64.1896 5.496 54.9838 2.80335C46.2079 0.254295 34.6022 9.48114 34.1366 14.3997Z" fill="url(#paint10_linear_49_1582)"/>
<path d="M63.0076 8.72716C63.0076 8.72716 58.9599 16.6615 62.9359 21.5083C62.9359 21.5083 65.3359 22.729 67.3776 21.7596C67.3776 21.7596 64.2971 23.0162 62.7568 19.8927C61.2166 16.7692 64.118 10.8813 66.6612 9.55291C69.2044 8.22453 71.676 9.80422 71.676 9.80422L70.9954 8.47584C70.9596 8.43994 67.4134 6.21401 63.0076 8.72716Z" fill="url(#paint11_linear_49_1582)"/>
<path d="M70.9596 8.44016C70.9596 8.44016 68.2373 7.11178 65.0135 9.62493C61.5747 12.3176 60.8225 18.9595 63.0075 20.8264C65.2284 22.7651 71.5327 13.9691 71.5327 13.9691V9.51722C71.4969 9.51722 71.4253 8.83508 70.9596 8.44016Z" fill="url(#paint12_linear_49_1582)"/>
<path d="M71.4611 18.1696C70.3865 19.9288 69.0253 21.1854 67.6283 21.7598L67.2343 21.9034C66.1597 22.2624 65.0493 22.1906 64.0463 21.6521C60.7509 19.8929 62.2195 14.723 63.6881 12.0303C65.4075 8.94276 68.9537 8.04521 71.067 9.15817C73.5744 10.5584 73.5744 14.7589 71.4611 18.1696Z" fill="url(#paint13_linear_49_1582)"/>
<path opacity="0.5" d="M42.7334 5.96271C42.8767 6.68076 46.6736 6.24993 50.0049 7.97323C53.3361 9.66063 55.8435 14.5433 58.8524 15.2255C61.2524 15.764 61.3957 6.46534 55.9152 3.52137C50.4347 0.541493 42.5543 5.24467 42.7334 5.96271Z" fill="url(#paint14_linear_49_1582)"/>
<path opacity="0.5" d="M37.4678 16.554C37.4678 16.554 41.4438 16.9848 45.7422 19.2107C50.0048 21.4366 50.5421 22.1906 50.2914 22.5855C50.0406 22.9804 46.4586 22.5855 42.5542 20.575C38.614 18.5286 37.4678 16.554 37.4678 16.554Z" fill="url(#paint15_linear_49_1582)"/>
<path opacity="0.5" d="M34.5306 13.7894C34.5306 13.7894 35.2828 10.4505 39.8319 7.11161C39.8319 7.11161 40.7274 6.64488 40.9065 7.00391C41.0856 7.36293 37.0021 9.51705 34.5306 13.7894Z" fill="url(#paint16_linear_49_1582)"/>
<path opacity="0.72" d="M62.721 16.2668C62.721 16.2668 61.9329 19.4621 63.903 21.0059C65.909 22.5138 68.3447 21.5804 69.8134 19.498C69.8134 19.498 68.3447 21.2213 65.6224 19.6057C62.9001 17.9901 62.721 16.2668 62.721 16.2668Z" fill="url(#paint17_linear_49_1582)"/>
<path opacity="0.72" d="M65.3359 10.6302C65.1568 11.2046 69.7417 11.5995 70.9596 12.2816C72.2133 12.9638 72.1417 14.7948 72.3924 14.8307C72.6073 14.8666 73.5028 10.8815 71.1387 9.66079C68.8104 8.44012 65.4791 10.2352 65.3359 10.6302Z" fill="url(#paint18_linear_49_1582)"/>
<path d="M42.0886 12.4253C42.0886 12.4253 46.2438 14.723 48.787 15.0102C48.787 15.0102 46.2079 18.4928 43.5573 17.4516C40.8708 16.4463 42.0886 12.4253 42.0886 12.4253Z" fill="#2F95CD"/>
<path d="M52.5839 44.2345C51.8317 50.0865 48.787 52.851 42.9125 53.2818C37.1455 53.7126 33.062 47.7888 34.2799 40.2852C35.0321 35.5103 36.0709 31.202 38.2917 28.4016C39.5454 26.8219 41.1931 25.709 43.414 25.2422C45.1692 24.8832 46.7094 25.709 47.999 27.2169C51.4019 31.1302 53.157 39.7108 52.5839 44.2345Z" fill="url(#paint19_linear_49_1582)"/>
<path opacity="0.3" d="M43.8797 31.5611C43.8797 31.5611 47.4259 37.5208 47.4617 40.5366C47.5333 50.7328 42.9125 53.2818 42.9125 53.2818C42.9125 53.2818 47.0318 52.9587 48.7512 51.4508C50.6138 49.7993 53.0496 46.7836 52.6198 40.5007C52.2974 35.5462 49.8616 30.1968 49.8616 30.1968L43.8797 31.5611Z" fill="url(#paint20_linear_49_1582)"/>
<path d="M34.1008 40.3571C34.1008 40.3571 34.7098 35.9411 37.8261 35.6539C41.5514 35.3308 44.5603 40.5725 44.6677 44.3422C44.7752 48.1119 44.2379 51.6662 40.7275 52.0971C40.6917 52.0971 34.1008 52.492 34.1008 40.3571Z" fill="url(#paint21_linear_49_1582)"/>
<path d="M34.1725 40.8956C34.1725 40.8956 34.7814 36.4797 37.8978 36.1925C41.623 35.8694 44.6319 41.1111 44.7394 44.8808C44.8468 48.6146 44.3095 52.2048 40.7992 52.6356C40.7992 52.6356 34.1725 53.0306 34.1725 40.8956Z" fill="url(#paint22_radial_49_1582)"/>
<path opacity="0.5" d="M47.9274 27.1452C47.9274 27.1452 42.0887 29.9815 39.7246 29.9097C37.4321 29.8738 38.1843 28.4377 38.2201 28.33C39.4738 26.7503 41.1216 25.6373 43.3424 25.1706C45.0618 24.8116 46.6378 25.6373 47.9274 27.1452Z" fill="url(#paint23_linear_49_1582)"/>
<path opacity="0.72" d="M34.5306 40.4647C35.1037 41.6136 36.7156 39.9262 38.9365 40.0698C41.1573 40.2134 42.4468 41.6495 43.0558 41.1828C43.6289 40.7161 41.3006 36.5155 37.9335 36.6591C35.2112 36.7309 34.3515 40.0698 34.5306 40.4647Z" fill="url(#paint24_linear_49_1582)"/>
<path opacity="0.72" d="M37.9335 51.0559C37.9335 51.0559 38.9723 52.2048 40.4767 52.133C41.9812 52.0612 42.411 51.0559 42.411 51.0559C42.411 51.0559 41.6946 50.7328 40.6558 51.0918C39.617 51.4508 38.6499 51.379 37.9335 51.0559Z" fill="url(#paint25_linear_49_1582)"/>
<path d="M44.3453 31.0585C43.9871 31.0944 43.7006 34.5769 43.9871 34.6846C44.2737 34.7564 44.5961 34.0025 44.7752 32.8536C44.9543 31.7047 44.7035 31.0226 44.3453 31.0585Z" fill="white"/>
<path d="M46.7452 32.7818C47.1393 34.6846 48.178 36.8028 49.0735 37.7003C49.3959 38.0235 49.6825 38.1671 49.9332 38.1312C50.9004 37.9876 51.4735 35.2949 50.184 31.9919C49.1094 29.2633 47.6407 28.2222 47.1034 28.4017C46.8527 28.4735 46.602 28.8684 46.4945 29.6942C46.4228 30.3763 46.4587 31.3816 46.7452 32.7818Z" fill="url(#paint26_linear_49_1582)"/>
<path d="M46.7453 32.7817C47.1393 34.6845 48.1781 36.8027 49.0736 37.7003C49.0736 37.7003 50.3273 31.3815 46.4945 29.6941C46.4229 30.3762 46.4587 31.3815 46.7453 32.7817Z" fill="#6340A2"/>
<path opacity="0.5" d="M48.3571 37.0182C48.3571 37.0182 43.593 39.0646 39.4737 38.1312C35.3544 37.1977 35.4618 34.3974 35.4618 34.3974L35.7484 33.3921L48.3571 37.0182Z" fill="url(#paint27_linear_49_1582)"/>
<path d="M45.778 48.794C45.778 48.794 47.0317 59.1697 49.6824 59.9596C49.754 59.9955 49.8257 59.9955 49.8973 59.9955C52.0107 60.2468 54.4106 49.8711 54.0883 46.2449C53.9808 45.3115 53.6226 44.7012 53.0853 44.3421C51.1868 43.0497 47.2108 44.9525 45.778 48.794Z" fill="url(#paint28_linear_49_1582)"/>
<path d="M27.259 27.7555C38.0409 36.8387 48.3571 37.0182 48.3571 37.0182C49.5391 34.7564 49.0018 29.4429 47.8198 28.6889C47.7481 28.653 47.7123 28.6171 47.6407 28.6171C40.9423 27.0733 34.3156 25.0269 30.7694 23.8421H30.7336C29.4441 23.4113 28.5844 23.1241 28.2978 23.0164L28.2262 22.9805C28.2262 22.9805 28.2262 22.9805 28.1904 23.0164C28.0113 23.0882 27.868 23.16 27.7605 23.3036C26.7217 24.3807 27.2232 27.54 27.259 27.7555Z" fill="url(#paint29_linear_49_1582)"/>
<path d="M28.2263 22.9805C28.2263 22.9805 30.4471 24.7397 30.5904 26.8938C30.7337 29.0479 28.1904 28.6171 27.2949 27.7555C27.2591 27.7555 25.8979 23.6985 28.2263 22.9805Z" fill="url(#paint30_linear_49_1582)"/>
<path d="M8.01086e-05 18.1694C8.01086e-05 18.1694 0.143362 18.4566 0.358282 18.8875C1.79108 21.5083 4.58505 24.2369 4.69251 24.3446C13.5759 28.0784 23.3548 29.9094 23.3548 29.9094C27.9397 21.5801 30.089 11.3121 30.1964 10.7736V10.7377C17.7668 3.70087 6.23278 1.33133 5.87458 1.25952C5.87458 1.25952 5.87457 1.25952 5.83875 1.29542C5.33727 2.08527 4.87161 3.05463 4.40595 4.09579V4.13169C3.11643 7.11157 1.97018 10.7736 1.14632 13.6099C0.50156 16.0512 0.071722 17.8463 8.01086e-05 18.1694Z" fill="url(#paint31_linear_49_1582)"/>
<path d="M-5.72205e-06 18.1697C-5.72205e-06 18.1697 0.143275 18.4569 0.358195 18.8877C1.03878 20.2161 2.65068 23.0523 4.69243 24.3448C4.69243 24.3448 7.41475 12.6766 10.3878 4.99357L5.87449 1.29565C5.87449 1.29565 5.87449 1.29565 5.83867 1.33156C5.69539 1.54697 5.15809 2.55223 4.40587 4.13192V4.16782C3.4029 6.25015 2.11338 9.37363 1.11042 12.9279C0.680578 14.5794 0.286555 16.3386 -5.72205e-06 18.1697Z" fill="url(#paint32_linear_49_1582)"/>
<path d="M30.1964 10.7738C30.1964 10.7738 18.4474 6.21424 10.3879 4.99357L5.87458 1.29565C5.87458 1.29565 22.6026 4.49094 30.1964 10.7738Z" fill="url(#paint33_linear_49_1582)"/>
<path d="M43.0199 9.91206C43.6288 9.87615 43.8796 6.96808 42.805 6.42955C41.7304 5.89102 39.4737 7.3271 39.4021 8.36826C39.3662 8.83499 40.5841 8.72729 41.1214 9.0145C41.7662 9.33762 42.4468 9.91206 43.0199 9.91206Z" fill="url(#paint34_linear_49_1582)"/>
<path opacity="0.5" d="M9.38481 22.9805L8.59677 23.3754L5.69535 20.3956L3.04466 19.0313L4.37 18.2414L13.2892 12.4253L15.9757 14.6153L9.38481 22.9805Z" fill="url(#paint35_linear_49_1582)"/>
<path d="M50.7928 12.6764C50.2555 11.743 55.5569 9.76835 57.4912 11.4557C59.4255 13.1431 58.4583 15.5127 57.5986 16.0512C57.0971 16.3743 55.8434 14.8665 54.0883 14.1484C52.4764 13.4663 51.0794 13.215 50.7928 12.6764Z" fill="url(#paint36_linear_49_1582)"/>
<path d="M13.6832 27.5042C13.6832 27.5042 20.3816 18.4568 21.8502 7.86572C21.8502 7.86572 19.2354 6.07062 14.7578 3.55747L13.934 3.30615L19.9876 7.29129C19.9876 7.29129 18.7339 16.554 12.8952 27.3965L13.6832 27.5042Z" fill="url(#paint37_radial_49_1582)"/>
<path opacity="0.3" d="M45.7781 48.794C45.7781 48.794 47.0318 59.1697 49.6825 59.9596C47.4258 57.949 46.0288 49.907 49.6825 45.3115C50.7213 44.019 52.4048 44.2344 53.0496 44.3421C51.1869 43.0497 47.2109 44.9525 45.7781 48.794Z" fill="url(#paint38_linear_49_1582)"/>
<path opacity="0.5" d="M4.69252 24.3447C13.5759 28.0785 23.3548 29.9095 23.3548 29.9095C27.9397 21.5802 30.089 11.3122 30.1964 10.7737C30.0531 11.2404 27.9756 18.5285 25.7905 19.4979C23.5339 20.5032 19.1638 19.9646 19.1638 19.9646C19.1638 19.9646 15.7251 22.5496 11.2118 23.5907C6.69844 24.596 4.69252 24.3447 4.69252 24.3447Z" fill="url(#paint39_linear_49_1582)"/>
<path opacity="0.3" d="M27.259 27.7555C38.0409 36.8387 48.3571 37.0182 48.3571 37.0182C49.5391 34.7564 49.0018 29.4429 47.8198 28.6889L47.6407 28.6171C47.7481 28.7607 50.0048 32.315 47.8556 34.4691C45.6706 36.6951 34.244 31.6688 32.2738 28.1504C30.3037 24.632 30.9485 23.9139 30.9485 23.9139L30.7694 23.8421H30.7336L28.2978 23.0164L28.2262 22.9805C28.2262 22.9805 28.2262 22.9805 28.1904 23.0164C28.1187 23.0523 27.9396 23.16 27.7605 23.3036C27.0441 23.8421 26.0412 25.1705 27.259 27.7555Z" fill="url(#paint40_linear_49_1582)"/>
<path d="M29.5515 25.8885C29.8381 28.1144 26.1844 28.9401 23.6054 27.4682C21.0263 25.9962 19.9517 24.0934 19.3428 22.6932C18.7697 21.293 19.5577 19.1389 20.095 18.8157C20.6323 18.4926 25.862 20.5031 26.7575 20.934C29.5515 22.3342 29.3724 24.5601 29.5515 25.8885Z" fill="url(#paint41_linear_49_1582)"/>
<path d="M29.3008 23.9499C29.3008 23.9499 22.6382 22.3702 19.9876 18.9236C19.9876 18.9236 20.095 18.4568 21.2413 18.78L27.0441 20.8982C27.0441 20.9341 29.1933 22.5138 29.3008 23.9499Z" fill="url(#paint42_linear_49_1582)"/>
<path d="M29.05 23.5549C29.05 23.5549 28.9784 21.9034 28.4411 20.7904C27.1158 18.0977 24.9666 17.2002 24.9666 17.2002C24.9666 17.2002 24.3218 17.8105 24.1785 18.6004C24.0352 19.3902 25.7904 22.3701 25.7904 22.3701C25.7904 22.3701 27.4381 23.5908 29.05 23.5549Z" fill="url(#paint43_linear_49_1582)"/>
<path opacity="0.5" d="M24.6442 20.1443L22.1726 20.9341C22.1726 20.9341 23.9636 22.0471 25.7904 22.3702L24.6442 20.1443Z" fill="url(#paint44_linear_49_1582)"/>
<path d="M11.2833 10.9531L13.8624 11.5635L16.1549 13.8971L16.8354 16.6257L9.88636 23.4471L3.97604 17.8822L11.2833 10.9531ZM13.0743 14.9383C13.4684 15.3691 14.1489 15.3691 14.543 14.9742C14.9728 14.5792 14.9728 13.8971 14.543 13.5022C14.1489 13.1073 13.4684 13.0713 13.0743 13.5022C12.6803 13.8612 12.6445 14.5074 13.0743 14.9383Z" fill="url(#paint45_linear_49_1582)"/>
<path d="M19.9877 7.29124C19.9877 7.29124 16.728 12.0662 14.7938 13.8972L14.2206 13.251C14.2206 13.251 17.0862 11.6354 19.7011 7.21944L18.0534 6.03467C18.0534 6.03467 20.0235 7.11173 19.9877 7.29124Z" fill="url(#paint46_radial_49_1582)"/>
<path d="M49.8974 49.8351C50.2914 49.7633 50.3988 53.2458 49.8974 53.5689C49.3959 53.8561 49.2884 49.9428 49.8974 49.8351Z" fill="white"/>
<path d="M45.993 30.0173C45.9213 30.4481 43.1274 29.9455 43.1274 29.3711C43.1274 28.7607 46.0646 29.5506 45.993 30.0173Z" fill="white"/>
<path d="M42.6258 29.1556C42.6975 28.976 41.5871 28.6529 41.408 28.7965C41.2289 28.9401 41.6587 29.1915 41.9453 29.2992C42.2318 29.4069 42.5542 29.2992 42.6258 29.1556Z" fill="white"/>
<path d="M27.653 20.575C28.1903 20.6468 27.1874 19.0312 26.9008 19.0312C26.5426 19.0312 27.259 20.5391 27.653 20.575Z" fill="white"/>
<path d="M33.5992 48.6145C33.85 48.7222 33.1694 49.9429 32.7754 49.6915C32.4172 49.4043 32.9545 48.3632 33.5992 48.6145Z" fill="white"/>
<path d="M68.9178 18.2773C68.9178 18.2773 67.1985 18.0619 66.5537 20.3597C66.5537 20.3597 66.7686 25.386 63.6165 27.8991C60.93 30.0532 54.3391 23.9499 54.3391 23.9499L54.0525 25.1346C54.0525 25.1346 59.1748 30.2686 62.4702 30.5918C62.4702 30.5918 64.7269 30.6277 66.5895 26.3553C68.488 22.0471 68.9178 18.2773 68.9178 18.2773Z" fill="url(#paint47_linear_49_1582)"/>
<path d="M54.4466 24.4525C54.4824 25.745 52.4406 25.4219 51.1869 24.5961C49.7899 23.6627 47.9273 21.2931 49.1094 20.0725C50.2914 18.8877 54.3391 21.4367 54.4466 24.4525Z" fill="url(#paint48_linear_49_1582)"/>
<path d="M54.2316 24.5242C54.0884 24.7755 49.4676 21.0417 50.0049 20.1082C50.5422 19.1747 55.2704 22.6214 54.2316 24.5242Z" fill="url(#paint49_linear_49_1582)"/>
<path d="M68.094 21.4009C68.094 21.4009 66.7687 26.2118 66.4463 26.1759C66.1239 26.14 67.6642 21.4368 68.094 21.4009Z" fill="url(#paint50_linear_49_1582)"/>
<path opacity="0.3" d="M7.24792e-05 18.1697C7.24792e-05 18.1697 0.143353 18.4569 0.358273 18.8877C1.03885 20.2161 2.65076 23.0524 4.6925 24.3448C4.58504 24.1653 1.50452 18.5646 1.18214 13.6819C1.14632 13.4306 1.14631 13.1793 1.14631 12.9639C0.680653 14.5795 0.286633 16.3387 7.24792e-05 18.1697Z" fill="url(#paint51_linear_49_1582)"/>
<path opacity="0.72" d="M30.1964 10.7736C30.1964 10.7736 16.6922 5.53187 12.2864 4.16759C7.8805 2.80331 5.87458 1.25952 5.87458 1.25952L10.3879 4.95744C10.3879 4.99334 22.7458 7.36288 30.1964 10.7736Z" fill="url(#paint52_linear_49_1582)"/>
<defs>
<linearGradient id="paint0_linear_49_1582" x1="35.1887" y1="53.6682" x2="33.2653" y2="46.5264" gradientUnits="userSpaceOnUse">
<stop stop-color="#CBC1F7"/>
<stop offset="1" stop-color="#E8DCF7"/>
</linearGradient>
<linearGradient id="paint1_linear_49_1582" x1="35.555" y1="54.3144" x2="35.555" y2="46.5431" gradientUnits="userSpaceOnUse">
<stop stop-color="#9D68C2"/>
<stop offset="1" stop-color="#CCEDFF"/>
</linearGradient>
<linearGradient id="paint2_linear_49_1582" x1="35.3035" y1="32.6087" x2="34.6946" y2="16.0079" gradientUnits="userSpaceOnUse">
<stop stop-color="#BE9DEA"/>
<stop offset="1" stop-color="#9E8CEF"/>
</linearGradient>
<linearGradient id="paint3_linear_49_1582" x1="42.8092" y1="8.66404" x2="47.6954" y2="0.870227" gradientUnits="userSpaceOnUse">
<stop stop-color="#45FFCD"/>
<stop offset="1" stop-color="#22E0FF"/>
</linearGradient>
<linearGradient id="paint4_linear_49_1582" x1="47.0439" y1="6.74867" x2="51.2151" y2="0.0953273" gradientUnits="userSpaceOnUse">
<stop stop-color="#B9ACF4"/>
<stop offset="1" stop-color="#E1D1F5"/>
</linearGradient>
<linearGradient id="paint5_linear_49_1582" x1="42.6733" y1="28.6156" x2="61.5116" y2="5.55774" gradientUnits="userSpaceOnUse">
<stop stop-color="#CBC1F7"/>
<stop offset="1" stop-color="#E8DCF7"/>
</linearGradient>
<linearGradient id="paint6_linear_49_1582" x1="37.0083" y1="20.7354" x2="57.5664" y2="33.5652" gradientUnits="userSpaceOnUse">
<stop stop-color="#8879EA"/>
<stop offset="1" stop-color="#9E8CEF"/>
</linearGradient>
<linearGradient id="paint7_linear_49_1582" x1="44.3628" y1="28.9009" x2="54.6116" y2="12.5535" gradientUnits="userSpaceOnUse">
<stop stop-color="#9D68C2"/>
<stop offset="1" stop-color="#CCEDFF"/>
</linearGradient>
<linearGradient id="paint8_linear_49_1582" x1="45.8984" y1="29.3759" x2="48.8786" y2="24.6222" gradientUnits="userSpaceOnUse">
<stop stop-color="#8DA4E5"/>
<stop offset="1" stop-color="#755CBB"/>
</linearGradient>
<linearGradient id="paint9_linear_49_1582" x1="46.9315" y1="27.8268" x2="48.8625" y2="24.69" gradientUnits="userSpaceOnUse">
<stop stop-color="#5E36CC"/>
<stop offset="1" stop-color="#6C4A96"/>
</linearGradient>
<linearGradient id="paint10_linear_49_1582" x1="43.5969" y1="21.7039" x2="55.4801" y2="2.74943" gradientUnits="userSpaceOnUse">
<stop stop-color="#0665BD"/>
<stop offset="1" stop-color="#1A1F77"/>
</linearGradient>
<linearGradient id="paint11_linear_49_1582" x1="62.7918" y1="21.4687" x2="68.1902" y2="7.31278" gradientUnits="userSpaceOnUse">
<stop stop-color="#B9ACF4"/>
<stop offset="1" stop-color="#E1D1F5"/>
</linearGradient>
<linearGradient id="paint12_linear_49_1582" x1="64.0784" y1="21.3439" x2="69.2468" y2="7.79125" gradientUnits="userSpaceOnUse">
<stop stop-color="#BE9DEA"/>
<stop offset="1" stop-color="#9E8CEF"/>
</linearGradient>
<linearGradient id="paint13_linear_49_1582" x1="64.9717" y1="22.07" x2="70.0377" y2="8.78583" gradientUnits="userSpaceOnUse">
<stop stop-color="#45FFCD"/>
<stop offset="1" stop-color="#22E0FF"/>
</linearGradient>
<linearGradient id="paint14_linear_49_1582" x1="45.0757" y1="2.09538" x2="61.3704" y2="12.2645" gradientUnits="userSpaceOnUse">
<stop/>
<stop offset="1" stop-color="#6A9BFF"/>
</linearGradient>
<linearGradient id="paint15_linear_49_1582" x1="37.859" y1="15.8993" x2="49.7999" y2="23.3512" gradientUnits="userSpaceOnUse">
<stop/>
<stop offset="1" stop-color="#6A9BFF"/>
</linearGradient>
<linearGradient id="paint16_linear_49_1582" x1="35.1685" y1="14.2118" x2="40.0453" y2="6.43301" gradientUnits="userSpaceOnUse">
<stop/>
<stop offset="1" stop-color="#6A9BFF"/>
</linearGradient>
<linearGradient id="paint17_linear_49_1582" x1="64.8829" y1="21.539" x2="66.3624" y2="17.6594" gradientUnits="userSpaceOnUse">
<stop stop-color="#D4E2FF"/>
<stop offset="1"/>
</linearGradient>
<linearGradient id="paint18_linear_49_1582" x1="65.6209" y1="9.88465" x2="73.214" y2="12.7671" gradientUnits="userSpaceOnUse">
<stop/>
<stop offset="1" stop-color="#D4E2FF"/>
</linearGradient>
<linearGradient id="paint19_linear_49_1582" x1="42.995" y1="53.3278" x2="44.0192" y2="25.1338" gradientUnits="userSpaceOnUse">
<stop stop-color="#CBC1F7"/>
<stop offset="1" stop-color="#E8DCF7"/>
</linearGradient>
<linearGradient id="paint20_linear_49_1582" x1="48.3058" y1="52.7958" x2="46.3182" y2="30.5002" gradientUnits="userSpaceOnUse">
<stop stop-color="#9D68C2"/>
<stop offset="1" stop-color="#CCEDFF"/>
</linearGradient>
<linearGradient id="paint21_linear_49_1582" x1="34.3271" y1="44.3222" x2="44.582" y2="43.4122" gradientUnits="userSpaceOnUse">
<stop stop-color="#BE9DEA"/>
<stop offset="1" stop-color="#9E8CEF"/>
</linearGradient>
<radialGradient id="paint22_radial_49_1582" cx="0" cy="0" r="1" gradientUnits="userSpaceOnUse" gradientTransform="translate(40.2151 50.0914) rotate(-5.0949) scale(7.78045 10.3748)">
<stop stop-color="#45FFCD"/>
<stop offset="1" stop-color="#22E0FF"/>
</radialGradient>
<linearGradient id="paint23_linear_49_1582" x1="43.1406" y1="29.6369" x2="42.7459" y2="25.2098" gradientUnits="userSpaceOnUse">
<stop stop-color="#8DA4E5"/>
<stop offset="1" stop-color="#755CBB"/>
</linearGradient>
<linearGradient id="paint24_linear_49_1582" x1="34.4342" y1="39.4699" x2="42.9432" y2="38.7148" gradientUnits="userSpaceOnUse">
<stop/>
<stop offset="1" stop-color="#D4E2FF"/>
</linearGradient>
<linearGradient id="paint25_linear_49_1582" x1="40.2741" y1="52.1668" x2="40.1573" y2="50.8566" gradientUnits="userSpaceOnUse">
<stop stop-color="#D4E2FF"/>
<stop offset="1"/>
</linearGradient>
<linearGradient id="paint26_linear_49_1582" x1="46.7078" y1="33.4184" x2="50.7449" y2="33.0603" gradientUnits="userSpaceOnUse">
<stop stop-color="#8879EA"/>
<stop offset="1" stop-color="#9E8CEF"/>
</linearGradient>
<linearGradient id="paint27_linear_49_1582" x1="41.9282" y1="38.3781" x2="41.9282" y2="33.3871" gradientUnits="userSpaceOnUse">
<stop stop-color="#8DA4E5"/>
<stop offset="1" stop-color="#755CBB"/>
</linearGradient>
<linearGradient id="paint28_linear_49_1582" x1="52.8643" y1="59.2484" x2="48.9041" y2="44.5436" gradientUnits="userSpaceOnUse">
<stop stop-color="#CBC1F7"/>
<stop offset="1" stop-color="#E8DCF7"/>
</linearGradient>
<linearGradient id="paint29_linear_49_1582" x1="40.6685" y1="39.084" x2="35.7857" y2="20.9538" gradientUnits="userSpaceOnUse">
<stop stop-color="#CBC1F7"/>
<stop offset="1" stop-color="#E8DCF7"/>
</linearGradient>
<linearGradient id="paint30_linear_49_1582" x1="26.8999" y1="25.892" x2="30.4679" y2="25.5755" gradientUnits="userSpaceOnUse">
<stop stop-color="#8879EA"/>
<stop offset="1" stop-color="#9E8CEF"/>
</linearGradient>
<linearGradient id="paint31_linear_49_1582" x1="18.3734" y1="30.9172" x2="12.2147" y2="0.0380114" gradientUnits="userSpaceOnUse">
<stop stop-color="#D93DE3"/>
<stop offset="1" stop-color="#DB63C3"/>
</linearGradient>
<linearGradient id="paint32_linear_49_1582" x1="2.72318" y1="23.9522" x2="7.18874" y2="1.56223" gradientUnits="userSpaceOnUse">
<stop stop-color="#A242EA"/>
<stop offset="1" stop-color="#FE117E"/>
</linearGradient>
<linearGradient id="paint33_linear_49_1582" x1="17.6065" y1="8.25345" x2="18.4912" y2="3.81762" gradientUnits="userSpaceOnUse">
<stop stop-color="#E88AEE"/>
<stop offset="1" stop-color="#FF6DBA"/>
</linearGradient>
<linearGradient id="paint34_linear_49_1582" x1="41.2509" y1="9.56729" x2="41.9298" y2="6.21783" gradientUnits="userSpaceOnUse">
<stop stop-color="#45FFCD"/>
<stop offset="1" stop-color="#22E0FF"/>
</linearGradient>
<linearGradient id="paint35_linear_49_1582" x1="9.49983" y1="23.3758" x2="9.49983" y2="12.4249" gradientUnits="userSpaceOnUse">
<stop stop-color="#9D68C2"/>
<stop offset="1" stop-color="#CCEDFF"/>
</linearGradient>
<linearGradient id="paint36_linear_49_1582" x1="54.2821" y1="15.4538" x2="55.249" y2="10.6838" gradientUnits="userSpaceOnUse">
<stop stop-color="#45FFCD"/>
<stop offset="1" stop-color="#22E0FF"/>
</linearGradient>
<radialGradient id="paint37_radial_49_1582" cx="0" cy="0" r="1" gradientUnits="userSpaceOnUse" gradientTransform="translate(17.3623 15.4067) rotate(180) scale(9.11055 9.13142)">
<stop stop-color="#45FFCD"/>
<stop offset="1" stop-color="#22E0FF"/>
</radialGradient>
<linearGradient id="paint38_linear_49_1582" x1="49.4312" y1="59.9582" x2="49.4312" y2="43.9386" gradientUnits="userSpaceOnUse">
<stop stop-color="#9D68C2"/>
<stop offset="1" stop-color="#CCEDFF"/>
</linearGradient>
<linearGradient id="paint39_linear_49_1582" x1="20.0389" y1="30.5851" x2="16.6309" y2="13.4978" gradientUnits="userSpaceOnUse">
<stop stop-color="#9D68C2"/>
<stop offset="1" stop-color="#CCEDFF"/>
</linearGradient>
<linearGradient id="paint40_linear_49_1582" x1="37.8604" y1="37.0096" x2="37.8604" y2="22.9898" gradientUnits="userSpaceOnUse">
<stop stop-color="#9D68C2"/>
<stop offset="1" stop-color="#CCEDFF"/>
</linearGradient>
<linearGradient id="paint41_linear_49_1582" x1="25.7315" y1="28.5896" x2="22.8981" y2="18.0691" gradientUnits="userSpaceOnUse">
<stop stop-color="#CBC1F7"/>
<stop offset="1" stop-color="#E8DCF7"/>
</linearGradient>
<linearGradient id="paint42_linear_49_1582" x1="20.6541" y1="18.0201" x2="29.1112" y2="24.2186" gradientUnits="userSpaceOnUse">
<stop stop-color="#BE9DEA"/>
<stop offset="1" stop-color="#9E8CEF"/>
</linearGradient>
<linearGradient id="paint43_linear_49_1582" x1="27.4694" y1="23.976" x2="25.6004" y2="17.0361" gradientUnits="userSpaceOnUse">
<stop stop-color="#CBC1F7"/>
<stop offset="1" stop-color="#E8DCF7"/>
</linearGradient>
<linearGradient id="paint44_linear_49_1582" x1="22.7831" y1="20.0709" x2="25.8237" y2="22.2995" gradientUnits="userSpaceOnUse">
<stop stop-color="#8DA4E5"/>
<stop offset="1" stop-color="#755CBB"/>
</linearGradient>
<linearGradient id="paint45_linear_49_1582" x1="6.82051" y1="20.7889" x2="15.032" y2="12.7852" gradientUnits="userSpaceOnUse">
<stop stop-color="#CBC1F7"/>
<stop offset="1" stop-color="#E8DCF7"/>
</linearGradient>
<radialGradient id="paint46_radial_49_1582" cx="0" cy="0" r="1" gradientUnits="userSpaceOnUse" gradientTransform="translate(17.1022 9.97177) rotate(180) scale(3.44278 3.45066)">
<stop stop-color="#45FFCD"/>
<stop offset="1" stop-color="#22E0FF"/>
</radialGradient>
<linearGradient id="paint47_linear_49_1582" x1="58.3505" y1="28.6753" x2="66.0874" y2="16.4602" gradientUnits="userSpaceOnUse">
<stop stop-color="#BE9DEA"/>
<stop offset="1" stop-color="#9E8CEF"/>
</linearGradient>
<linearGradient id="paint48_linear_49_1582" x1="50.7306" y1="24.402" x2="52.5307" y2="20.752" gradientUnits="userSpaceOnUse">
<stop stop-color="#DD1A8F"/>
<stop offset="1" stop-color="#FE117E"/>
</linearGradient>
<linearGradient id="paint49_linear_49_1582" x1="51.7868" y1="22.7195" x2="52.8857" y2="21.3872" gradientUnits="userSpaceOnUse">
<stop stop-color="#D93DE3"/>
<stop offset="1" stop-color="#FF6DBA"/>
</linearGradient>
<linearGradient id="paint50_linear_49_1582" x1="65.6068" y1="24.9265" x2="68.9569" y2="22.676" gradientUnits="userSpaceOnUse">
<stop stop-color="#CBC1F7"/>
<stop offset="1" stop-color="#E8DCF7"/>
</linearGradient>
<linearGradient id="paint51_linear_49_1582" x1="3.02949" y1="24.6764" x2="0.705446" y2="13.0237" gradientUnits="userSpaceOnUse">
<stop stop-color="#9D68C2"/>
<stop offset="1" stop-color="#CCEDFF"/>
</linearGradient>
<linearGradient id="paint52_linear_49_1582" x1="30.2066" y1="6.04639" x2="5.88028" y2="6.04639" gradientUnits="userSpaceOnUse">
<stop/>
<stop offset="1" stop-color="#9295BB"/>
</linearGradient>
</defs>
</svg>
