<svg width="54" height="60" viewBox="0 0 54 60" fill="none" xmlns="http://www.w3.org/2000/svg">
<path d="M34.5586 1.83948C34.5586 1.83948 37.3506 3.88308 38.4741 8.42058C39.5977 12.9581 33.0946 7.34682 33.0946 7.34682L34.5586 1.83948Z" fill="url(#paint0_linear_47_1018)"/>
<path d="M37.0101 6.58476C37.0101 6.58476 34.8992 1.11205 32.9244 0.246118C30.9496 -0.619817 28.0555 1.07742 28.0555 1.07742L37.0101 6.58476Z" fill="url(#paint1_linear_47_1018)"/>
<path d="M12.802 25.0811C17.9092 30.5884 37.5889 27.7828 40.3127 23.9727C41.4022 22.4487 41.947 20.6475 42.0151 18.7078C42.3215 10.3948 34.0138 -0.238842 23.6973 0.592456C16.7175 1.14665 12.087 8.00486 10.8613 14.6206C10.1122 18.7425 10.657 22.795 12.802 25.0811Z" fill="url(#paint2_linear_47_1018)"/>
<path d="M17.1943 27.3672C19.7819 27.956 23.5953 28.2677 26.1148 28.1292C30.7453 27.8521 34.048 27.1247 35.8866 26.2588C37.0782 25.6699 37.6571 25.0465 37.5209 24.4576C37.4528 24.0766 36.5335 23.7995 35.0694 23.6263C30.8134 23.1068 22.0972 23.3839 17.4326 24.3537C17.024 24.4576 16.6495 24.5269 16.3431 24.6308C16.275 24.6654 16.2069 24.6654 16.1388 24.7001H16.1047C15.3216 24.9425 14.7428 25.2196 14.5045 25.5314C14.4364 25.6007 14.4023 25.7046 14.3683 25.7738C14.2321 26.432 15.4238 26.9515 17.1943 27.3672Z" fill="url(#paint3_linear_47_1018)"/>
<path opacity="0.3" d="M12.802 25.0812C17.9092 30.5885 37.5889 27.7829 40.3127 23.9728C41.4023 22.4487 41.947 20.6476 42.0151 18.7079C42.0151 18.7079 40.8575 21.4096 36.8739 22.137C32.8903 22.8644 21.1778 22.9683 18.6923 21.3057C16.2068 19.6431 16.6835 11.434 16.6835 11.434L10.8613 14.6207C10.1122 18.7425 10.657 22.7951 12.802 25.0812Z" fill="url(#paint4_linear_47_1018)"/>
<path opacity="0.5" d="M17.1943 27.3672C19.135 26.3627 24.855 23.7302 29.5877 24.5269C35.4099 25.4967 35.8866 26.2588 35.8866 26.2588C37.0782 25.6699 37.6571 25.0465 37.5209 24.4576C37.4528 24.0766 36.5335 23.7995 35.0694 23.6263C30.8134 23.1068 22.0972 23.3839 17.4326 24.3537C16.9559 24.4576 16.5133 24.5962 16.1047 24.7001H16.0707C15.2876 24.9425 14.7088 25.2196 14.4704 25.5314C14.4023 25.6007 14.3683 25.7046 14.3342 25.7738C14.2321 26.432 15.4238 26.9515 17.1943 27.3672Z" fill="url(#paint5_linear_47_1018)"/>
<path d="M16.343 24.6308C17.5006 25.6353 22.8121 26.2588 25.8083 26.0856C31.1879 25.7738 34.3884 24.7001 35.1034 23.6263C30.4388 23.0375 20.5649 23.4185 16.343 24.6308Z" fill="url(#paint6_linear_47_1018)"/>
<path d="M42.1173 19.0889C41.4363 21.6174 24.4464 23.5225 19.8499 19.4352C15.2535 15.348 18.488 0.592495 27.5788 1.38916C36.227 2.15118 43.377 14.4821 42.1173 19.0889Z" fill="#DFE3FB"/>
<path d="M42.0151 18.7079C41.3342 21.2364 24.3443 23.1414 19.7478 19.0542C15.1513 14.967 18.4199 0.246122 27.5107 1.00814C36.1589 1.77017 43.309 14.1011 42.0151 18.7079Z" fill="url(#paint7_linear_47_1018)"/>
<path d="M18.3859 3.53664C18.3859 3.53664 19.2712 12.0921 14.0618 15.0709C14.0618 15.0709 11.5082 15.348 10.0442 13.7547C10.0442 13.7547 12.3254 15.9715 14.7768 13.6854C17.2283 11.3993 16.6495 5.09532 14.8449 3.01708C13.0063 0.938836 10.3506 1.49303 10.3506 1.49303L11.4061 0.523188C11.4061 0.523188 15.3216 -0.273473 18.3859 3.53664Z" fill="url(#paint8_linear_47_1018)"/>
<path d="M11.4061 0.523259C11.4061 0.523259 14.3002 0.280797 16.2749 3.67526C18.3859 7.31219 16.8197 13.5469 14.198 14.4821C11.6104 15.4173 9.02274 5.30322 9.02274 5.30322L10.5549 1.28528C10.5549 1.28528 10.8613 0.731083 11.4061 0.523259Z" fill="url(#paint9_linear_47_1018)"/>
<path d="M7.62663 9.1133C8.00116 11.053 8.75021 12.6463 9.8057 13.6854L10.1121 13.9625C10.9633 14.6553 11.9507 15.0017 13.0403 14.8631C16.5472 14.4128 17.0579 9.25185 16.6493 6.34231C16.1727 2.94784 13.3467 0.904237 11.0655 1.18134C8.37569 1.52771 6.94567 5.30319 7.62663 9.1133Z" fill="url(#paint10_linear_47_1018)"/>
<path d="M42.1172 16.3872C42.1172 16.3872 44.5687 16.9414 46.8839 18.8811C49.1992 20.8208 49.8121 23.1761 46.952 22.9683L45.6242 22.1717C45.6242 22.1717 47.3266 22.4141 47.0882 20.6476C46.8499 18.8811 42.1513 16.6989 42.1513 16.6989L42.1172 16.3872Z" fill="url(#paint11_linear_47_1018)"/>
<path d="M47.4629 21.5134C48.3141 22.414 46.6457 23.2107 45.2497 23.4531C43.6835 23.7302 40.8235 23.557 40.9257 21.8944C40.9938 20.2665 45.454 19.4352 47.4629 21.5134Z" fill="url(#paint12_linear_47_1018)"/>
<path d="M47.3607 21.6867C47.4288 21.9638 41.7769 22.3101 41.5726 21.3056C41.4023 20.3358 46.884 19.6777 47.3607 21.6867Z" fill="url(#paint13_linear_47_1018)"/>
<path d="M27.4426 11.3302C27.5788 11.5033 25.2295 9.94466 21.4842 11.4341C21.0757 11.6073 25.0252 8.00496 27.4426 11.3302Z" fill="url(#paint14_linear_47_1018)"/>
<path d="M39.2233 11.3647C39.3595 11.5378 38.0997 10.3255 34.8311 11.1222C34.4566 11.2261 37.0782 8.38585 39.2233 11.3647Z" fill="url(#paint15_linear_47_1018)"/>
<path opacity="0.5" d="M37.3164 8.10891C36.9418 8.69775 33.7073 7.00051 30.1663 7.38152C26.6253 7.76254 22.7439 11.2956 19.8498 10.8453C17.5345 10.4989 20.5988 2.082 26.4551 1.31998C32.3113 0.557958 37.6909 7.52007 37.3164 8.10891Z" fill="url(#paint16_linear_47_1018)"/>
<path opacity="0.5" d="M38.3721 19.4698C38.3721 19.4698 34.6949 18.4653 30.1325 18.9849C25.5701 19.5044 24.855 19.9893 24.9231 20.4396C24.9912 20.8899 28.3279 21.7559 32.4818 21.3056C36.6697 20.8553 38.3721 19.4698 38.3721 19.4698Z" fill="url(#paint17_linear_47_1018)"/>
<path opacity="0.5" d="M41.913 18.0498C41.913 18.0498 42.3897 14.7938 39.4956 10.1871C39.4956 10.1871 38.8827 9.45969 38.5763 9.73679C38.2699 9.94461 41.1639 13.3044 41.913 18.0498Z" fill="url(#paint18_linear_47_1018)"/>
<path opacity="0.72" d="M16.0365 10.4295C16.0365 10.4295 15.662 13.5815 13.3467 14.2743C11.0655 14.9324 9.19287 13.2698 8.61406 10.8798C8.61406 10.8798 9.32906 12.9234 12.2912 12.4385C15.3215 11.9189 16.0365 10.4295 16.0365 10.4295Z" fill="url(#paint19_linear_47_1018)"/>
<path opacity="0.72" d="M15.6621 4.43718C15.6281 5.02602 11.4402 3.77907 10.1123 3.95226C8.78443 4.12544 8.20562 5.78804 8.00133 5.7534C7.79704 5.71876 8.37585 1.80474 10.8614 1.52764C13.3128 1.28518 15.6621 4.05617 15.6621 4.43718Z" fill="url(#paint20_linear_47_1018)"/>
<path d="M35.3757 14.6206C35.3757 14.6206 31.1878 14.7592 28.8385 14.1703C28.8385 14.1703 29.3833 18.1536 32.1071 18.1536C34.831 18.1536 35.3757 14.6206 35.3757 14.6206Z" fill="#2F95CD"/>
<path d="M35.5461 38.1047C35.5461 38.1047 42.56 42.1573 44.1943 41.9841C45.8286 41.811 45.1136 38.0008 45.1136 38.0008C44.9093 37.7237 44.6369 37.4813 44.3986 37.2042C41.7769 34.3639 37.2826 30.7616 34.6949 29.0644C33.6054 28.337 32.8563 27.956 32.7201 28.0945C31.7327 29.1683 35.5461 38.1047 35.5461 38.1047Z" fill="url(#paint21_linear_47_1018)"/>
<path d="M45.1136 38.0355C45.1136 38.0355 44.1943 37.2389 43.0707 38.3126C41.9471 39.3518 43.1048 41.8803 44.1943 42.0188C45.2838 42.1228 45.9308 39.6635 45.1136 38.0355Z" fill="url(#paint22_linear_47_1018)"/>
<path opacity="0.3" d="M35.5461 38.1048C35.5461 38.1048 42.56 42.1574 44.1943 41.9842C45.8286 41.811 45.1136 38.0009 45.1136 38.0009C44.9093 37.7238 44.6369 37.4813 44.3986 37.2042C44.3986 37.2042 42.6962 38.2433 39.5297 37.7238C36.3633 37.2388 34.6949 29.0298 34.6949 29.0298C33.6054 28.3024 32.8563 27.9214 32.7201 28.0599C31.7327 29.1683 35.5461 38.1048 35.5461 38.1048Z" fill="url(#paint23_linear_47_1018)"/>
<path d="M27.3745 51.3017C27.2723 52.8257 28.8726 57.9521 30.5069 59.5454C30.8133 59.8571 31.1538 60.0303 31.4262 59.9957C32.7881 59.9264 34.3543 53.657 34.9671 50.0547C35.2055 48.6692 35.2736 47.6994 35.1374 47.6301C34.0138 47.1452 27.4766 49.5005 27.3745 51.3017Z" fill="url(#paint24_linear_47_1018)"/>
<path d="M27.2724 51.7866C27.2724 51.7866 28.7365 52.9296 31.4603 52.029C33.5713 51.3363 35.3758 48.2536 35.1375 47.6301C34.8991 47.0066 26.7276 49.3273 27.2724 51.7866Z" fill="url(#paint25_linear_47_1018)"/>
<path opacity="0.3" d="M27.3745 51.3017C27.2723 52.8257 28.8726 57.952 30.5069 59.5454C29.3833 57.7442 29.8259 54.4537 30.9154 53.1028C31.7326 52.0637 33.9457 50.6782 34.9671 50.0894C35.2055 48.7039 35.2736 47.734 35.1374 47.6647C34.0138 47.1452 27.4766 49.5005 27.3745 51.3017Z" fill="url(#paint26_linear_47_1018)"/>
<path d="M32.5158 53.5877C32.9244 53.5531 32.652 54.6961 32.5839 54.7654C32.5158 54.8347 32.3115 54.4537 32.3115 54.1419C32.2775 53.8302 32.3796 53.5877 32.5158 53.5877Z" fill="white"/>
<path d="M17.6369 42.0881C17.2283 47.7686 19.5435 50.9553 24.9572 52.514C30.2346 54.038 35.1715 49.2234 35.478 41.8803C35.6822 37.2042 35.5461 32.9785 34.0139 29.8957C33.1287 28.1639 31.8348 26.7784 29.86 25.9124C28.2938 25.2197 26.7276 25.7046 25.1955 26.8823C21.2459 29.9304 17.9773 37.7238 17.6369 42.0881Z" fill="url(#paint27_linear_47_1018)"/>
<path opacity="0.3" d="M23.391 32.9438C23.391 32.9438 21.6205 36.9271 20.8034 39.6981C19.85 42.9886 20.7353 46.7295 20.7353 46.7295L17.5688 43.0579C17.5688 43.0579 17.4326 40.6679 18.2838 38.555C19.101 36.4075 19.5776 35.4723 19.5776 35.4723L23.391 32.9438Z" fill="url(#paint28_linear_47_1018)"/>
<path d="M35.546 42.8155C35.546 42.8155 35.512 38.4166 31.7327 37.2735C27.2043 35.888 22.6419 40.0792 21.9269 43.6122C21.1778 47.1452 21.2799 50.7128 25.5359 52.133C25.4678 52.133 33.5372 54.3844 35.546 42.8155Z" fill="url(#paint29_linear_47_1018)"/>
<path d="M35.3418 43.3004C35.3418 43.3004 35.3077 38.9014 31.5284 37.7584C27.0001 36.3729 22.4376 40.564 21.7226 44.097C20.9736 47.63 21.0757 51.1977 25.3317 52.6178C25.2977 52.6178 33.367 54.8693 35.3418 43.3004Z" fill="url(#paint30_radial_47_1018)"/>
<path d="M19.9861 36.7539C20.1904 36.8232 20.4288 36.7192 20.7352 36.4768C22.0631 35.4723 24.14 32.0778 24.7528 29.9996C24.9912 29.2029 24.9912 28.6141 24.6507 28.4063C24.0719 28.1292 22.2333 29.8264 20.8033 32.5628C19.9521 34.1561 19.169 36.4768 19.9861 36.7539Z" fill="url(#paint31_linear_47_1018)"/>
<path d="M20.7692 36.4768C22.0971 35.4723 24.174 32.0779 24.7869 29.9996C23.9697 30.5885 22.8121 31.974 21.8247 33.8444C21.348 34.6757 20.9395 35.6455 20.7692 36.4768Z" fill="#6340A2"/>
<path opacity="0.5" d="M25.2296 26.8477C25.2296 26.8477 30.1325 30.6578 32.3456 31.0388C34.4906 31.4198 34.082 29.9304 34.048 29.8611C33.1627 28.1293 31.8689 26.7438 29.8941 25.8778C28.3279 25.1851 26.7277 25.67 25.2296 26.8477Z" fill="url(#paint32_linear_47_1018)"/>
<path opacity="0.72" d="M34.9672 42.7807C34.082 43.7159 32.3455 41.6377 29.6217 41.1527C26.8638 40.6678 25.0252 41.6723 24.3783 41.0488C23.7314 40.4254 27.3064 37.1348 31.4262 38.1739C34.7289 39.0399 35.2736 42.469 34.9672 42.7807Z" fill="url(#paint33_linear_47_1018)"/>
<path opacity="0.72" d="M29.0769 51.925C29.0769 51.925 27.6128 52.7217 25.7743 52.2368C23.9016 51.7518 23.5611 50.6434 23.5611 50.6434C23.5611 50.6434 24.4804 50.5395 25.7062 51.1976C26.9319 51.8557 28.1576 52.0289 29.0769 51.925Z" fill="url(#paint34_linear_47_1018)"/>
<path d="M27.8172 31.212C28.1236 31.3159 27.7831 34.6758 27.4767 34.7104C27.1703 34.745 27.0341 33.9484 27.1022 32.84C27.1362 31.7316 27.5107 31.1081 27.8172 31.212Z" fill="white"/>
<path d="M5.24334 41.2222C4.73262 43.3697 6.7074 44.7898 7.5586 44.7206C8.30765 44.6513 10.7931 43.7853 14.0617 41.4646C14.5384 41.1183 15.0491 40.7373 15.5599 40.3216C19.5435 37.1003 25.1954 30.1728 23.3909 29.4801C18.1815 27.5058 5.75406 39.0747 5.24334 41.2222Z" fill="url(#paint35_linear_47_1018)"/>
<path d="M9.22706 44.201C9.22706 44.201 10.1804 42.5384 9.05682 41.0836C7.96728 39.6289 5.41368 40.7372 5.41368 40.7372C5.41368 40.7372 4.32415 42.573 6.23084 43.7853C8.13752 44.9976 9.22706 44.201 9.22706 44.201Z" fill="url(#paint36_linear_47_1018)"/>
<path opacity="0.3" d="M5.24333 41.2222C4.73261 43.3697 6.70739 44.7898 7.55859 44.7206C8.30764 44.6513 10.7931 43.7854 14.0617 41.4646C13.7553 41.6378 11.6103 42.9887 10.691 42.4345C9.70361 41.8457 9.43122 37.897 14.7767 33.2209C19.952 28.6834 23.1866 29.4455 23.3909 29.5147C18.1815 27.5058 5.75405 39.0747 5.24333 41.2222Z" fill="url(#paint37_linear_47_1018)"/>
<path d="M8.30769 41.7764C7.62673 41.049 5.95839 40.9451 5.10719 41.3607C4.25599 41.7764 1.49811 43.9239 4.76837e-06 47.9765C4.76837e-06 47.9765 0.272387 50.3664 1.83859 50.8167C3.03027 51.1631 5.14124 48.1843 6.70744 46.106C8.30769 43.9932 9.43127 42.954 8.30769 41.7764Z" fill="url(#paint38_linear_47_1018)"/>
<path d="M1.56621 50.7475C1.56621 50.7475 5.34552 43.1273 8.98865 43.7161C8.98865 43.7161 8.30769 44.9284 6.09458 47.3184C3.91551 49.7084 2.34931 50.99 1.56621 50.7475Z" fill="url(#paint39_linear_47_1018)"/>
<path opacity="0.5" d="M4.11973 46.8681C4.11973 46.8681 4.05163 48.3575 4.39211 48.8771C4.73259 49.3966 5.20926 49.5005 5.20926 49.5005L5.75403 45.1362C5.75403 45.1362 4.56236 46.1061 4.11973 46.8681Z" fill="url(#paint40_linear_47_1018)"/>
<path d="M5.75418 45.1361C5.75418 45.1361 7.49063 43.5428 8.95469 43.9238C8.95469 43.9238 9.22707 45.7249 6.02656 49.5697C6.02656 49.5697 4.86894 49.9161 4.6306 48.5306C4.6306 48.5306 4.97108 46.6255 5.75418 45.1361Z" fill="url(#paint41_linear_47_1018)"/>
<path d="M6.87763 44.9629C6.5031 44.6858 5.82215 46.7987 6.06048 46.9373C6.29882 47.0066 7.21811 45.2054 6.87763 44.9629Z" fill="white"/>
<path d="M18.5901 35.6109C19.0327 36.4769 17.5686 37.1003 17.1941 36.9618C16.8196 36.8579 18.2836 35.0567 18.5901 35.6109Z" fill="white"/>
<path d="M16.8878 37.3081C17.024 37.412 16.4451 37.9662 16.2749 38.0355C16.0025 38.2087 15.4578 38.2779 15.4237 38.174C15.4237 38.0701 16.7175 37.1695 16.8878 37.3081Z" fill="white"/>
<path d="M41.8791 35.3338C41.811 35.5762 40.1426 34.8142 40.1426 34.0868C40.1426 33.3941 41.9812 34.9874 41.8791 35.3338Z" fill="white"/>
<path d="M12.2573 58.3331C12.5637 58.6448 13.1085 58.6102 13.7895 58.4024C14.5385 58.1599 15.4919 57.675 16.4452 57.0515C19.169 55.3543 22.1312 52.6872 22.3014 51.9252C22.8462 49.2581 20.1905 45.829 18.4881 44.1318C17.8412 43.4737 17.2964 43.058 17.1942 43.0926C16.7857 43.1273 10.7592 56.8091 12.2573 58.3331Z" fill="url(#paint42_linear_47_1018)"/>
<path opacity="0.3" d="M12.2573 58.3331C12.5637 58.6449 13.1085 58.6102 13.7895 58.4024L16.4452 57.0515C16.2069 57.1555 13.3128 58.3331 14.3002 54.1074C15.3216 49.7084 18.6243 44.4435 18.6243 44.4435L18.5221 44.0972C17.8752 43.4391 17.3304 43.0234 17.2283 43.058C16.7857 43.1273 10.7592 56.8091 12.2573 58.3331Z" fill="url(#paint43_linear_47_1018)"/>
<path d="M20.1904 51.0246C20.8373 51.4402 19.2371 52.7911 19.0668 52.7911C18.8966 52.7911 18.9987 52.029 19.3052 51.5441C19.5775 51.1285 19.9861 50.886 20.1904 51.0246Z" fill="white"/>
<path d="M18.8626 52.9297C18.9648 53.0683 18.4541 53.5186 18.386 53.3454C18.3179 53.2068 18.42 52.9297 18.5222 52.8605C18.6243 52.8258 18.7945 52.8605 18.8626 52.9297Z" fill="white"/>
<path d="M50.0504 38.6937C50.0163 38.9708 48.0415 38.0356 48.0415 37.6892C48.0415 37.3428 50.0844 38.2087 50.0504 38.6937Z" fill="white"/>
<path d="M54 42.2613C54 42.2613 53.966 42.8847 53.6255 43.5775C53.6255 43.5775 52.6381 44.2702 50.7654 44.1663C48.8588 44.097 44.9433 42.0534 44.3985 41.7071C43.8537 41.326 43.5813 40.2177 43.5813 40.2177L54 42.2613Z" fill="url(#paint44_linear_47_1018)"/>
<path d="M43.7175 38.1394C44.6709 37.7584 47.1564 38.278 48.6545 38.8668C50.1866 39.421 52.6381 41.1875 54 42.2613C54 42.2613 53.966 43.3004 51.9912 43.5429C50.0164 43.7853 44.6709 41.4993 43.7856 40.5294C42.9004 39.5249 43.7175 38.1394 43.7175 38.1394Z" fill="url(#paint45_linear_47_1018)"/>
<path d="M50.5612 39.8367C50.5612 39.8367 47.1904 39.3864 45.488 38.0702C45.488 38.0702 48.3821 37.9317 50.5612 39.8367Z" fill="url(#paint46_linear_47_1018)"/>
<path d="M45.9988 38.1395C45.9988 38.1395 47.9736 39.3172 50.0505 39.3864C50.0505 39.3864 52.1615 39.4211 52.2636 39.1786C52.3658 38.9361 52.4339 38.0009 51.8891 37.7585C51.3784 37.4814 47.7353 37.0657 45.9988 38.1395Z" fill="url(#paint47_linear_47_1018)"/>
<path d="M50.2548 39.7674C50.2548 39.7674 47.7352 39.9406 45.0114 41.3607L44.705 41.1875C44.705 41.1875 46.6797 39.7674 50.2548 39.7674Z" fill="url(#paint48_linear_47_1018)"/>
<path d="M50.3569 42.7809C50.3569 42.7809 49.2334 42.0881 48.0417 42.1574C48.0417 42.192 49.6419 42.9194 50.3569 42.7809Z" fill="white"/>
<defs>
<linearGradient id="paint0_linear_47_1018" x1="36.303" y1="10.528" x2="34.5949" y2="1.81889" gradientUnits="userSpaceOnUse">
<stop stop-color="#45FFCD"/>
<stop offset="1" stop-color="#22E0FF"/>
</linearGradient>
<linearGradient id="paint1_linear_47_1018" x1="33.2026" y1="7.32901" x2="31.7444" y2="-0.10586" gradientUnits="userSpaceOnUse">
<stop stop-color="#B9ACF4"/>
<stop offset="1" stop-color="#E1D1F5"/>
</linearGradient>
<linearGradient id="paint2_linear_47_1018" x1="29.6074" y1="28.5316" x2="20.5646" y2="1.28881" gradientUnits="userSpaceOnUse">
<stop stop-color="#CBC1F7"/>
<stop offset="1" stop-color="#E8DCF7"/>
</linearGradient>
<linearGradient id="paint3_linear_47_1018" x1="37.3223" y1="23.4124" x2="14.692" y2="27.7011" gradientUnits="userSpaceOnUse">
<stop stop-color="#8879EA"/>
<stop offset="1" stop-color="#9E8CEF"/>
</linearGradient>
<linearGradient id="paint4_linear_47_1018" x1="28.0117" y1="28.1998" x2="24.4289" y2="9.93217" gradientUnits="userSpaceOnUse">
<stop stop-color="#9D68C2"/>
<stop offset="1" stop-color="#CCEDFF"/>
</linearGradient>
<linearGradient id="paint5_linear_47_1018" x1="26.4877" y1="28.0926" x2="25.4458" y2="22.7801" gradientUnits="userSpaceOnUse">
<stop stop-color="#8DA4E5"/>
<stop offset="1" stop-color="#755CBB"/>
</linearGradient>
<linearGradient id="paint6_linear_47_1018" x1="26.1008" y1="26.3382" x2="25.4458" y2="22.8449" gradientUnits="userSpaceOnUse">
<stop stop-color="#5E36CC"/>
<stop offset="1" stop-color="#6C4A96"/>
</linearGradient>
<linearGradient id="paint7_linear_47_1018" x1="31.1496" y1="21.9895" x2="26.9956" y2="0.808978" gradientUnits="userSpaceOnUse">
<stop stop-color="#0665BD"/>
<stop offset="1" stop-color="#1A1F77"/>
</linearGradient>
<linearGradient id="paint8_linear_47_1018" x1="14.2095" y1="15.0909" x2="14.2839" y2="0.470253" gradientUnits="userSpaceOnUse">
<stop stop-color="#B9ACF4"/>
<stop offset="1" stop-color="#E1D1F5"/>
</linearGradient>
<linearGradient id="paint9_linear_47_1018" x1="13.1113" y1="14.5302" x2="13.1825" y2="0.532681" gradientUnits="userSpaceOnUse">
<stop stop-color="#BE9DEA"/>
<stop offset="1" stop-color="#9E8CEF"/>
</linearGradient>
<linearGradient id="paint10_linear_47_1018" x1="12.071" y1="14.8726" x2="12.1408" y2="1.15222" gradientUnits="userSpaceOnUse">
<stop stop-color="#45FFCD"/>
<stop offset="1" stop-color="#22E0FF"/>
</linearGradient>
<linearGradient id="paint11_linear_47_1018" x1="46.8526" y1="23.2932" x2="44.3198" y2="15.6629" gradientUnits="userSpaceOnUse">
<stop stop-color="#BE9DEA"/>
<stop offset="1" stop-color="#9E8CEF"/>
</linearGradient>
<linearGradient id="paint12_linear_47_1018" x1="44.7704" y1="23.6429" x2="43.728" y2="20.1528" gradientUnits="userSpaceOnUse">
<stop stop-color="#DD1A8F"/>
<stop offset="1" stop-color="#FE117E"/>
</linearGradient>
<linearGradient id="paint13_linear_47_1018" x1="44.5061" y1="22.0268" x2="44.414" y2="20.3616" gradientUnits="userSpaceOnUse">
<stop stop-color="#D93DE3"/>
<stop offset="1" stop-color="#FF6DBA"/>
</linearGradient>
<linearGradient id="paint14_linear_47_1018" x1="24.53" y1="11.9287" x2="24.1489" y2="9.98586" gradientUnits="userSpaceOnUse">
<stop stop-color="#45FFCD"/>
<stop offset="1" stop-color="#22E0FF"/>
</linearGradient>
<linearGradient id="paint15_linear_47_1018" x1="37.1222" y1="11.794" x2="36.7685" y2="9.99057" gradientUnits="userSpaceOnUse">
<stop stop-color="#45FFCD"/>
<stop offset="1" stop-color="#22E0FF"/>
</linearGradient>
<linearGradient id="paint16_linear_47_1018" x1="36.5371" y1="3.8267" x2="18.5999" y2="7.22596" gradientUnits="userSpaceOnUse">
<stop/>
<stop offset="1" stop-color="#6A9BFF"/>
</linearGradient>
<linearGradient id="paint17_linear_47_1018" x1="38.2203" y1="18.7636" x2="25.0758" y2="21.2546" gradientUnits="userSpaceOnUse">
<stop/>
<stop offset="1" stop-color="#6A9BFF"/>
</linearGradient>
<linearGradient id="paint18_linear_47_1018" x1="41.1827" y1="18.1826" x2="39.478" y2="9.49036" gradientUnits="userSpaceOnUse">
<stop/>
<stop offset="1" stop-color="#6A9BFF"/>
</linearGradient>
<linearGradient id="paint19_linear_47_1018" x1="12.3313" y1="14.4256" x2="12.3517" y2="10.4185" gradientUnits="userSpaceOnUse">
<stop stop-color="#D4E2FF"/>
<stop offset="1"/>
</linearGradient>
<linearGradient id="paint20_linear_47_1018" x1="15.6589" y1="3.67976" x2="7.94124" y2="3.64183" gradientUnits="userSpaceOnUse">
<stop/>
<stop offset="1" stop-color="#D4E2FF"/>
</linearGradient>
<linearGradient id="paint21_linear_47_1018" x1="39.9509" y1="42.5393" x2="38.0159" y2="27.3951" gradientUnits="userSpaceOnUse">
<stop stop-color="#CBC1F7"/>
<stop offset="1" stop-color="#D4BEF1"/>
</linearGradient>
<linearGradient id="paint22_linear_47_1018" x1="43.8071" y1="41.9575" x2="44.2447" y2="37.7351" gradientUnits="userSpaceOnUse">
<stop stop-color="#BE9DEA"/>
<stop offset="1" stop-color="#9E8CEF"/>
</linearGradient>
<linearGradient id="paint23_linear_47_1018" x1="38.9071" y1="42.0023" x2="38.9071" y2="28.0644" gradientUnits="userSpaceOnUse">
<stop stop-color="#9D68C2"/>
<stop offset="1" stop-color="#CCEDFF"/>
</linearGradient>
<linearGradient id="paint24_linear_47_1018" x1="31.0231" y1="60.0087" x2="31.3575" y2="47.4832" gradientUnits="userSpaceOnUse">
<stop stop-color="#CBC1F7"/>
<stop offset="1" stop-color="#E8DCF7"/>
</linearGradient>
<linearGradient id="paint25_linear_47_1018" x1="34.7954" y1="50.3907" x2="27.5829" y2="49.3106" gradientUnits="userSpaceOnUse">
<stop stop-color="#8879EA"/>
<stop offset="1" stop-color="#9E8CEF"/>
</linearGradient>
<linearGradient id="paint26_linear_47_1018" x1="29.8584" y1="59.4499" x2="31.7728" y2="47.0965" gradientUnits="userSpaceOnUse">
<stop stop-color="#9D68C2"/>
<stop offset="1" stop-color="#CCEDFF"/>
</linearGradient>
<linearGradient id="paint27_linear_47_1018" x1="24.8707" y1="52.552" x2="29.4005" y2="25.7257" gradientUnits="userSpaceOnUse">
<stop stop-color="#CBC1F7"/>
<stop offset="1" stop-color="#E8DCF7"/>
</linearGradient>
<linearGradient id="paint28_linear_47_1018" x1="18.5166" y1="46.0568" x2="22.5624" y2="32.7019" gradientUnits="userSpaceOnUse">
<stop stop-color="#9D68C2"/>
<stop offset="1" stop-color="#CCEDFF"/>
</linearGradient>
<linearGradient id="paint29_linear_47_1018" x1="34.6015" y1="46.5326" x2="22.0904" y2="42.8704" gradientUnits="userSpaceOnUse">
<stop stop-color="#BE9DEA"/>
<stop offset="1" stop-color="#9E8CEF"/>
</linearGradient>
<radialGradient id="paint30_radial_47_1018" cx="0" cy="0" r="1" gradientUnits="userSpaceOnUse" gradientTransform="translate(26.415 50.3634) rotate(-163.146) scale(9.85235 9.9945)">
<stop stop-color="#45FFCD"/>
<stop offset="1" stop-color="#22E0FF"/>
</radialGradient>
<linearGradient id="paint31_linear_47_1018" x1="23.8658" y1="33.0486" x2="20.6446" y2="32.1057" gradientUnits="userSpaceOnUse">
<stop stop-color="#8879EA"/>
<stop offset="1" stop-color="#9E8CEF"/>
</linearGradient>
<linearGradient id="paint32_linear_47_1018" x1="29.2148" y1="30.1266" x2="30.4564" y2="26.0283" gradientUnits="userSpaceOnUse">
<stop stop-color="#8DA4E5"/>
<stop offset="1" stop-color="#755CBB"/>
</linearGradient>
<linearGradient id="paint33_linear_47_1018" x1="35.2581" y1="41.8756" x2="24.877" y2="38.8368" gradientUnits="userSpaceOnUse">
<stop/>
<stop offset="1" stop-color="#D4E2FF"/>
</linearGradient>
<linearGradient id="paint34_linear_47_1018" x1="26.0047" y1="52.3254" x2="26.3721" y2="51.1126" gradientUnits="userSpaceOnUse">
<stop stop-color="#D4E2FF"/>
<stop offset="1"/>
</linearGradient>
<linearGradient id="paint35_linear_47_1018" x1="10.106" y1="45.9842" x2="18.4171" y2="27.266" gradientUnits="userSpaceOnUse">
<stop stop-color="#CBC1F7"/>
<stop offset="1" stop-color="#E8DCF7"/>
</linearGradient>
<linearGradient id="paint36_linear_47_1018" x1="6.48338" y1="43.9364" x2="8.50427" y2="40.5958" gradientUnits="userSpaceOnUse">
<stop stop-color="#BE9DEA"/>
<stop offset="1" stop-color="#9E8CEF"/>
</linearGradient>
<linearGradient id="paint37_linear_47_1018" x1="8.35639" y1="45.4612" x2="19.462" y2="27.1031" gradientUnits="userSpaceOnUse">
<stop stop-color="#9D68C2"/>
<stop offset="1" stop-color="#CCEDFF"/>
</linearGradient>
<linearGradient id="paint38_linear_47_1018" x1="0.327529" y1="49.6285" x2="8.1348" y2="41.6014" gradientUnits="userSpaceOnUse">
<stop stop-color="#CBC1F7"/>
<stop offset="1" stop-color="#E8DCF7"/>
</linearGradient>
<linearGradient id="paint39_linear_47_1018" x1="2.18846" y1="51.2263" x2="8.26178" y2="43.1745" gradientUnits="userSpaceOnUse">
<stop stop-color="#BE9DEA"/>
<stop offset="1" stop-color="#9E8CEF"/>
</linearGradient>
<linearGradient id="paint40_linear_47_1018" x1="4.19089" y1="48.8264" x2="6.53923" y2="45.713" gradientUnits="userSpaceOnUse">
<stop stop-color="#8DA4E5"/>
<stop offset="1" stop-color="#755CBB"/>
</linearGradient>
<linearGradient id="paint41_linear_47_1018" x1="4.50731" y1="48.8342" x2="9.12593" y2="44.0855" gradientUnits="userSpaceOnUse">
<stop stop-color="#CBC1F7"/>
<stop offset="1" stop-color="#E8DCF7"/>
</linearGradient>
<linearGradient id="paint42_linear_47_1018" x1="16.1331" y1="59.2842" x2="19.5318" y2="43.5684" gradientUnits="userSpaceOnUse">
<stop stop-color="#CBC1F7"/>
<stop offset="1" stop-color="#E8DCF7"/>
</linearGradient>
<linearGradient id="paint43_linear_47_1018" x1="13.4258" y1="58.816" x2="18.7968" y2="43.6207" gradientUnits="userSpaceOnUse">
<stop stop-color="#9D68C2"/>
<stop offset="1" stop-color="#CCEDFF"/>
</linearGradient>
<linearGradient id="paint44_linear_47_1018" x1="47.1842" y1="43.8014" x2="50.3993" y2="39.5387" gradientUnits="userSpaceOnUse">
<stop stop-color="#BE9DEA"/>
<stop offset="1" stop-color="#9E8CEF"/>
</linearGradient>
<linearGradient id="paint45_linear_47_1018" x1="49.0548" y1="43.9191" x2="48.2344" y2="37.4975" gradientUnits="userSpaceOnUse">
<stop stop-color="#E8DCF7"/>
<stop offset="1" stop-color="#CBC1F7"/>
</linearGradient>
<linearGradient id="paint46_linear_47_1018" x1="47.5489" y1="39.6031" x2="48.549" y2="38.2771" gradientUnits="userSpaceOnUse">
<stop stop-color="#BE9DEA"/>
<stop offset="1" stop-color="#9E8CEF"/>
</linearGradient>
<linearGradient id="paint47_linear_47_1018" x1="49.3422" y1="39.6203" x2="49.0563" y2="37.3824" gradientUnits="userSpaceOnUse">
<stop stop-color="#CBC1F7"/>
<stop offset="1" stop-color="#E8DCF7"/>
</linearGradient>
<linearGradient id="paint48_linear_47_1018" x1="49.6122" y1="38.8815" x2="45.2897" y2="42.0029" gradientUnits="userSpaceOnUse">
<stop stop-color="#BE9DEA"/>
<stop offset="1" stop-color="#9E8CEF"/>
</linearGradient>
</defs>
</svg>
