<svg width="62" height="62" viewBox="0 0 62 62" fill="none" xmlns="http://www.w3.org/2000/svg">
<path d="M1 39.6667H60.9998V4.33334C60.9998 2.4924 59.6348 1 57.9511 1H4.04877C2.365 1 1 2.4924 1 4.33334V39.6667Z" stroke="white" stroke-width="2" stroke-miterlimit="10" stroke-linecap="round" stroke-linejoin="round"/>
<path d="M42.2804 20.3333C42.2804 27.1448 37.2299 32.6667 30.9999 32.6667C24.77 32.6667 19.7195 27.1448 19.7195 20.3333C19.7195 13.5219 24.77 8.00001 30.9999 8.00001C37.2299 8.00001 42.2804 13.5219 42.2804 20.3333Z" stroke="white" stroke-width="2" stroke-miterlimit="10" stroke-linecap="round" stroke-linejoin="round"/>
<path d="M60.9998 39.6667V44.3333C60.9998 46.1743 59.6348 47.6667 57.9511 47.6667H4.04877C2.365 47.6667 1 46.1743 1 44.3333V39.6667H60.9998Z" stroke="white" stroke-width="2" stroke-miterlimit="10" stroke-linecap="round" stroke-linejoin="round"/>
<path d="M41.3657 55H36.4877V47.6667H25.5121V55H20.6341C18.9503 55 17.5853 56.4924 17.5853 58.3333V61H44.4145V58.3333C44.4145 56.4924 43.0495 55 41.3657 55Z" stroke="white" stroke-width="2" stroke-miterlimit="10" stroke-linecap="round" stroke-linejoin="round"/>
<path d="M25.5121 55H27.9511" stroke="white" stroke-width="2" stroke-miterlimit="10" stroke-linecap="round" stroke-linejoin="round"/>
<path d="M36.4877 55H34.0487" stroke="white" stroke-width="2" stroke-miterlimit="10" stroke-linecap="round" stroke-linejoin="round"/>
<path d="M33.0169 15.5304C33.0169 15.5304 31.8689 14.3932 30.0994 14.9657C28.4746 15.4913 28.0711 17.8791 29.1752 18.8092C29.8093 19.3433 30.7633 19.7824 32.0489 20.2705C34.9262 21.3631 33.8626 25.7215 30.9356 25.7424C29.7933 25.7505 29.2594 25.6727 28.256 24.9676" stroke="white" stroke-width="2" stroke-miterlimit="10" stroke-linecap="round" stroke-linejoin="round"/>
<path d="M30.9999 25.8V27.3333" stroke="white" stroke-width="2" stroke-miterlimit="10" stroke-linecap="round" stroke-linejoin="round"/>
<path d="M30.9999 13.3333V14.7333" stroke="white" stroke-width="2" stroke-miterlimit="10" stroke-linecap="round" stroke-linejoin="round"/>
<path d="M42.3657 5.52268L38.251 10.8853C36.2901 9.08401 33.7607 8.00001 30.9999 8.00001C28.2401 8.00001 25.7096 9.08401 23.7499 10.8853L19.634 5.52268C22.7072 2.70001 26.6718 1.00001 30.9999 1.00001C35.3279 1.00001 39.2925 2.70001 42.3657 5.52268Z" stroke="white" stroke-width="2" stroke-miterlimit="10" stroke-linecap="round" stroke-linejoin="round"/>
<path d="M48.6828 20.3333C48.6828 23.856 47.8218 27.1573 46.3157 30.0013L40.7706 26.5013C41.7304 24.6867 42.2804 22.58 42.2804 20.3333C42.2804 16.54 40.7145 13.148 38.2511 10.8853L42.3657 5.52268C46.2279 9.06934 48.6828 14.388 48.6828 20.3333Z" stroke="white" stroke-width="2" stroke-miterlimit="10" stroke-linecap="round" stroke-linejoin="round"/>
<path d="M46.3157 30.0013C45.2828 31.9531 43.9466 33.6929 42.3669 35.1427L38.2511 29.7813C39.2587 28.8561 40.1112 27.7462 40.7706 26.5013L46.3157 30.0013Z" stroke="white" stroke-width="2" stroke-miterlimit="10" stroke-linecap="round" stroke-linejoin="round"/>
<path d="M42.3669 35.1427C39.2938 37.9667 35.3279 39.6667 30.9999 39.6667C21.2341 39.6667 13.317 31.0107 13.317 20.3333C13.317 14.388 15.7719 9.06934 19.6341 5.52268L23.7499 10.8853C21.2853 13.1467 19.7194 16.54 19.7194 20.3333C19.7194 27.1453 24.7694 32.6667 30.9999 32.6667C33.7609 32.6667 36.2901 31.5827 38.2511 29.7813L42.3669 35.1427Z" stroke="white" stroke-width="2" stroke-miterlimit="10" stroke-linecap="round" stroke-linejoin="round"/>
<path d="M10.7561 31.6667C10.7561 33.1395 9.66414 34.3333 8.31707 34.3333C6.97 34.3333 5.87805 33.1395 5.87805 31.6667C5.87805 30.1939 6.97 29 8.31707 29C9.66414 29 10.7561 30.1939 10.7561 31.6667Z" stroke="white" stroke-width="2" stroke-miterlimit="10" stroke-linecap="round" stroke-linejoin="round"/>
<path d="M10.7561 8.99999C10.7561 10.4728 9.66414 11.6667 8.31707 11.6667C6.97 11.6667 5.87805 10.4728 5.87805 8.99999C5.87805 7.52719 6.97 6.33332 8.31707 6.33332C9.66414 6.33332 10.7561 7.52719 10.7561 8.99999Z" stroke="white" stroke-width="2" stroke-miterlimit="10" stroke-linecap="round" stroke-linejoin="round"/>
<path d="M56.1218 31.6667C56.1218 33.1395 55.0299 34.3333 53.6828 34.3333C52.3357 34.3333 51.2438 33.1395 51.2438 31.6667C51.2438 30.1939 52.3357 29 53.6828 29C55.0299 29 56.1218 30.1939 56.1218 31.6667Z" stroke="white" stroke-width="2" stroke-miterlimit="10" stroke-linecap="round" stroke-linejoin="round"/>
<path d="M10.7561 9H16.6097" stroke="white" stroke-width="2" stroke-miterlimit="10" stroke-linecap="round" stroke-linejoin="round"/>
<path d="M8.31702 29V23.6667H13.5609" stroke="white" stroke-width="2" stroke-miterlimit="10" stroke-linecap="round" stroke-linejoin="round"/>
<path d="M53.6827 29V23.6667H48.4388" stroke="white" stroke-width="2" stroke-miterlimit="10" stroke-linecap="round" stroke-linejoin="round"/>
<path d="M56.1218 11.6667H52.2194" stroke="white" stroke-width="2" stroke-miterlimit="10" stroke-linecap="round" stroke-linejoin="round"/>
<path d="M56.1218 6.33334H49.6584" stroke="white" stroke-width="2" stroke-miterlimit="10" stroke-linecap="round" stroke-linejoin="round"/>
</svg>
