<svg width="42" height="42" viewBox="0 0 42 42" fill="none" xmlns="http://www.w3.org/2000/svg">
<path d="M36.3314 8.04713C35.3154 9.06315 33.6682 9.06315 32.6521 8.04713C31.6361 7.03112 31.6361 5.38388 32.6521 4.36786C33.6682 3.35185 35.3154 3.35185 36.3314 4.36786C37.3474 5.38388 37.3474 7.03112 36.3314 8.04713Z" stroke="white" stroke-width="2" stroke-miterlimit="10" stroke-linecap="round" stroke-linejoin="round"/>
<path d="M9.34802 37.6322C8.332 38.6482 6.68477 38.6482 5.66875 37.6322C4.65273 36.6162 4.65273 34.969 5.66875 33.9529C6.68477 32.9369 8.332 32.9369 9.34802 33.9529C10.364 34.969 10.364 36.6162 9.34802 37.6322Z" stroke="white" stroke-width="2" stroke-miterlimit="10" stroke-linecap="round" stroke-linejoin="round"/>
<path d="M17.0558 40.6111C18.3545 40.8704 19.6756 41.0007 20.9999 41C32.0456 41 40.9999 32.0457 40.9999 21C40.9999 16.1781 39.2933 11.755 36.4514 8.30114" stroke="white" stroke-width="2" stroke-miterlimit="10" stroke-linecap="round" stroke-linejoin="round"/>
<path d="M13 39.0004L13.0004 39" stroke="white" stroke-width="2" stroke-miterlimit="2.613" stroke-linecap="round" stroke-linejoin="round"/>
<path d="M29 3.00043L29.0004 3.00002" stroke="white" stroke-width="2" stroke-miterlimit="2.613" stroke-linecap="round" stroke-linejoin="round"/>
<path d="M24.9821 1.3965C23.6712 1.13215 22.3373 0.999318 21 0.999994C9.95431 0.999994 1 9.9543 1 21C1 25.8219 2.70667 30.245 5.54854 33.6989" stroke="white" stroke-width="2" stroke-miterlimit="10" stroke-linecap="round" stroke-linejoin="round"/>
<path d="M21 26.9049C17.7389 26.9049 15.0951 24.2612 15.0951 21C15.0951 17.7389 17.7389 15.0952 21 15.0952C24.2611 15.0952 26.9049 17.7389 26.9049 21C26.9049 24.2612 24.2611 26.9049 21 26.9049ZM32.7752 18.451C32.4705 17.033 31.9107 15.6821 31.1232 14.4642L32.6809 12.9064L29.0851 9.31312L27.5285 10.8696C26.3106 10.0821 24.9598 9.52232 23.5418 9.21767V7.01629H18.4582V9.21767C17.0402 9.52232 15.6894 10.0821 14.4715 10.8696L12.915 9.31312L9.31912 12.9064L10.8768 14.4642C10.0893 15.6821 9.52952 17.033 9.22481 18.451H7.01766L7.01489 23.5345H9.22473C9.52946 24.9525 10.0892 26.3034 10.8768 27.5214L9.3131 29.0851L12.9064 32.681L14.4713 31.116C15.6893 31.9036 17.0402 32.4634 18.4582 32.7681V34.9838H23.5418V32.7681C24.9599 32.4634 26.3108 31.9036 27.5287 31.116L29.0937 32.681L32.6869 29.0851L31.1233 27.5214C31.9108 26.3034 32.4706 24.9525 32.7753 23.5345H34.9851V18.451H32.7752Z" stroke="white" stroke-width="2" stroke-miterlimit="10" stroke-linecap="round" stroke-linejoin="round"/>
</svg>
