<svg width="60" height="60" viewBox="0 0 60 60" fill="none" xmlns="http://www.w3.org/2000/svg">
<path d="M46.1879 20.2957C45.8552 19.7392 45.1342 19.5579 44.5776 19.8905C44.021 20.2231 43.8396 20.9442 44.1723 21.5007C44.6654 22.3264 45.0861 23.1931 45.4298 24.0912C47.0081 28.2128 46.8871 32.7021 45.0887 36.7325C44.4305 38.2074 43.5758 39.5556 42.5556 40.7504V39.8625C42.5556 35.4396 39.4118 31.7375 35.2414 30.8723C36.6129 29.518 37.4647 27.6385 37.4647 25.5634C37.4647 21.4469 34.1157 18.0981 29.9991 18.0981C25.8827 18.0981 22.5336 21.4469 22.5336 25.5634C22.5336 27.6385 23.3853 29.518 24.7568 30.8723C20.5866 31.7375 17.4428 35.4396 17.4428 39.8625V40.753C16.2297 39.3346 15.2558 37.7034 14.5686 35.9087C12.9901 31.7871 13.1114 27.2978 14.9097 23.2673C16.7081 19.237 19.9685 16.1482 24.0901 14.5699C28.3004 12.9575 32.8717 13.116 36.9614 15.0156C37.5496 15.2891 38.2479 15.0335 38.521 14.4453C38.7942 13.8573 38.539 13.159 37.9508 12.8858C33.2799 10.7163 28.0589 10.5353 23.2503 12.3769C18.5429 14.1794 14.8192 17.7072 12.7652 22.3105C10.7112 26.9137 10.5728 32.0413 12.3754 36.7485C14.1781 41.4557 17.706 45.1793 22.3094 47.2332C24.7686 48.3306 27.3773 48.8811 29.992 48.8811C32.2713 48.881 34.5554 48.4625 36.7478 47.623C41.4553 45.8204 45.1789 42.2926 47.2329 37.6894C49.2869 33.0861 49.4253 27.9586 47.6227 23.2514C47.2305 22.2266 46.7505 21.2377 46.1879 20.2957ZM29.9994 20.4464C32.821 20.4464 35.1166 22.7419 35.1166 25.5635C35.1166 28.3851 32.8211 30.6806 29.9994 30.6806C27.1777 30.6806 24.8821 28.3851 24.8821 25.5635C24.8821 22.7419 27.1776 20.4464 29.9994 20.4464ZM35.9083 45.43C31.7866 47.0082 27.2969 46.8871 23.2665 45.0888C22.0272 44.5371 20.8602 43.8359 19.7913 43.0007V39.8624C19.7913 36.0946 22.8568 33.029 26.6247 33.029H33.3739C37.1418 33.029 40.2074 36.0944 40.2074 39.8624V43.0016C38.9211 44.0088 37.4773 44.8291 35.9083 45.43Z" fill="white"/>
<path d="M57.7543 35.762L53.8123 34.0712C54.2442 31.5663 54.2764 29.0362 53.9081 26.5257L57.8897 24.9346C58.7214 24.6022 59.3737 23.9659 59.7267 23.143C60.0798 22.32 60.0911 21.4089 59.7588 20.5773L58.0569 16.3183C57.3708 14.6017 55.4164 13.7631 53.6995 14.4492L49.7178 16.0404C48.2544 13.9676 46.4874 12.1565 44.448 10.6391L46.139 6.69713C46.8677 4.99826 46.0783 3.02318 44.3795 2.29451L40.1645 0.486426C39.3414 0.133457 38.4303 0.12209 37.5987 0.454316C36.7671 0.78666 36.1147 1.42275 35.7616 2.24576L34.0706 6.18748C31.5764 5.75566 29.0293 5.72334 26.5249 6.09174L24.9338 2.11018C24.6015 1.27861 23.9652 0.626231 23.1422 0.273262C22.3192 -0.0797072 21.408 -0.0910744 20.5764 0.241152L16.3173 1.94307C15.4858 2.27541 14.8334 2.91174 14.4804 3.73463C14.1273 4.55764 14.116 5.46889 14.4483 6.30033L16.0394 10.2818C13.9665 11.7452 12.1554 13.5122 10.6378 15.5515L6.69583 13.8606C4.99668 13.1319 3.02189 13.9212 2.29307 15.62L0.484815 19.8351C-0.243997 21.534 0.545286 23.5091 2.24432 24.238L6.18617 25.9288C5.75445 28.423 5.72213 30.9699 6.09042 33.4743L2.10862 35.0653C0.392 35.7513 -0.446503 37.7059 0.239417 39.4226L1.9415 43.6815C2.62742 45.398 4.58229 46.2362 6.2989 45.5507L10.2806 43.9595C11.7397 46.0279 13.5185 47.8511 15.5503 49.3608L13.8595 53.3026C13.5064 54.1255 13.495 55.0368 13.8274 55.8683C14.1597 56.7 14.796 57.3523 15.619 57.7054L19.8341 59.5134C20.6569 59.8664 21.5683 59.8779 22.3999 59.5455C23.2315 59.2132 23.8839 58.577 24.2369 57.7541L25.9278 53.8123C28.4221 54.2442 30.9692 54.2765 33.4735 53.908L35.0648 57.8896C35.3971 58.7213 36.0335 59.3735 36.8564 59.7266C37.2736 59.9065 37.7231 59.9995 38.1775 60C38.604 59.9996 39.0265 59.9177 39.4223 59.7587L43.6814 58.0568C45.398 57.3708 46.2365 55.4162 45.5506 53.6995L43.9593 49.7181C46.0278 48.2589 47.851 46.4801 49.3608 44.4484L53.3029 46.1393C55.0014 46.868 56.9769 46.0786 57.7056 44.3798L59.5138 40.1648C59.8669 39.3419 59.8782 38.4307 59.5459 37.5991C59.2135 36.7676 58.5774 36.1151 57.7543 35.762ZM57.3555 39.2391L55.5473 43.4542C55.4957 43.5756 55.4204 43.6855 55.326 43.7776C55.2315 43.8697 55.1198 43.9422 54.9971 43.9908C54.8747 44.0401 54.7438 44.0646 54.6119 44.063C54.48 44.0613 54.3497 44.0335 54.2286 43.9812L49.4178 41.9175C49.1678 41.8104 48.8884 41.7933 48.6273 41.8692C48.3662 41.945 48.1394 42.1091 47.9858 42.3335C46.3537 44.7185 44.2992 46.7227 41.8797 48.2904C41.6514 48.4383 41.4816 48.6608 41.3992 48.92C41.3168 49.1792 41.3269 49.459 41.4278 49.7115L43.3699 54.5711C43.5753 55.0853 43.3242 55.6709 42.8098 55.8763L38.5507 57.5782C38.0364 57.784 37.4509 57.5326 37.2455 57.0183L35.3034 52.1587C35.2024 51.9063 35.0169 51.6966 34.7786 51.5656C34.5403 51.4347 34.2639 51.3904 33.9966 51.4405C31.163 51.972 28.2931 51.9357 25.4667 51.3323C25.2008 51.2755 24.9233 51.3127 24.6818 51.4377C24.4403 51.5627 24.2497 51.7677 24.1425 52.0177L22.0789 56.8283C22.0272 56.9497 21.952 57.0597 21.8575 57.1518C21.763 57.2439 21.6513 57.3164 21.5286 57.365C21.4062 57.4143 21.2752 57.4388 21.1433 57.4372C21.0114 57.4355 20.8811 57.4077 20.7599 57.3553L16.5447 55.5472C16.4233 55.4956 16.3133 55.4203 16.2212 55.3259C16.129 55.2314 16.0566 55.1196 16.008 54.9969C15.9587 54.8745 15.9342 54.7436 15.9358 54.6117C15.9375 54.4798 15.9652 54.3495 16.0176 54.2284L18.0812 49.4177C18.1884 49.1678 18.2055 48.8884 18.1296 48.6273C18.0537 48.3661 17.8896 48.1394 17.6652 47.9858C15.2802 46.3539 13.276 44.2994 11.7082 41.8799C11.5604 41.6516 11.3378 41.4817 11.0786 41.3993C10.8194 41.3169 10.5396 41.327 10.287 41.428L5.42747 43.37C4.91347 43.5752 4.32751 43.3245 4.12208 42.81L2.42011 38.5512C2.21467 38.0369 2.46581 37.4514 2.98005 37.2459L7.83973 35.3039C8.09226 35.203 8.30192 35.0175 8.43292 34.7792C8.56392 34.5408 8.60812 34.2644 8.558 33.9971C8.02642 31.1635 8.06287 28.2939 8.66617 25.4675C8.72293 25.2016 8.68562 24.9242 8.56061 24.6827C8.4356 24.4412 8.23064 24.2505 7.98071 24.1433L3.17002 22.0798C2.66106 21.8614 2.42456 21.2698 2.64289 20.7608L4.45103 16.5458C4.66936 16.0367 5.26094 15.7999 5.77002 16.0187L10.5808 18.0824C10.8308 18.1895 11.1101 18.2065 11.3712 18.1307C11.6323 18.0548 11.8591 17.8907 12.0127 17.6664C13.6449 15.2814 15.6993 13.2772 18.1188 11.7095C18.347 11.5616 18.5169 11.339 18.5993 11.0798C18.6817 10.8207 18.6716 10.5409 18.5707 10.2883L16.6286 5.42893C16.5793 5.30655 16.5548 5.17562 16.5565 5.04371C16.5581 4.91179 16.5859 4.78152 16.6382 4.66041C16.6899 4.53899 16.7651 4.42903 16.8596 4.3369C16.9541 4.24477 17.0659 4.1723 17.1885 4.12369L21.4476 2.42178C21.57 2.37245 21.701 2.3479 21.8329 2.34955C21.9649 2.3512 22.0952 2.37902 22.2163 2.43139C22.3377 2.48304 22.4476 2.55828 22.5398 2.65274C22.6319 2.74721 22.7043 2.85902 22.7529 2.9817L24.695 7.84123C24.7959 8.09377 24.9814 8.30344 25.2197 8.43443C25.4581 8.56543 25.7345 8.60962 26.0018 8.55948C28.8356 8.02803 31.7054 8.06436 34.5317 8.66764C34.7976 8.72432 35.075 8.68699 35.3165 8.56202C35.558 8.43704 35.7486 8.23217 35.8559 7.98233L37.9195 3.17166C37.9712 3.05025 38.0465 2.9403 38.1409 2.84818C38.2354 2.75605 38.3472 2.68357 38.4699 2.63494C38.5923 2.58566 38.7232 2.56114 38.8552 2.56281C38.9871 2.56448 39.1174 2.5923 39.2385 2.64467L43.4538 4.45276C43.7002 4.55846 43.8909 4.75381 43.9904 5.00307C44.0899 5.25233 44.0865 5.52514 43.9808 5.77158L41.917 10.5823C41.8099 10.8322 41.7928 11.1116 41.8686 11.3727C41.9445 11.6339 42.1087 11.8606 42.3331 12.0142C44.7182 13.6462 46.7224 15.7007 48.29 18.1201C48.4379 18.3484 48.6605 18.5182 48.9197 18.6006C49.1789 18.683 49.4586 18.6729 49.7112 18.572L54.571 16.6299C55.0852 16.4249 55.6708 16.6757 55.8763 17.19L57.5782 21.4489C57.7837 21.9632 57.5327 22.5487 57.0183 22.7542L52.1586 24.6962C51.9061 24.7971 51.6964 24.9826 51.5654 25.2209C51.4344 25.4593 51.3902 25.7357 51.4404 26.003C51.9719 28.8366 51.9356 31.7062 51.3322 34.5326C51.2754 34.7985 51.3127 35.0759 51.4377 35.3174C51.5627 35.5589 51.7676 35.7496 52.0175 35.8568L56.8283 37.9203C56.9497 37.972 57.0597 38.0473 57.1518 38.1417C57.2439 38.2361 57.3164 38.3479 57.3651 38.4705C57.4144 38.5929 57.439 38.7238 57.4373 38.8558C57.4357 38.9877 57.4079 39.118 57.3555 39.2391Z" fill="white"/>
<path d="M41.8389 18.021C42.4873 18.021 43.013 17.4953 43.013 16.8469C43.013 16.1984 42.4873 15.6728 41.8389 15.6728C41.1905 15.6728 40.6648 16.1984 40.6648 16.8469C40.6648 17.4953 41.1905 18.021 41.8389 18.021Z" fill="white"/>
<path d="M31.4653 36.9471C30.8907 36.649 30.1834 36.873 29.8854 37.4476L28.0347 41.0142C27.7366 41.5885 27.9607 42.296 28.5351 42.594C28.6717 42.6649 28.821 42.7082 28.9743 42.7215C29.1276 42.7347 29.2821 42.7176 29.4288 42.6711C29.5755 42.6247 29.7116 42.5497 29.8294 42.4506C29.9472 42.3516 30.0442 42.2302 30.1151 42.0936L31.9658 38.527C32.2638 37.9526 32.0397 37.2452 31.4653 36.9471ZM25.2659 39.7705L26.2159 38.8124C26.6717 38.3529 26.6685 37.6108 26.209 37.1551C25.7494 36.6994 25.0076 36.7025 24.5517 37.1621L22.7833 38.9454C22.3302 39.4021 22.3302 40.1388 22.7833 40.5956L24.5517 42.379C24.6605 42.489 24.7901 42.5763 24.933 42.6359C25.0758 42.6954 25.2291 42.7259 25.3839 42.7257C25.693 42.7261 25.9897 42.6039 26.209 42.386C26.6685 41.9303 26.6717 41.1882 26.2159 40.7287L25.2659 39.7705ZM37.217 38.9454L35.4486 37.1621C34.9927 36.7025 34.2507 36.6996 33.7913 37.1551C33.3317 37.6108 33.3286 38.3529 33.7842 38.8124L34.7343 39.7705L33.7842 40.7287C33.3285 41.1883 33.3317 41.9303 33.7913 42.386C34.0105 42.604 34.3072 42.7262 34.6164 42.7257C34.7712 42.7259 34.9244 42.6954 35.0673 42.6359C35.2102 42.5763 35.3398 42.489 35.4486 42.379L37.217 40.5956C37.6701 40.1387 37.6701 39.4021 37.217 38.9454Z" fill="white"/>
</svg>
