<svg width="42" height="42" viewBox="0 0 42 42" fill="none" xmlns="http://www.w3.org/2000/svg">
<path d="M24.749 4.75527C26.5487 5.16944 28.2666 5.88162 29.8314 6.86233L31.311 5.38283C31.9592 4.73462 33.0198 4.73462 33.668 5.38283L36.6142 8.32908C37.2625 8.97728 37.2625 10.0379 36.6142 10.6861L35.1343 12.166C36.1148 13.7308 36.8268 15.4485 37.241 17.2481H39.3324C40.249 17.2481 40.9989 17.9981 40.9989 18.9147V23.0815C40.9989 23.998 40.249 24.748 39.3324 24.748H37.2416C36.8275 26.5477 36.1153 28.2655 35.1346 29.8304L36.6142 31.31C37.2625 31.9582 37.2625 33.0189 36.6142 33.667L33.668 36.6133C33.0198 37.2616 31.9592 37.2616 31.311 36.6133L29.8313 35.1336C28.2664 36.1143 26.5487 36.8265 24.749 37.2408V39.3314C24.749 40.248 23.999 40.998 23.0824 40.998H18.9157C17.999 40.998 17.249 40.248 17.249 39.3314V37.2407C15.4493 36.8265 13.7316 36.1143 12.1667 35.1337L10.687 36.6133C10.0388 37.2616 8.97826 37.2616 8.33005 36.6133L5.38372 33.667C4.73551 33.0189 4.73551 31.9582 5.38372 31.31L6.86347 29.8304C5.89738 28.2874 5.17641 26.5753 4.75624 24.748H2.66568C1.74902 24.748 0.999023 23.998 0.999023 23.0815V18.9147C0.999023 17.9981 1.74902 17.2481 2.66568 17.2481H4.75633C5.17059 15.4484 5.88276 13.7306 6.86339 12.1657L5.38372 10.6861C4.73551 10.0379 4.73551 8.97728 5.38372 8.32908L8.33005 5.38283C8.97826 4.73462 10.0388 4.73462 10.687 5.38283L12.1667 6.8625C13.7097 5.8964 15.4218 5.17543 17.249 4.75527V2.66471C17.249 1.74805 17.999 0.998048 18.9157 0.998048H23.0824C23.999 0.998048 24.749 1.74805 24.749 2.66471V4.75527Z" stroke="white" stroke-width="1.6" stroke-miterlimit="22.926" stroke-linecap="round" stroke-linejoin="round"/>
<path d="M26.6773 31.7923C24.9815 32.6864 23.0494 33.1932 20.999 33.1932C14.2639 33.1932 8.80396 27.7333 8.80396 20.9981C8.80396 18.9479 9.31054 17.0161 10.2045 15.3204M15.3207 10.204C17.0167 9.30994 18.9485 8.80303 20.999 8.80303C27.7341 8.80303 33.194 14.263 33.194 20.9981C33.194 23.0484 32.6873 24.98 31.7935 26.6759" stroke="white" stroke-width="1.6" stroke-miterlimit="22.926" stroke-linecap="round" stroke-linejoin="round"/>
<path d="M14.6546 21.9469C13.8998 21.1921 13.8998 19.9682 14.6546 19.2134C15.4095 18.4585 16.6333 18.4585 17.3882 19.2134L19.6185 21.4437L24.6099 16.4523C25.3647 15.6974 26.5886 15.6974 27.3435 16.4523C28.0983 17.2071 28.0983 18.431 27.3435 19.1857L20.9852 25.544C20.2304 26.2988 19.0065 26.2988 18.2517 25.544L14.6546 21.9469Z" stroke="white" stroke-width="1.6" stroke-miterlimit="22.926" stroke-linecap="round" stroke-linejoin="round"/>
<path d="M12.3754 12.3753L12.3758 12.3749" stroke="white" stroke-width="1.6" stroke-miterlimit="2.613" stroke-linecap="round" stroke-linejoin="round"/>
<path d="M29.6222 29.6214L29.6226 29.6209" stroke="white" stroke-width="1.6" stroke-miterlimit="2.613" stroke-linecap="round" stroke-linejoin="round"/>
</svg>
