<svg width="42" height="42" viewBox="0 0 42 42" fill="none" xmlns="http://www.w3.org/2000/svg">
<path d="M29.2328 36.1234H12.7672V26.3673H29.2328V36.1234Z" stroke="white" stroke-width="1.5" stroke-miterlimit="10" stroke-linecap="round" stroke-linejoin="round"/>
<path d="M29.2328 32.8714H12.7672V29.6194H29.2328V32.8714Z" stroke="white" stroke-width="1.5" stroke-miterlimit="10" stroke-linecap="round" stroke-linejoin="round"/>
<path d="M34.1035 27.9933V21.4892C34.1035 20.5912 34.8754 19.8632 35.8277 19.8632C36.7799 19.8632 37.5518 20.5912 37.5518 21.4892V27.9933C37.5518 28.8914 36.7799 29.6193 35.8277 29.6193C34.8754 29.6193 34.1035 28.8914 34.1035 27.9933Z" stroke="white" stroke-width="1.5" stroke-miterlimit="10" stroke-linecap="round" stroke-linejoin="round"/>
<path d="M4.44824 27.9933V21.4892C4.44824 20.5912 5.22014 19.8632 6.17239 19.8632C7.12463 19.8632 7.89653 20.5912 7.89653 21.4892V27.9933C7.89653 28.8914 7.12463 29.6193 6.17239 29.6193C5.22014 29.6193 4.44824 28.8914 4.44824 27.9933Z" stroke="white" stroke-width="1.5" stroke-miterlimit="10" stroke-linecap="round" stroke-linejoin="round"/>
<path d="M0.999939 19.8633V24.7413H4.44823V19.8633C4.44823 11.2422 11.8587 4.25353 21 4.25353C30.1413 4.25353 37.5518 11.2422 37.5518 19.8633V24.7413H39.2759C40.2282 24.7413 41.0001 24.0134 41.0001 23.1153V19.8633C41.0001 9.44621 32.0457 1.00149 21 1.00149C9.95428 1.00149 0.999939 9.44621 0.999939 19.8633Z" stroke="white" stroke-width="1.5" stroke-miterlimit="10" stroke-linecap="round" stroke-linejoin="round"/>
<path d="M23.5862 38.5624C23.5862 39.9094 22.4283 41.0015 21 41.0015C19.5717 41.0015 18.4138 39.9094 18.4138 38.5624C18.4138 37.2154 19.5717 36.1234 21 36.1234C22.4283 36.1234 23.5862 37.2154 23.5862 38.5624Z" stroke="white" stroke-width="1.5" stroke-miterlimit="10" stroke-linecap="round" stroke-linejoin="round"/>
<path d="M18.5431 39.3754H9.62065C4.85952 39.3754 0.999939 35.7355 0.999939 31.2453V24.7413" stroke="white" stroke-width="1.5" stroke-miterlimit="10" stroke-linecap="round" stroke-linejoin="round"/>
<path d="M26.1293 14.9039L24.4052 21.408" stroke="white" stroke-width="1.5" stroke-miterlimit="10" stroke-linecap="round" stroke-linejoin="round"/>
<path d="M29.5776 14.9039H32.9397L30.2705 21.408" stroke="white" stroke-width="1.5" stroke-miterlimit="10" stroke-linecap="round" stroke-linejoin="round"/>
<path d="M21.3879 19.4884H17.681C17.681 19.4884 19.6437 15.5686 19.9675 15.1308C20.295 14.6881 20.6052 14.9642 20.6347 15.3547C20.6642 15.7453 20.62 21.408 20.62 21.408" stroke="white" stroke-width="1.5" stroke-miterlimit="10" stroke-linecap="round" stroke-linejoin="round"/>
<path d="M14.8793 21.3932C14.8793 21.3932 11.5962 21.4323 11.4406 21.3832C11.2852 21.3342 11.69 21.0754 13.8425 18.1679C14.2445 17.6249 14.4657 17.1668 14.5599 16.783L14.5933 16.5362C14.5933 15.6347 13.8202 14.9039 12.8666 14.9039C12.0275 14.9039 11.3282 15.4697 11.1724 16.2198" stroke="white" stroke-width="1.5" stroke-miterlimit="10" stroke-linecap="round" stroke-linejoin="round"/>
</svg>
