<svg width="60" height="60" viewBox="0 0 60 60" fill="none" xmlns="http://www.w3.org/2000/svg">
<path d="M30 17.3438C28.8336 17.3438 27.6733 17.5049 26.5507 17.823C25.9282 17.9993 25.5666 18.647 25.7428 19.2696C25.9191 19.8926 26.5672 20.2552 27.1899 20.078C28.1041 19.8189 29.0498 19.6875 30 19.6875C30.5356 19.6875 31.0621 19.7287 31.5756 19.8079C31.4493 19.9017 31.3367 20.0148 31.2424 20.1462L23.6673 30.7086C23.4719 30.9736 23.3662 31.294 23.3657 31.6233C23.3657 32.4701 24.0546 33.159 24.9014 33.159H27.5285L26.0454 38.4947C25.9373 38.8384 25.9534 39.2091 26.0908 39.5421C22.337 37.9985 19.6875 34.303 19.6875 30C19.6882 28.1898 20.1648 26.4116 21.0695 24.8438C21.3932 24.2835 21.2009 23.5666 20.6406 23.243C20.0803 22.9198 19.3634 23.1116 19.0398 23.6719C17.9295 25.5961 17.3447 27.7784 17.3441 30C17.3441 36.9785 23.0214 42.6562 30.0004 42.6562C36.9792 42.6562 42.6563 36.9785 42.6563 30C42.6563 23.0215 36.9785 17.3438 30 17.3438ZM26.4748 30.8153L30.4903 25.2164L29.8004 27.6988C29.752 27.8729 29.7445 28.0558 29.7785 28.2332C29.8125 28.4107 29.887 28.5779 29.9963 28.7218C30.1056 28.8656 30.2467 28.9823 30.4086 29.0626C30.5704 29.1429 30.7486 29.1847 30.9293 29.1847H33.5248L29.5097 34.7836L30.1996 32.3012C30.248 32.1271 30.2555 31.9442 30.2215 31.7668C30.1876 31.5893 30.113 31.4221 30.0037 31.2782C29.8944 31.1344 29.7533 31.0177 29.5915 30.9374C29.4296 30.8571 29.2514 30.8153 29.0707 30.8153H26.4748ZM30 40.3125C29.4645 40.3125 28.9379 40.2712 28.4244 40.1921C28.5508 40.0983 28.6634 39.9852 28.7576 39.8538L36.3322 29.2918C36.5279 29.0268 36.6338 28.7062 36.6343 28.3767C36.6343 27.5299 35.9454 26.841 35.0986 26.841H32.4715L33.9546 21.5058C34.0627 21.162 34.0467 20.7911 33.9093 20.4579C37.6626 22.0015 40.3125 25.6965 40.3125 30C40.3125 35.6863 35.6863 40.3125 30 40.3125Z" fill="white"/>
<path d="M46.4062 31.1719H56.4844C57.1312 31.1719 57.6562 30.6472 57.6562 30V24.0111C59.0203 23.5277 60 22.2248 60 20.6973C60 18.7587 58.423 17.1817 56.4844 17.1817C54.5457 17.1817 52.9688 18.7587 52.9688 20.6973C52.9688 22.2248 53.9484 23.5277 55.3125 24.0111V28.8281H46.4062V18.8127H49.4531C50.1004 18.8127 50.625 18.2882 50.625 17.6408V12.2927C51.9891 11.809 52.9688 10.5061 52.9688 8.97867C52.9688 7.03992 51.3918 5.46305 49.4531 5.46305C47.5145 5.46305 45.9375 7.03992 45.9375 8.97867C45.9375 10.5061 46.9175 11.809 48.2812 12.2927V16.4689H45.9586C45.1805 14.7744 43.4684 13.5938 41.4844 13.5938H31.1719V11.1955H35.8594C36.5062 11.1955 37.0312 10.671 37.0312 10.0236V6.8298C38.3953 6.34594 39.375 5.04316 39.375 3.51562C39.375 1.57699 37.798 0 35.8594 0C33.9207 0 32.3438 1.57699 32.3438 3.51562C32.3438 5.04316 33.3234 6.34594 34.6875 6.8298V8.85176H30C29.3528 8.85176 28.8281 9.37641 28.8281 10.0236V13.5938H23.9305V6.12715C23.9305 5.48027 23.4059 4.95527 22.7586 4.95527H20.1046C19.6206 3.59156 18.3183 2.61152 16.7907 2.61152C14.8521 2.61152 13.2751 4.18898 13.2751 6.12715C13.2751 8.06578 14.8521 9.64277 16.7907 9.64277C18.3183 9.64277 19.6207 8.66309 20.1046 7.29902H21.5868V13.5938H18.5156C15.8016 13.5938 13.5938 15.8016 13.5938 18.5156V28.5379H8.78906V18.8163C10.1528 18.3325 11.1328 17.0302 11.1328 15.5023C11.1328 13.5635 9.55582 11.9866 7.61719 11.9866C5.67855 11.9866 4.10156 13.5635 4.10156 15.5023C4.10156 17.0297 5.08125 18.3325 6.44531 18.8163V29.7097C6.44531 30.3571 6.96996 30.8816 7.61719 30.8816H13.5938V33.5156H3.51562C2.8684 33.5156 2.34375 34.0403 2.34375 34.6875V40.6764C0.979687 41.1598 0 42.4627 0 43.9902C0 45.9288 1.57699 47.5058 3.51562 47.5058C5.45426 47.5058 7.03125 45.9288 7.03125 43.9902C7.03125 42.4627 6.05156 41.1598 4.6875 40.6764V35.8594H13.5938V39.3416H11.7188C11.0715 39.3416 10.5469 39.8661 10.5469 40.5135V48.8791C9.18281 49.3629 8.20312 50.6658 8.20312 52.1932C8.20312 54.132 9.78012 55.7088 11.7188 55.7088C13.6574 55.7088 15.2344 54.132 15.2344 52.1932C15.2344 50.6658 14.2543 49.3629 12.8906 48.8791V41.6854H13.5938C13.5956 41.6854 13.5969 41.6849 13.5988 41.6849C13.7045 44.306 15.8688 46.4062 18.5156 46.4062H28.8281V48.8045H24.1406C23.4934 48.8045 22.9688 49.329 22.9688 49.9764V53.1702C21.6047 53.6541 20.625 54.9568 20.625 56.4844C20.625 58.423 22.202 60 24.1406 60C26.0793 60 27.6562 58.423 27.6562 56.4844C27.6562 54.9568 26.6766 53.6541 25.3125 53.1702V51.1482H30C30.6472 51.1482 31.1719 50.6236 31.1719 49.9764V46.4062H37.3004V49.3594C37.3004 50.0061 37.8254 50.5312 38.4723 50.5312C39.1195 50.5312 39.6442 50.0061 39.6442 49.3594V46.4062H41.4844C44.198 46.4062 46.4062 44.1984 46.4062 41.4844V40.0529H50.8594C51.3432 41.417 52.6455 42.3967 54.1731 42.3967C56.1117 42.3967 57.6887 40.8197 57.6887 38.8811C57.6887 36.9424 56.1117 35.3654 54.1731 35.3654C52.6455 35.3654 51.3432 36.3455 50.8594 37.7092H46.4062V31.1719ZM56.4844 19.5254C57.1308 19.5254 57.6562 20.051 57.6562 20.6973C57.6562 21.3428 57.1312 21.8682 56.4853 21.8692H56.483C55.8375 21.8682 55.3125 21.3428 55.3125 20.6973C55.3125 20.051 55.838 19.5254 56.4844 19.5254ZM49.4531 7.80668C50.0995 7.80668 50.625 8.33226 50.625 8.97855C50.625 9.62449 50.0995 10.1504 49.4531 10.1504C48.8072 10.1504 48.2812 9.62449 48.2812 8.97855C48.2812 8.33226 48.8072 7.80668 49.4531 7.80668ZM35.8594 2.34375C36.5058 2.34375 37.0312 2.86922 37.0312 3.51562C37.0312 4.16203 36.5058 4.6875 35.8594 4.6875C35.213 4.6875 34.6875 4.16203 34.6875 3.51562C34.6875 2.86922 35.213 2.34375 35.8594 2.34375ZM16.7907 7.29902C16.1445 7.29902 15.6189 6.77355 15.6189 6.12715C15.6189 5.48121 16.1445 4.95527 16.7907 4.95527C17.4367 4.95527 17.9621 5.48086 17.9626 6.12668V6.12809C17.9621 6.77402 17.4367 7.29902 16.7907 7.29902ZM7.61719 14.3303C8.26359 14.3303 8.78906 14.8562 8.78906 15.5021C8.78906 16.1486 8.26359 16.674 7.61719 16.674C6.97078 16.674 6.44531 16.1486 6.44531 15.5021C6.44531 14.8562 6.97078 14.3303 7.61719 14.3303ZM3.51562 45.1621C2.86922 45.1621 2.34375 44.6365 2.34375 43.9902C2.34375 43.3443 2.86922 42.8183 3.51562 42.8183C4.16203 42.8183 4.6875 43.3443 4.6875 43.9902C4.6875 44.6365 4.16203 45.1621 3.51562 45.1621ZM11.7188 53.3652C11.0723 53.3652 10.5469 52.8396 10.5469 52.1933C10.5469 51.5474 11.0723 51.0214 11.7188 51.0214C12.3647 51.0214 12.8906 51.5474 12.8906 52.1933C12.8906 52.8396 12.3652 53.3652 11.7188 53.3652ZM24.1406 57.6562C23.4942 57.6562 22.9688 57.1308 22.9688 56.4844C22.9688 55.838 23.4942 55.3125 24.1406 55.3125C24.787 55.3125 25.3125 55.838 25.3125 56.4844C25.3125 57.1308 24.787 57.6562 24.1406 57.6562ZM54.1736 37.7092C54.8195 37.7092 55.3454 38.2351 55.3454 38.8811C55.3454 39.5275 54.8195 40.0529 54.1736 40.0529C53.5273 40.0529 53.0017 39.5275 53.0017 38.8811C53.0017 38.2351 53.5273 37.7092 54.1736 37.7092ZM44.0625 41.4844C44.0625 42.9057 42.9057 44.0625 41.4844 44.0625H18.5156C17.0943 44.0625 15.9375 42.9057 15.9375 41.4844V18.5156C15.9375 17.0943 17.0943 15.9375 18.5156 15.9375H41.4844C42.9057 15.9375 44.0625 17.0943 44.0625 18.5156V41.4844ZM51.3629 51.8655V49.3593C51.3629 48.712 50.8383 48.1874 50.1911 48.1874H46.5546C45.9073 48.1874 45.3827 48.712 45.3827 49.3593C45.3827 50.0061 45.9073 50.5311 46.5546 50.5311H49.0191V51.8655C47.6555 52.3494 46.6753 53.6517 46.6753 55.1797C46.6753 57.118 48.2529 58.6954 50.1909 58.6954C52.1297 58.6954 53.7066 57.118 53.7066 55.1797C53.7066 53.6522 52.7271 52.3494 51.3628 51.8655H51.3629ZM50.1911 56.3516C49.5451 56.3516 49.0192 55.8257 49.0192 55.1797C49.0192 54.5334 49.5451 54.0079 50.1911 54.0079C50.8373 54.0079 51.3629 54.5334 51.3629 55.1797C51.3629 55.8257 50.8373 56.3516 50.1911 56.3516Z" fill="white"/>
<path d="M43.1877 48.1875H43.156C42.5088 48.1875 41.9842 48.712 41.9842 49.3594C41.9842 50.0061 42.5088 50.5312 43.156 50.5312H43.1877C43.8346 50.5312 44.3596 50.0061 44.3596 49.3594C44.3596 48.712 43.8346 48.1875 43.1877 48.1875ZM22.1719 22.7687C22.4674 22.769 22.7521 22.6574 22.9687 22.4565C23.4476 22.0212 23.4828 21.2796 23.0475 20.8008C22.6121 20.3219 21.8709 20.2867 21.3922 20.722C21.3861 20.7273 21.3801 20.7327 21.3744 20.7384C20.9001 21.1779 20.8721 21.9186 21.3116 22.3934C21.4213 22.5119 21.5544 22.6064 21.7024 22.671C21.8504 22.7356 22.0104 22.7689 22.1719 22.7687Z" fill="white"/>
</svg>
