<svg width="40" height="40" viewBox="0 0 40 40" fill="none" xmlns="http://www.w3.org/2000/svg">
<path d="M38.2584 24.7708C37.5067 23.8747 36.5359 23.1668 35.4107 22.6859C35.9066 21.7736 36.2524 20.6965 36.4154 19.5875C36.5141 19.5295 36.6012 19.4474 36.6709 19.3468C36.7407 19.2462 36.7915 19.1293 36.8201 19.0039C36.9068 18.6236 36.7767 18.2357 36.5195 18.0192C36.4988 16.5132 36.1261 15.2005 35.4366 14.2169C34.6088 13.0363 33.3734 12.4121 31.8637 12.4121C30.3541 12.4121 29.1184 13.0364 28.2908 14.2169C28.0516 14.558 27.8516 14.9395 27.6899 15.3543C27.0454 12.7928 26.2705 11.2493 23.5634 10.2447C24.0507 9.33852 24.3909 8.27255 24.5521 7.17541C24.6508 7.11733 24.7379 7.03528 24.8077 6.93468C24.8774 6.83407 24.9282 6.71719 24.9568 6.59176C25.0431 6.21149 24.913 5.82359 24.6562 5.60707C24.6354 4.10106 24.2628 2.78841 23.573 1.80509C22.7451 0.624193 21.5097 0 20 0C18.4903 0 17.2547 0.624284 16.427 1.80509C15.7376 2.78841 15.3647 4.10106 15.3439 5.60698C15.087 5.82359 14.957 6.21149 15.0437 6.59176C15.0722 6.71717 15.123 6.83402 15.1928 6.93458C15.2625 7.03513 15.3497 7.1171 15.4484 7.17504C15.6168 8.3222 15.9809 9.43516 16.5042 10.3668C16.4174 10.4811 16.3564 10.6192 16.3266 10.7685C16.2969 10.9177 16.2994 11.0734 16.3339 11.2212C16.4288 11.6295 16.7434 11.8974 17.0868 11.8974C17.1552 11.8974 17.2248 11.8867 17.294 11.8644C17.3841 11.8357 17.4768 11.807 17.5714 11.7786C18.0573 12.2465 18.6105 12.5842 19.2188 12.7415V14.0466C17.8827 14.2312 16.7805 14.8982 16.0034 16.0068C15.2212 17.1223 14.8031 18.6188 14.7903 20.3382C14.5028 20.5454 14.3527 20.9569 14.4442 21.3593C14.4751 21.4953 14.5322 21.6211 14.6111 21.7269C14.6899 21.8328 14.7885 21.9159 14.899 21.9698C15.0863 23.3025 15.5072 24.5976 16.1176 25.6719C15.8639 25.7753 15.6139 25.8905 15.368 26.0174C14.5795 24.5399 13.2934 23.3794 11.683 22.6873C12.1793 21.7748 12.5253 20.6969 12.6883 19.5868C12.8793 19.4737 13.031 19.2704 13.0917 19.0086C13.2105 18.4983 13.3145 18.0303 13.4152 17.5781C13.4873 17.2542 13.5556 16.9467 13.6227 16.6548C13.7353 16.1645 13.4888 15.6595 13.0722 15.5274C12.962 15.4922 12.8465 15.486 12.734 15.5091C12.6216 15.5323 12.5148 15.5842 12.4213 15.6614C12.2443 15.1265 12.0066 14.6406 11.7093 14.2169C10.8816 13.036 9.64633 12.4118 8.13664 12.4118C6.62688 12.4118 5.39125 13.0361 4.56359 14.2169C3.87422 15.2006 3.50125 16.5132 3.48055 18.0187C3.22352 18.2354 3.09359 18.6233 3.18023 19.0039C3.20869 19.1293 3.25949 19.2462 3.32927 19.3468C3.39904 19.4473 3.48618 19.5293 3.58492 19.5872C3.74789 20.6973 4.09391 21.7751 4.59016 22.6877C3.465 23.169 2.49422 23.8772 1.74227 24.773C0.602344 26.1308 0 27.8896 0 29.8591V34.4831C0 34.9909 0.349766 35.4025 0.78125 35.4025H10.8145V39.0806C10.8145 39.5884 11.1642 40 11.5958 40H28.4042C28.8358 40 29.1855 39.5884 29.1855 39.0806V35.4025H39.2188C39.6502 35.4025 40 34.9909 40 34.4831V29.8591C40 27.888 39.3977 26.1283 38.2584 24.7707V24.7708ZM27.2275 28.0746C26.8646 27.6421 26.4556 27.249 26.0077 26.8977C26.708 25.6356 27.8967 24.6964 29.4388 24.1947C29.9237 24.6605 30.4758 24.9967 31.0822 25.1536V33.5638H29.1812C29.1352 31.4416 28.4634 29.547 27.2275 28.0746ZM31.8634 23.4146C31.2537 23.4146 30.7059 23.1036 30.2463 22.5975C30.2129 22.55 30.1755 22.5067 30.1345 22.4683C29.5053 21.7076 29.058 20.5748 28.869 19.3914C30.7584 18.9881 32.9688 18.9881 34.858 19.3914C34.6692 20.5741 34.2224 21.7065 33.5934 22.4672C33.5528 22.5056 33.5153 22.549 33.4817 22.5965C33.0222 23.1028 32.4741 23.4146 31.8634 23.4146ZM31.8634 14.251C32.9059 14.251 33.7027 14.6331 34.2313 15.3874C34.6125 15.931 34.8545 16.6806 34.932 17.5397C32.9681 17.149 30.759 17.149 28.7952 17.5397C28.8727 16.6806 29.1147 15.931 29.4959 15.3874C30.0244 14.6331 30.8209 14.251 31.8634 14.251ZM26.5836 17.572C26.6845 18.0264 26.7889 18.496 26.9083 19.0086C26.9372 19.133 26.9881 19.2488 27.0576 19.3485C27.1271 19.4482 27.2137 19.5295 27.3117 19.5872C27.4747 20.6965 27.8205 21.774 28.3164 22.6863C26.6906 23.3766 25.4215 24.5215 24.632 26.0146C24.3865 25.8883 24.1368 25.7733 23.8836 25.67C24.4934 24.5959 24.9139 23.3018 25.101 21.9694C25.3171 21.8635 25.4907 21.6458 25.5557 21.3595C25.6476 20.957 25.4971 20.5458 25.2099 20.3385C25.1969 18.6192 24.7788 17.1227 23.9966 16.0072C23.2196 14.8985 22.1176 14.2316 20.7812 14.047V12.7418C21.3904 12.5842 21.9445 12.2458 22.431 11.7768C25.4938 12.6751 25.744 13.7971 26.5836 17.572ZM20 26.5639C19.2664 26.5639 18.609 26.1869 18.0606 25.5749C18.034 25.5381 18.0049 25.504 17.9736 25.4728C17.2012 24.556 16.6595 23.1679 16.4493 21.7306C18.6807 21.2353 21.3193 21.2353 23.5504 21.7306C23.3402 23.1679 22.7988 24.5553 22.0266 25.4726C21.9959 25.5034 21.9669 25.5368 21.9403 25.5734C21.3919 26.1862 20.734 26.564 20 26.564V26.5639ZM18.3828 10.1854C18.3493 10.138 18.3118 10.0947 18.2709 10.0561C17.6416 9.2955 17.1945 8.16231 17.0053 6.9793C18.8949 6.57595 21.1051 6.57595 22.9947 6.9793C22.8058 8.16231 22.3587 9.29513 21.7295 10.0558C21.6888 10.0938 21.652 10.1369 21.6184 10.1844C21.1587 10.6907 20.6106 11.0025 20 11.0025C19.3899 11.0025 18.8422 10.6911 18.3828 10.1854ZM20 1.83884C21.0425 1.83884 21.8391 2.22095 22.3676 2.97524C22.7487 3.51861 22.9907 4.26812 23.0682 5.12649C21.1048 4.73574 18.8952 4.73574 16.9318 5.12649C17.0093 4.26812 17.2513 3.51861 17.6324 2.97514C18.161 2.22095 18.9575 1.83884 20 1.83884ZM17.2086 17.1769C17.8348 16.2842 18.7738 15.8313 20 15.8313C21.2262 15.8313 22.1652 16.2841 22.7912 17.1769C23.266 17.8543 23.5568 18.7992 23.6298 19.8773C21.3156 19.3943 18.6845 19.3943 16.3702 19.8773C16.4432 18.7992 16.734 17.8543 17.2085 17.177L17.2086 17.1769ZM13.9945 26.899C13.5459 27.2511 13.1363 27.6447 12.7728 28.0774C11.5369 29.5499 10.8648 31.4434 10.8187 33.5638H8.91758V25.1536C9.52484 24.9964 10.0772 24.6598 10.5624 24.1933C12.106 24.6943 13.295 25.6348 13.9945 26.899ZM6.51914 22.5972C6.48555 22.5498 6.44836 22.5071 6.40781 22.4686C5.77812 21.7083 5.33078 20.5748 5.14188 19.3914C7.03125 18.9881 9.24164 18.9881 11.1309 19.3914C10.9421 20.5741 10.4953 21.7065 9.86633 22.4672C9.8257 22.5056 9.7882 22.549 9.75461 22.5965C9.29477 23.1032 8.74664 23.4146 8.13633 23.4146C7.52617 23.4146 6.97852 23.1032 6.51914 22.5973V22.5972ZM8.13633 14.251C9.17875 14.251 9.97555 14.6331 10.5041 15.3874C10.8853 15.931 11.1273 16.6806 11.2048 17.5397C9.24102 17.149 7.03188 17.149 5.06813 17.5397C5.14555 16.6806 5.38758 15.931 5.76875 15.3874C6.29727 14.633 7.09375 14.251 8.13633 14.251ZM1.5625 29.8592C1.5625 27.1347 3.10609 25.0437 5.71258 24.1958C6.19719 24.6609 6.74898 24.9967 7.35531 25.1536V33.5638H1.5625V29.8592ZM27.623 38.1613H20.7812V36.9602C20.7812 36.4524 20.4315 36.0408 20 36.0408C19.5685 36.0408 19.2188 36.4524 19.2188 36.9602V38.1613H12.3767V33.7968C12.3767 31.3256 13.4625 29.3032 15.3708 28.0624C15.3987 28.0469 15.4257 28.0292 15.4516 28.0096C15.9909 27.6694 16.5942 27.3911 17.2552 27.181C17.8299 27.7449 18.49 28.1446 19.2188 28.313V29.6045C19.2188 30.1124 19.5685 30.5239 20 30.5239C20.4315 30.5239 20.7812 30.1124 20.7812 29.6045V28.313C21.5109 28.1446 22.1713 27.7442 22.7463 27.1795C23.4073 27.3893 24.0106 27.6673 24.5495 28.0074C24.5758 28.0268 24.603 28.0447 24.6316 28.0605C26.5384 29.3006 27.6233 31.3237 27.6233 33.7965V38.1613H27.623ZM38.4375 33.5638H32.6449V25.1536C33.2516 24.9967 33.8037 24.6602 34.2889 24.1943C36.8945 25.0408 38.4375 27.1318 38.4375 29.8592V33.5638Z" fill="white"/>
<path d="M20 32.3631C19.5685 32.3631 19.2187 32.7748 19.2187 33.2825C19.2187 33.7904 19.5685 34.202 20 34.202C20.4315 34.202 20.7812 33.7904 20.7812 33.2825V33.2822C20.7812 32.7744 20.4315 32.3631 20 32.3631ZM14.2101 13.7129C14.3979 13.7129 14.5859 13.6339 14.7357 13.4738L14.736 13.4734C15.0552 13.1319 15.0784 12.5503 14.7882 12.1747C14.4983 11.7991 14.0039 11.7714 13.6847 12.113C13.3654 12.4545 13.3417 13.0363 13.6318 13.412C13.7051 13.5069 13.7943 13.5827 13.8939 13.6345C13.9936 13.6864 14.1013 13.7131 14.2102 13.7129H14.2101Z" fill="white"/>
</svg>
