<svg width="91" height="92" viewBox="0 0 91 92" fill="none" xmlns="http://www.w3.org/2000/svg">
<path d="M60 60H-2.98023e-06V-2.38419e-06H48.8372L54.4186 6L60 12V60Z" fill="#8A35F2"/>
<path d="M52.1299 25.6521H74.9754L80.4443 30.3579V69.6412L74.9754 74.3425H52.1299" stroke="white" stroke-width="2.5" stroke-miterlimit="10" stroke-linecap="round" stroke-linejoin="round"/>
<path d="M71.0562 57.2937V66.2722H52.1299M52.1299 33.7273H71.0562V42.6875" stroke="white" stroke-width="2.5" stroke-miterlimit="10" stroke-linecap="round" stroke-linejoin="round"/>
<path d="M52.1297 81.8005C52.1297 86.3265 47.8566 90 42.5914 90C37.7607 90 33.7717 86.912 33.1391 82.9112C24.8554 82.819 18.175 77.0163 18.175 69.8722C18.175 67.5538 18.8774 65.3782 20.1105 63.4932C13.8911 61.3453 9.5 56.114 9.5 49.9977C9.5 43.886 13.8911 38.65 20.1105 36.507C18.8774 34.6172 18.175 32.4416 18.175 30.1234C18.175 22.9793 24.8554 17.1764 33.1391 17.0842C33.7717 13.0835 37.7607 9.99994 42.5914 9.99994C47.8566 9.99994 52.1297 13.6689 52.1297 18.1995V81.8005Z" stroke="white" stroke-width="2.5" stroke-miterlimit="10" stroke-linecap="round" stroke-linejoin="round"/>
<path d="M33.1389 17.0841C35.0262 17.1439 36.9348 17.522 38.7578 18.2363C40.4628 18.9093 41.9533 19.8265 43.1918 20.9187" stroke="white" stroke-width="2.5" stroke-miterlimit="10" stroke-linecap="round" stroke-linejoin="round"/>
<path d="M33.1389 82.9116C35.0819 82.8494 36.9914 82.4578 38.7578 81.7594C40.4139 81.1075 41.9168 80.1998 43.1918 79.0815" stroke="white" stroke-width="2.5" stroke-miterlimit="10" stroke-linecap="round" stroke-linejoin="round"/>
<path d="M80.4497 49.998H89.5001" stroke="white" stroke-width="2.5" stroke-miterlimit="10" stroke-linecap="round" stroke-linejoin="round"/>
<path d="M80.4497 57.6765H89.5001" stroke="white" stroke-width="2.5" stroke-miterlimit="10" stroke-linecap="round" stroke-linejoin="round"/>
<path d="M80.4497 65.3503H89.5001" stroke="white" stroke-width="2.5" stroke-miterlimit="10" stroke-linecap="round" stroke-linejoin="round"/>
<path d="M80.4497 42.3235H89.5001" stroke="white" stroke-width="2.5" stroke-miterlimit="10" stroke-linecap="round" stroke-linejoin="round"/>
<path d="M80.4497 34.6445H89.5001" stroke="white" stroke-width="2.5" stroke-miterlimit="10" stroke-linecap="round" stroke-linejoin="round"/>
<path d="M61.0566 25.6523V17.8722" stroke="white" stroke-width="2.5" stroke-miterlimit="10" stroke-linecap="round" stroke-linejoin="round"/>
<path d="M69.989 25.6523V17.8722" stroke="white" stroke-width="2.5" stroke-miterlimit="10" stroke-linecap="round" stroke-linejoin="round"/>
<path d="M61.0566 82.1277V74.343" stroke="white" stroke-width="2.5" stroke-miterlimit="10" stroke-linecap="round" stroke-linejoin="round"/>
<path d="M69.989 82.1277V74.343" stroke="white" stroke-width="2.5" stroke-miterlimit="10" stroke-linecap="round" stroke-linejoin="round"/>
<path d="M36.7688 49.998H52.1297" stroke="white" stroke-width="2.5" stroke-miterlimit="10" stroke-linecap="round" stroke-linejoin="round"/>
<path d="M31.9488 54.1414C34.6028 54.1414 36.7688 52.2792 36.7688 49.9978C36.7688 47.7163 34.6028 45.8588 31.9488 45.8588C29.2948 45.8588 27.134 47.7163 27.134 49.9978C27.134 52.2792 29.2948 54.1414 31.9488 54.1414Z" stroke="white" stroke-width="2.5" stroke-miterlimit="10" stroke-linecap="round" stroke-linejoin="round"/>
<path d="M43.5674 39.761H52.1298" stroke="white" stroke-width="2.5" stroke-miterlimit="10" stroke-linecap="round" stroke-linejoin="round"/>
<path d="M36.8494 33.9857L43.5673 39.761" stroke="white" stroke-width="2.5" stroke-miterlimit="10" stroke-linecap="round" stroke-linejoin="round"/>
<path d="M30.0346 33.9859C31.9166 35.6037 34.9674 35.6037 36.8492 33.9859C38.7312 32.368 38.7312 29.7456 36.8492 28.1277C34.9674 26.51 31.9166 26.51 30.0346 28.1277C28.1528 29.7456 28.1528 32.368 30.0346 33.9859Z" stroke="white" stroke-width="2.5" stroke-miterlimit="10" stroke-linecap="round" stroke-linejoin="round"/>
<path d="M43.5674 60.2344H52.1298" stroke="white" stroke-width="2.5" stroke-miterlimit="10" stroke-linecap="round" stroke-linejoin="round"/>
<path d="M36.8494 66.0144L43.5673 60.2346" stroke="white" stroke-width="2.5" stroke-miterlimit="10" stroke-linecap="round" stroke-linejoin="round"/>
<path d="M30.0346 66.0146C31.9166 64.3969 34.9674 64.3969 36.8492 66.0146C38.7312 67.6325 38.7312 70.2549 36.8492 71.8682C34.9674 73.486 31.9166 73.486 30.0346 71.8682C28.1528 70.2549 28.1528 67.6325 30.0346 66.0146Z" stroke="white" stroke-width="2.5" stroke-miterlimit="10" stroke-linecap="round" stroke-linejoin="round"/>
<path d="M71.0562 49.998V49.9935" stroke="white" stroke-width="2.5" stroke-miterlimit="10" stroke-linecap="round" stroke-linejoin="round"/>
</svg>
