<svg width="90" height="90" viewBox="0 0 90 90" fill="none" xmlns="http://www.w3.org/2000/svg">
<path d="M60 60H-2.98023e-06V-2.38419e-06H48.8372L54.4186 6L60 12V60Z" fill="#8A35F2"/>
<path d="M71.5838 37.0611C71.1402 36.319 70.1789 36.0773 69.4367 36.5207C68.6946 36.9643 68.4528 37.9257 68.8964 38.6678C69.5537 39.7686 70.1147 40.9242 70.573 42.1217C72.6774 47.6172 72.516 53.6029 70.1181 58.9768C69.2406 60.9434 68.101 62.7409 66.7407 64.334V63.1501C66.7407 57.2529 62.549 52.3168 56.9885 51.1632C58.8171 49.3575 59.9528 46.8515 59.9528 44.0847C59.9528 38.5961 55.4875 34.1309 49.9987 34.1309C44.5101 34.1309 40.0447 38.5961 40.0447 44.0847C40.0447 46.8515 41.1803 49.3575 43.009 51.1632C37.4487 52.3168 33.257 57.2529 33.257 63.1501V64.3375C31.6396 62.4462 30.3409 60.2714 29.4247 57.8784C27.3201 52.3829 27.4818 46.3972 29.8795 41.0232C32.2774 35.6495 36.6246 31.5311 42.1201 29.4267C47.7338 27.2768 53.8289 27.4881 59.2819 30.0209C60.0661 30.3856 60.9971 30.0448 61.3613 29.2606C61.7255 28.4765 61.3852 27.5454 60.601 27.1812C54.3731 24.2886 47.4118 24.0471 41.0003 26.5026C34.7237 28.9061 29.7589 33.6098 27.0202 39.7475C24.2815 45.8851 24.097 52.7218 26.5005 58.9981C28.904 65.2743 33.6079 70.2392 39.7458 72.9778C43.0248 74.4409 46.503 75.175 49.9892 75.175C53.0284 75.1748 56.0738 74.6169 58.997 73.4975C65.2736 71.094 70.2384 66.3903 72.9771 60.2526C75.7158 54.115 75.9003 47.2782 73.4968 41.002C72.974 39.6357 72.3339 38.3171 71.5838 37.0611ZM49.9991 37.262C53.7612 37.262 56.8221 40.3226 56.8221 44.0848C56.8221 47.847 53.7614 50.9076 49.9991 50.9076C46.2369 50.9076 43.176 47.847 43.176 44.0848C43.176 40.3226 46.2368 37.262 49.9991 37.262ZM57.8776 70.5734C52.3821 72.6778 46.3958 72.5162 41.0219 70.1186C39.3696 69.383 37.8135 68.448 36.3883 67.3343V63.15C36.3883 58.1262 40.4756 54.0389 45.4995 54.0389H54.4984C59.5223 54.0389 63.6098 58.1261 63.6098 63.15V67.3356C61.8947 68.6786 59.9697 69.7723 57.8776 70.5734Z" fill="white"/>
<path d="M87.0057 57.6826L81.7497 55.4283C82.3255 52.0884 82.3685 48.715 81.8774 45.3676L87.1863 43.2461C88.2953 42.803 89.165 41.9545 89.6356 40.8573C90.1064 39.76 90.1214 38.5451 89.6784 37.4364L87.4091 31.7578C86.4944 29.4689 83.8886 28.3508 81.5993 29.2656L76.2903 31.3872C74.3392 28.6234 71.9832 26.2087 69.264 24.1854L71.5186 18.9295C72.4902 16.6644 71.4377 14.0309 69.1726 13.0593L63.5526 10.6486C62.4552 10.1779 61.2403 10.1628 60.1316 10.6058C59.0228 11.0489 58.1529 11.897 57.6821 12.9943L55.4275 18.25C52.1018 17.6742 48.7058 17.6311 45.3666 18.1223L43.2451 12.8136C42.802 11.7048 41.9537 10.835 40.8563 10.3643C39.7589 9.89372 38.544 9.87857 37.4352 10.3215L31.7565 12.5908C30.6477 13.0339 29.7778 13.8823 29.3072 14.9795C28.8364 16.0769 28.8214 17.2919 29.2643 18.4004L31.3858 23.709C28.622 25.6603 26.2072 28.0162 24.1837 30.7353L18.9278 28.4808C16.6622 27.5092 14.0292 28.5615 13.0574 30.8267L10.6464 36.4469C9.67467 38.712 10.727 41.3455 12.9924 42.3173L18.2482 44.5717C17.6726 47.8973 17.6295 51.2932 18.1206 54.6323L12.8115 56.7537C10.5227 57.6684 9.40466 60.2745 10.3192 62.5634L12.5887 68.242C13.5032 70.5306 16.1097 71.6483 18.3985 70.7342L23.7075 68.6127C25.653 71.3705 28.0247 73.8014 30.7338 75.8144L28.4793 81.0702C28.0085 82.1673 27.9934 83.3823 28.4365 84.4911C28.8796 85.6 29.728 86.4697 30.8253 86.9405L36.4455 89.3513C37.5426 89.8219 38.7578 89.8372 39.8666 89.3941C40.9753 88.9509 41.8452 88.1027 42.3159 87.0055L44.5705 81.7497C47.8961 82.3256 51.2922 82.3687 54.6314 81.8773L56.753 87.1861C57.1962 88.295 58.0446 89.1647 59.1418 89.6355C59.6982 89.8753 60.2975 89.9993 60.9033 90C61.472 89.9994 62.0353 89.8902 62.563 89.6783L68.2418 87.4091C70.5306 86.4944 71.6486 83.8883 70.7341 81.5994L68.6124 76.2908C71.3703 74.3452 73.8013 71.9735 75.8144 69.2645L81.0705 71.5191C83.3353 72.4906 85.9692 71.4381 86.9408 69.1731L89.3517 63.5531C89.8225 62.4559 89.8376 61.2409 89.3945 60.1322C88.9514 59.0234 88.1032 58.1534 87.0057 57.6826ZM86.4739 62.3187L84.0631 67.9389C83.9942 68.1007 83.8939 68.2473 83.768 68.3701C83.642 68.493 83.493 68.5896 83.3295 68.6544C83.1663 68.7201 82.9917 68.7528 82.8158 68.7506C82.6399 68.7484 82.4662 68.7113 82.3048 68.6416L75.8903 65.89C75.5571 65.7472 75.1846 65.7244 74.8364 65.8256C74.4882 65.9267 74.1859 66.1455 73.9811 66.4447C71.8049 69.6247 69.0656 72.2969 65.8395 74.3872C65.5352 74.5844 65.3088 74.8811 65.1989 75.2267C65.089 75.5723 65.1025 75.9453 65.237 76.282L67.8265 82.7614C68.1004 83.447 67.7655 84.2278 67.0797 84.5017L61.401 86.7709C60.7152 87.0453 59.9345 86.7102 59.6606 86.0244L57.0712 79.545C56.9365 79.2083 56.6892 78.9288 56.3714 78.7542C56.0537 78.5795 55.6851 78.5206 55.3288 78.5873C51.5507 79.2959 47.7241 79.2477 43.9556 78.4431C43.601 78.3673 43.2311 78.4169 42.9091 78.5836C42.587 78.7503 42.3329 79.0236 42.1901 79.3569L39.4386 85.7711C39.3696 85.933 39.2693 86.0795 39.1433 86.2024C39.0174 86.3252 38.8683 86.4219 38.7048 86.4867C38.5416 86.5524 38.367 86.5851 38.1911 86.5829C38.0151 86.5807 37.8414 86.5436 37.6799 86.4738L32.0596 84.063C31.8977 83.9941 31.7511 83.8938 31.6282 83.7678C31.5054 83.6419 31.4088 83.4928 31.3439 83.3292C31.2782 83.1661 31.2455 82.9915 31.2477 82.8156C31.2499 82.6397 31.287 82.466 31.3568 82.3045L34.1082 75.8903C34.2512 75.5571 34.274 75.1846 34.1728 74.8364C34.0716 74.4882 33.8528 74.1859 33.5535 73.9811C30.3736 71.8052 27.7013 69.0659 25.611 65.8398C25.4138 65.5354 25.1171 65.3089 24.7715 65.199C24.4258 65.0892 24.0528 65.1027 23.716 65.2373L17.2366 67.8267C16.5513 68.1003 15.77 67.7659 15.4961 67.08L13.2268 61.4016C12.9529 60.7159 13.2878 59.9351 13.9734 59.6612L20.453 57.0719C20.7897 56.9373 21.0692 56.69 21.2439 56.3722C21.4186 56.0544 21.4775 55.6859 21.4107 55.3295C20.7019 51.5514 20.7505 47.7251 21.5549 43.9567C21.6306 43.6021 21.5808 43.2322 21.4142 42.9102C21.2475 42.5882 20.9742 42.334 20.641 42.1911L14.2267 39.4397C13.5481 39.1486 13.2328 38.3597 13.5239 37.6811L15.9347 32.0611C16.2258 31.3823 17.0146 31.0665 17.6934 31.3583L24.1078 34.1098C24.441 34.2526 24.8135 34.2754 25.1616 34.1742C25.5098 34.0731 25.8121 33.8543 26.0169 33.5551C28.1932 30.3751 30.9324 27.7029 34.1584 25.6126C34.4627 25.4154 34.6892 25.1187 34.799 24.7731C34.9089 24.4275 34.8955 24.0545 34.7609 23.7178L32.1715 17.2386C32.1058 17.0754 32.0731 16.9008 32.0753 16.7249C32.0775 16.5491 32.1145 16.3754 32.1843 16.2139C32.2532 16.052 32.3535 15.9054 32.4794 15.7825C32.6054 15.6597 32.7545 15.5631 32.9181 15.4983L38.5968 13.229C38.76 13.1633 38.9346 13.1305 39.1105 13.1327C39.2865 13.1349 39.4602 13.172 39.6217 13.2418C39.7836 13.3107 39.9302 13.411 40.053 13.537C40.1758 13.6629 40.2724 13.812 40.3372 13.9756L42.9267 20.455C43.0612 20.7917 43.3085 21.0712 43.6263 21.2459C43.9441 21.4206 44.3126 21.4795 44.669 21.4126C48.4474 20.704 52.2738 20.7525 56.0422 21.5569C56.3968 21.6324 56.7666 21.5827 57.0886 21.416C57.4106 21.2494 57.6648 20.9762 57.8079 20.6431L60.5594 14.2289C60.6283 14.067 60.7286 13.9204 60.8546 13.7976C60.9805 13.6747 61.1296 13.5781 61.2932 13.5133C61.4564 13.4475 61.631 13.4149 61.8069 13.4171C61.9828 13.4193 62.1565 13.4564 62.318 13.5262L67.9384 15.937C68.267 16.0779 68.5212 16.3384 68.6539 16.6708C68.7865 17.0031 68.782 17.3669 68.641 17.6954L65.8894 24.1097C65.7465 24.4429 65.7237 24.8154 65.8248 25.1636C65.926 25.5118 66.1449 25.8141 66.4441 26.0189C69.6242 28.195 72.2965 30.9342 74.3867 34.1601C74.5839 34.4645 74.8806 34.6909 75.2262 34.8008C75.5718 34.9107 75.9448 34.8972 76.2816 34.7626L82.7613 32.1733C83.447 31.8998 84.2278 32.2342 84.5017 32.92L86.771 38.5986C87.0449 39.2842 86.7102 40.065 86.0244 40.3389L79.5448 42.9283C79.2081 43.0629 78.9286 43.3102 78.7539 43.6279C78.5792 43.9457 78.5203 44.3142 78.5871 44.6706C79.2959 48.4487 79.2475 52.275 78.4429 56.0434C78.3672 56.398 78.4169 56.7679 78.5835 57.0899C78.7502 57.4119 79.0235 57.6661 79.3567 57.8091L85.7711 60.5605C85.933 60.6294 86.0796 60.7297 86.2024 60.8556C86.3252 60.9815 86.4219 61.1305 86.4868 61.2941C86.5526 61.4572 86.5853 61.6318 86.5831 61.8077C86.5809 61.9836 86.5438 62.1573 86.4739 62.3187Z" fill="white"/>
<path d="M65.7849 34.0282C66.6495 34.0282 67.3504 33.3273 67.3504 32.4627C67.3504 31.5981 66.6495 30.8972 65.7849 30.8972C64.9204 30.8972 64.2195 31.5981 64.2195 32.4627C64.2195 33.3273 64.9204 34.0282 65.7849 34.0282Z" fill="white"/>
<path d="M51.9536 59.2626C51.1875 58.8651 50.2445 59.1639 49.8471 59.93L47.3796 64.6854C46.982 65.4512 47.2808 66.3945 48.0468 66.7918C48.2289 66.8864 48.4279 66.9441 48.6323 66.9618C48.8368 66.9794 49.0427 66.9566 49.2383 66.8946C49.4339 66.8327 49.6154 66.7328 49.7725 66.6007C49.9295 66.4686 50.0589 66.3068 50.1534 66.1246L52.621 61.3692C53.0183 60.6032 52.7196 59.6601 51.9536 59.2626ZM43.6877 63.0271L44.9545 61.7496C45.5622 61.137 45.5579 60.1476 44.9453 59.54C44.3324 58.9323 43.3433 58.9365 42.7355 59.5493L40.3776 61.927C39.7735 62.5359 39.7735 63.5182 40.3776 64.1273L42.7355 66.5051C42.8806 66.6518 43.0534 66.7683 43.2439 66.8476C43.4344 66.927 43.6387 66.9677 43.8451 66.9675C44.2573 66.9679 44.6529 66.805 44.9453 66.5145C45.5579 65.9068 45.5622 64.9175 44.9545 64.3048L43.6877 63.0271ZM59.6226 61.927L57.2647 59.5493C56.6569 58.9365 55.6675 58.9326 55.055 59.54C54.4421 60.1476 54.4381 61.137 55.0456 61.7496L56.3123 63.0271L55.0456 64.3048C54.4379 64.9176 54.4421 65.9068 55.055 66.5145C55.3473 66.8052 55.7429 66.9681 56.1551 66.9675C56.3615 66.9677 56.5659 66.927 56.7563 66.8476C56.9468 66.7683 57.1196 66.6518 57.2647 66.5051L59.6226 64.1273C60.2267 63.5181 60.2267 62.5359 59.6226 61.927Z" fill="white"/>
</svg>
