<svg width="90" height="90" viewBox="0 0 90 90" fill="none" xmlns="http://www.w3.org/2000/svg">
<path d="M60 60H-2.98023e-06V-2.38419e-06H48.8372L54.4186 6L60 12V60Z" fill="#8A35F2"/>
<path d="M50 55.6056C50.8629 55.6056 51.5625 54.9047 51.5625 54.0401C51.5625 53.1755 50.8629 52.4746 50 52.4746C49.1371 52.4746 48.4375 53.1755 48.4375 54.0401C48.4375 54.9047 49.1371 55.6056 50 55.6056Z" fill="white"/>
<path d="M37.7604 53.3182V63.0824C37.7604 65.2991 39.5604 67.1027 41.773 67.1027H58.2271C60.4396 67.1027 62.2398 65.2991 62.2398 63.0824V53.3191C62.2398 48.0389 65.0255 42.5534 67.2641 38.1456C68.6523 35.4123 69.3559 32.4618 69.3559 29.3759C69.3559 24.1777 67.3274 19.297 63.6443 15.6327C59.9568 11.9641 55.061 9.96798 49.8612 10.0004C39.264 10.0752 30.6433 18.7679 30.6443 29.378C30.6446 32.4729 31.3923 35.5521 32.8063 38.2826C35.313 43.1226 37.7604 48.2706 37.7604 53.3182ZM49.883 13.1376C49.9224 13.1373 49.9612 13.1372 50.0005 13.1372C54.3168 13.1372 58.3748 14.8114 61.4379 17.8588C64.5246 20.9298 66.2246 25.0201 66.2246 29.3759C66.2246 31.9626 65.6354 34.4345 64.4733 36.7229C62.1954 41.2085 59.3883 46.7398 59.1299 52.4715H57.3129C56.4482 52.4715 55.7473 53.1738 55.7473 54.0402C55.7473 54.9065 56.4482 55.6088 57.3129 55.6088H59.1087V63.0826C59.1084 63.3167 59.0155 63.5412 58.8502 63.7068C58.685 63.8724 58.461 63.9655 58.2273 63.9658H41.773C41.5393 63.9655 41.3153 63.8724 41.1501 63.7068C40.9848 63.5412 40.8919 63.3167 40.8916 63.0826V55.6088H42.6874C43.5521 55.6088 44.253 54.9065 44.253 54.0402C44.253 53.1738 43.5521 52.4715 42.6874 52.4715H40.8712C40.6321 47.0204 38.1385 41.7668 35.5857 36.8377C34.3849 34.5189 33.7758 32.0091 33.7755 29.3775C33.7748 20.4854 41.0005 13.2002 49.883 13.1376Z" fill="white"/>
<path d="M90 43.5182C90 40.8508 87.8341 38.6807 85.1717 38.6807C82.5094 38.6807 80.3434 40.8508 80.3434 43.5182C80.3434 45.649 81.7261 47.4611 83.6391 48.1045C83.6177 48.2088 83.607 48.3151 83.607 48.4216C83.607 54.808 81.8328 60.9703 78.4645 66.3302C77.9955 66.182 77.5066 66.1068 77.0148 66.1071C74.3525 66.1071 72.1866 68.2772 72.1866 70.9446C72.1858 71.7334 72.3789 72.5103 72.7488 73.2067C67.9814 77.6111 62.1564 80.4916 55.7822 81.5952L51.1164 76.9205C50.8228 76.6264 50.4246 76.4611 50.0094 76.4611C49.5942 76.4611 49.196 76.6264 48.9023 76.9205L44.2341 81.5979C37.853 80.4958 32.0225 77.6145 27.2514 73.2069C27.6212 72.5104 27.8143 71.7335 27.8136 70.9446C27.8136 68.2772 25.6477 66.1071 22.9853 66.1071C22.4803 66.1071 21.9934 66.1855 21.5356 66.3302C18.1673 60.9703 16.3931 54.808 16.3931 48.4216C16.3931 48.313 16.382 48.2069 16.3611 48.1045C18.2742 47.4611 19.6567 45.649 19.6567 43.5182C19.6567 40.8508 17.4908 38.6807 14.8284 38.6807C12.1661 38.6807 10 40.8508 10 43.5182C10 45.6484 11.3819 47.46 13.2941 48.104C13.2726 48.2085 13.2618 48.3149 13.2619 48.4216C13.2619 55.4821 15.2467 62.2929 19.0119 68.2003C18.4543 69.0063 18.1559 69.9638 18.1567 70.9444C18.1567 73.6119 20.3227 75.782 22.985 75.782C23.6892 75.782 24.3581 75.6289 24.962 75.3561C30.3156 80.3635 36.9083 83.6005 44.1314 84.7608L48.9022 89.5407C49.2078 89.8469 49.6086 90 50.0092 90C50.4098 90 50.8106 89.8469 51.1163 89.5407L55.8903 84.7575C63.1041 83.5945 69.6892 80.3588 75.0377 75.3563C75.659 75.6373 76.333 75.7825 77.0147 75.7821C79.677 75.7821 81.843 73.612 81.843 70.9446C81.8439 69.9639 81.5455 69.0064 80.9878 68.2005C84.7531 62.2929 86.7378 55.4823 86.7378 48.4218C86.7378 48.313 86.7267 48.2067 86.7056 48.1042C88.6181 47.46 90 45.6484 90 43.5182ZM14.8283 41.8178C15.7641 41.8178 16.5255 42.5807 16.5255 43.5182C16.5255 44.4558 15.7641 45.2187 14.8283 45.2187C13.8925 45.2187 13.1311 44.4558 13.1311 43.5182C13.1311 42.5805 13.8925 41.8178 14.8283 41.8178ZM21.288 70.9444C21.288 70.0069 22.0494 69.244 22.9852 69.244C23.9209 69.244 24.6823 70.0069 24.6823 70.9444C24.6823 71.882 23.9209 72.6449 22.9852 72.6449C22.0494 72.6449 21.288 71.8822 21.288 70.9444ZM50.0094 86.2134L47.0323 83.2307L50.0094 80.248L52.9862 83.2307L50.0094 86.2134ZM77.0148 72.6449C76.0791 72.6449 75.3177 71.882 75.3177 70.9444C75.3177 70.0069 76.0791 69.244 77.0148 69.244C77.9506 69.244 78.712 70.0069 78.712 70.9444C78.712 71.882 77.9506 72.6449 77.0148 72.6449ZM85.1717 45.2187C84.2359 45.2187 83.4745 44.4558 83.4745 43.5182C83.4745 42.5807 84.2359 41.8178 85.1717 41.8178C86.1075 41.8178 86.8689 42.5807 86.8689 43.5182C86.8689 44.4558 86.1075 45.2187 85.1717 45.2187ZM49.6281 36.4175C52.2905 36.4175 54.4564 34.2474 54.4564 31.58C54.4564 28.9126 52.2905 26.7425 49.6281 26.7425C46.9658 26.7425 44.7998 28.9126 44.7998 31.58C44.7998 34.2474 46.9658 36.4175 49.6281 36.4175ZM49.6281 29.8794C50.5639 29.8794 51.3253 30.6423 51.3253 31.5798C51.3253 32.5174 50.5639 33.2803 49.6281 33.2803C48.6923 33.2803 47.9309 32.5174 47.9309 31.5798C47.9309 30.6423 48.6923 29.8794 49.6281 29.8794ZM56.5452 28.6821H56.5616V35.2811C56.5616 36.1473 57.2625 36.8497 58.1272 36.8497C58.9919 36.8497 59.6928 36.1475 59.6928 35.2811V28.6821H59.7234C60.5881 28.6821 61.2891 27.9798 61.2891 27.1135C61.2891 26.2473 60.5881 25.5449 59.7234 25.5449H59.6928V24.2433C59.6928 23.3772 58.9919 22.6747 58.1272 22.6747C57.2625 22.6747 56.5616 23.377 56.5616 24.2433V25.5449H56.5452C55.6805 25.5449 54.9795 26.2472 54.9795 27.1135C54.9795 27.9797 55.6805 28.6821 56.5452 28.6821ZM41.1905 36.8496C42.0552 36.8496 42.7561 36.1473 42.7561 35.281V24.2433C42.7561 23.3772 42.0552 22.6747 41.1905 22.6747C40.3258 22.6747 39.6248 23.377 39.6248 24.2433V35.281C39.625 36.1473 40.3259 36.8496 41.1905 36.8496ZM76.8719 13.5788C83.0983 17.8151 84.7241 26.3369 80.4959 32.5752C80.0102 33.2918 80.1964 34.2673 80.9116 34.754C81.1704 34.9308 81.4763 35.0253 81.7895 35.0252C82.0453 35.0255 82.2972 34.963 82.5232 34.8432C82.7493 34.7233 82.9425 34.5498 83.0861 34.3378C88.2842 26.6683 86.2855 16.1916 78.6306 10.9837C77.9152 10.4965 76.9416 10.6836 76.4559 11.3999C75.9705 12.1168 76.1566 13.0921 76.8719 13.5788Z" fill="white"/>
<path d="M72.3392 18.2514C75.9428 20.7031 76.8838 25.6353 74.4367 29.246C73.9509 29.9625 74.1372 30.938 74.8523 31.4247C75.1112 31.6015 75.4172 31.6959 75.7305 31.6958C76.2317 31.6958 76.7242 31.455 77.027 31.0084C80.4439 25.9668 79.13 19.0799 74.0981 15.6563C73.3828 15.1693 72.4092 15.3561 71.9234 16.0726C71.4378 16.7894 71.6238 17.7649 72.3392 18.2514ZM18.2103 35.0251C18.5235 35.0253 18.8295 34.9308 19.0883 34.754C19.8036 34.2673 19.9897 33.2918 19.5039 32.5751C15.2759 26.3368 16.9017 17.8151 23.1281 13.5788C23.8434 13.092 24.0295 12.1166 23.5438 11.3999C23.058 10.6834 22.0844 10.4966 21.3691 10.9836C13.7144 16.1916 11.7156 26.6683 16.9138 34.3377C17.0573 34.5498 17.2506 34.7233 17.4766 34.8432C17.7026 34.963 17.9546 35.0255 18.2103 35.0251Z" fill="white"/>
<path d="M22.9729 31.0084C23.1165 31.2204 23.3097 31.394 23.5358 31.5138C23.7618 31.6337 24.0137 31.6961 24.2695 31.6958C24.5827 31.6959 24.8888 31.6014 25.1476 31.4246C25.8629 30.9379 26.049 29.9625 25.5632 29.2459C23.1162 25.6353 24.0571 20.7032 27.6607 18.2514C28.376 17.7647 28.5621 16.7892 28.0764 16.0725C27.5906 15.356 26.617 15.1692 25.9017 15.6563C20.8699 19.0798 19.556 25.9665 22.9729 31.0084Z" fill="white"/>
</svg>
