<svg width="89" height="90" viewBox="0 0 89 90" fill="none" xmlns="http://www.w3.org/2000/svg">
<path d="M60 60H-2.98023e-06V-2.38419e-06H48.8372L54.4186 6L60 12V60Z" fill="#8A35F2"/>
<path d="M48.9935 53.9812C43.5602 53.9812 39.1399 58.4084 39.1399 63.8501C39.1399 69.2943 43.5602 73.7234 48.9935 73.7234C54.4267 73.7234 58.847 69.2943 58.847 63.8501C58.847 58.4085 54.4267 53.9812 48.9935 53.9812ZM48.9935 70.5987C45.2833 70.5987 42.2649 67.5713 42.2649 63.8502C42.2649 60.1315 45.2833 57.106 48.9935 57.106C52.7036 57.106 55.722 60.1313 55.722 63.8502C55.722 67.5713 52.7036 70.5987 48.9935 70.5987Z" fill="white"/>
<path d="M65.4738 58.8961H65.2005C64.8825 57.8505 64.4639 56.8381 63.9505 55.8733L64.1529 55.6705C65.2988 54.5124 65.2988 52.6283 64.1476 51.4652L61.3538 48.6689C60.793 48.1069 60.0454 47.7971 59.249 47.7971C58.4524 47.7971 57.7049 48.1066 57.1462 48.6666L56.9516 48.8607C55.9918 48.3476 54.9845 47.9287 53.944 47.6097V47.335C53.944 45.6927 52.6093 44.3564 50.9687 44.3564H47.0181C45.3774 44.3564 44.0427 45.6927 44.0427 47.335V47.6099C43.0019 47.9291 41.9943 48.3478 41.0338 48.8603L40.8429 48.6688C40.282 48.1066 39.5345 47.7969 38.7379 47.7969C37.9414 47.7969 37.1939 48.1064 36.6339 48.6678L33.8382 51.4658C32.6804 52.6261 32.6804 54.5146 33.8382 55.6749L34.0359 55.873C33.5213 56.8375 33.1021 57.8499 32.7843 58.8959H32.5129C30.8748 58.8959 29.542 60.2303 29.542 61.8702V65.8302C29.542 67.4725 30.8748 68.8087 32.5129 68.8087H32.7843C33.1019 69.8539 33.5207 70.8655 34.0346 71.8294L33.8384 72.0253C32.6806 73.1858 32.6806 75.074 33.8384 76.2345L36.6331 79.0359C37.194 79.5981 37.9415 79.9078 38.7381 79.9078C39.5346 79.9078 40.2821 79.5983 40.8453 79.0337L41.0346 78.8429C41.9943 79.3564 43.0017 79.7751 44.0426 80.0931V80.3698C44.0426 82.0122 45.3773 83.3484 47.0179 83.3484H50.9687C52.6093 83.3484 53.944 82.0122 53.944 80.3698V80.0931C54.9846 79.7754 55.9917 79.3566 56.9507 78.8426L57.1437 79.0361C57.7046 79.5983 58.4522 79.9079 59.2488 79.9079C60.0454 79.9079 60.7929 79.5983 61.3537 79.0361L64.1529 76.2303C65.299 75.0722 65.299 73.188 64.1461 72.0231L63.9519 71.8294C64.4648 70.8653 64.883 69.8538 65.2007 68.8091H65.474C67.1121 68.8091 68.4449 67.4728 68.4449 65.8305V61.8705C68.4447 60.2303 67.1119 58.8961 65.4738 58.8961ZM65.3197 65.6841H63.999C63.6444 65.6841 63.3004 65.8046 63.0235 66.026C62.7465 66.2473 62.5531 66.5562 62.4749 66.902C62.1243 68.4536 61.5191 69.9169 60.676 71.2511C60.4865 71.5511 60.4047 71.9067 60.4442 72.2593C60.4837 72.612 60.642 72.9407 60.8932 73.1914L61.8338 74.13L59.2488 76.7211L58.311 75.7811C58.0596 75.5291 57.7297 75.3705 57.3759 75.3315C57.0221 75.2925 56.6656 75.3755 56.3654 75.5667C55.0383 76.4129 53.5743 77.022 52.0387 77.367C51.6925 77.4449 51.3832 77.6382 51.1616 77.9152C50.94 78.1923 50.8192 78.5365 50.8191 78.8912V80.2234H47.1677V78.8912C47.1677 78.5365 47.0469 78.1923 46.8253 77.9152C46.6036 77.6382 46.2943 77.4449 45.9482 77.367C44.4107 77.0211 42.9447 76.4116 41.6153 75.5654C41.3146 75.3747 40.9578 75.2923 40.6039 75.3319C40.25 75.3715 39.9202 75.5307 39.6692 75.7833L38.7379 76.7209L36.1532 74.13L37.0939 73.1914C37.345 72.9407 37.5034 72.612 37.5429 72.2593C37.5823 71.9067 37.5006 71.5511 37.311 71.2511C36.4618 69.907 35.857 68.4451 35.5131 66.9056C35.4356 66.559 35.2424 66.2491 34.9652 66.027C34.688 65.8049 34.3434 65.6839 33.9882 65.6839H32.6675V62.0206H33.9882C34.3434 62.0206 34.688 61.8996 34.9652 61.6775C35.2424 61.4554 35.4356 61.1455 35.5131 60.7989C35.857 59.2594 36.462 57.7975 37.311 56.4535C37.5003 56.1539 37.5821 55.799 37.5431 55.4469C37.5041 55.0947 37.3465 54.7663 37.0964 54.5155L36.1532 53.5703L38.7381 50.983L39.6717 51.9188C39.9224 52.17 40.2512 52.3285 40.6039 52.368C40.9566 52.4075 41.3123 52.3258 41.6124 52.1363C42.9458 51.2923 44.4135 50.6822 45.9523 50.3322C46.2976 50.2536 46.6059 50.0601 46.8268 49.7833C47.0477 49.5065 47.168 49.1629 47.1681 48.8088V47.481H50.8195V48.8088C50.8194 49.1629 50.9398 49.5065 51.1607 49.7833C51.3815 50.0601 51.6899 50.2537 52.0352 50.3322C53.5721 50.6813 55.0378 51.291 56.3688 52.135C56.6685 52.325 57.0238 52.4073 57.3765 52.3684C57.7292 52.3296 58.0581 52.1718 58.3091 51.9211L59.2491 50.9828L61.8343 53.5702L60.8912 54.5155C60.641 54.7663 60.4834 55.0947 60.4444 55.4469C60.4054 55.799 60.4872 56.1539 60.6765 56.4535C61.5196 57.788 62.1247 59.2509 62.4754 60.8025C62.5535 61.1483 62.747 61.4573 63.024 61.6786C63.3009 61.8999 63.6449 62.0205 63.9994 62.0205H65.3202V65.6841H65.3197Z" fill="white"/>
<path d="M88.9822 19.2869C88.9822 16.9958 87.1189 15.1317 84.8286 15.1317H81.1703C81.1503 14.4937 81.0794 14.0139 80.8325 13.5576C80.4092 12.7756 79.7063 12.5194 79.0858 12.2933C78.8956 12.225 78.7065 12.1534 78.5188 12.0786C68.6936 8.13734 60.9926 10.1786 51.012 15.0359C50.1916 15.4347 49.5223 15.7736 48.9899 16.1434C48.4573 15.7734 47.7874 15.4348 46.9665 15.0364C36.9864 10.1792 29.2867 8.13797 19.4634 12.0786C18.7362 12.37 17.9215 12.5611 17.3967 13.1886C17.1255 13.5128 16.9612 13.9084 16.8847 14.3217C16.8439 14.5419 16.8251 14.7656 16.8144 14.989C16.8098 15.0845 16.838 15.1094 16.7709 15.1317C16.6692 15.1655 16.4973 15.1317 16.3914 15.1317H13.1489C10.8612 15.1317 9 16.9958 9 19.2875L9.01766 65.3961C9.01766 67.6872 10.8789 69.5513 13.1667 69.5513H23.6536C26.1954 81.2289 36.5907 89.9998 48.9934 89.9998C61.396 89.9998 71.7911 81.2289 74.3328 69.5513H84.8464C87.1367 69.5513 89 67.6872 89 65.3955L88.9822 19.2869ZM19.8458 59.3018L19.8847 46.7724C19.8873 45.9095 19.19 45.2079 18.327 45.2051H18.3222C17.4615 45.2051 16.7625 45.9015 16.7597 46.7626L16.7198 59.6376C16.7147 60.526 17.133 61.3763 17.828 61.9272C18.469 62.4354 19.4956 62.7944 20.2945 62.4749C21.2358 62.1016 22.1982 61.784 23.1767 61.5235C23.0979 62.3488 23.0582 63.1773 23.0578 64.0063C23.0578 64.8224 23.0973 65.6291 23.1711 66.4261H13.1667C12.6116 66.4261 12.1427 65.9543 12.1427 65.3952L12.125 19.2869C12.125 18.7284 12.5939 18.2565 13.1491 18.2565H16.7937L16.7597 32.6995C16.7576 33.5623 17.4556 34.2635 18.3186 34.2656H18.3223C19.1836 34.2656 19.8826 33.5684 19.8848 32.7068C19.8848 32.7068 19.9254 15.4495 19.9319 15.2412C19.9434 15.2372 20.3672 15.0828 20.6269 14.9787C29.4193 11.4516 36.1868 13.2653 45.6006 17.8465C45.9602 18.0211 47.2982 18.7625 47.3471 18.8092C47.4279 18.8864 47.4202 18.9804 47.426 19.0911C47.4163 19.3529 47.4309 38.0618 47.4309 38.0618C46.1593 38.1384 44.9117 38.3056 43.6952 38.5598L38.6462 35.1024V31.1751C40.8607 30.502 42.4773 28.4364 42.4773 25.9993C42.4773 23.0178 40.0578 20.5923 37.0837 20.5923C34.1073 20.5923 31.6857 23.0178 31.6857 25.9993C31.6857 28.437 33.3042 30.5029 35.5212 31.1756V35.9035C35.5184 36.165 35.5808 36.423 35.7027 36.6543C35.8247 36.8856 36.0023 37.0828 36.2196 37.2282L39.8196 39.6932C37.3815 40.6204 35.1193 41.9077 33.0945 43.487L27.5336 39.8092V33.2935C27.5336 32.2745 26.834 31.575 25.9711 31.575C25.1081 31.575 24.4086 32.2745 24.4086 33.1373V40.649C24.4086 41.1657 24.6606 41.6226 25.0472 41.907C25.0543 41.9129 25.0636 41.9193 25.072 41.9256C25.0828 41.9332 25.0931 41.9413 25.104 41.9487L25.1089 41.9523L30.6704 45.6306C27.2834 49.0226 24.824 53.3449 23.715 58.1791C22.4009 58.4638 21.1081 58.839 19.8458 59.3018ZM37.0835 28.2817C35.8303 28.2817 34.8106 27.2579 34.8106 25.9993C34.8106 24.7407 35.8303 23.717 37.0835 23.717C38.3345 23.717 39.3521 24.7407 39.3521 25.9993C39.3521 27.2579 38.3345 28.2817 37.0835 28.2817ZM48.9934 86.875C36.4156 86.875 26.1828 76.6163 26.1828 64.0065C26.1828 53.2101 33.6843 44.1382 43.7362 41.752L43.7456 41.7496C45.4651 41.3425 47.2262 41.1372 48.9932 41.1379C60.1504 41.1379 69.4611 49.2107 71.4222 59.8357C71.4238 59.8429 71.4247 59.8504 71.4264 59.8576C71.6776 61.2262 71.8038 62.6149 71.8036 64.0065C71.8038 76.6163 61.571 86.875 48.9934 86.875ZM74.2714 58.1801C73.1627 53.3465 70.7049 49.0237 67.3188 45.6315L72.8818 41.9521C73.3019 41.6743 73.5425 41.2281 73.5766 40.7618C73.5792 40.7367 73.5808 40.7087 73.5814 40.6779C73.5816 40.6706 73.5821 40.6632 73.5821 40.6557L73.5822 40.6488V33.1371C73.5822 32.2743 72.8827 31.5748 72.0197 31.5748C71.1568 31.5748 70.4572 32.2743 70.4572 33.1371V39.809L64.8961 43.4871C62.8143 41.8616 60.4962 40.5639 58.0221 39.6392L61.7901 37.0592C61.9851 36.9257 62.1473 36.7495 62.2643 36.5441C62.3812 36.3386 62.4499 36.1093 62.4651 35.8734C62.4679 35.8423 62.4697 35.8087 62.4697 35.7701V31.0184C64.6866 30.3456 66.3052 28.2806 66.3052 25.8431C66.3052 22.8615 63.8836 20.4361 60.9072 20.4361C57.9332 20.4361 55.5137 22.8615 55.5137 25.8431C55.5137 28.28 57.1304 30.3446 59.3447 31.0179V34.9462L54.1201 38.5237C52.9441 38.2872 51.7531 38.1328 50.5557 38.0617C50.5557 38.0617 50.5616 19.3509 50.5523 19.0914C50.5577 18.9894 50.5499 18.8908 50.6235 18.8172C50.6701 18.7706 52.0187 18.0208 52.3788 17.8458C61.7922 13.2645 68.5607 11.4508 77.3541 14.9783C77.6141 15.0828 78.0366 15.2367 78.0472 15.2406C78.0532 15.4484 78.1366 59.3016 78.1366 59.3016C76.8755 58.8393 75.5841 58.4645 74.2714 58.1801ZM60.9074 28.1254C59.6565 28.1254 58.6388 27.1017 58.6388 25.8431C58.6388 24.5845 59.6565 23.5608 60.9074 23.5608C62.1607 23.5608 63.1804 24.5845 63.1804 25.8431C63.1804 27.1017 62.1607 28.1254 60.9074 28.1254ZM84.8463 66.4265H74.8153C74.8891 65.6294 74.9286 64.8225 74.9286 64.0066C74.9286 63.1696 74.8874 62.3421 74.8097 61.5251C75.7867 61.7853 76.7475 62.1026 77.6874 62.4752C77.871 62.5482 78.0669 62.5857 78.2646 62.5857C79.9174 62.5857 81.262 61.2674 81.262 59.644L81.1825 18.2565H84.8283C85.3858 18.2565 85.8569 18.7284 85.8569 19.2875L85.8749 65.3961C85.8749 65.9546 85.4038 66.4265 84.8463 66.4265Z" fill="white"/>
<path d="M18.3223 38.0168C17.4593 38.0168 16.7598 38.7164 16.7598 39.5792V39.5881C16.7598 40.4509 17.4593 41.3023 18.3223 41.3023C19.1852 41.3023 19.8848 40.442 19.8848 39.5792C19.8848 38.7164 19.1852 38.0168 18.3223 38.0168Z" fill="white"/>
</svg>
