<svg width="90" height="90" viewBox="0 0 90 90" fill="none" xmlns="http://www.w3.org/2000/svg">
<path d="M60 60H-3.8147e-06V-3.8147e-06H48.8372L54.4186 6L60 12V60Z" fill="#8A35F2"/>
<path d="M49.9998 33.125C48.4446 33.125 46.8974 33.3398 45.4007 33.7641C44.5707 33.9991 44.0885 34.8627 44.3235 35.6928C44.5585 36.5234 45.4227 37.0069 46.2529 36.7706C47.4719 36.4252 48.7328 36.25 49.9998 36.25C50.7138 36.25 51.4159 36.305 52.1006 36.4105C51.9321 36.5356 51.782 36.6864 51.6563 36.8616L41.5562 50.9448C41.2956 51.2981 41.1547 51.7254 41.154 52.1644C41.154 53.2934 42.0726 54.212 43.2017 54.212H46.7045L44.727 61.3263C44.5828 61.7845 44.6042 62.2788 44.7874 62.7228C39.7824 60.6647 36.2498 55.7373 36.2498 50C36.2507 47.5864 36.8861 45.2155 38.0924 43.125C38.524 42.378 38.2676 41.4222 37.5206 40.9906C36.7735 40.5597 35.8176 40.8155 35.3862 41.5625C33.9058 44.1281 33.1261 47.0379 33.1252 50C33.1252 59.3047 40.6949 66.875 50.0002 66.875C59.3054 66.875 66.8748 59.3047 66.8748 50C66.8748 40.6953 59.3045 33.125 49.9998 33.125ZM45.2995 51.087L50.6535 43.6219L49.7337 46.9317C49.6691 47.1638 49.6591 47.4077 49.7044 47.6443C49.7497 47.8809 49.8491 48.1038 49.9948 48.2957C50.1406 48.4875 50.3287 48.643 50.5445 48.7501C50.7603 48.8572 50.9979 48.9129 51.2388 48.913H54.6995L49.346 56.3781L50.2659 53.0683C50.3304 52.8362 50.3405 52.5923 50.2951 52.3557C50.2498 52.1191 50.1504 51.8962 50.0047 51.7043C49.859 51.5125 49.6709 51.357 49.4551 51.2499C49.2393 51.1428 49.0016 51.0871 48.7607 51.087H45.2995ZM49.9998 63.75C49.2857 63.75 48.5837 63.695 47.899 63.5895C48.0674 63.4644 48.2176 63.3136 48.3432 63.1384L58.4427 49.0558C58.7036 48.7024 58.8448 48.2749 58.8456 47.8356C58.8456 46.7066 57.927 45.788 56.7979 45.788H53.2951L55.2726 38.6744C55.4167 38.2159 55.3953 37.7215 55.2121 37.2772C60.2165 39.3353 63.7498 44.262 63.7498 50C63.7498 57.5817 57.5815 63.75 49.9998 63.75Z" fill="white"/>
<path d="M71.875 51.5625H85.3125C86.175 51.5625 86.875 50.863 86.875 50V42.0148C88.6937 41.3703 90 39.6331 90 37.5964C90 35.0116 87.8973 32.9089 85.3125 32.9089C82.7277 32.9089 80.625 35.0116 80.625 37.5964C80.625 39.6331 81.9313 41.3703 83.75 42.0148V48.4375H71.875V35.0836H75.9375C76.8005 35.0836 77.5 34.3842 77.5 33.5211V26.3903C79.3187 25.7453 80.625 24.0081 80.625 21.9716C80.625 19.3866 78.5223 17.2841 75.9375 17.2841C73.3527 17.2841 71.25 19.3866 71.25 21.9716C71.25 24.0081 72.5567 25.7453 74.375 26.3903V31.9586H71.2781C70.2406 29.6992 67.9578 28.125 65.3125 28.125H51.5625V24.9273H57.8125C58.675 24.9273 59.375 24.228 59.375 23.3648V19.1064C61.1937 18.4612 62.5 16.7242 62.5 14.6875C62.5 12.1027 60.3973 10 57.8125 10C55.2277 10 53.125 12.1027 53.125 14.6875C53.125 16.7242 54.4313 18.4612 56.25 19.1064V21.8023H50C49.137 21.8023 48.4375 22.5019 48.4375 23.3648V28.125H41.9073V18.1695C41.9073 17.307 41.2078 16.607 40.3448 16.607H36.8061C36.1608 14.7888 34.4244 13.482 32.3877 13.482C29.8028 13.482 27.7002 15.5853 27.7002 18.1695C27.7002 20.7544 29.8028 22.857 32.3877 22.857C34.4244 22.857 36.1609 21.5508 36.8061 19.732H38.7823V28.125H34.6875C31.0688 28.125 28.125 31.0688 28.125 34.6875V48.0505H21.7188V35.0884C23.537 34.4433 24.8438 32.7069 24.8438 30.6697C24.8438 28.0847 22.7411 25.9822 20.1562 25.9822C17.5714 25.9822 15.4688 28.0847 15.4688 30.6697C15.4688 32.7062 16.775 34.4433 18.5938 35.0884V49.613C18.5938 50.4761 19.2933 51.1755 20.1562 51.1755H28.125V54.6875H14.6875C13.8245 54.6875 13.125 55.387 13.125 56.25V64.2352C11.3062 64.8797 10 66.6169 10 68.6536C10 71.2384 12.1027 73.3411 14.6875 73.3411C17.2723 73.3411 19.375 71.2384 19.375 68.6536C19.375 66.6169 18.0688 64.8797 16.25 64.2352V57.8125H28.125V62.4555H25.625C24.762 62.4555 24.0625 63.1548 24.0625 64.018V75.1722C22.2437 75.8172 20.9375 77.5544 20.9375 79.5909C20.9375 82.1759 23.0402 84.2784 25.625 84.2784C28.2098 84.2784 30.3125 82.1759 30.3125 79.5909C30.3125 77.5544 29.0058 75.8172 27.1875 75.1722V65.5805H28.125C28.1275 65.5805 28.1292 65.5798 28.1317 65.5798C28.2727 69.0747 31.1584 71.875 34.6875 71.875H48.4375V75.0727H42.1875C41.3245 75.0727 40.625 75.772 40.625 76.6352V80.8936C38.8062 81.5387 37.5 83.2758 37.5 85.3125C37.5 87.8973 39.6027 90 42.1875 90C44.7723 90 46.875 87.8973 46.875 85.3125C46.875 83.2758 45.5687 81.5387 43.75 80.8936V78.1977H50C50.863 78.1977 51.5625 77.4981 51.5625 76.6352V71.875H59.7339V75.8125C59.7339 76.6748 60.4339 77.375 61.2964 77.375C62.1594 77.375 62.8589 76.6748 62.8589 75.8125V71.875H65.3125C68.9306 71.875 71.875 68.9313 71.875 65.3125V63.4039H77.8125C78.4577 65.2227 80.1941 66.5289 82.2308 66.5289C84.8156 66.5289 86.9183 64.4263 86.9183 61.8414C86.9183 59.2566 84.8156 57.1539 82.2308 57.1539C80.1941 57.1539 78.4577 58.4606 77.8125 60.2789H71.875V51.5625ZM85.3125 36.0339C86.1744 36.0339 86.875 36.7347 86.875 37.5964C86.875 38.457 86.175 39.1577 85.3138 39.1589H85.3106C84.45 39.1577 83.75 38.457 83.75 37.5964C83.75 36.7347 84.4506 36.0339 85.3125 36.0339ZM75.9375 20.4089C76.7994 20.4089 77.5 21.1097 77.5 21.9714C77.5 22.8327 76.7994 23.5339 75.9375 23.5339C75.0762 23.5339 74.375 22.8327 74.375 21.9714C74.375 21.1097 75.0762 20.4089 75.9375 20.4089ZM57.8125 13.125C58.6744 13.125 59.375 13.8256 59.375 14.6875C59.375 15.5494 58.6744 16.25 57.8125 16.25C56.9506 16.25 56.25 15.5494 56.25 14.6875C56.25 13.8256 56.9506 13.125 57.8125 13.125ZM32.3877 19.732C31.5259 19.732 30.8252 19.0314 30.8252 18.1695C30.8252 17.3083 31.5259 16.607 32.3877 16.607C33.2489 16.607 33.9495 17.3078 33.9502 18.1689V18.1708C33.9495 19.032 33.2489 19.732 32.3877 19.732ZM20.1562 29.107C21.0181 29.107 21.7188 29.8083 21.7188 30.6695C21.7188 31.5314 21.0181 32.232 20.1562 32.232C19.2944 32.232 18.5938 31.5314 18.5938 30.6695C18.5938 29.8083 19.2944 29.107 20.1562 29.107ZM14.6875 70.2161C13.8256 70.2161 13.125 69.5153 13.125 68.6536C13.125 67.7923 13.8256 67.0911 14.6875 67.0911C15.5494 67.0911 16.25 67.7923 16.25 68.6536C16.25 69.5153 15.5494 70.2161 14.6875 70.2161ZM25.625 81.1536C24.7631 81.1536 24.0625 80.4528 24.0625 79.5911C24.0625 78.7298 24.7631 78.0286 25.625 78.0286C26.4862 78.0286 27.1875 78.7298 27.1875 79.5911C27.1875 80.4528 26.4869 81.1536 25.625 81.1536ZM42.1875 86.875C41.3256 86.875 40.625 86.1744 40.625 85.3125C40.625 84.4506 41.3256 83.75 42.1875 83.75C43.0494 83.75 43.75 84.4506 43.75 85.3125C43.75 86.1744 43.0494 86.875 42.1875 86.875ZM82.2314 60.2789C83.0927 60.2789 83.7939 60.9802 83.7939 61.8414C83.7939 62.7033 83.0927 63.4039 82.2314 63.4039C81.3697 63.4039 80.6689 62.7033 80.6689 61.8414C80.6689 60.9802 81.3697 60.2789 82.2314 60.2789ZM68.75 65.3125C68.75 67.2077 67.2077 68.75 65.3125 68.75H34.6875C32.7923 68.75 31.25 67.2077 31.25 65.3125V34.6875C31.25 32.7923 32.7923 31.25 34.6875 31.25H65.3125C67.2077 31.25 68.75 32.7923 68.75 34.6875V65.3125ZM78.4839 79.1541V75.8123C78.4839 74.9494 77.7844 74.2498 76.9214 74.2498H72.0728C71.2097 74.2498 70.5103 74.9494 70.5103 75.8123C70.5103 76.6748 71.2097 77.3748 72.0728 77.3748H75.3587V79.1541C73.5406 79.7992 72.2337 81.5356 72.2337 83.573C72.2337 86.1573 74.3372 88.2605 76.9212 88.2605C79.5062 88.2605 81.6087 86.1573 81.6087 83.573C81.6087 81.5362 80.3028 79.7992 78.4837 79.1541H78.4839ZM76.9214 85.1355C76.0602 85.1355 75.3589 84.4342 75.3589 83.573C75.3589 82.7113 76.0602 82.0105 76.9214 82.0105C77.7831 82.0105 78.4839 82.7113 78.4839 83.573C78.4839 84.4342 77.7831 85.1355 76.9214 85.1355Z" fill="white"/>
<path d="M67.5837 74.2499H67.5416C66.6786 74.2499 65.9791 74.9493 65.9791 75.8124C65.9791 76.6747 66.6786 77.3749 67.5416 77.3749H67.5837C68.4462 77.3749 69.1462 76.6747 69.1462 75.8124C69.1462 74.9493 68.4462 74.2499 67.5837 74.2499ZM39.5627 40.3582C39.9567 40.3585 40.3362 40.2098 40.6252 39.9419C41.2636 39.3615 41.3106 38.3727 40.7302 37.7343C40.1497 37.0958 39.1614 37.0488 38.5231 37.6293C38.5149 37.6362 38.507 37.6435 38.4994 37.6511C37.867 38.2371 37.8297 39.2247 38.4156 39.8577C38.5619 40.0157 38.7393 40.1418 38.9367 40.2279C39.1341 40.3141 39.3473 40.3584 39.5627 40.3582Z" fill="white"/>
</svg>
