<svg width="92" height="92" viewBox="0 0 92 92" fill="none" xmlns="http://www.w3.org/2000/svg">
<path d="M60 60H-2.98023e-06V-2.38419e-06H48.8372L54.4186 6L60 12V60Z" fill="#8A35F2"/>
<path d="M10 61.5554H89.9998V14.4443C89.9998 11.9897 88.1798 9.99986 85.9347 9.99986H14.065C11.82 9.99986 10 11.9897 10 14.4443V61.5554Z" stroke="white" stroke-width="2.5" stroke-miterlimit="10" stroke-linecap="round" stroke-linejoin="round"/>
<path d="M65.0404 35.7775C65.0404 44.8594 58.3065 52.2219 49.9998 52.2219C41.6932 52.2219 34.9592 44.8594 34.9592 35.7775C34.9592 26.6955 41.6932 19.333 49.9998 19.333C58.3065 19.333 65.0404 26.6955 65.0404 35.7775Z" stroke="white" stroke-width="2.5" stroke-miterlimit="10" stroke-linecap="round" stroke-linejoin="round"/>
<path d="M89.9998 61.5553V67.7775C89.9998 70.2321 88.1798 72.2219 85.9347 72.2219H14.065C11.82 72.2219 10 70.2321 10 67.7775V61.5553H89.9998Z" stroke="white" stroke-width="2.5" stroke-miterlimit="10" stroke-linecap="round" stroke-linejoin="round"/>
<path d="M63.8207 82H57.3167V72.2222H42.6826V82H36.1786C33.9335 82 32.1135 83.9899 32.1135 86.4444V90H67.8858V86.4444C67.8858 83.9899 66.0658 82 63.8207 82Z" stroke="white" stroke-width="2.5" stroke-miterlimit="10" stroke-linecap="round" stroke-linejoin="round"/>
<path d="M42.6829 82H45.9349" stroke="white" stroke-width="2.5" stroke-miterlimit="10" stroke-linecap="round" stroke-linejoin="round"/>
<path d="M57.3167 82H54.0647" stroke="white" stroke-width="2.5" stroke-miterlimit="10" stroke-linecap="round" stroke-linejoin="round"/>
<path d="M52.6895 29.3743C52.6895 29.3743 51.1588 27.858 48.7994 28.6214C46.6331 29.3222 46.095 32.5058 47.5672 33.746C48.4126 34.4582 49.6846 35.0436 51.3988 35.6944C55.2352 37.1512 53.817 42.9623 49.9144 42.9903C48.3913 43.0011 47.6794 42.8973 46.3416 41.9572" stroke="white" stroke-width="2.5" stroke-miterlimit="10" stroke-linecap="round" stroke-linejoin="round"/>
<path d="M50 43.0669V45.1113" stroke="white" stroke-width="2.5" stroke-miterlimit="10" stroke-linecap="round" stroke-linejoin="round"/>
<path d="M50 26.4446V28.3113" stroke="white" stroke-width="2.5" stroke-miterlimit="10" stroke-linecap="round" stroke-linejoin="round"/>
<path d="M65.1543 16.0302L59.6681 23.1804C57.0535 20.7786 53.681 19.3333 49.9999 19.3333C46.3202 19.3333 42.9462 20.7786 40.3332 23.1804L34.8455 16.0302C38.943 12.2666 44.2292 9.99998 49.9999 9.99998C55.7706 9.99998 61.0568 12.2666 65.1543 16.0302Z" stroke="white" stroke-width="2.5" stroke-miterlimit="10" stroke-linecap="round" stroke-linejoin="round"/>
<path d="M73.5769 35.778C73.5769 40.4749 72.4289 44.8767 70.4208 48.6687L63.0273 44.002C64.307 41.5825 65.0403 38.7736 65.0403 35.778C65.0403 30.7203 62.9525 26.1976 59.668 23.1807L65.1541 16.0305C70.3037 20.7594 73.5769 27.8509 73.5769 35.778Z" stroke="white" stroke-width="2.5" stroke-miterlimit="10" stroke-linecap="round" stroke-linejoin="round"/>
<path d="M70.4208 48.6683C69.0436 51.2706 67.2619 53.5904 65.1558 55.5234L59.668 48.375C61.0114 47.1414 62.1481 45.6615 63.0273 44.0017L70.4208 48.6683Z" stroke="white" stroke-width="2.5" stroke-miterlimit="10" stroke-linecap="round" stroke-linejoin="round"/>
<path d="M65.1561 55.5234C61.0585 59.2888 55.7707 61.5554 50 61.5554C36.9789 61.5554 26.4229 50.0141 26.4229 35.7776C26.4229 27.8505 29.696 20.759 34.8456 16.0301L40.3334 23.1803C37.0472 26.1954 34.9594 30.7199 34.9594 35.7776C34.9594 44.8603 41.6927 52.2221 50 52.2221C53.6813 52.2221 57.0537 50.7768 59.6683 48.375L65.1561 55.5234Z" stroke="white" stroke-width="2.5" stroke-miterlimit="10" stroke-linecap="round" stroke-linejoin="round"/>
<path d="M23.008 50.889C23.008 52.8528 21.552 54.4446 19.7559 54.4446C17.9598 54.4446 16.5039 52.8528 16.5039 50.889C16.5039 48.9253 17.9598 47.3335 19.7559 47.3335C21.552 47.3335 23.008 48.9253 23.008 50.889Z" stroke="white" stroke-width="2.5" stroke-miterlimit="10" stroke-linecap="round" stroke-linejoin="round"/>
<path d="M23.008 20.6664C23.008 22.6301 21.552 24.2219 19.7559 24.2219C17.9598 24.2219 16.5039 22.6301 16.5039 20.6664C16.5039 18.7026 17.9598 17.1108 19.7559 17.1108C21.552 17.1108 23.008 18.7026 23.008 20.6664Z" stroke="white" stroke-width="2.5" stroke-miterlimit="10" stroke-linecap="round" stroke-linejoin="round"/>
<path d="M83.4955 50.889C83.4955 52.8528 82.0396 54.4446 80.2435 54.4446C78.4474 54.4446 76.9915 52.8528 76.9915 50.889C76.9915 48.9253 78.4474 47.3335 80.2435 47.3335C82.0396 47.3335 83.4955 48.9253 83.4955 50.889Z" stroke="white" stroke-width="2.5" stroke-miterlimit="10" stroke-linecap="round" stroke-linejoin="round"/>
<path d="M23.0081 20.6667H30.8129" stroke="white" stroke-width="2.5" stroke-miterlimit="10" stroke-linecap="round" stroke-linejoin="round"/>
<path d="M19.7561 47.3333V40.2221H26.748" stroke="white" stroke-width="2.5" stroke-miterlimit="10" stroke-linecap="round" stroke-linejoin="round"/>
<path d="M80.2438 47.3333V40.2221H73.252" stroke="white" stroke-width="2.5" stroke-miterlimit="10" stroke-linecap="round" stroke-linejoin="round"/>
<path d="M83.496 24.2219H78.2927" stroke="white" stroke-width="2.5" stroke-miterlimit="10" stroke-linecap="round" stroke-linejoin="round"/>
<path d="M83.4958 17.1113H74.8779" stroke="white" stroke-width="2.5" stroke-miterlimit="10" stroke-linecap="round" stroke-linejoin="round"/>
</svg>
